<svg preserveAspectRatio="none" width="100%" height="100%" overflow="visible" style="display: block;" viewBox="0 0 354 608" fill="none" xmlns="http://www.w3.org/2000/svg">
<g id="H2-1">
<path d="M0 152.123L11.9998 8.00648H17.6179L29.4541 152.123H24.4906L21.5997 116.294H7.90898L4.96356 152.123H0ZM9.21805 100.481H20.3452L14.8361 32.0259L9.21805 100.481Z" fill="var(--fill-0, black)"/>
<path d="M48.7416 152.123H43.9962V64.0518H34.3418V48.4392H43.9962V41.4335C43.9962 15.6126 48.1416 0 55.1779 0C57.2506 0 59.4869 1.6013 61.0687 4.20341V19.816C59.3778 17.4141 57.5233 16.013 55.6143 16.013C51.3052 16.013 48.7416 25.6207 48.7416 41.8339V48.4392H60.5233V64.0518H48.7416V152.123Z" fill="var(--fill-0, black)"/>
<path d="M67.0473 64.0518V48.4392H76.7017V18.4149L81.4471 9.40761V48.4392H93.2288V64.0518H81.4471V112.491C81.4471 128.704 84.0107 138.312 88.3197 138.312C90.2288 138.312 92.0833 136.911 93.7742 134.509V150.121C92.1924 152.724 89.9561 154.325 87.8834 154.325C80.8471 154.325 76.7017 138.712 76.7017 112.891V64.0518H67.0473Z" fill="var(--fill-0, black)"/>
<path d="M113.28 155.126C105.425 155.126 99.971 132.507 99.971 100.281C99.971 68.4554 105.535 45.4368 113.28 45.4368C121.353 45.4368 126.643 70.8573 125.607 104.485H104.607C104.989 125.902 108.207 139.113 113.225 139.113C116.989 139.113 119.771 132.307 120.589 120.698H125.389C124.243 141.515 119.443 155.126 113.28 155.126ZM113.225 61.4497C108.753 61.4497 105.644 72.4586 104.771 90.0729H120.807C120.534 72.6588 117.698 61.4497 113.225 61.4497Z" fill="var(--fill-0, black)"/>
<path d="M132.458 152.123V136.51H139.222V64.0518H133.004V48.4392H143.804V67.2544C145.113 56.0453 148.767 47.0381 152.749 47.0381C154.767 47.0381 157.003 48.239 158.64 51.4416V69.4562C156.949 66.2536 154.658 65.0526 152.64 65.0526C147.567 65.0526 143.967 80.2649 143.967 101.882V136.51H153.731V152.123H132.458Z" fill="var(--fill-0, black)"/>
<path d="M198.415 152.123V8.00648H203.215V69.4562H218.705V8.00648H223.505V152.123H218.705V86.0696H203.215V152.123H198.415Z" fill="var(--fill-0, black)"/>
<path d="M243.666 155.126C235.866 155.126 230.575 132.908 230.575 100.281C230.575 67.8549 235.92 45.4368 243.666 45.4368C251.465 45.4368 256.756 67.6547 256.756 100.281C256.756 132.908 251.465 155.126 243.666 155.126ZM243.666 139.113C248.629 139.113 252.011 123.5 252.011 100.281C252.011 77.0623 248.684 61.4497 243.666 61.4497C238.647 61.4497 235.32 77.0623 235.32 100.281C235.32 123.7 238.647 139.113 243.666 139.113Z" fill="var(--fill-0, black)"/>
<path d="M288.098 48.4392V152.123H283.516V138.112C281.88 147.72 278.389 155.126 275.062 155.126C268.68 155.126 264.644 139.513 264.644 114.693V48.4392H269.389V111.49C269.389 128.304 271.789 138.712 275.662 138.712C279.971 138.712 283.353 125.702 283.353 108.688V48.4392H288.098Z" fill="var(--fill-0, black)"/>
<path d="M295.986 152.123V136.51H302.749V64.0518H296.531V48.4392H307.331V67.2544C308.64 56.0453 312.295 47.0381 316.276 47.0381C318.295 47.0381 320.531 48.239 322.167 51.4416V69.4562C320.476 66.2536 318.185 65.0526 316.167 65.0526C311.095 65.0526 307.495 80.2649 307.495 101.882V136.51H317.258V152.123H295.986Z" fill="var(--fill-0, black)"/>
<path d="M342.164 155.126C334.964 155.126 329.728 140.514 329.564 118.896H334.255C334.582 132.107 337.746 140.113 342.382 140.113C346.255 140.113 349.2 133.908 349.2 124.301C349.2 117.295 347.618 112.091 345.218 110.089L337.855 104.685C333.273 101.282 330.764 90.8735 330.764 77.0624C330.764 57.2463 335.237 45.4368 341.837 45.4368C348.327 45.4368 353.182 59.2479 353.4 79.064H348.764C348.491 68.2552 345.546 60.4489 341.727 60.4489C337.964 60.4489 335.564 67.0543 335.564 75.4611C335.564 82.4667 336.873 86.6701 339.164 88.6717L346.746 94.2763C351.327 97.8792 354 107.887 354 123.1C354 142.515 349.309 155.126 342.164 155.126Z" fill="var(--fill-0, black)"/>
<path d="M15.3271 293.842C7.1999 293.842 1.63634 271.624 1.63634 238.998C1.63634 206.972 7.30899 184.153 15.3271 184.153C22.1451 184.153 27.0542 198.365 27.8178 220.183H23.0724C22.1997 207.773 19.3634 200.567 15.3271 200.567C10.1453 200.567 6.38173 216.58 6.38173 238.998C6.38173 261.616 10.1453 277.429 15.3271 277.429C19.3634 277.429 22.2542 269.623 23.0724 256.612H27.8178C27.0542 279.431 22.1997 293.842 15.3271 293.842Z" fill="var(--fill-0, black)"/>
<path d="M47.4325 293.842C39.6327 293.842 34.3418 271.624 34.3418 238.998C34.3418 206.572 39.6872 184.153 47.4325 184.153C55.2324 184.153 60.5233 206.371 60.5233 238.998C60.5233 271.624 55.2324 293.842 47.4325 293.842ZM47.4325 277.829C52.3961 277.829 55.7779 262.217 55.7779 238.998C55.7779 215.779 52.4507 200.166 47.4325 200.166C42.4144 200.166 39.0872 215.779 39.0872 238.998C39.0872 262.417 42.4144 277.829 47.4325 277.829Z" fill="var(--fill-0, black)"/>
<path d="M68.1382 290.84V187.156H72.72V201.167C74.3563 191.559 78.0108 184.153 81.4471 184.153C87.9925 184.153 92.1379 199.766 92.1379 224.586V290.84H87.3925V227.789C87.3925 211.175 84.8834 200.567 80.8471 200.567C76.429 200.567 72.8836 213.777 72.8836 230.591V290.84H68.1382Z" fill="var(--fill-0, black)"/>
<path d="M99.7528 202.769V187.156H109.407V157.132L114.153 148.124V187.156H125.934V202.769H114.153V251.208C114.153 267.421 116.716 277.029 121.025 277.029C122.934 277.029 124.789 275.627 126.48 273.226V288.838C124.898 291.44 122.662 293.042 120.589 293.042C113.553 293.042 109.407 277.429 109.407 251.608V202.769H99.7528Z" fill="var(--fill-0, black)"/>
<path d="M145.985 293.842C138.131 293.842 132.676 271.224 132.676 238.998C132.676 207.172 138.24 184.153 145.985 184.153C154.058 184.153 159.349 209.574 158.312 243.201H137.313C137.695 264.619 140.913 277.829 145.931 277.829C149.694 277.829 152.476 271.024 153.294 259.414H158.094C156.949 280.231 152.149 293.842 145.985 293.842ZM145.931 200.166C141.458 200.166 138.349 211.175 137.476 228.79H153.513C153.24 211.375 150.404 200.166 145.931 200.166Z" fill="var(--fill-0, black)"/>
<path d="M166.255 290.84V187.156H170.836V201.167C172.473 191.559 176.127 184.153 179.564 184.153C186.109 184.153 190.254 199.766 190.254 224.586V290.84H185.509V227.789C185.509 211.175 183 200.567 178.964 200.567C174.545 200.567 171 213.777 171 230.591V290.84H166.255Z" fill="var(--fill-0, black)"/>
<path d="M197.869 202.769V187.156H207.524V157.132L212.269 148.124V187.156H224.051V202.769H212.269V251.208C212.269 267.421 214.833 277.029 219.142 277.029C221.051 277.029 222.905 275.627 224.596 273.226V288.838C223.014 291.44 220.778 293.042 218.705 293.042C211.669 293.042 207.524 277.429 207.524 251.608V202.769H197.869Z" fill="var(--fill-0, black)"/>
<path d="M15.818 338.654C22.4179 338.654 27.8178 358.47 27.8178 393.499C27.8178 428.527 22.4179 448.343 15.818 448.343C11.8907 448.343 8.99987 440.137 7.47262 430.529V466.38H2.72723V341.657H7.30899V357.47C8.78169 347.862 11.5635 338.654 15.818 338.654ZM15.2725 355.468C10.9089 355.468 7.47262 369.079 7.47262 393.499C7.47262 418.319 10.9089 431.329 15.2725 431.329C19.6361 431.329 23.0178 418.519 23.0178 393.499C23.0178 368.679 19.6361 355.468 15.2725 355.468Z" fill="var(--fill-0, black)"/>
<path d="M34.3418 445.341V429.728H41.1054V357.269H34.8873V341.657H45.6871V360.472C46.9962 349.263 50.6507 340.256 54.6324 340.256C56.6506 340.256 58.8869 341.457 60.5233 344.659V362.674C58.8324 359.471 56.5415 358.27 54.5234 358.27C49.4507 358.27 45.8508 373.483 45.8508 395.1V429.728H55.6143V445.341H34.3418Z" fill="var(--fill-0, black)"/>
<path d="M80.138 448.343C72.3382 448.343 67.0473 426.125 67.0473 393.499C67.0473 361.073 72.3927 338.654 80.138 338.654C87.9379 338.654 93.2288 360.872 93.2288 393.499C93.2288 426.125 87.9379 448.343 80.138 448.343ZM80.138 432.33C85.1016 432.33 88.4834 416.718 88.4834 393.499C88.4834 370.28 85.1562 354.667 80.138 354.667C75.1199 354.667 71.7927 370.28 71.7927 393.499C71.7927 416.918 75.1199 432.33 80.138 432.33Z" fill="var(--fill-0, black)"/>
<path d="M111.753 448.343C105.153 448.343 99.7528 428.527 99.7528 393.499C99.7528 358.47 105.153 338.654 111.753 338.654C115.68 338.654 118.571 346.861 120.098 356.469V296.22H124.843V445.341H120.262V429.528C118.789 439.136 116.007 448.343 111.753 448.343ZM112.298 431.53C116.662 431.53 120.098 418.119 120.098 393.499C120.098 368.879 116.662 355.668 112.298 355.668C107.935 355.668 104.553 368.679 104.553 393.499C104.553 418.519 107.935 431.53 112.298 431.53Z" fill="var(--fill-0, black)"/>
<path d="M157.276 341.657V445.341H152.694V431.329C151.058 440.937 147.567 448.343 144.24 448.343C137.858 448.343 133.822 432.731 133.822 407.91V341.657H138.567V404.708C138.567 421.521 140.967 431.93 144.84 431.93C149.149 431.93 152.531 418.919 152.531 401.906V341.657H157.276Z" fill="var(--fill-0, black)"/>
<path d="M178.855 448.343C170.727 448.343 165.164 426.125 165.164 393.499C165.164 361.473 170.836 338.654 178.855 338.654C185.673 338.654 190.582 352.866 191.345 374.684H186.6C185.727 362.274 182.891 355.068 178.855 355.068C173.673 355.068 169.909 371.081 169.909 393.499C169.909 416.117 173.673 431.93 178.855 431.93C182.891 431.93 185.782 424.124 186.6 411.113H191.345C190.582 433.931 185.727 448.343 178.855 448.343Z" fill="var(--fill-0, black)"/>
<path d="M197.869 357.269V341.657H207.524V311.633L212.269 302.625V341.657H224.051V357.269H212.269V405.709C212.269 421.922 214.833 431.53 219.142 431.53C221.051 431.53 222.905 430.128 224.596 427.727V443.339C223.014 445.941 220.778 447.543 218.705 447.543C211.669 447.543 207.524 431.93 207.524 406.109V357.269H197.869Z" fill="var(--fill-0, black)"/>
<path d="M243.666 323.042C241.375 323.042 239.575 316.436 239.575 308.23C239.575 299.823 241.375 293.218 243.666 293.218C245.956 293.218 247.756 299.823 247.756 308.23C247.756 316.436 245.956 323.042 243.666 323.042ZM231.12 445.341V429.728H241.266V357.269H231.666V341.657H246.011V429.728H256.211V445.341H231.12Z" fill="var(--fill-0, black)"/>
<path d="M276.371 448.343C268.571 448.343 263.28 426.125 263.28 393.499C263.28 361.073 268.626 338.654 276.371 338.654C284.171 338.654 289.462 360.872 289.462 393.499C289.462 426.125 284.171 448.343 276.371 448.343ZM276.371 432.33C281.335 432.33 284.716 416.718 284.716 393.499C284.716 370.28 281.389 354.667 276.371 354.667C271.353 354.667 268.026 370.28 268.026 393.499C268.026 416.918 271.353 432.33 276.371 432.33Z" fill="var(--fill-0, black)"/>
<path d="M297.077 445.341V341.657H301.658V355.668C303.295 346.06 306.949 338.654 310.386 338.654C316.931 338.654 321.076 354.267 321.076 379.087V445.341H316.331V382.29C316.331 365.676 313.822 355.068 309.786 355.068C305.367 355.068 301.822 368.278 301.822 385.092V445.341H297.077Z" fill="var(--fill-0, black)"/>
<path d="M15.1089 608C7.90898 608 2.67269 593.388 2.50905 571.771H7.1999C7.52716 584.981 10.6908 592.988 15.3271 592.988C19.1997 592.988 22.1451 586.783 22.1451 577.175C22.1451 570.169 20.5633 564.965 18.1634 562.964L10.7998 557.559C6.21809 554.157 3.70904 543.748 3.70904 529.937C3.70904 510.121 8.1817 498.311 14.7816 498.311C21.2724 498.311 26.1269 512.122 26.3451 531.938H21.7088C21.4361 521.13 18.4906 513.323 14.6725 513.323C10.9089 513.323 8.50897 519.929 8.50897 528.336C8.50897 535.341 9.81804 539.545 12.1089 541.546L19.6906 547.151C24.2724 550.754 26.9451 560.762 26.9451 575.974C26.9451 595.39 22.2542 608 15.1089 608Z" fill="var(--fill-0, black)"/>
<path d="M34.3418 516.926V501.314H43.9962V471.289L48.7416 462.282V501.314H60.5233V516.926H48.7416V565.366C48.7416 581.579 51.3052 591.186 55.6143 591.186C57.5233 591.186 59.3778 589.785 61.0687 587.383V602.996C59.4869 605.598 57.2506 607.199 55.1779 607.199C48.1416 607.199 43.9962 591.587 43.9962 565.766V516.926H34.3418Z" fill="var(--fill-0, black)"/>
<path d="M91.8651 501.314V604.998H87.2834V590.986C85.6471 600.594 82.1562 608 78.829 608C72.4473 608 68.4109 592.387 68.4109 567.567V501.314H73.1563V564.365C73.1563 581.178 75.5563 591.587 79.429 591.587C83.738 591.587 87.1198 578.576 87.1198 561.562V501.314H91.8651Z" fill="var(--fill-0, black)"/>
<path d="M111.753 608C105.153 608 99.7528 588.184 99.7528 553.156C99.7528 518.127 105.153 498.311 111.753 498.311C115.68 498.311 118.571 506.518 120.098 516.126V455.877H124.843V604.998H120.262V589.185C118.789 598.793 116.007 608 111.753 608ZM112.298 591.186C116.662 591.186 120.098 577.776 120.098 553.156C120.098 528.536 116.662 515.325 112.298 515.325C107.935 515.325 104.553 528.336 104.553 553.156C104.553 578.176 107.935 591.186 112.298 591.186Z" fill="var(--fill-0, black)"/>
<path d="M145.549 482.699C143.258 482.699 141.458 476.093 141.458 467.887C141.458 459.48 143.258 452.875 145.549 452.875C147.84 452.875 149.64 459.48 149.64 467.887C149.64 476.093 147.84 482.699 145.549 482.699ZM133.004 604.998V589.385H143.149V516.926H133.549V501.314H147.894V589.385H158.094V604.998H133.004Z" fill="var(--fill-0, black)"/>
<path d="M178.255 608C170.455 608 165.164 585.782 165.164 553.156C165.164 520.729 170.509 498.311 178.255 498.311C186.054 498.311 191.345 520.529 191.345 553.156C191.345 585.782 186.054 608 178.255 608ZM178.255 591.987C183.218 591.987 186.6 576.374 186.6 553.156C186.6 529.937 183.273 514.324 178.255 514.324C173.236 514.324 169.909 529.937 169.909 553.156C169.909 576.575 173.236 591.987 178.255 591.987Z" fill="var(--fill-0, black)"/>
</g>
</svg>
