<svg preserveAspectRatio="none" width="100%" height="100%" overflow="visible" style="display: block;" viewBox="0 0 237 884" fill="none" xmlns="http://www.w3.org/2000/svg">
<g id="Logo">
<path d="M237 17.2881V50.5082L199.757 67.7963H172.671V54.237L194.34 44.0676V23.7287L172.671 13.5593H163.53L141.861 23.7287V50.5082L104.619 67.7963H37.2429L0 50.5082V17.2881L37.2429 0H64.3286V13.5593L42.66 23.7287V44.0676L64.3286 53.5591H70.4229L89.0443 44.0676V17.2881L126.287 0H199.757L237 17.2881Z" fill="var(--fill-0, black)"/>
<path d="M237 134.202V147.761H0V101.66L33.18 81.3211H120.531L140.846 94.8804H143.554L163.869 81.3211H237V94.8804H180.797L160.483 108.44V134.202H237ZM53.4943 134.202H106.989V108.44L86.6743 94.8804H73.8086L53.4943 108.44V134.202Z" fill="var(--fill-0, black)"/>
<path d="M237 178.543V211.763L199.757 229.051H0V215.491H162.514L184.183 205.322V184.983L162.514 174.814H0V161.254H199.757L237 178.543Z" fill="var(--fill-0, black)"/>
<path d="M237 259.832V293.052L199.757 310.34H37.2429L0 293.052V259.832L37.2429 242.544H199.757L237 259.832ZM162.514 296.781L184.183 286.611V266.273L162.514 256.103H74.4857L52.8172 266.273V286.611L74.4857 296.781H162.514Z" fill="var(--fill-0, black)"/>
<path d="M237 379.394V392.954H0V379.394H78.5486V337.361H0V323.801H237V337.361H152.357V379.394H237Z" fill="var(--fill-0, black)"/>
<path d="M237 540.649V554.208H0V508.107L33.18 487.768H120.531L140.846 501.327H143.554L163.869 487.768H237V501.327H180.797L160.483 514.886V540.649H237ZM53.4943 540.649H106.989V514.886L86.6743 501.327H73.8086L53.4943 514.886V540.649Z" fill="var(--fill-0, black)"/>
<path d="M237 567.669V636.822H0V570.72H52.8172V623.262H89.0443V582.585H141.861V623.262H184.183V567.669H237Z" fill="var(--fill-0, black)"/>
<path d="M237 680.995V694.554H52.8172V725.063H0V650.487H52.8172V680.995H237Z" fill="var(--fill-0, black)"/>
<path d="M237 787.827V801.387H0V738.675H52.8172V787.827H100.894V747.15H153.711V787.827H237Z" fill="var(--fill-0, black)"/>
<path d="M237 870.441V884H74.4857L0 856.881V842.305L74.4857 814.848H237V828.407H187.907V870.441H237ZM104.957 870.441H134.413V828.407H104.957L67.7143 842.305V856.881L104.957 870.441Z" fill="var(--fill-0, black)"/>
</g>
</svg>
