<svg preserveAspectRatio="none" width="100%" height="100%" overflow="visible" style="display: block;" viewBox="0 0 218.346 525.61" fill="none" xmlns="http://www.w3.org/2000/svg">
<g id="Text">
<path d="M3.00293 151.873V5.09642H21.7713C32.3566 5.09642 39.0381 21.4049 39.0381 47.0909C39.0381 72.7768 32.3566 88.8814 21.7713 88.8814H9.60939V151.873H3.00293ZM21.7713 22.0165H9.60939V71.9613H21.7713C28.3026 71.9613 32.2815 62.5839 32.2815 47.2947C32.2815 31.3939 28.3777 22.0165 21.7713 22.0165Z" fill="var(--fill-0, black)"/>
<path d="M48.7683 151.873V0H55.2997V59.73C57.627 50.3526 62.5068 43.2176 67.0862 43.2176C76.095 43.2176 81.8006 59.1184 81.8006 84.3966V151.873H75.2692V87.6583C75.2692 70.7382 71.8158 59.9338 66.2604 59.9338C60.1795 59.9338 55.2997 73.3883 55.2997 90.5123V151.873H48.7683Z" fill="var(--fill-0, black)"/>
<path d="M110.299 154.931C99.5636 154.931 92.2815 132.303 92.2815 99.0743C92.2815 66.0495 99.6387 43.2176 110.299 43.2176C121.035 43.2176 128.317 65.8456 128.317 99.0743C128.317 132.303 121.035 154.931 110.299 154.931ZM110.299 138.622C117.131 138.622 121.785 122.722 121.785 99.0743C121.785 75.4269 117.206 59.5261 110.299 59.5261C103.392 59.5261 98.8129 75.4269 98.8129 99.0743C98.8129 122.925 103.392 138.622 110.299 138.622Z" fill="var(--fill-0, black)"/>
<path d="M137.296 62.1762V46.2754H150.584V15.697L157.116 6.52341V46.2754H173.331V62.1762H157.116V111.51C157.116 128.022 160.644 137.807 166.575 137.807C169.202 137.807 171.755 136.38 174.082 133.934V149.835C171.905 152.485 168.827 154.116 165.974 154.116C156.29 154.116 150.584 138.215 150.584 111.917V62.1762H137.296Z" fill="var(--fill-0, black)"/>
<path d="M200.328 154.931C189.593 154.931 182.311 132.303 182.311 99.0743C182.311 66.0495 189.668 43.2176 200.328 43.2176C211.064 43.2176 218.346 65.8456 218.346 99.0743C218.346 132.303 211.064 154.931 200.328 154.931ZM200.328 138.622C207.16 138.622 211.815 122.722 211.815 99.0743C211.815 75.4269 207.235 59.5261 200.328 59.5261C193.422 59.5261 188.842 75.4269 188.842 99.0743C188.842 122.925 193.422 138.622 200.328 138.622Z" fill="var(--fill-0, black)"/>
<path d="M0 188.567H7.05689L20.4199 307.823L33.4827 188.567H40.5396L24.2487 335.344H16.5161L0 188.567Z" fill="var(--fill-0, black)"/>
<path d="M65.2845 210.788C62.1314 210.788 59.654 204.06 59.654 195.702C59.654 187.14 62.1314 180.413 65.2845 180.413C68.4375 180.413 70.915 187.14 70.915 195.702C70.915 204.06 68.4375 210.788 65.2845 210.788ZM48.0176 335.344V319.443H61.9812V245.647H48.7683V229.746H68.5126V319.443H82.5513V335.344H48.0176Z" fill="var(--fill-0, black)"/>
<path d="M108.798 338.402C99.7138 338.402 92.2815 318.22 92.2815 282.545C92.2815 246.87 99.7138 226.688 108.798 226.688C114.203 226.688 118.182 235.047 120.284 244.832V183.471H126.815V335.344H120.509V319.239C118.482 329.024 114.653 338.402 108.798 338.402ZM109.548 321.278C115.554 321.278 120.284 307.619 120.284 282.545C120.284 257.471 115.554 244.016 109.548 244.016C103.543 244.016 98.888 257.267 98.888 282.545C98.888 308.027 103.543 321.278 109.548 321.278Z" fill="var(--fill-0, black)"/>
<path d="M155.914 338.402C145.104 338.402 137.596 315.366 137.596 282.545C137.596 250.132 145.254 226.688 155.914 226.688C167.025 226.688 174.307 252.578 172.881 286.826H143.978C144.503 308.639 148.933 322.093 155.839 322.093C161.019 322.093 164.848 315.162 165.974 303.338H172.581C171.004 324.54 164.398 338.402 155.914 338.402ZM155.839 242.997C149.683 242.997 145.404 254.209 144.203 272.148H166.275C165.899 254.413 161.995 242.997 155.839 242.997Z" fill="var(--fill-0, black)"/>
<path d="M200.328 338.402C189.593 338.402 182.311 315.774 182.311 282.545C182.311 249.52 189.668 226.688 200.328 226.688C211.064 226.688 218.346 249.316 218.346 282.545C218.346 315.774 211.064 338.402 200.328 338.402ZM200.328 322.093C207.16 322.093 211.815 306.192 211.815 282.545C211.815 258.898 207.235 242.997 200.328 242.997C193.422 242.997 188.842 258.898 188.842 282.545C188.842 306.396 193.422 322.093 200.328 322.093Z" fill="var(--fill-0, black)"/>
<path d="M0 525.61L16.5161 378.833H24.2487L40.5396 525.61H33.7079L29.729 489.12H10.8856L6.83167 525.61H0ZM12.6874 473.015H28.0024L20.4199 403.296L12.6874 473.015Z" fill="var(--fill-0, black)"/>
<path d="M65.2845 401.054C62.1314 401.054 59.654 394.326 59.654 385.968C59.654 377.406 62.1314 370.679 65.2845 370.679C68.4375 370.679 70.915 377.406 70.915 385.968C70.915 394.326 68.4375 401.054 65.2845 401.054ZM48.0176 525.61V509.709H61.9812V435.913H48.7683V420.012H68.5126V509.709H82.5513V525.61H48.0176Z" fill="var(--fill-0, black)"/>
</g>
</svg>
