<svg preserveAspectRatio="none" width="100%" height="100%" overflow="visible" style="display: block;" viewBox="0 0 299 532" fill="none" xmlns="http://www.w3.org/2000/svg">
<g id="Right-block">
<path id="Arrow Icon" d="M0 466.674V442.029H40.8203L26.7254 393.034L32.4915 377L54 454.5L32.4915 532L26.7254 515.966L40.9119 466.674H0Z" fill="var(--fill-0, black)"/>
<g id="Text-1">
<g id="Text">
<path d="M78 151.941V5.09869H96.9999C107.716 5.09869 114.48 21.4145 114.48 47.1119C114.48 72.8092 107.716 88.9211 96.9999 88.9211H84.688V151.941H78ZM96.9999 22.0263H84.688V71.9934H96.9999C103.612 71.9934 107.64 62.6118 107.64 47.3158C107.64 31.4079 103.688 22.0263 96.9999 22.0263Z" fill="var(--fill-0, black)"/>
<path d="M124.33 151.941V0H130.942V59.7566C133.298 50.375 138.238 43.2368 142.874 43.2368C151.994 43.2368 157.77 59.1447 157.77 84.4342V151.941H151.158V87.6974C151.158 70.7697 147.662 59.9605 142.038 59.9605C135.882 59.9605 130.942 73.4211 130.942 90.5526V151.941H124.33Z" fill="var(--fill-0, black)"/>
<path d="M186.62 155C175.752 155 168.38 132.362 168.38 99.1184C168.38 66.0789 175.828 43.2368 186.62 43.2368C197.488 43.2368 204.86 65.875 204.86 99.1184C204.86 132.362 197.488 155 186.62 155ZM186.62 138.684C193.536 138.684 198.248 122.776 198.248 99.1184C198.248 75.4605 193.612 59.5526 186.62 59.5526C179.628 59.5526 174.992 75.4605 174.992 99.1184C174.992 122.98 179.628 138.684 186.62 138.684Z" fill="var(--fill-0, black)"/>
<path d="M213.95 62.204V46.2961H227.402V15.704L234.014 6.52632V46.2961H250.43V62.204H234.014V111.559C234.014 128.079 237.586 137.868 243.59 137.868C246.25 137.868 248.834 136.441 251.19 133.993V149.901C248.986 152.553 245.87 154.184 242.982 154.184C233.178 154.184 227.402 138.276 227.402 111.967V62.204H213.95Z" fill="var(--fill-0, black)"/>
<path d="M277.76 155C266.892 155 259.52 132.362 259.52 99.1184C259.52 66.0789 266.968 43.2368 277.76 43.2368C288.628 43.2368 296 65.875 296 99.1184C296 132.362 288.628 155 277.76 155ZM277.76 138.684C284.676 138.684 289.388 122.776 289.388 99.1184C289.388 75.4605 284.752 59.5526 277.76 59.5526C270.768 59.5526 266.132 75.4605 266.132 99.1184C266.132 122.98 270.768 138.684 277.76 138.684Z" fill="var(--fill-0, black)"/>
</g>
<g id="Text_2">
<path d="M78 195.155H85.1427L98.6681 314.419L111.89 195.155H119.032L102.543 341.942H94.7169L78 195.155Z" fill="var(--fill-0, black)"/>
<path d="M144.078 217.377C140.887 217.377 138.379 210.649 138.379 202.29C138.379 193.728 140.887 187 144.078 187C147.269 187 149.777 193.728 149.777 202.29C149.777 210.649 147.269 217.377 144.078 217.377ZM126.601 341.942V326.04H140.735V252.239H127.361V236.337H147.345V326.04H161.555V341.942H126.601Z" fill="var(--fill-0, black)"/>
<path d="M188.12 345C178.926 345 171.403 324.817 171.403 289.139C171.403 253.462 178.926 233.279 188.12 233.279C193.591 233.279 197.618 241.637 199.746 251.423V190.058H206.357V341.942H199.974V325.836C197.922 335.622 194.047 345 188.12 345ZM188.88 327.875C194.959 327.875 199.746 314.215 199.746 289.139C199.746 264.063 194.959 250.608 188.88 250.608C182.801 250.608 178.09 263.859 178.09 289.139C178.09 314.623 182.801 327.875 188.88 327.875Z" fill="var(--fill-0, black)"/>
<path d="M235.809 345C224.868 345 217.269 321.963 217.269 289.139C217.269 256.724 225.019 233.279 235.809 233.279C247.055 233.279 254.426 259.17 252.982 293.421H223.728C224.26 315.235 228.743 328.69 235.733 328.69C240.977 328.69 244.852 321.759 245.992 309.934H252.678C251.083 331.137 244.396 345 235.809 345ZM235.733 249.588C229.503 249.588 225.171 260.801 223.956 278.742H246.296C245.916 261.005 241.964 249.588 235.733 249.588Z" fill="var(--fill-0, black)"/>
<path d="M280.763 345C269.897 345 262.527 322.37 262.527 289.139C262.527 256.112 269.973 233.279 280.763 233.279C291.629 233.279 299 255.908 299 289.139C299 322.37 291.629 345 280.763 345ZM280.763 328.69C287.678 328.69 292.389 312.788 292.389 289.139C292.389 265.49 287.754 249.588 280.763 249.588C273.773 249.588 269.138 265.49 269.138 289.139C269.138 312.992 273.773 328.69 280.763 328.69Z" fill="var(--fill-0, black)"/>
</g>
<g id="Text_3">
<path d="M78 532L94.806 385.158H102.674L119.251 532H112.299L108.251 495.493H89.0767L84.9516 532H78ZM90.91 479.382H106.494L98.7783 409.632L90.91 479.382Z" fill="var(--fill-0, black)"/>
<path d="M144.43 407.388C141.222 407.388 138.701 400.658 138.701 392.296C138.701 383.73 141.222 377 144.43 377C147.639 377 150.159 383.73 150.159 392.296C150.159 400.658 147.639 407.388 144.43 407.388ZM126.86 532V516.092H141.069V442.263H127.624V426.355H147.715V516.092H162V532H126.86Z" fill="var(--fill-0, black)"/>
</g>
</g>
</g>
</svg>
