<svg preserveAspectRatio="none" width="100%" height="100%" overflow="visible" style="display: block;" viewBox="0 0 354.039 608.18" fill="none" xmlns="http://www.w3.org/2000/svg">
<g id="H2-1">
<path d="M0 152.168L12.0011 8.00886H17.6199L29.4574 152.168H24.4933L21.6021 116.329H7.90985L4.96411 152.168H0ZM9.21907 100.511H20.3474L14.8378 32.0354L9.21907 100.511Z" fill="var(--fill-0, black)"/>
<path d="M48.747 152.168H44.0011V64.0708H34.3456V48.4536H44.0011V41.4458C44.0011 15.6173 48.1469 0 55.184 0C57.2569 0 59.4935 1.60177 61.0755 4.20465V19.8219C59.3844 17.4193 57.5297 16.0177 55.6204 16.0177C51.3109 16.0177 48.747 25.6283 48.747 41.8463V48.4536H60.5299V64.0708H48.747V152.168Z" fill="var(--fill-0, black)"/>
<path d="M67.0547 64.0708V48.4536H76.7102V18.4204L81.4561 9.4104V48.4536H93.239V64.0708H81.4561V112.524C81.4561 128.742 84.02 138.353 88.3295 138.353C90.2388 138.353 92.0935 136.951 93.7846 134.549V150.166C92.2026 152.769 89.966 154.371 87.8931 154.371C80.856 154.371 76.7102 138.753 76.7102 112.925V64.0708H67.0547Z" fill="var(--fill-0, black)"/>
<path d="M113.292 155.172C105.437 155.172 99.982 132.547 99.982 100.311C99.982 68.4757 105.546 45.4502 113.292 45.4502C121.366 45.4502 126.657 70.8783 125.621 104.516H104.619C105.001 125.939 108.219 139.154 113.238 139.154C117.002 139.154 119.784 132.346 120.602 120.733H125.403C124.257 141.556 119.457 155.172 113.292 155.172ZM113.238 61.4679C108.765 61.4679 105.655 72.4801 104.782 90.0996H120.82C120.548 72.6803 117.711 61.4679 113.238 61.4679Z" fill="var(--fill-0, black)"/>
<path d="M132.473 152.168V136.551H139.237V64.0708H133.018V48.4536H143.819V67.2744C145.129 56.062 148.784 47.052 152.766 47.052C154.784 47.052 157.021 48.2533 158.657 51.4569V69.4768C156.966 66.2733 154.675 65.0719 152.657 65.0719C147.583 65.0719 143.983 80.2887 143.983 101.913V136.551H153.748V152.168H132.473Z" fill="var(--fill-0, black)"/>
<path d="M198.437 152.168V8.00886H203.237V69.4768H218.729V8.00886H223.53V152.168H218.729V86.0952H203.237V152.168H198.437Z" fill="var(--fill-0, black)"/>
<path d="M243.692 155.172C235.892 155.172 230.6 132.947 230.6 100.311C230.6 67.875 235.946 45.4502 243.692 45.4502C251.493 45.4502 256.785 67.6748 256.785 100.311C256.785 132.947 251.493 155.172 243.692 155.172ZM243.692 139.154C248.656 139.154 252.039 123.537 252.039 100.311C252.039 77.0852 248.711 61.4679 243.692 61.4679C238.674 61.4679 235.346 77.0852 235.346 100.311C235.346 123.737 238.674 139.154 243.692 139.154Z" fill="var(--fill-0, black)"/>
<path d="M288.13 48.4536V152.168H283.548V138.153C281.911 147.763 278.42 155.172 275.092 155.172C268.71 155.172 264.673 139.554 264.673 114.727V48.4536H269.419V111.523C269.419 128.342 271.819 138.753 275.692 138.753C280.002 138.753 283.384 125.739 283.384 108.72V48.4536H288.13Z" fill="var(--fill-0, black)"/>
<path d="M296.018 152.168V136.551H302.783V64.0708H296.564V48.4536H307.365V67.2744C308.674 56.062 312.329 47.052 316.311 47.052C318.33 47.052 320.566 48.2533 322.203 51.4569V69.4768C320.512 66.2733 318.221 65.0719 316.202 65.0719C311.129 65.0719 307.529 80.2887 307.529 101.913V136.551H317.293V152.168H296.018Z" fill="var(--fill-0, black)"/>
<path d="M342.202 155.172C335.001 155.172 329.764 140.555 329.6 118.931H334.292C334.619 132.146 337.783 140.155 342.42 140.155C346.293 140.155 349.239 133.948 349.239 124.337C349.239 117.33 347.657 112.124 345.256 110.122L337.892 104.716C333.31 101.312 330.8 90.9005 330.8 77.0852C330.8 57.2633 335.274 45.4502 341.874 45.4502C348.366 45.4502 353.221 59.2655 353.439 79.0874H348.802C348.529 68.2755 345.584 60.4668 341.765 60.4668C338.001 60.4668 335.601 67.0741 335.601 75.4834C335.601 82.4912 336.91 86.6958 339.201 88.698L346.784 94.3042C351.366 97.9082 354.039 107.919 354.039 123.136C354.039 142.558 349.348 155.172 342.202 155.172Z" fill="var(--fill-0, black)"/>
<path d="M15.3287 293.929C7.20069 293.929 1.63652 271.705 1.63652 239.069C1.63652 207.033 7.30979 184.208 15.3287 184.208C22.1476 184.208 27.0571 198.424 27.8208 220.248H23.0749C22.2021 207.834 19.3655 200.626 15.3287 200.626C10.1464 200.626 6.38243 216.644 6.38243 239.069C6.38243 261.694 10.1464 277.511 15.3287 277.511C19.3655 277.511 22.2567 269.703 23.0749 256.688H27.8208C27.0571 279.513 22.2021 293.929 15.3287 293.929Z" fill="var(--fill-0, black)"/>
<path d="M47.4378 293.929C39.637 293.929 34.3456 271.705 34.3456 239.069C34.3456 206.633 39.6916 184.208 47.4378 184.208C55.2385 184.208 60.5299 206.433 60.5299 239.069C60.5299 271.705 55.2385 293.929 47.4378 293.929ZM47.4378 277.912C52.4019 277.912 55.784 262.294 55.784 239.069C55.784 215.843 52.4564 200.226 47.4378 200.226C42.4191 200.226 39.0915 215.843 39.0915 239.069C39.0915 262.495 42.4191 277.912 47.4378 277.912Z" fill="var(--fill-0, black)"/>
<path d="M68.1457 290.926V187.211H72.728V201.227C74.3645 191.616 78.0194 184.208 81.4561 184.208C88.0022 184.208 92.148 199.825 92.148 224.653V290.926H87.4021V227.856C87.4021 211.238 84.8928 200.626 80.856 200.626C76.4374 200.626 72.8916 213.841 72.8916 230.659V290.926H68.1457Z" fill="var(--fill-0, black)"/>
<path d="M99.7638 202.829V187.211H109.419V157.178L114.165 148.168V187.211H125.948V202.829H114.165V251.282C114.165 267.5 116.729 277.111 121.039 277.111C122.948 277.111 124.803 275.709 126.494 273.307V288.924C124.912 291.527 122.675 293.128 120.602 293.128C113.565 293.128 109.419 277.511 109.419 251.683V202.829H99.7638Z" fill="var(--fill-0, black)"/>
<path d="M146.001 293.929C138.146 293.929 132.691 271.304 132.691 239.069C132.691 207.234 138.255 184.208 146.001 184.208C154.075 184.208 159.366 209.636 158.33 243.273H137.328C137.71 264.697 140.928 277.912 145.947 277.912C149.711 277.912 152.493 271.104 153.311 259.491H158.112C156.966 280.314 152.166 293.929 146.001 293.929ZM145.947 200.226C141.474 200.226 138.364 211.238 137.492 228.857H153.529C153.257 211.438 150.42 200.226 145.947 200.226Z" fill="var(--fill-0, black)"/>
<path d="M166.273 290.926V187.211H170.855V201.227C172.492 191.616 176.147 184.208 179.583 184.208C186.129 184.208 190.275 199.825 190.275 224.653V290.926H185.529V227.856C185.529 211.238 183.02 200.626 178.983 200.626C174.565 200.626 171.019 213.841 171.019 230.659V290.926H166.273Z" fill="var(--fill-0, black)"/>
<path d="M197.891 202.829V187.211H207.547V157.178L212.292 148.168V187.211H224.075V202.829H212.292V251.282C212.292 267.5 214.856 277.111 219.166 277.111C221.075 277.111 222.93 275.709 224.621 273.307V288.924C223.039 291.527 220.802 293.128 218.729 293.128C211.692 293.128 207.547 277.511 207.547 251.683V202.829H197.891Z" fill="var(--fill-0, black)"/>
<path d="M15.8197 338.755C22.4203 338.755 27.8208 358.577 27.8208 393.616C27.8208 428.654 22.4203 448.476 15.8197 448.476C11.892 448.476 9.00086 440.267 7.47344 430.656V466.518H2.72753V341.758H7.30979V357.576C8.78266 347.965 11.5647 338.755 15.8197 338.755ZM15.2742 355.573C10.9101 355.573 7.47344 369.189 7.47344 393.616C7.47344 418.443 10.9101 431.457 15.2742 431.457C19.6382 431.457 23.0204 418.643 23.0204 393.616C23.0204 368.788 19.6382 355.573 15.2742 355.573Z" fill="var(--fill-0, black)"/>
<path d="M34.3456 445.473V429.856H41.1099V357.375H34.8911V341.758H45.6922V360.579C47.0014 349.367 50.6563 340.357 54.6385 340.357C56.6569 340.357 58.8934 341.558 60.5299 344.762V362.781C58.8389 359.578 56.5477 358.377 54.5294 358.377C49.4562 358.377 45.8558 373.593 45.8558 395.217V429.856H55.6204V445.473H34.3456Z" fill="var(--fill-0, black)"/>
<path d="M80.1469 448.476C72.3461 448.476 67.0547 426.252 67.0547 393.616C67.0547 361.18 72.4007 338.755 80.1469 338.755C87.9476 338.755 93.239 360.979 93.239 393.616C93.239 426.252 87.9476 448.476 80.1469 448.476ZM80.1469 432.458C85.111 432.458 88.4931 416.841 88.4931 393.616C88.4931 370.39 85.1655 354.773 80.1469 354.773C75.1282 354.773 71.8006 370.39 71.8006 393.616C71.8006 417.041 75.1282 432.458 80.1469 432.458Z" fill="var(--fill-0, black)"/>
<path d="M111.765 448.476C105.164 448.476 99.7638 428.654 99.7638 393.616C99.7638 358.577 105.164 338.755 111.765 338.755C115.693 338.755 118.584 346.964 120.111 356.575V296.308H124.857V445.473H120.275V429.655C118.802 439.266 116.02 448.476 111.765 448.476ZM112.31 431.658C116.675 431.658 120.111 418.243 120.111 393.616C120.111 368.988 116.675 355.774 112.31 355.774C107.946 355.774 104.564 368.788 104.564 393.616C104.564 418.643 107.946 431.658 112.31 431.658Z" fill="var(--fill-0, black)"/>
<path d="M157.293 341.758V445.473H152.711V431.457C151.075 441.068 147.583 448.476 144.256 448.476C137.873 448.476 133.837 432.859 133.837 408.031V341.758H138.583V404.828C138.583 421.647 140.983 432.058 144.856 432.058C149.165 432.058 152.548 419.044 152.548 402.025V341.758H157.293Z" fill="var(--fill-0, black)"/>
<path d="M178.874 448.476C170.746 448.476 165.182 426.252 165.182 393.616C165.182 361.58 170.855 338.755 178.874 338.755C185.693 338.755 190.603 352.971 191.366 374.795H186.62C185.748 362.381 182.911 355.173 178.874 355.173C173.692 355.173 169.928 371.191 169.928 393.616C169.928 416.241 173.692 432.058 178.874 432.058C182.911 432.058 185.802 424.249 186.62 411.235H191.366C190.603 434.06 185.748 448.476 178.874 448.476Z" fill="var(--fill-0, black)"/>
<path d="M197.891 357.375V341.758H207.547V311.725L212.292 302.715V341.758H224.075V357.375H212.292V405.829C212.292 422.047 214.856 431.658 219.166 431.658C221.075 431.658 222.93 430.256 224.621 427.853V443.471C223.039 446.073 220.802 447.675 218.729 447.675C211.692 447.675 207.547 432.058 207.547 406.229V357.375H197.891Z" fill="var(--fill-0, black)"/>
<path d="M243.692 323.138C241.401 323.138 239.601 316.53 239.601 308.321C239.601 299.912 241.401 293.305 243.692 293.305C245.984 293.305 247.784 299.912 247.784 308.321C247.784 316.53 245.984 323.138 243.692 323.138ZM231.146 445.473V429.856H241.292V357.375H231.691V341.758H246.038V429.856H256.239V445.473H231.146Z" fill="var(--fill-0, black)"/>
<path d="M276.402 448.476C268.601 448.476 263.309 426.252 263.309 393.616C263.309 361.18 268.655 338.755 276.402 338.755C284.202 338.755 289.494 360.979 289.494 393.616C289.494 426.252 284.202 448.476 276.402 448.476ZM276.402 432.458C281.366 432.458 284.748 416.841 284.748 393.616C284.748 370.39 281.42 354.773 276.402 354.773C271.383 354.773 268.055 370.39 268.055 393.616C268.055 417.041 271.383 432.458 276.402 432.458Z" fill="var(--fill-0, black)"/>
<path d="M297.109 445.473V341.758H301.692V355.774C303.328 346.163 306.983 338.755 310.42 338.755C316.966 338.755 321.112 354.372 321.112 379.2V445.473H316.366V382.403C316.366 365.785 313.856 355.173 309.82 355.173C305.401 355.173 301.855 368.388 301.855 385.206V445.473H297.109Z" fill="var(--fill-0, black)"/>
<path d="M15.1105 608.18C7.90985 608.18 2.67298 593.564 2.50933 571.94H7.20069C7.52799 585.155 10.6919 593.164 15.3287 593.164C19.2018 593.164 22.1476 586.957 22.1476 577.346C22.1476 570.339 20.5656 565.133 18.1654 563.131L10.801 557.725C6.21878 554.321 3.70945 543.909 3.70945 530.094C3.70945 510.272 8.1826 498.459 14.7832 498.459C21.2748 498.459 26.1298 512.274 26.348 532.096H21.7112C21.4384 521.284 18.4927 513.476 14.6741 513.476C10.9101 513.476 8.50991 520.083 8.50991 528.492C8.50991 535.5 9.81912 539.705 12.1103 541.707L19.6928 547.313C24.2751 550.917 26.948 560.928 26.948 576.145C26.948 595.566 22.2567 608.18 15.1105 608.18Z" fill="var(--fill-0, black)"/>
<path d="M34.3456 517.08V501.462H44.0011V471.429L48.747 462.419V501.462H60.5299V517.08H48.747V565.533C48.747 581.751 51.3109 591.362 55.6204 591.362C57.5297 591.362 59.3844 589.96 61.0755 587.558V603.175C59.4935 605.778 57.2569 607.38 55.184 607.38C48.1469 607.38 44.0011 591.762 44.0011 565.934V517.08H34.3456Z" fill="var(--fill-0, black)"/>
<path d="M91.8753 501.462V605.177H87.293V591.162C85.6565 600.772 82.1653 608.18 78.8377 608.18C72.4552 608.18 68.4185 592.563 68.4185 567.736V501.462H73.1644V564.532C73.1644 581.351 75.5646 591.762 79.4377 591.762C83.7472 591.762 87.1294 578.748 87.1294 561.729V501.462H91.8753Z" fill="var(--fill-0, black)"/>
<path d="M111.765 608.18C105.164 608.18 99.7638 588.358 99.7638 553.32C99.7638 518.281 105.164 498.459 111.765 498.459C115.693 498.459 118.584 506.668 120.111 516.279V456.012H124.857V605.177H120.275V589.36C118.802 598.97 116.02 608.18 111.765 608.18ZM112.31 591.362C116.675 591.362 120.111 577.947 120.111 553.32C120.111 528.693 116.675 515.478 112.31 515.478C107.946 515.478 104.564 528.492 104.564 553.32C104.564 578.347 107.946 591.362 112.31 591.362Z" fill="var(--fill-0, black)"/>
<path d="M145.565 482.842C143.274 482.842 141.474 476.235 141.474 468.025C141.474 459.616 143.274 453.009 145.565 453.009C147.856 453.009 149.656 459.616 149.656 468.025C149.656 476.235 147.856 482.842 145.565 482.842ZM133.018 605.177V589.56H143.165V517.08H133.564V501.462H147.911V589.56H158.112V605.177H133.018Z" fill="var(--fill-0, black)"/>
<path d="M178.274 608.18C170.473 608.18 165.182 585.956 165.182 553.32C165.182 520.884 170.528 498.459 178.274 498.459C186.075 498.459 191.366 520.684 191.366 553.32C191.366 585.956 186.075 608.18 178.274 608.18ZM178.274 592.163C183.238 592.163 186.62 576.545 186.62 553.32C186.62 530.094 183.293 514.477 178.274 514.477C173.256 514.477 169.928 530.094 169.928 553.32C169.928 576.746 173.256 592.163 178.274 592.163Z" fill="var(--fill-0, black)"/>
</g>
</svg>
