<svg preserveAspectRatio="none" width="100%" height="100%" overflow="visible" style="display: block;" viewBox="0 0 218 525" fill="none" xmlns="http://www.w3.org/2000/svg">
<g id="Text">
<path d="M2.99817 151.697V5.09051H21.7368C32.3053 5.09051 38.9763 21.3801 38.9763 47.0362C38.9763 72.6923 32.3053 88.7783 21.7368 88.7783H9.59415V151.697H2.99817ZM21.7368 21.991H9.59415V71.8778H21.7368C28.2578 71.8778 32.2304 62.5113 32.2304 47.2398C32.2304 31.3575 28.3327 21.991 21.7368 21.991Z" fill="var(--fill-0, black)"/>
<path d="M48.691 151.697V0H55.2121V59.6606C57.5356 50.2941 62.4077 43.1674 66.9799 43.1674C75.9744 43.1674 81.6709 59.0498 81.6709 84.2987V151.697H75.1499V87.5566C75.1499 70.6561 71.702 59.8643 66.1554 59.8643C60.0841 59.8643 55.2121 73.3032 55.2121 90.4072V151.697H48.691Z" fill="var(--fill-0, black)"/>
<path d="M110.124 154.751C99.4058 154.751 92.1353 132.149 92.1353 98.9593C92.1353 65.9729 99.4808 43.1674 110.124 43.1674C120.843 43.1674 128.113 65.7692 128.113 98.9593C128.113 132.149 120.843 154.751 110.124 154.751ZM110.124 138.462C116.945 138.462 121.592 122.579 121.592 98.9593C121.592 75.3394 117.02 59.457 110.124 59.457C103.229 59.457 98.6563 75.3394 98.6563 98.9593C98.6563 122.783 103.229 138.462 110.124 138.462Z" fill="var(--fill-0, black)"/>
<path d="M137.079 62.1041V46.2217H150.346V15.6787L156.867 6.51584V46.2217H173.057V62.1041H156.867V111.38C156.867 127.873 160.389 137.647 166.311 137.647C168.934 137.647 171.483 136.222 173.806 133.778V149.661C171.633 152.308 168.559 153.937 165.711 153.937C156.042 153.937 150.346 138.054 150.346 111.787V62.1041H137.079Z" fill="var(--fill-0, black)"/>
<path d="M200.011 154.751C189.292 154.751 182.022 132.149 182.022 98.9593C182.022 65.9729 189.367 43.1674 200.011 43.1674C210.729 43.1674 218 65.7692 218 98.9593C218 132.149 210.729 154.751 200.011 154.751ZM200.011 138.462C206.832 138.462 211.479 122.579 211.479 98.9593C211.479 75.3394 206.907 59.457 200.011 59.457C193.115 59.457 188.543 75.3394 188.543 98.9593C188.543 122.783 193.115 138.462 200.011 138.462Z" fill="var(--fill-0, black)"/>
<path d="M0 188.348H7.04571L20.3876 307.466L33.4296 188.348H40.4753L24.2103 334.955H16.49L0 188.348Z" fill="var(--fill-0, black)"/>
<path d="M65.181 210.543C62.0329 210.543 59.5594 203.824 59.5594 195.475C59.5594 186.923 62.0329 180.204 65.181 180.204C68.3291 180.204 70.8026 186.923 70.8026 195.475C70.8026 203.824 68.3291 210.543 65.181 210.543ZM47.9415 334.955V319.072H61.883V245.362H48.691V229.48H68.404V319.072H82.4205V334.955H47.9415Z" fill="var(--fill-0, black)"/>
<path d="M108.625 338.009C99.5557 338.009 92.1353 317.851 92.1353 282.217C92.1353 246.584 99.5557 226.425 108.625 226.425C114.022 226.425 117.995 234.774 120.093 244.548V183.258H126.614V334.955H120.318V318.869C118.294 328.643 114.472 338.009 108.625 338.009ZM109.375 320.905C115.371 320.905 120.093 307.262 120.093 282.217C120.093 257.172 115.371 243.733 109.375 243.733C103.378 243.733 98.7313 256.968 98.7313 282.217C98.7313 307.67 103.378 320.905 109.375 320.905Z" fill="var(--fill-0, black)"/>
<path d="M155.667 338.009C144.874 338.009 137.378 315 137.378 282.217C137.378 249.842 145.024 226.425 155.667 226.425C166.761 226.425 174.031 252.285 172.607 286.493H143.75C144.274 308.281 148.697 321.719 155.592 321.719C160.764 321.719 164.587 314.796 165.711 302.986H172.307C170.733 324.163 164.137 338.009 155.667 338.009ZM155.592 242.715C149.446 242.715 145.174 253.914 143.974 271.833H166.011C165.636 254.118 161.739 242.715 155.592 242.715Z" fill="var(--fill-0, black)"/>
<path d="M200.011 338.009C189.292 338.009 182.022 315.407 182.022 282.217C182.022 249.231 189.367 226.425 200.011 226.425C210.729 226.425 218 249.027 218 282.217C218 315.407 210.729 338.009 200.011 338.009ZM200.011 321.719C206.832 321.719 211.479 305.837 211.479 282.217C211.479 258.597 206.907 242.715 200.011 242.715C193.115 242.715 188.543 258.597 188.543 282.217C188.543 306.041 193.115 321.719 200.011 321.719Z" fill="var(--fill-0, black)"/>
<path d="M0 525L16.49 378.394H24.2103L40.4753 525H33.6545L29.6819 488.552H10.8684L6.82084 525H0ZM12.6673 472.466H27.958L20.3876 402.828L12.6673 472.466Z" fill="var(--fill-0, black)"/>
<path d="M65.181 400.588C62.0329 400.588 59.5594 393.869 59.5594 385.52C59.5594 376.968 62.0329 370.249 65.181 370.249C68.3291 370.249 70.8026 376.968 70.8026 385.52C70.8026 393.869 68.3291 400.588 65.181 400.588ZM47.9415 525V509.118H61.883V435.407H48.691V419.525H68.404V509.118H82.4205V525H47.9415Z" fill="var(--fill-0, black)"/>
</g>
</svg>
