<svg width="374" height="447" viewBox="0 0 374 447" fill="none" xmlns="http://www.w3.org/2000/svg">
<mask id="path-1-outside-1_225_463" maskUnits="userSpaceOnUse" x="0" y="0" width="374" height="447" fill="black">
<rect fill="white" width="374" height="447"/>
<path d="M46.0561 185.351C37.4956 185.351 32 156.264 32 111.149C32 65.2426 37.3899 36.9468 46.0561 36.9468C52.82 36.9468 57.6286 55.5469 58.1571 84.0405H53.2427C52.7671 64.8469 50.0193 53.3703 46.0033 53.3703C40.1378 53.3703 36.703 74.7405 36.703 111.149C36.703 147.162 40.2434 168.928 46.0033 168.928C50.2307 168.928 52.8728 157.056 53.5598 134.894H58.4213C57.6815 166.356 53.0313 185.351 46.0561 185.351Z"/>
<path d="M73.8835 185.351C68.4936 185.351 64.8474 173.479 64.8474 155.67C64.8474 135.487 69.2862 122.23 76.8955 118.866L83.3423 116.096V115.304C83.3423 100.464 80.8587 91.9554 76.7898 91.9554C73.038 91.9554 69.9732 100.068 69.6561 110.951H65.2173C65.6401 90.7682 70.3959 76.9171 76.8955 76.9171C83.5008 76.9171 87.7811 91.9554 87.7811 115.898V151.911C87.7811 160.221 87.8339 169.126 87.9925 182.383H83.5537V164.179C81.44 178.03 78.1109 185.351 73.8835 185.351ZM69.339 154.681C69.339 163.981 71.3999 170.313 74.5176 170.313C79.6433 170.313 83.3423 155.275 83.3423 133.509V129.947L76.9484 133.113C72.034 135.487 69.339 143.007 69.339 154.681Z"/>
<path d="M95.5811 182.383V79.8852H100.02V87.998C100.865 81.0724 102.609 76.9171 104.829 76.9171C107.048 76.9171 108.897 82.0618 109.743 89.7788C110.694 82.2597 112.808 76.9171 115.08 76.9171C118.938 76.9171 121.58 87.6022 121.58 103.432V182.383H116.982V106.004C116.982 98.2874 115.767 93.1426 114.023 93.1426C112.279 93.1426 110.905 98.881 110.905 106.004V182.383H106.308V106.004C106.308 98.2874 105.04 93.1426 103.19 93.1426C101.5 93.1426 100.178 98.6831 100.178 106.004V182.383H95.5811Z"/>
<path d="M141.322 76.9171C147.716 76.9171 152.948 96.5065 152.948 131.134C152.948 165.762 147.716 185.351 141.322 185.351C137.517 185.351 134.717 177.239 133.237 167.741V222.947H128.64V79.8852H133.079V95.5171C134.505 86.0192 137.2 76.9171 141.322 76.9171ZM140.794 93.5384C136.566 93.5384 133.237 106.994 133.237 131.134C133.237 155.67 136.566 168.532 140.794 168.532C145.021 168.532 148.297 155.868 148.297 131.134C148.297 106.598 145.021 93.5384 140.794 93.5384Z"/>
<path d="M168.938 185.351C163.548 185.351 159.902 173.479 159.902 155.67C159.902 135.487 164.341 122.23 171.95 118.866L178.397 116.096V115.304C178.397 100.464 175.913 91.9554 171.845 91.9554C168.093 91.9554 165.028 100.068 164.711 110.951H160.272C160.695 90.7682 165.451 76.9171 171.95 76.9171C178.556 76.9171 182.836 91.9554 182.836 115.898V151.911C182.836 160.221 182.889 169.126 183.047 182.383H178.608V164.179C176.495 178.03 173.166 185.351 168.938 185.351ZM164.394 154.681C164.394 163.981 166.455 170.313 169.572 170.313C174.698 170.313 178.397 155.275 178.397 133.509V129.947L172.003 133.113C167.089 135.487 164.394 143.007 164.394 154.681Z"/>
<path d="M203.635 61.483C201.416 61.483 199.672 54.9532 199.672 46.8405C199.672 38.5298 201.416 32 203.635 32C205.854 32 207.598 38.5298 207.598 46.8405C207.598 54.9532 205.854 61.483 203.635 61.483ZM191.481 182.383V166.949H201.31V95.3192H192.01V79.8852H205.907V166.949H215.789V182.383H191.481Z"/>
<path d="M235.32 222.947C227.446 222.947 222.532 212.064 222.532 194.849C222.532 186.341 224.065 176.843 226.337 170.313C224.223 166.553 223.008 160.024 223.008 152.109C223.008 143.996 224.487 135.883 226.918 130.541C225.544 125 224.751 118.075 224.751 109.962C224.751 90.3724 229.402 76.9171 236.165 76.9171C238.438 76.9171 240.499 78.5001 242.19 81.2703L246.575 58.1192L250.063 69.3979L245.149 88.3937C246.681 94.132 247.579 101.453 247.579 109.962C247.579 129.551 242.929 143.007 236.165 143.007C233.523 143.007 231.251 141.028 229.402 137.268C228.186 140.236 227.446 144.194 227.446 148.349C227.446 154.879 229.137 159.232 231.991 159.628L240.076 161.013C245.413 162.002 249.059 173.479 249.059 189.705C249.059 210.085 243.722 222.947 235.32 222.947ZM236.218 128.958C240.34 128.958 243.088 121.438 243.088 109.962C243.088 98.4852 240.393 90.966 236.218 90.966C231.938 90.966 229.243 98.2873 229.243 109.962C229.243 121.636 231.991 128.958 236.218 128.958ZM226.918 192.079C226.918 202.764 229.93 208.305 235.373 208.305C241.133 208.305 244.409 201.973 244.409 190.298C244.409 181.987 242.454 176.447 239.177 175.853L230.776 174.27C230.564 174.27 230.3 174.073 230.089 174.073C228.239 178.624 226.918 185.549 226.918 192.079Z"/>
<path d="M255.379 182.383V79.8852H259.818V93.7363C261.404 84.2384 264.944 76.9171 268.273 76.9171C274.614 76.9171 278.63 92.3512 278.63 116.887V182.383H274.033V120.053C274.033 103.63 271.602 93.1426 267.692 93.1426C263.412 93.1426 259.977 106.202 259.977 122.824V182.383H255.379Z"/>
<path d="M46.2675 268.97C52.6614 268.97 57.8929 288.559 57.8929 323.187C57.8929 357.815 52.6614 377.404 46.2675 377.404C42.4628 377.404 39.6622 369.291 38.1826 359.793V415H33.5853V271.938H38.0241V287.57C39.4508 278.072 42.1458 268.97 46.2675 268.97ZM45.7391 285.591C41.5117 285.591 38.1826 299.047 38.1826 323.187C38.1826 347.723 41.5117 360.585 45.7391 360.585C49.9665 360.585 53.2427 347.921 53.2427 323.187C53.2427 298.651 49.9665 285.591 45.7391 285.591Z"/>
<path d="M64.2133 374.436V359.002H70.7658V287.372H64.7417V271.938H75.2046V290.538C76.4728 279.457 80.0132 270.553 83.8707 270.553C85.8259 270.553 87.9925 271.74 89.5777 274.906V292.715C87.9396 289.549 85.7202 288.361 83.7651 288.361C78.8507 288.361 75.3631 303.4 75.3631 324.77V359.002H84.8219V374.436H64.2133Z"/>
<path d="M108.58 377.404C101.024 377.404 95.8982 355.44 95.8982 323.187C95.8982 291.132 101.077 268.97 108.58 268.97C116.137 268.97 121.263 290.934 121.263 323.187C121.263 355.44 116.137 377.404 108.58 377.404ZM108.58 361.574C113.389 361.574 116.665 346.14 116.665 323.187C116.665 300.234 113.442 284.8 108.58 284.8C103.719 284.8 100.496 300.234 100.496 323.187C100.496 346.338 103.719 361.574 108.58 361.574Z"/>
<path d="M139.208 377.404C132.815 377.404 127.583 357.815 127.583 323.187C127.583 288.559 132.815 268.97 139.208 268.97C143.013 268.97 145.814 277.083 147.293 286.581V227.021H151.891V374.436H147.452V358.804C146.025 368.302 143.33 377.404 139.208 377.404ZM139.737 360.783C143.964 360.783 147.293 347.525 147.293 323.187C147.293 298.849 143.964 285.789 139.737 285.789C135.509 285.789 132.233 298.651 132.233 323.187C132.233 347.921 135.509 360.783 139.737 360.783Z"/>
<path d="M183.311 271.938V374.436H178.873V360.585C177.287 370.083 173.905 377.404 170.682 377.404C164.499 377.404 160.589 361.97 160.589 337.434V271.938H165.186V334.268C165.186 350.889 167.511 361.179 171.263 361.179C175.438 361.179 178.714 348.317 178.714 331.498V271.938H183.311Z"/>
<path d="M204.216 377.404C196.343 377.404 190.953 355.44 190.953 323.187C190.953 291.527 196.448 268.97 204.216 268.97C210.822 268.97 215.577 283.019 216.317 304.587H211.72C210.875 292.319 208.127 285.196 204.216 285.196C199.196 285.196 195.55 301.025 195.55 323.187C195.55 345.547 199.196 361.179 204.216 361.179C208.127 361.179 210.927 353.462 211.72 340.6H216.317C215.577 363.157 210.875 377.404 204.216 377.404Z"/>
<path d="M222.638 287.372V271.938H231.991V242.257L236.588 233.353V271.938H248.002V287.372H236.588V335.257C236.588 351.285 239.072 360.783 243.246 360.783C245.096 360.783 246.893 359.398 248.531 357.023V372.457C246.998 375.03 244.832 376.613 242.824 376.613C236.007 376.613 231.991 361.179 231.991 335.653V287.372H222.638Z"/>
<path d="M267.005 253.536C264.785 253.536 263.042 247.006 263.042 238.893C263.042 230.583 264.785 224.053 267.005 224.053C269.224 224.053 270.968 230.583 270.968 238.893C270.968 247.006 269.224 253.536 267.005 253.536ZM254.851 374.436V359.002H264.68V287.372H255.379V271.938H269.277V359.002H279.159V374.436H254.851Z"/>
<path d="M298.69 377.404C291.133 377.404 286.008 355.44 286.008 323.187C286.008 291.132 291.186 268.97 298.69 268.97C306.246 268.97 311.372 290.934 311.372 323.187C311.372 355.44 306.246 377.404 298.69 377.404ZM298.69 361.574C303.498 361.574 306.775 346.14 306.775 323.187C306.775 300.234 303.551 284.8 298.69 284.8C293.828 284.8 290.605 300.234 290.605 323.187C290.605 346.338 293.828 361.574 298.69 361.574Z"/>
<path d="M318.749 374.436V271.938H323.188V285.789C324.773 276.291 328.314 268.97 331.643 268.97C337.984 268.97 342 284.404 342 308.94V374.436H337.403V312.106C337.403 295.683 334.972 285.196 331.062 285.196C326.781 285.196 323.347 298.255 323.347 314.876V374.436H318.749Z"/>
</mask>
<path d="M46.0561 185.351C37.4956 185.351 32 156.264 32 111.149C32 65.2426 37.3899 36.9468 46.0561 36.9468C52.82 36.9468 57.6286 55.5469 58.1571 84.0405H53.2427C52.7671 64.8469 50.0193 53.3703 46.0033 53.3703C40.1378 53.3703 36.703 74.7405 36.703 111.149C36.703 147.162 40.2434 168.928 46.0033 168.928C50.2307 168.928 52.8728 157.056 53.5598 134.894H58.4213C57.6815 166.356 53.0313 185.351 46.0561 185.351Z" fill="black"/>
<path d="M73.8835 185.351C68.4936 185.351 64.8474 173.479 64.8474 155.67C64.8474 135.487 69.2862 122.23 76.8955 118.866L83.3423 116.096V115.304C83.3423 100.464 80.8587 91.9554 76.7898 91.9554C73.038 91.9554 69.9732 100.068 69.6561 110.951H65.2173C65.6401 90.7682 70.3959 76.9171 76.8955 76.9171C83.5008 76.9171 87.7811 91.9554 87.7811 115.898V151.911C87.7811 160.221 87.8339 169.126 87.9925 182.383H83.5537V164.179C81.44 178.03 78.1109 185.351 73.8835 185.351ZM69.339 154.681C69.339 163.981 71.3999 170.313 74.5176 170.313C79.6433 170.313 83.3423 155.275 83.3423 133.509V129.947L76.9484 133.113C72.034 135.487 69.339 143.007 69.339 154.681Z" fill="black"/>
<path d="M95.5811 182.383V79.8852H100.02V87.998C100.865 81.0724 102.609 76.9171 104.829 76.9171C107.048 76.9171 108.897 82.0618 109.743 89.7788C110.694 82.2597 112.808 76.9171 115.08 76.9171C118.938 76.9171 121.58 87.6022 121.58 103.432V182.383H116.982V106.004C116.982 98.2874 115.767 93.1426 114.023 93.1426C112.279 93.1426 110.905 98.881 110.905 106.004V182.383H106.308V106.004C106.308 98.2874 105.04 93.1426 103.19 93.1426C101.5 93.1426 100.178 98.6831 100.178 106.004V182.383H95.5811Z" fill="black"/>
<path d="M141.322 76.9171C147.716 76.9171 152.948 96.5065 152.948 131.134C152.948 165.762 147.716 185.351 141.322 185.351C137.517 185.351 134.717 177.239 133.237 167.741V222.947H128.64V79.8852H133.079V95.5171C134.505 86.0192 137.2 76.9171 141.322 76.9171ZM140.794 93.5384C136.566 93.5384 133.237 106.994 133.237 131.134C133.237 155.67 136.566 168.532 140.794 168.532C145.021 168.532 148.297 155.868 148.297 131.134C148.297 106.598 145.021 93.5384 140.794 93.5384Z" fill="black"/>
<path d="M168.938 185.351C163.548 185.351 159.902 173.479 159.902 155.67C159.902 135.487 164.341 122.23 171.95 118.866L178.397 116.096V115.304C178.397 100.464 175.913 91.9554 171.845 91.9554C168.093 91.9554 165.028 100.068 164.711 110.951H160.272C160.695 90.7682 165.451 76.9171 171.95 76.9171C178.556 76.9171 182.836 91.9554 182.836 115.898V151.911C182.836 160.221 182.889 169.126 183.047 182.383H178.608V164.179C176.495 178.03 173.166 185.351 168.938 185.351ZM164.394 154.681C164.394 163.981 166.455 170.313 169.572 170.313C174.698 170.313 178.397 155.275 178.397 133.509V129.947L172.003 133.113C167.089 135.487 164.394 143.007 164.394 154.681Z" fill="black"/>
<path d="M203.635 61.483C201.416 61.483 199.672 54.9532 199.672 46.8405C199.672 38.5298 201.416 32 203.635 32C205.854 32 207.598 38.5298 207.598 46.8405C207.598 54.9532 205.854 61.483 203.635 61.483ZM191.481 182.383V166.949H201.31V95.3192H192.01V79.8852H205.907V166.949H215.789V182.383H191.481Z" fill="black"/>
<path d="M235.32 222.947C227.446 222.947 222.532 212.064 222.532 194.849C222.532 186.341 224.065 176.843 226.337 170.313C224.223 166.553 223.008 160.024 223.008 152.109C223.008 143.996 224.487 135.883 226.918 130.541C225.544 125 224.751 118.075 224.751 109.962C224.751 90.3724 229.402 76.9171 236.165 76.9171C238.438 76.9171 240.499 78.5001 242.19 81.2703L246.575 58.1192L250.063 69.3979L245.149 88.3937C246.681 94.132 247.579 101.453 247.579 109.962C247.579 129.551 242.929 143.007 236.165 143.007C233.523 143.007 231.251 141.028 229.402 137.268C228.186 140.236 227.446 144.194 227.446 148.349C227.446 154.879 229.137 159.232 231.991 159.628L240.076 161.013C245.413 162.002 249.059 173.479 249.059 189.705C249.059 210.085 243.722 222.947 235.32 222.947ZM236.218 128.958C240.34 128.958 243.088 121.438 243.088 109.962C243.088 98.4852 240.393 90.966 236.218 90.966C231.938 90.966 229.243 98.2873 229.243 109.962C229.243 121.636 231.991 128.958 236.218 128.958ZM226.918 192.079C226.918 202.764 229.93 208.305 235.373 208.305C241.133 208.305 244.409 201.973 244.409 190.298C244.409 181.987 242.454 176.447 239.177 175.853L230.776 174.27C230.564 174.27 230.3 174.073 230.089 174.073C228.239 178.624 226.918 185.549 226.918 192.079Z" fill="black"/>
<path d="M255.379 182.383V79.8852H259.818V93.7363C261.404 84.2384 264.944 76.9171 268.273 76.9171C274.614 76.9171 278.63 92.3512 278.63 116.887V182.383H274.033V120.053C274.033 103.63 271.602 93.1426 267.692 93.1426C263.412 93.1426 259.977 106.202 259.977 122.824V182.383H255.379Z" fill="black"/>
<path d="M46.2675 268.97C52.6614 268.97 57.8929 288.559 57.8929 323.187C57.8929 357.815 52.6614 377.404 46.2675 377.404C42.4628 377.404 39.6622 369.291 38.1826 359.793V415H33.5853V271.938H38.0241V287.57C39.4508 278.072 42.1458 268.97 46.2675 268.97ZM45.7391 285.591C41.5117 285.591 38.1826 299.047 38.1826 323.187C38.1826 347.723 41.5117 360.585 45.7391 360.585C49.9665 360.585 53.2427 347.921 53.2427 323.187C53.2427 298.651 49.9665 285.591 45.7391 285.591Z" fill="black"/>
<path d="M64.2133 374.436V359.002H70.7658V287.372H64.7417V271.938H75.2046V290.538C76.4728 279.457 80.0132 270.553 83.8707 270.553C85.8259 270.553 87.9925 271.74 89.5777 274.906V292.715C87.9396 289.549 85.7202 288.361 83.7651 288.361C78.8507 288.361 75.3631 303.4 75.3631 324.77V359.002H84.8219V374.436H64.2133Z" fill="black"/>
<path d="M108.58 377.404C101.024 377.404 95.8982 355.44 95.8982 323.187C95.8982 291.132 101.077 268.97 108.58 268.97C116.137 268.97 121.263 290.934 121.263 323.187C121.263 355.44 116.137 377.404 108.58 377.404ZM108.58 361.574C113.389 361.574 116.665 346.14 116.665 323.187C116.665 300.234 113.442 284.8 108.58 284.8C103.719 284.8 100.496 300.234 100.496 323.187C100.496 346.338 103.719 361.574 108.58 361.574Z" fill="black"/>
<path d="M139.208 377.404C132.815 377.404 127.583 357.815 127.583 323.187C127.583 288.559 132.815 268.97 139.208 268.97C143.013 268.97 145.814 277.083 147.293 286.581V227.021H151.891V374.436H147.452V358.804C146.025 368.302 143.33 377.404 139.208 377.404ZM139.737 360.783C143.964 360.783 147.293 347.525 147.293 323.187C147.293 298.849 143.964 285.789 139.737 285.789C135.509 285.789 132.233 298.651 132.233 323.187C132.233 347.921 135.509 360.783 139.737 360.783Z" fill="black"/>
<path d="M183.311 271.938V374.436H178.873V360.585C177.287 370.083 173.905 377.404 170.682 377.404C164.499 377.404 160.589 361.97 160.589 337.434V271.938H165.186V334.268C165.186 350.889 167.511 361.179 171.263 361.179C175.438 361.179 178.714 348.317 178.714 331.498V271.938H183.311Z" fill="black"/>
<path d="M204.216 377.404C196.343 377.404 190.953 355.44 190.953 323.187C190.953 291.527 196.448 268.97 204.216 268.97C210.822 268.97 215.577 283.019 216.317 304.587H211.72C210.875 292.319 208.127 285.196 204.216 285.196C199.196 285.196 195.55 301.025 195.55 323.187C195.55 345.547 199.196 361.179 204.216 361.179C208.127 361.179 210.927 353.462 211.72 340.6H216.317C215.577 363.157 210.875 377.404 204.216 377.404Z" fill="black"/>
<path d="M222.638 287.372V271.938H231.991V242.257L236.588 233.353V271.938H248.002V287.372H236.588V335.257C236.588 351.285 239.072 360.783 243.246 360.783C245.096 360.783 246.893 359.398 248.531 357.023V372.457C246.998 375.03 244.832 376.613 242.824 376.613C236.007 376.613 231.991 361.179 231.991 335.653V287.372H222.638Z" fill="black"/>
<path d="M267.005 253.536C264.785 253.536 263.042 247.006 263.042 238.893C263.042 230.583 264.785 224.053 267.005 224.053C269.224 224.053 270.968 230.583 270.968 238.893C270.968 247.006 269.224 253.536 267.005 253.536ZM254.851 374.436V359.002H264.68V287.372H255.379V271.938H269.277V359.002H279.159V374.436H254.851Z" fill="black"/>
<path d="M298.69 377.404C291.133 377.404 286.008 355.44 286.008 323.187C286.008 291.132 291.186 268.97 298.69 268.97C306.246 268.97 311.372 290.934 311.372 323.187C311.372 355.44 306.246 377.404 298.69 377.404ZM298.69 361.574C303.498 361.574 306.775 346.14 306.775 323.187C306.775 300.234 303.551 284.8 298.69 284.8C293.828 284.8 290.605 300.234 290.605 323.187C290.605 346.338 293.828 361.574 298.69 361.574Z" fill="black"/>
<path d="M318.749 374.436V271.938H323.188V285.789C324.773 276.291 328.314 268.97 331.643 268.97C337.984 268.97 342 284.404 342 308.94V374.436H337.403V312.106C337.403 295.683 334.972 285.196 331.062 285.196C326.781 285.196 323.347 298.255 323.347 314.876V374.436H318.749Z" fill="black"/>
<path d="M46.0561 185.351C37.4956 185.351 32 156.264 32 111.149C32 65.2426 37.3899 36.9468 46.0561 36.9468C52.82 36.9468 57.6286 55.5469 58.1571 84.0405H53.2427C52.7671 64.8469 50.0193 53.3703 46.0033 53.3703C40.1378 53.3703 36.703 74.7405 36.703 111.149C36.703 147.162 40.2434 168.928 46.0033 168.928C50.2307 168.928 52.8728 157.056 53.5598 134.894H58.4213C57.6815 166.356 53.0313 185.351 46.0561 185.351Z" stroke="#BFFFB3" stroke-width="64" stroke-linejoin="round" mask="url(#path-1-outside-1_225_463)"/>
<path d="M73.8835 185.351C68.4936 185.351 64.8474 173.479 64.8474 155.67C64.8474 135.487 69.2862 122.23 76.8955 118.866L83.3423 116.096V115.304C83.3423 100.464 80.8587 91.9554 76.7898 91.9554C73.038 91.9554 69.9732 100.068 69.6561 110.951H65.2173C65.6401 90.7682 70.3959 76.9171 76.8955 76.9171C83.5008 76.9171 87.7811 91.9554 87.7811 115.898V151.911C87.7811 160.221 87.8339 169.126 87.9925 182.383H83.5537V164.179C81.44 178.03 78.1109 185.351 73.8835 185.351ZM69.339 154.681C69.339 163.981 71.3999 170.313 74.5176 170.313C79.6433 170.313 83.3423 155.275 83.3423 133.509V129.947L76.9484 133.113C72.034 135.487 69.339 143.007 69.339 154.681Z" stroke="#BFFFB3" stroke-width="64" stroke-linejoin="round" mask="url(#path-1-outside-1_225_463)"/>
<path d="M95.5811 182.383V79.8852H100.02V87.998C100.865 81.0724 102.609 76.9171 104.829 76.9171C107.048 76.9171 108.897 82.0618 109.743 89.7788C110.694 82.2597 112.808 76.9171 115.08 76.9171C118.938 76.9171 121.58 87.6022 121.58 103.432V182.383H116.982V106.004C116.982 98.2874 115.767 93.1426 114.023 93.1426C112.279 93.1426 110.905 98.881 110.905 106.004V182.383H106.308V106.004C106.308 98.2874 105.04 93.1426 103.19 93.1426C101.5 93.1426 100.178 98.6831 100.178 106.004V182.383H95.5811Z" stroke="#BFFFB3" stroke-width="64" stroke-linejoin="round" mask="url(#path-1-outside-1_225_463)"/>
<path d="M141.322 76.9171C147.716 76.9171 152.948 96.5065 152.948 131.134C152.948 165.762 147.716 185.351 141.322 185.351C137.517 185.351 134.717 177.239 133.237 167.741V222.947H128.64V79.8852H133.079V95.5171C134.505 86.0192 137.2 76.9171 141.322 76.9171ZM140.794 93.5384C136.566 93.5384 133.237 106.994 133.237 131.134C133.237 155.67 136.566 168.532 140.794 168.532C145.021 168.532 148.297 155.868 148.297 131.134C148.297 106.598 145.021 93.5384 140.794 93.5384Z" stroke="#BFFFB3" stroke-width="64" stroke-linejoin="round" mask="url(#path-1-outside-1_225_463)"/>
<path d="M168.938 185.351C163.548 185.351 159.902 173.479 159.902 155.67C159.902 135.487 164.341 122.23 171.95 118.866L178.397 116.096V115.304C178.397 100.464 175.913 91.9554 171.845 91.9554C168.093 91.9554 165.028 100.068 164.711 110.951H160.272C160.695 90.7682 165.451 76.9171 171.95 76.9171C178.556 76.9171 182.836 91.9554 182.836 115.898V151.911C182.836 160.221 182.889 169.126 183.047 182.383H178.608V164.179C176.495 178.03 173.166 185.351 168.938 185.351ZM164.394 154.681C164.394 163.981 166.455 170.313 169.572 170.313C174.698 170.313 178.397 155.275 178.397 133.509V129.947L172.003 133.113C167.089 135.487 164.394 143.007 164.394 154.681Z" stroke="#BFFFB3" stroke-width="64" stroke-linejoin="round" mask="url(#path-1-outside-1_225_463)"/>
<path d="M203.635 61.483C201.416 61.483 199.672 54.9532 199.672 46.8405C199.672 38.5298 201.416 32 203.635 32C205.854 32 207.598 38.5298 207.598 46.8405C207.598 54.9532 205.854 61.483 203.635 61.483ZM191.481 182.383V166.949H201.31V95.3192H192.01V79.8852H205.907V166.949H215.789V182.383H191.481Z" stroke="#BFFFB3" stroke-width="64" stroke-linejoin="round" mask="url(#path-1-outside-1_225_463)"/>
<path d="M235.32 222.947C227.446 222.947 222.532 212.064 222.532 194.849C222.532 186.341 224.065 176.843 226.337 170.313C224.223 166.553 223.008 160.024 223.008 152.109C223.008 143.996 224.487 135.883 226.918 130.541C225.544 125 224.751 118.075 224.751 109.962C224.751 90.3724 229.402 76.9171 236.165 76.9171C238.438 76.9171 240.499 78.5001 242.19 81.2703L246.575 58.1192L250.063 69.3979L245.149 88.3937C246.681 94.132 247.579 101.453 247.579 109.962C247.579 129.551 242.929 143.007 236.165 143.007C233.523 143.007 231.251 141.028 229.402 137.268C228.186 140.236 227.446 144.194 227.446 148.349C227.446 154.879 229.137 159.232 231.991 159.628L240.076 161.013C245.413 162.002 249.059 173.479 249.059 189.705C249.059 210.085 243.722 222.947 235.32 222.947ZM236.218 128.958C240.34 128.958 243.088 121.438 243.088 109.962C243.088 98.4852 240.393 90.966 236.218 90.966C231.938 90.966 229.243 98.2873 229.243 109.962C229.243 121.636 231.991 128.958 236.218 128.958ZM226.918 192.079C226.918 202.764 229.93 208.305 235.373 208.305C241.133 208.305 244.409 201.973 244.409 190.298C244.409 181.987 242.454 176.447 239.177 175.853L230.776 174.27C230.564 174.27 230.3 174.073 230.089 174.073C228.239 178.624 226.918 185.549 226.918 192.079Z" stroke="#BFFFB3" stroke-width="64" stroke-linejoin="round" mask="url(#path-1-outside-1_225_463)"/>
<path d="M255.379 182.383V79.8852H259.818V93.7363C261.404 84.2384 264.944 76.9171 268.273 76.9171C274.614 76.9171 278.63 92.3512 278.63 116.887V182.383H274.033V120.053C274.033 103.63 271.602 93.1426 267.692 93.1426C263.412 93.1426 259.977 106.202 259.977 122.824V182.383H255.379Z" stroke="#BFFFB3" stroke-width="64" stroke-linejoin="round" mask="url(#path-1-outside-1_225_463)"/>
<path d="M46.2675 268.97C52.6614 268.97 57.8929 288.559 57.8929 323.187C57.8929 357.815 52.6614 377.404 46.2675 377.404C42.4628 377.404 39.6622 369.291 38.1826 359.793V415H33.5853V271.938H38.0241V287.57C39.4508 278.072 42.1458 268.97 46.2675 268.97ZM45.7391 285.591C41.5117 285.591 38.1826 299.047 38.1826 323.187C38.1826 347.723 41.5117 360.585 45.7391 360.585C49.9665 360.585 53.2427 347.921 53.2427 323.187C53.2427 298.651 49.9665 285.591 45.7391 285.591Z" stroke="#BFFFB3" stroke-width="64" stroke-linejoin="round" mask="url(#path-1-outside-1_225_463)"/>
<path d="M64.2133 374.436V359.002H70.7658V287.372H64.7417V271.938H75.2046V290.538C76.4728 279.457 80.0132 270.553 83.8707 270.553C85.8259 270.553 87.9925 271.74 89.5777 274.906V292.715C87.9396 289.549 85.7202 288.361 83.7651 288.361C78.8507 288.361 75.3631 303.4 75.3631 324.77V359.002H84.8219V374.436H64.2133Z" stroke="#BFFFB3" stroke-width="64" stroke-linejoin="round" mask="url(#path-1-outside-1_225_463)"/>
<path d="M108.58 377.404C101.024 377.404 95.8982 355.44 95.8982 323.187C95.8982 291.132 101.077 268.97 108.58 268.97C116.137 268.97 121.263 290.934 121.263 323.187C121.263 355.44 116.137 377.404 108.58 377.404ZM108.58 361.574C113.389 361.574 116.665 346.14 116.665 323.187C116.665 300.234 113.442 284.8 108.58 284.8C103.719 284.8 100.496 300.234 100.496 323.187C100.496 346.338 103.719 361.574 108.58 361.574Z" stroke="#BFFFB3" stroke-width="64" stroke-linejoin="round" mask="url(#path-1-outside-1_225_463)"/>
<path d="M139.208 377.404C132.815 377.404 127.583 357.815 127.583 323.187C127.583 288.559 132.815 268.97 139.208 268.97C143.013 268.97 145.814 277.083 147.293 286.581V227.021H151.891V374.436H147.452V358.804C146.025 368.302 143.33 377.404 139.208 377.404ZM139.737 360.783C143.964 360.783 147.293 347.525 147.293 323.187C147.293 298.849 143.964 285.789 139.737 285.789C135.509 285.789 132.233 298.651 132.233 323.187C132.233 347.921 135.509 360.783 139.737 360.783Z" stroke="#BFFFB3" stroke-width="64" stroke-linejoin="round" mask="url(#path-1-outside-1_225_463)"/>
<path d="M183.311 271.938V374.436H178.873V360.585C177.287 370.083 173.905 377.404 170.682 377.404C164.499 377.404 160.589 361.97 160.589 337.434V271.938H165.186V334.268C165.186 350.889 167.511 361.179 171.263 361.179C175.438 361.179 178.714 348.317 178.714 331.498V271.938H183.311Z" stroke="#BFFFB3" stroke-width="64" stroke-linejoin="round" mask="url(#path-1-outside-1_225_463)"/>
<path d="M204.216 377.404C196.343 377.404 190.953 355.44 190.953 323.187C190.953 291.527 196.448 268.97 204.216 268.97C210.822 268.97 215.577 283.019 216.317 304.587H211.72C210.875 292.319 208.127 285.196 204.216 285.196C199.196 285.196 195.55 301.025 195.55 323.187C195.55 345.547 199.196 361.179 204.216 361.179C208.127 361.179 210.927 353.462 211.72 340.6H216.317C215.577 363.157 210.875 377.404 204.216 377.404Z" stroke="#BFFFB3" stroke-width="64" stroke-linejoin="round" mask="url(#path-1-outside-1_225_463)"/>
<path d="M222.638 287.372V271.938H231.991V242.257L236.588 233.353V271.938H248.002V287.372H236.588V335.257C236.588 351.285 239.072 360.783 243.246 360.783C245.096 360.783 246.893 359.398 248.531 357.023V372.457C246.998 375.03 244.832 376.613 242.824 376.613C236.007 376.613 231.991 361.179 231.991 335.653V287.372H222.638Z" stroke="#BFFFB3" stroke-width="64" stroke-linejoin="round" mask="url(#path-1-outside-1_225_463)"/>
<path d="M267.005 253.536C264.785 253.536 263.042 247.006 263.042 238.893C263.042 230.583 264.785 224.053 267.005 224.053C269.224 224.053 270.968 230.583 270.968 238.893C270.968 247.006 269.224 253.536 267.005 253.536ZM254.851 374.436V359.002H264.68V287.372H255.379V271.938H269.277V359.002H279.159V374.436H254.851Z" stroke="#BFFFB3" stroke-width="64" stroke-linejoin="round" mask="url(#path-1-outside-1_225_463)"/>
<path d="M298.69 377.404C291.133 377.404 286.008 355.44 286.008 323.187C286.008 291.132 291.186 268.97 298.69 268.97C306.246 268.97 311.372 290.934 311.372 323.187C311.372 355.44 306.246 377.404 298.69 377.404ZM298.69 361.574C303.498 361.574 306.775 346.14 306.775 323.187C306.775 300.234 303.551 284.8 298.69 284.8C293.828 284.8 290.605 300.234 290.605 323.187C290.605 346.338 293.828 361.574 298.69 361.574Z" stroke="#BFFFB3" stroke-width="64" stroke-linejoin="round" mask="url(#path-1-outside-1_225_463)"/>
<path d="M318.749 374.436V271.938H323.188V285.789C324.773 276.291 328.314 268.97 331.643 268.97C337.984 268.97 342 284.404 342 308.94V374.436H337.403V312.106C337.403 295.683 334.972 285.196 331.062 285.196C326.781 285.196 323.347 298.255 323.347 314.876V374.436H318.749Z" stroke="#BFFFB3" stroke-width="64" stroke-linejoin="round" mask="url(#path-1-outside-1_225_463)"/>
</svg>
