<svg width="122" height="206" viewBox="0 0 122 206" fill="none" xmlns="http://www.w3.org/2000/svg">
<mask id="path-1-outside-1_225_462" maskUnits="userSpaceOnUse" x="0" y="0" width="122" height="206" fill="black">
<rect fill="white" width="122" height="206"/>
<path d="M32 174L43.6041 32H49.037L60.4828 174H55.683L52.8874 138.697H39.6482L36.7999 174H32ZM40.9141 123.117H51.6743L46.3469 55.6667L40.9141 123.117Z"/>
<path d="M65.7368 174V157.631H75.5476V48.3694H66.2643V32H89.4725V48.3694H80.1892V157.631H90V174H65.7368Z"/>
</mask>
<path d="M32 174L43.6041 32H49.037L60.4828 174H55.683L52.8874 138.697H39.6482L36.7999 174H32ZM40.9141 123.117H51.6743L46.3469 55.6667L40.9141 123.117Z" fill="black"/>
<path d="M65.7368 174V157.631H75.5476V48.3694H66.2643V32H89.4725V48.3694H80.1892V157.631H90V174H65.7368Z" fill="black"/>
<path d="M32 174L43.6041 32H49.037L60.4828 174H55.683L52.8874 138.697H39.6482L36.7999 174H32ZM40.9141 123.117H51.6743L46.3469 55.6667L40.9141 123.117Z" stroke="#BFFFB3" stroke-width="64" stroke-linejoin="round" mask="url(#path-1-outside-1_225_462)"/>
<path d="M65.7368 174V157.631H75.5476V48.3694H66.2643V32H89.4725V48.3694H80.1892V157.631H90V174H65.7368Z" stroke="#BFFFB3" stroke-width="64" stroke-linejoin="round" mask="url(#path-1-outside-1_225_462)"/>
</svg>
