<svg width="495" height="531" viewBox="0 0 495 531" fill="none" xmlns="http://www.w3.org/2000/svg">
<mask id="path-1-outside-1_225_613" maskUnits="userSpaceOnUse" x="0" y="0" width="496" height="531" fill="black">
<rect fill="white" width="496" height="531"/>
<path d="M345.597 283.685C355.809 283.685 362.428 313.684 362.428 361.447V433.289C362.428 449.868 362.509 467.632 362.754 494.079H355.892V457.763C352.624 485.394 347.476 500 340.94 500C332.607 500 326.969 476.315 326.969 440.789C326.969 400.526 333.832 374.079 345.597 367.368L355.564 361.842V360.263C355.564 330.658 351.725 313.685 345.434 313.685C339.633 313.685 334.895 329.869 334.404 351.579H327.541C328.195 311.317 335.548 283.685 345.597 283.685ZM298.569 289.605H316.217V320.395H298.569V415.921C298.569 447.894 302.409 466.841 308.863 466.842C311.723 466.842 314.5 464.079 317.033 459.342V490.132C314.664 495.263 311.314 498.421 308.21 498.421C297.671 498.421 291.461 467.632 291.461 416.711V320.395H277V289.605H291.461V230.395L298.569 212.632V289.605ZM398.099 463.289H413.377V494.079H375.795V463.289H390.991V230.789H376.611V200H398.099V463.289ZM432.627 387.105L453.787 289.605H463.102L445.699 370.526L464 494.079H455.911L440.797 393.421L432.627 430.921V494.079H425.601V200H432.627V387.105ZM345.679 395.789C338.081 400.526 333.914 415.526 333.914 438.815C333.914 457.368 337.101 470 341.921 470C349.846 469.999 355.564 439.999 355.564 396.579V389.474L345.679 395.789ZM98.5498 107.606C110.629 107.607 118.547 157.757 116.996 224.096H85.5723C86.1436 266.347 90.9588 292.409 98.4678 292.409C104.1 292.409 108.262 278.984 109.486 256.081H116.669C114.955 297.148 107.773 324 98.5498 324C86.7965 324 78.6338 279.378 78.6338 215.803C78.6338 153.017 86.9598 107.606 98.5498 107.606ZM244.799 107.606C254.512 107.607 261.776 134.853 262.103 173.946H255.164C254.756 152.623 250.349 137.223 244.636 137.223C239.004 137.223 235.412 150.253 235.412 166.838C235.412 180.658 237.371 188.952 240.799 192.9L252.145 203.957C259.001 211.065 263 230.809 263 260.819C263 299.123 255.98 324 245.288 324C234.514 323.999 226.679 295.174 226.435 252.527H233.453C233.943 278.589 238.678 294.384 245.615 294.384C251.41 294.383 255.817 282.142 255.817 263.188C255.817 249.368 253.451 239.101 249.859 235.152L238.841 224.49C231.985 217.777 228.229 197.244 228.229 169.997C228.23 130.904 234.923 107.606 244.799 107.606ZM148.796 113.529H166.426V144.33H148.796V239.891C148.796 271.876 152.632 290.83 159.08 290.83C161.937 290.83 164.712 288.066 167.242 283.327V314.128C164.875 319.261 161.528 322.421 158.427 322.421C147.898 322.421 141.694 291.62 141.694 240.681V144.33H127.248V113.529H141.694V54.2979L148.796 36.5283V113.529ZM38.1826 285.302H68.5449V318.077H31V33.7646H38.1826V285.302ZM98.4678 139.196C91.775 139.197 87.1223 160.915 85.8164 195.664H109.813C109.405 161.31 105.161 139.196 98.4678 139.196ZM195.777 31C199.858 31.0011 203.041 46.7961 203.041 66.1445C203.041 74.042 202.552 82.7296 201.409 94.9707L195.042 160.125H189.737L195.042 101.288C190.635 98.9181 188.513 83.9134 188.513 66.1445C188.513 46.7955 191.696 31 195.777 31Z"/>
</mask>
<path d="M345.597 283.685C355.809 283.685 362.428 313.684 362.428 361.447V433.289C362.428 449.868 362.509 467.632 362.754 494.079H355.892V457.763C352.624 485.394 347.476 500 340.94 500C332.607 500 326.969 476.315 326.969 440.789C326.969 400.526 333.832 374.079 345.597 367.368L355.564 361.842V360.263C355.564 330.658 351.725 313.685 345.434 313.685C339.633 313.685 334.895 329.869 334.404 351.579H327.541C328.195 311.317 335.548 283.685 345.597 283.685ZM298.569 289.605H316.217V320.395H298.569V415.921C298.569 447.894 302.409 466.841 308.863 466.842C311.723 466.842 314.5 464.079 317.033 459.342V490.132C314.664 495.263 311.314 498.421 308.21 498.421C297.671 498.421 291.461 467.632 291.461 416.711V320.395H277V289.605H291.461V230.395L298.569 212.632V289.605ZM398.099 463.289H413.377V494.079H375.795V463.289H390.991V230.789H376.611V200H398.099V463.289ZM432.627 387.105L453.787 289.605H463.102L445.699 370.526L464 494.079H455.911L440.797 393.421L432.627 430.921V494.079H425.601V200H432.627V387.105ZM345.679 395.789C338.081 400.526 333.914 415.526 333.914 438.815C333.914 457.368 337.101 470 341.921 470C349.846 469.999 355.564 439.999 355.564 396.579V389.474L345.679 395.789ZM98.5498 107.606C110.629 107.607 118.547 157.757 116.996 224.096H85.5723C86.1436 266.347 90.9588 292.409 98.4678 292.409C104.1 292.409 108.262 278.984 109.486 256.081H116.669C114.955 297.148 107.773 324 98.5498 324C86.7965 324 78.6338 279.378 78.6338 215.803C78.6338 153.017 86.9598 107.606 98.5498 107.606ZM244.799 107.606C254.512 107.607 261.776 134.853 262.103 173.946H255.164C254.756 152.623 250.349 137.223 244.636 137.223C239.004 137.223 235.412 150.253 235.412 166.838C235.412 180.658 237.371 188.952 240.799 192.9L252.145 203.957C259.001 211.065 263 230.809 263 260.819C263 299.123 255.98 324 245.288 324C234.514 323.999 226.679 295.174 226.435 252.527H233.453C233.943 278.589 238.678 294.384 245.615 294.384C251.41 294.383 255.817 282.142 255.817 263.188C255.817 249.368 253.451 239.101 249.859 235.152L238.841 224.49C231.985 217.777 228.229 197.244 228.229 169.997C228.23 130.904 234.923 107.606 244.799 107.606ZM148.796 113.529H166.426V144.33H148.796V239.891C148.796 271.876 152.632 290.83 159.08 290.83C161.937 290.83 164.712 288.066 167.242 283.327V314.128C164.875 319.261 161.528 322.421 158.427 322.421C147.898 322.421 141.694 291.62 141.694 240.681V144.33H127.248V113.529H141.694V54.2979L148.796 36.5283V113.529ZM38.1826 285.302H68.5449V318.077H31V33.7646H38.1826V285.302ZM98.4678 139.196C91.775 139.197 87.1223 160.915 85.8164 195.664H109.813C109.405 161.31 105.161 139.196 98.4678 139.196ZM195.777 31C199.858 31.0011 203.041 46.7961 203.041 66.1445C203.041 74.042 202.552 82.7296 201.409 94.9707L195.042 160.125H189.737L195.042 101.288C190.635 98.9181 188.513 83.9134 188.513 66.1445C188.513 46.7955 191.696 31 195.777 31Z" fill="black"/>
<path d="M345.597 283.685V252.685H345.594L345.597 283.685ZM362.428 361.447H393.428V361.447H362.428ZM362.754 494.079V525.079C371.025 525.079 378.954 521.773 384.776 515.898C390.597 510.022 393.829 502.063 393.753 493.792L362.754 494.079ZM355.892 494.079H324.892C324.892 511.2 338.771 525.079 355.892 525.079V494.079ZM355.892 457.763H386.892C386.892 441.35 374.099 427.782 357.715 426.816C341.331 425.851 327.034 437.823 325.106 454.122L355.892 457.763ZM340.94 500V531H340.943L340.94 500ZM326.969 440.789L295.969 440.789V440.789H326.969ZM345.597 367.368L330.565 340.256C330.455 340.317 330.346 340.379 330.237 340.441L345.597 367.368ZM355.564 361.842L370.596 388.954C380.45 383.49 386.564 373.11 386.564 361.842H355.564ZM355.564 360.263H386.564V360.263L355.564 360.263ZM345.434 313.685V282.685H345.433L345.434 313.685ZM334.404 351.579V382.579C351.252 382.579 365.016 369.123 365.396 352.279L334.404 351.579ZM327.541 351.579L296.545 351.076C296.41 359.384 299.616 367.398 305.444 373.321C311.271 379.244 319.232 382.579 327.541 382.579V351.579ZM298.569 289.605H267.569C267.569 306.726 281.449 320.605 298.569 320.605V289.605ZM316.217 289.605H347.217C347.217 272.485 333.338 258.605 316.217 258.605V289.605ZM316.217 320.395V351.395C333.338 351.395 347.217 337.515 347.217 320.395H316.217ZM298.569 320.395V289.395C281.449 289.395 267.569 303.274 267.569 320.395H298.569ZM308.863 466.842L308.862 497.842H308.863V466.842ZM317.033 459.342H348.033C348.033 445.123 338.36 432.727 324.568 429.271C310.775 425.816 296.4 432.186 289.696 444.725L317.033 459.342ZM317.033 490.132L345.178 503.127C347.059 499.053 348.033 494.619 348.033 490.132H317.033ZM308.21 498.421V529.421H308.211L308.21 498.421ZM291.461 416.711H260.461V416.711L291.461 416.711ZM291.461 320.395H322.461C322.461 303.274 308.582 289.395 291.461 289.395V320.395ZM277 320.395H246C246 337.515 259.879 351.395 277 351.395V320.395ZM277 289.605V258.605C259.879 258.605 246 272.485 246 289.605H277ZM291.461 289.605V320.605C308.582 320.605 322.461 306.726 322.461 289.605H291.461ZM291.461 230.395L262.68 218.877C261.214 222.54 260.461 226.449 260.461 230.395H291.461ZM298.569 212.632H329.569C329.569 197.772 319.025 185.003 304.434 182.192C289.843 179.38 275.309 187.318 269.788 201.114L298.569 212.632ZM398.099 463.289H367.099C367.099 480.41 380.978 494.289 398.099 494.289V463.289ZM413.377 463.289H444.377C444.377 446.168 430.498 432.289 413.377 432.289V463.289ZM413.377 494.079V525.079C430.498 525.079 444.377 511.2 444.377 494.079H413.377ZM375.795 494.079H344.795C344.795 511.2 358.674 525.079 375.795 525.079V494.079ZM375.795 463.289V432.289C358.674 432.289 344.795 446.168 344.795 463.289H375.795ZM390.991 463.289V494.289C408.112 494.289 421.991 480.41 421.991 463.289H390.991ZM390.991 230.789H421.991C421.991 213.668 408.112 199.789 390.991 199.789V230.789ZM376.611 230.789H345.611C345.611 247.91 359.491 261.789 376.611 261.789V230.789ZM376.611 200V169C359.491 169 345.611 182.879 345.611 200H376.611ZM398.099 200H429.099C429.099 182.879 415.219 169 398.099 169V200ZM432.627 387.105H401.627C401.627 402.947 413.57 416.239 429.321 417.929C445.071 419.618 459.562 409.161 462.922 393.68L432.627 387.105ZM453.787 289.605V258.605C439.2 258.605 426.586 268.775 423.492 283.031L453.787 289.605ZM463.102 289.605L493.409 296.123C495.378 286.967 493.102 277.411 487.216 270.125C481.331 262.84 472.467 258.605 463.102 258.605V289.605ZM445.699 370.526L415.392 364.009C414.61 367.644 414.489 371.39 415.034 375.069L445.699 370.526ZM464 494.079V525.079C473.015 525.079 481.583 521.155 487.471 514.33C493.36 507.505 495.986 498.454 494.665 489.537L464 494.079ZM455.911 494.079L425.255 498.682C427.533 513.855 440.568 525.079 455.911 525.079V494.079ZM440.797 393.421L471.453 388.818C469.232 374.024 456.763 362.927 441.811 362.438C426.86 361.948 413.692 372.205 410.507 386.822L440.797 393.421ZM432.627 430.921L402.337 424.322C401.865 426.49 401.627 428.702 401.627 430.921H432.627ZM432.627 494.079V525.079C449.748 525.079 463.627 511.2 463.627 494.079H432.627ZM425.601 494.079H394.601C394.601 511.2 408.48 525.079 425.601 525.079V494.079ZM425.601 200V169C408.48 169 394.601 182.879 394.601 200H425.601ZM432.627 200H463.627C463.627 182.879 449.748 169 432.627 169V200ZM345.679 395.789L362.079 422.096C362.175 422.035 362.272 421.975 362.368 421.913L345.679 395.789ZM333.914 438.815L302.914 438.815V438.815H333.914ZM341.921 470V501H341.924L341.921 470ZM355.564 396.579H386.564V396.579H355.564ZM355.564 389.474H386.564C386.564 378.149 380.39 367.726 370.458 362.286C360.526 356.845 348.418 357.253 338.875 363.349L355.564 389.474ZM98.5498 107.606L98.5516 76.6064H98.5498V107.606ZM116.996 224.096V255.096C133.835 255.096 147.594 241.654 147.988 224.82L116.996 224.096ZM85.5723 224.096V193.096C77.2779 193.096 69.3295 196.42 63.5043 202.324C57.679 208.229 54.463 216.221 54.5751 224.515L85.5723 224.096ZM98.4678 292.409L98.4663 323.409H98.4678V292.409ZM109.486 256.081V225.081C93.0085 225.081 79.4101 237.972 78.5305 254.426L109.486 256.081ZM116.669 256.081L147.642 257.374C147.994 248.935 144.888 240.718 139.042 234.623C133.195 228.527 125.115 225.081 116.669 225.081V256.081ZM98.5498 324V355H98.5515L98.5498 324ZM78.6338 215.803L47.6338 215.803V215.803H78.6338ZM244.799 107.606L244.8 76.6064H244.799V107.606ZM262.103 173.946V204.946C270.369 204.946 278.293 201.645 284.114 195.775C289.935 189.905 293.171 181.954 293.101 173.687L262.103 173.946ZM255.164 173.946L224.17 174.539C224.493 191.426 238.274 204.946 255.164 204.946V173.946ZM244.636 137.223L244.638 106.223H244.636V137.223ZM235.412 166.838L204.412 166.838V166.838H235.412ZM240.799 192.9L217.389 213.222C217.954 213.873 218.546 214.5 219.163 215.102L240.799 192.9ZM252.145 203.957L274.457 182.436C274.235 182.205 274.009 181.979 273.78 181.756L252.145 203.957ZM263 260.819H294V260.819H263ZM245.288 324L245.286 355H245.288V324ZM226.435 252.527V221.527C218.182 221.527 210.27 224.818 204.451 230.67C198.633 236.522 195.388 244.453 195.435 252.705L226.435 252.527ZM233.453 252.527L264.448 251.945C264.13 235.054 250.347 221.527 233.453 221.527V252.527ZM245.615 294.384V325.384H245.618L245.615 294.384ZM255.817 263.188H286.817V263.188L255.817 263.188ZM249.859 235.152L272.794 214.295C272.35 213.807 271.891 213.333 271.416 212.875L249.859 235.152ZM238.841 224.49L217.153 246.641C217.196 246.683 217.24 246.726 217.284 246.768L238.841 224.49ZM228.229 169.997L197.229 169.997V169.997H228.229ZM148.796 113.529H117.796C117.796 130.65 131.675 144.529 148.796 144.529V113.529ZM166.426 113.529H197.426C197.426 96.4085 183.547 82.5293 166.426 82.5293V113.529ZM166.426 144.33V175.33C183.547 175.33 197.426 161.451 197.426 144.33H166.426ZM148.796 144.33V113.33C131.675 113.33 117.796 127.209 117.796 144.33H148.796ZM159.08 290.83V321.83H159.082L159.08 290.83ZM167.242 283.327H198.242C198.242 269.105 188.565 256.707 174.768 253.255C160.972 249.802 146.595 256.18 139.896 268.725L167.242 283.327ZM167.242 314.128L195.394 327.108C197.27 323.038 198.242 318.61 198.242 314.128H167.242ZM158.427 322.421L158.426 353.421H158.427V322.421ZM141.694 240.681H110.694V240.681H141.694ZM141.694 144.33H172.694C172.694 127.209 158.815 113.33 141.694 113.33V144.33ZM127.248 144.33H96.248C96.248 161.451 110.127 175.33 127.248 175.33V144.33ZM127.248 113.529V82.5293C110.127 82.5293 96.248 96.4085 96.248 113.529H127.248ZM141.694 113.529V144.529C158.815 144.529 172.694 130.65 172.694 113.529H141.694ZM141.694 54.2979L112.908 42.7935C111.446 46.4527 110.694 50.3572 110.694 54.2979H141.694ZM148.796 36.5283H179.796C179.796 21.6661 169.248 8.89512 154.654 6.08678C140.059 3.27845 125.525 11.2231 120.01 25.0239L148.796 36.5283ZM38.1826 285.302H7.18262C7.18262 302.423 21.0618 316.302 38.1826 316.302V285.302ZM68.5449 285.302H99.5449C99.5449 268.181 85.6657 254.302 68.5449 254.302V285.302ZM68.5449 318.077V349.077C85.6657 349.077 99.5449 335.198 99.5449 318.077H68.5449ZM31 318.077H0C0 335.198 13.8792 349.077 31 349.077L31 318.077ZM31 33.7646V2.76465C13.8792 2.76465 0 16.6438 0 33.7646H31ZM38.1826 33.7646H69.1826C69.1826 16.6438 55.3034 2.76465 38.1826 2.76465V33.7646ZM98.4678 139.196V108.196H98.4662L98.4678 139.196ZM85.8164 195.664L54.8383 194.5C54.5219 202.918 57.6448 211.102 63.4883 217.169C69.3318 223.236 77.3927 226.664 85.8164 226.664V195.664ZM109.813 195.664V226.664C118.099 226.664 126.04 223.347 131.864 217.454C137.687 211.56 140.91 203.581 140.811 195.296L109.813 195.664ZM195.777 31L195.786 0H195.777V31ZM203.041 66.1445L234.041 66.1446V66.1445H203.041ZM201.409 94.9707L232.262 97.9858C232.267 97.9412 232.271 97.8966 232.275 97.8519L201.409 94.9707ZM195.042 160.125V191.125C210.995 191.125 224.343 179.018 225.895 163.14L195.042 160.125ZM189.737 160.125L158.863 157.341C158.081 166.012 160.981 174.612 166.854 181.038C172.727 187.464 181.032 191.125 189.737 191.125V160.125ZM195.042 101.288L225.917 104.072C227.032 91.705 220.66 79.8661 209.724 73.9853L195.042 101.288ZM188.513 66.1445H157.513V66.1446L188.513 66.1445ZM345.597 283.685V314.685C338.695 314.685 333.33 311.991 330.055 309.407C327.133 307.103 325.877 304.945 325.695 304.629C325.413 304.142 326.363 305.788 327.551 311.246C329.812 321.639 331.428 338.599 331.428 361.447H362.428H393.428C393.428 336.533 391.734 314.611 388.133 298.063C386.39 290.051 383.77 281.212 379.375 273.607C375.647 267.155 365.228 252.685 345.597 252.685V283.685ZM362.428 361.447H331.428V433.289H362.428H393.428V361.447H362.428ZM362.428 433.289H331.428C331.428 449.985 331.509 467.847 331.755 494.366L362.754 494.079L393.753 493.792C393.508 467.416 393.428 449.751 393.428 433.289H362.428ZM362.754 494.079V463.079H355.892V494.079V525.079H362.754V494.079ZM355.892 494.079H386.892V457.763H355.892H324.892V494.079H355.892ZM355.892 457.763L325.106 454.122C323.559 467.2 321.775 475.062 320.415 478.909C319.683 480.979 319.739 479.938 321.445 477.824C323.231 475.609 329.671 469.001 340.938 469L340.94 500L340.943 531C355.478 530.999 365.012 522.565 369.704 516.748C374.315 511.031 377.088 504.612 378.868 499.577C382.533 489.213 384.956 475.957 386.677 461.404L355.892 457.763ZM340.94 500V469C355.254 469 361.477 479.226 361.675 479.549C362.453 480.819 361.897 480.385 360.997 476.58C359.313 469.464 357.969 457.306 357.969 440.789H326.969H295.969C295.969 459.798 297.443 477.246 300.662 490.853C302.213 497.411 304.629 505.118 308.808 511.939C312.407 517.814 322.46 531 340.94 531V500ZM326.969 440.789L357.969 440.789C357.969 422.1 359.593 408.234 361.908 399.163C363.062 394.642 364.158 392.237 364.689 391.301C365.289 390.242 364.429 392.314 360.956 394.296L345.597 367.368L330.237 340.441C312.632 350.483 305.362 370.008 301.834 383.83C297.776 399.726 295.969 419.216 295.969 440.789L326.969 440.789ZM345.597 367.368L360.628 394.48L370.596 388.954L355.564 361.842L340.533 334.73L330.565 340.256L345.597 367.368ZM355.564 361.842H386.564V360.263H355.564H324.564V361.842H355.564ZM355.564 360.263L386.564 360.263C386.564 344.574 385.585 330.358 383.135 319.216C381.966 313.898 379.999 307.03 376.182 300.733C372.663 294.925 363.027 282.685 345.434 282.685V313.685V344.685C330.985 344.685 324.189 334.566 323.159 332.866C321.832 330.676 322.004 329.901 322.581 332.528C323.624 337.274 324.564 346.346 324.564 360.263L355.564 360.263ZM345.434 313.685L345.433 282.685C328.437 282.685 318.945 294.364 315.731 299.072C311.854 304.75 309.585 310.948 308.167 315.813C305.206 325.967 303.696 338.306 303.412 350.879L334.404 351.579L365.396 352.279C365.603 343.142 366.707 336.534 367.688 333.168C368.241 331.274 368.275 332.068 366.933 334.033C366.215 335.085 364.442 337.45 361.215 339.732C357.747 342.184 352.329 344.684 345.435 344.685L345.434 313.685ZM334.404 351.579V320.579H327.541V351.579V382.579H334.404V351.579ZM327.541 351.579L358.537 352.082C358.841 333.331 360.715 319.106 363.004 310.502C364.208 305.974 365.043 304.881 364.546 305.639C364.242 306.102 362.885 308.095 360.021 310.148C356.872 312.405 351.9 314.684 345.599 314.685L345.597 283.685L345.594 252.685C327.398 252.686 316.912 265.22 312.71 271.624C307.987 278.821 305.059 287.152 303.087 294.565C299.024 309.843 296.894 329.565 296.545 351.076L327.541 351.579ZM298.569 289.605V320.605H316.217V289.605V258.605H298.569V289.605ZM316.217 289.605H285.217V320.395H316.217H347.217V289.605H316.217ZM316.217 320.395V289.395H298.569V320.395V351.395H316.217V320.395ZM298.569 320.395H267.569V415.921H298.569H329.569V320.395H298.569ZM298.569 415.921H267.569C267.569 432.727 268.546 447.826 270.911 459.518C272.039 465.09 273.896 472.086 277.449 478.466C280.389 483.743 289.916 497.841 308.862 497.842L308.863 466.842L308.865 435.842C316.274 435.842 322.175 438.739 325.983 441.798C329.4 444.543 331.062 447.305 331.615 448.298C332.633 450.126 332.32 450.386 331.681 447.225C330.512 441.449 329.569 431.088 329.569 415.921H298.569ZM308.863 466.842V497.842C320.869 497.842 329.49 491.968 334.273 487.484C339.036 483.019 342.245 477.935 344.371 473.959L317.033 459.342L289.696 444.725C289.289 445.486 289.843 444.152 291.869 442.252C293.915 440.334 299.717 435.842 308.863 435.842V466.842ZM317.033 459.342H286.033V490.132H317.033H348.033V459.342H317.033ZM317.033 490.132L288.889 477.136C288.907 477.096 289.577 475.576 291.661 473.617C293.488 471.899 299.097 467.421 308.209 467.421L308.21 498.421L308.211 529.421C320.427 529.421 329.263 523.364 334.134 518.784C339.26 513.963 342.79 508.299 345.178 503.127L317.033 490.132ZM308.21 498.421V467.421C315.063 467.421 320.458 470.098 323.812 472.777C326.777 475.146 328.023 477.362 328.187 477.655C328.426 478.082 327.444 476.278 326.257 470.463C323.995 459.376 322.461 441.333 322.461 416.711L291.461 416.711L260.461 416.711C260.461 443.01 262.032 465.822 265.509 482.86C267.192 491.106 269.738 500.183 274.106 507.974C277.877 514.7 288.329 529.421 308.21 529.421V498.421ZM291.461 416.711H322.461V320.395H291.461H260.461V416.711H291.461ZM291.461 320.395V289.395H277V320.395V351.395H291.461V320.395ZM277 320.395H308V289.605H277H246V320.395H277ZM277 289.605V320.605H291.461V289.605V258.605H277V289.605ZM291.461 289.605H322.461V230.395H291.461H260.461V289.605H291.461ZM291.461 230.395L320.242 241.912L327.35 224.15L298.569 212.632L269.788 201.114L262.68 218.877L291.461 230.395ZM298.569 212.632H267.569V289.605H298.569H329.569V212.632H298.569ZM398.099 463.289V494.289H413.377V463.289V432.289H398.099V463.289ZM413.377 463.289H382.377V494.079H413.377H444.377V463.289H413.377ZM413.377 494.079V463.079H375.795V494.079V525.079H413.377V494.079ZM375.795 494.079H406.795V463.289H375.795H344.795V494.079H375.795ZM375.795 463.289V494.289H390.991V463.289V432.289H375.795V463.289ZM390.991 463.289H421.991V230.789H390.991H359.991V463.289H390.991ZM390.991 230.789V199.789H376.611V230.789V261.789H390.991V230.789ZM376.611 230.789H407.611V200H376.611H345.611V230.789H376.611ZM376.611 200V231H398.099V200V169H376.611V200ZM398.099 200H367.099V463.289H398.099H429.099V200H398.099ZM432.627 387.105L462.922 393.68L484.082 296.18L453.787 289.605L423.492 283.031L402.332 380.531L432.627 387.105ZM453.787 289.605V320.605H463.102V289.605V258.605H453.787V289.605ZM463.102 289.605L432.794 283.088L415.392 364.009L445.699 370.526L476.006 377.044L493.409 296.123L463.102 289.605ZM445.699 370.526L415.034 375.069L433.335 498.621L464 494.079L494.665 489.537L476.365 365.984L445.699 370.526ZM464 494.079V463.079H455.911V494.079V525.079H464V494.079ZM455.911 494.079L486.567 489.476L471.453 388.818L440.797 393.421L410.141 398.024L425.255 498.682L455.911 494.079ZM440.797 393.421L410.507 386.822L402.337 424.322L432.627 430.921L462.916 437.52L471.086 400.02L440.797 393.421ZM432.627 430.921H401.627V494.079H432.627H463.627V430.921H432.627ZM432.627 494.079V463.079H425.601V494.079V525.079H432.627V494.079ZM425.601 494.079H456.601V200H425.601H394.601V494.079H425.601ZM425.601 200V231H432.627V200V169H425.601V200ZM432.627 200H401.627V387.105H432.627H463.627V200H432.627ZM345.679 395.789L329.279 369.482C315.559 378.035 309.77 392.244 307.053 402.138C304.057 413.051 302.914 425.65 302.914 438.815L333.914 438.815L364.914 438.815C364.914 428.691 365.854 422.146 366.841 418.552C367.318 416.813 367.597 416.55 367.23 417.163C366.855 417.79 365.363 420.048 362.079 422.096L345.679 395.789ZM333.914 438.815H302.914C302.914 449.446 303.788 460.088 306.074 469.038C307.16 473.287 309.072 479.24 312.793 484.857C316.217 490.026 325.509 501 341.921 501V470V439C355.922 439 363.009 448.396 364.48 450.615C366.248 453.284 366.459 454.92 366.145 453.692C365.633 451.687 364.914 446.737 364.914 438.815H333.914ZM341.921 470L341.924 501C353.549 500.999 361.9 495.299 366.587 490.662C371.063 486.232 373.787 481.341 375.421 477.884C378.738 470.869 380.786 462.751 382.185 455.277C385.086 439.783 386.564 419.35 386.564 396.579H355.564H324.564C324.564 417.229 323.184 433.506 321.244 443.867C320.223 449.32 319.355 451.416 319.371 451.383C319.436 451.245 319.685 450.732 320.176 449.982C320.651 449.255 321.546 448.007 322.978 446.59C325.836 443.763 332.274 439.001 341.918 439L341.921 470ZM355.564 396.579H386.564V389.474H355.564H324.564V396.579H355.564ZM355.564 389.474L338.875 363.349L328.99 369.665L345.679 395.789L362.368 421.913L372.254 415.598L355.564 389.474ZM98.5498 107.606L98.548 138.606C88.3148 138.606 82.0667 133.079 79.9745 130.786C77.9943 128.616 77.6408 127.24 78.1767 128.512C79.1654 130.859 80.7668 136.347 82.2652 145.818C85.1748 164.209 86.7533 191.343 86.0046 223.371L116.996 224.096L147.988 224.82C148.79 190.509 147.185 159.399 143.504 136.13C141.706 124.771 139.16 113.575 135.316 104.447C133.435 99.9808 130.493 94.1681 125.774 88.996C120.943 83.7013 111.805 76.6072 98.5516 76.6064L98.5498 107.606ZM116.996 224.096V193.096H85.5723V224.096V255.096H116.996V224.096ZM85.5723 224.096L54.5751 224.515C54.8707 246.377 56.2601 265.48 58.9503 279.814C60.2423 286.699 62.1827 294.471 65.512 301.285C67.4868 305.327 76.8456 323.408 98.4663 323.409L98.4678 292.409L98.4692 261.409C107.332 261.41 113.652 265.48 116.94 268.551C119.884 271.3 121.074 273.773 121.219 274.068C121.515 274.675 120.808 273.291 119.887 268.379C118.149 259.12 116.845 244.067 116.569 223.677L85.5723 224.096ZM98.4678 292.409V323.409C113.667 323.409 123.1 314.062 127.274 308.445C131.501 302.757 133.858 296.543 135.28 291.881C138.236 282.194 139.772 270.264 140.442 257.736L109.486 256.081L78.5305 254.426C77.9759 264.801 76.819 271.035 75.9794 273.787C75.5045 275.343 75.6877 273.917 77.5119 271.462C79.2836 269.078 86.0849 261.409 98.4678 261.409V292.409ZM109.486 256.081V287.081H116.669V256.081V225.081H109.486V256.081ZM116.669 256.081L85.6959 254.788C84.8866 274.18 82.8199 288.658 80.4742 297.444C79.2391 302.071 78.404 303.268 78.8277 302.598C79.0804 302.198 80.4018 300.151 83.2668 297.995C86.4178 295.624 91.679 293 98.5481 293L98.5498 324L98.5515 355C117.288 354.999 127.571 341.522 131.234 335.727C135.652 328.739 138.449 320.657 140.376 313.437C144.356 298.53 146.737 279.049 147.642 257.374L116.669 256.081ZM98.5498 324V293C107.768 293 113.777 297.582 116.209 300.008C118.423 302.215 118.978 303.795 118.566 302.915C117.794 301.26 116.247 296.7 114.674 288.14C111.629 271.57 109.634 246.566 109.634 215.803H78.6338H47.6338C47.6338 248.615 49.7196 277.71 53.6947 299.344C55.6318 309.887 58.3293 320.455 62.3926 329.154C64.3994 333.45 67.5205 339.014 72.4296 343.909C77.5585 349.024 86.3935 355 98.5498 355V324ZM78.6338 215.803L109.634 215.803C109.634 185.491 111.663 160.47 114.735 143.766C116.32 135.143 117.885 130.434 118.71 128.642C119.154 127.678 118.647 129.195 116.508 131.377C114.205 133.728 108.113 138.606 98.5498 138.606V107.606V76.6064C86.0893 76.6064 77.2019 82.9043 72.2244 87.984C67.4125 92.8947 64.3537 98.4499 62.3868 102.724C58.3909 111.408 55.7014 121.977 53.7566 132.554C49.7673 154.252 47.6338 183.329 47.6338 215.803L78.6338 215.803ZM244.799 107.606L244.798 138.606C238.302 138.606 233.23 136.214 230.078 133.92C227.205 131.829 225.847 129.809 225.542 129.338C225.031 128.549 225.831 129.588 226.986 133.988C229.177 142.332 230.953 156.141 231.104 174.205L262.103 173.946L293.101 173.687C292.926 152.659 290.906 133.298 286.955 118.245C285.039 110.947 282.182 102.731 277.566 95.6113C273.553 89.4207 263.145 76.6069 244.8 76.6064L244.799 107.606ZM262.103 173.946V142.946H255.164V173.946V204.946H262.103V173.946ZM255.164 173.946L286.158 173.353C285.924 161.082 284.546 149.015 281.69 139.05C280.323 134.277 278.091 128.085 274.17 122.388C270.752 117.421 261.283 106.224 244.638 106.223L244.636 137.223L244.633 168.223C230.845 168.221 224.069 158.95 223.097 157.537C221.622 155.394 221.589 154.384 222.089 156.127C222.967 159.192 223.997 165.488 224.17 174.539L255.164 173.946ZM244.636 137.223V106.223C229.862 106.223 220.481 115.062 216.164 120.725C211.865 126.366 209.554 132.462 208.224 136.889C205.457 146.095 204.412 156.756 204.412 166.838L235.412 166.838L266.412 166.838C266.412 160.335 267.163 156.188 267.6 154.733C267.872 153.829 267.515 155.631 265.473 158.311C263.414 161.012 256.593 168.223 244.636 168.223V137.223ZM235.412 166.838H204.412C204.412 175.003 204.972 182.882 206.505 190.053C207.956 196.838 210.827 205.663 217.389 213.222L240.799 192.9L264.209 172.579C265.889 174.514 266.689 176.161 266.992 176.864C267.297 177.575 267.275 177.743 267.135 177.089C266.831 175.671 266.412 172.493 266.412 166.838H235.412ZM240.799 192.9L219.163 215.102L230.509 226.158L252.145 203.957L273.78 181.756L262.434 170.699L240.799 192.9ZM252.145 203.957L229.832 225.478C227.83 223.402 227.515 222.054 227.984 223.218C228.375 224.186 229.038 226.233 229.71 229.701C231.061 236.669 232 246.98 232 260.819H263H294C294 244.648 292.939 230.082 290.576 217.898C288.493 207.156 284.448 192.794 274.457 182.436L252.145 203.957ZM263 260.819H232C232 278.545 230.329 291.198 228.308 298.391C227.247 302.171 226.632 302.451 227.619 301.113C228.664 299.695 234.39 293 245.288 293V324V355C261.532 355 272.145 345.195 277.514 337.916C282.824 330.717 285.969 322.383 287.999 315.156C292.162 300.334 294 281.396 294 260.819H263ZM245.288 324L245.29 293C257.916 293.001 263.563 301.54 263.599 301.594C264.051 302.27 263.135 301.038 261.871 296.284C259.458 287.217 257.548 272.213 257.434 252.349L226.435 252.527L195.435 252.705C195.566 275.488 197.696 296.22 201.955 312.227C204.027 320.011 207.106 328.651 212.064 336.065C216.607 342.856 227.274 354.999 245.286 355L245.288 324ZM226.435 252.527V283.527H233.453V252.527V221.527H226.435V252.527ZM233.453 252.527L202.459 253.11C202.727 267.412 204.152 280.975 207.368 291.948C208.926 297.263 211.495 304.074 216.127 310.202C220.869 316.475 230.605 325.384 245.615 325.384V294.384V263.384C257.157 263.384 263.699 270.318 265.587 272.815C267.365 275.168 267.419 276.401 266.865 274.51C265.857 271.07 264.669 263.704 264.448 251.945L233.453 252.527ZM245.615 294.384L245.618 325.384C259.114 325.383 268.382 318.004 273.267 312.26C278.003 306.692 280.677 300.519 282.272 295.776C285.543 286.052 286.817 274.61 286.817 263.188H255.817H224.817C224.817 270.72 223.888 274.876 223.507 276.011C223.276 276.698 223.761 274.77 226.041 272.09C228.47 269.234 235.014 263.385 245.613 263.384L245.615 294.384ZM255.817 263.188L286.817 263.188C286.817 254.666 286.101 246.353 284.478 238.885C283.104 232.562 280.191 222.429 272.794 214.295L249.859 235.152L226.925 256.009C225.725 254.69 224.957 253.533 224.513 252.788C224.061 252.029 223.816 251.479 223.716 251.242C223.538 250.816 223.666 251.01 223.892 252.052C224.35 254.16 224.817 257.891 224.817 263.189L255.817 263.188ZM249.859 235.152L271.416 212.875L260.398 202.213L238.841 224.49L217.284 246.768L228.302 257.43L249.859 235.152ZM238.841 224.49L260.529 202.34C263.108 204.865 263.573 206.714 263.078 205.475C262.711 204.556 262.067 202.538 261.411 199.114C260.1 192.268 259.229 182.405 259.229 169.997H228.229H197.229C197.229 184.836 198.236 198.862 200.517 210.774C201.657 216.728 203.237 222.805 205.502 228.475C207.64 233.826 211.146 240.759 217.153 246.641L238.841 224.49ZM228.229 169.997L259.229 169.997C259.23 151.745 260.839 139.222 262.728 132.264C263.724 128.596 264.267 128.494 263.184 129.994C262.06 131.553 256.131 138.606 244.799 138.606V107.606V76.6064C228.528 76.6064 218.06 86.5718 212.903 93.7209C207.787 100.811 204.806 108.977 202.894 116.02C198.967 130.484 197.23 149.156 197.229 169.997L228.229 169.997ZM148.796 113.529V144.529H166.426V113.529V82.5293H148.796V113.529ZM166.426 113.529H135.426V144.33H166.426H197.426V113.529H166.426ZM166.426 144.33V113.33H148.796V144.33V175.33H166.426V144.33ZM148.796 144.33H117.796V239.891H148.796H179.796V144.33H148.796ZM148.796 239.891H117.796C117.796 256.702 118.772 271.802 121.134 283.494C122.26 289.065 124.114 296.059 127.662 302.438C130.591 307.703 140.114 321.83 159.08 321.83V290.83V259.83C166.502 259.83 172.409 262.735 176.217 265.798C179.633 268.546 181.293 271.31 181.844 272.3C182.859 274.125 182.546 274.381 181.906 271.216C180.738 265.434 179.796 255.065 179.796 239.891H148.796ZM159.08 290.83L159.082 321.83C171.101 321.829 179.724 315.941 184.5 311.457C189.259 306.99 192.465 301.905 194.588 297.929L167.242 283.327L139.896 268.725C139.489 269.488 140.042 268.154 142.067 266.254C144.109 264.336 149.916 259.831 159.078 259.83L159.08 290.83ZM167.242 283.327H136.242V314.128H167.242H198.242V283.327H167.242ZM167.242 314.128L139.091 301.147C139.108 301.11 139.776 299.591 141.858 297.63C143.682 295.913 149.297 291.421 158.427 291.421V322.421V353.421C170.658 353.421 179.498 347.349 184.362 342.768C189.484 337.945 193.009 332.28 195.394 327.108L167.242 314.128ZM158.427 322.421L158.427 291.421C165.294 291.421 170.696 294.107 174.049 296.79C177.014 299.161 178.257 301.378 178.42 301.669C178.657 302.092 177.674 300.283 176.488 294.462C174.227 283.367 172.694 265.313 172.694 240.681H141.694H110.694C110.694 266.988 112.264 289.804 115.737 306.844C117.417 315.09 119.96 324.166 124.321 331.956C128.08 338.67 138.526 353.421 158.426 353.421L158.427 322.421ZM141.694 240.681H172.694V144.33H141.694H110.694V240.681H141.694ZM141.694 144.33V113.33H127.248V144.33V175.33H141.694V144.33ZM127.248 144.33H158.248V113.529H127.248H96.248V144.33H127.248ZM127.248 113.529V144.529H141.694V113.529V82.5293H127.248V113.529ZM141.694 113.529H172.694V54.2979H141.694H110.694V113.529H141.694ZM141.694 54.2979L170.481 65.8022L177.582 48.0327L148.796 36.5283L120.01 25.0239L112.908 42.7935L141.694 54.2979ZM148.796 36.5283H117.796V113.529H148.796H179.796V36.5283H148.796ZM38.1826 285.302V316.302H68.5449V285.302V254.302H38.1826V285.302ZM68.5449 285.302H37.5449V318.077H68.5449H99.5449V285.302H68.5449ZM68.5449 318.077V287.077H31V318.077V349.077H68.5449V318.077ZM31 318.077H62V33.7646H31H0V318.077H31ZM31 33.7646V64.7646H38.1826V33.7646V2.76465H31V33.7646ZM38.1826 33.7646H7.18262V285.302H38.1826H69.1826V33.7646H38.1826ZM98.4678 139.196L98.4662 108.196C78.3558 108.197 68.9031 124.106 66.5964 128.362C63.1692 134.686 61.1697 141.758 59.8545 147.701C57.1059 160.12 55.52 176.36 54.8383 194.5L85.8164 195.664L116.795 196.828C117.419 180.219 118.812 168.226 120.39 161.098C121.237 157.268 121.738 156.738 121.106 157.904C120.777 158.512 119.365 161.042 116.257 163.712C112.815 166.669 106.712 170.196 98.4693 170.196L98.4678 139.196ZM85.8164 195.664V226.664H109.813V195.664V164.664H85.8164V195.664ZM109.813 195.664L140.811 195.296C140.597 177.287 139.386 161.021 136.905 148.515C135.719 142.54 133.868 135.398 130.561 128.983C128.405 124.801 119.067 108.196 98.4678 108.196V139.196V170.196C90.0138 170.196 83.7792 166.5 80.29 163.406C77.1576 160.627 75.7693 158.007 75.4527 157.393C74.8368 156.198 75.3267 156.732 76.0901 160.58C77.5064 167.719 78.6215 179.687 78.8157 196.032L109.813 195.664ZM195.777 31L195.769 62C185.504 61.9972 178.634 56.8778 175.522 53.8166C172.534 50.8771 171.157 48.1494 170.787 47.392C169.988 45.7594 170.134 45.413 170.571 47.5448C171.34 51.2923 172.041 57.8856 172.041 66.1445H203.041H234.041C234.041 55.055 233.151 44.0767 231.307 35.0893C230.439 30.8537 229.024 25.349 226.481 20.1499C225.238 17.6092 222.944 13.4961 219.001 9.61712C214.933 5.61629 207.071 0.00304031 195.786 1.90735e-06L195.777 31ZM203.041 66.1445L172.041 66.1445C172.041 72.7126 171.639 80.353 170.543 92.0895L201.409 94.9707L232.275 97.8519C233.465 85.1062 234.041 75.3714 234.041 66.1446L203.041 66.1445ZM201.409 94.9707L170.556 91.9556L164.189 157.11L195.042 160.125L225.895 163.14L232.262 97.9858L201.409 94.9707ZM195.042 160.125V129.125H189.737V160.125V191.125H195.042V160.125ZM189.737 160.125L220.612 162.909L225.917 104.072L195.042 101.288L164.167 98.5044L158.863 157.341L189.737 160.125ZM195.042 101.288L209.724 73.9853C214.628 76.6224 217.432 80.0023 218.723 81.8093C220.069 83.6948 220.699 85.1741 220.888 85.6397C221.238 86.5019 221.026 86.2618 220.673 84.2207C220.004 80.3381 219.513 74.0673 219.513 66.1445L188.513 66.1445L157.513 66.1446C157.513 75.9906 158.083 86.1066 159.576 94.761C160.305 98.9886 161.45 104.054 163.437 108.952C164.854 112.444 169.265 122.625 180.36 128.591L195.042 101.288ZM188.513 66.1445H219.513C219.513 57.8856 220.214 51.2923 220.982 47.5451C221.42 45.4133 221.566 45.7602 220.767 47.3934C220.396 48.151 219.019 50.8795 216.03 53.8193C212.916 56.8814 206.043 62 195.777 62V31V0C184.491 0 176.626 5.61225 172.557 9.61372C168.613 13.493 166.317 17.6066 165.074 20.1474C162.531 25.3469 161.116 30.8519 160.247 35.0876C158.403 44.0755 157.513 55.0544 157.513 66.1445H188.513Z" fill="#56CCFF" mask="url(#path-1-outside-1_225_613)"/>
</svg>
