<svg width="313" height="497" viewBox="0 0 313 497" fill="none" xmlns="http://www.w3.org/2000/svg">
<mask id="path-1-outside-1_225_532" maskUnits="userSpaceOnUse" x="-1" y="0" width="314" height="497" fill="black">
<rect fill="white" x="-1" width="314" height="497"/>
<path d="M142.105 359.881C148.45 359.881 152.561 373.628 152.561 395.514V428.433C152.561 436.029 152.611 444.169 152.764 456.287H148.5V439.646C146.47 452.307 143.273 459 139.213 459C134.036 459 130.534 448.148 130.534 431.869C130.534 413.42 134.797 401.301 142.105 398.227L148.298 395.694V394.971C148.298 381.405 145.912 373.628 142.004 373.628C138.4 373.628 135.457 381.043 135.152 390.991H130.889C131.295 372.542 135.863 359.881 142.105 359.881ZM173.096 359.881C179.44 359.881 184.008 372.723 184.719 392.438H180.303C179.491 381.224 176.851 374.713 173.096 374.713C168.274 374.713 164.772 389.183 164.772 409.44C164.772 429.879 168.274 444.167 173.096 444.168C176.851 444.168 179.541 437.114 180.303 425.357H184.719C184.008 445.977 179.491 459 173.096 459C165.534 459 160.356 438.923 160.356 409.44C160.356 380.501 165.635 359.881 173.096 359.881ZM112.688 326.058C119.845 326.058 124.361 340.528 124.361 363.318C124.361 386.108 119.845 400.396 112.688 400.396H104.466V456.287H100V326.058H112.688ZM196.169 407.271L209.314 362.595H215.1L204.289 399.674L215.658 456.287H210.634L201.244 410.164L196.169 427.347V456.287H191.804V321.536H196.169V407.271ZM142.156 411.249C137.436 413.42 134.848 420.293 134.848 430.965C134.848 439.466 136.827 445.254 139.821 445.254C144.744 445.254 148.298 431.507 148.298 411.611V408.355L142.156 411.249ZM104.466 385.385H112.688C117.104 385.385 119.794 377.064 119.794 363.499C119.794 349.391 117.155 341.07 112.688 341.07H104.466V385.385ZM65.501 343H60.8662L58.167 310.732H45.3848L42.6348 343H38L49.2041 213.211H54.4492L65.501 343ZM84.4766 328.939H94V343H70.5732V328.939H80.0459V263.685H71.083V249.624H84.4766V328.939ZM142.105 215.853C148.45 215.853 152.561 229.599 152.561 251.484V284.403C152.561 292 152.611 300.139 152.764 312.258H148.5V295.617C146.47 308.278 143.273 314.97 139.213 314.971C134.036 314.971 130.534 304.118 130.534 287.84C130.534 269.391 134.797 257.272 142.105 254.197L148.298 251.665V250.941C148.298 237.376 145.912 229.599 142.004 229.599C138.4 229.599 135.457 237.015 135.152 246.963H130.889C131.295 228.514 135.863 215.853 142.105 215.853ZM166.041 275.541C166.041 290.734 168.274 300.14 171.878 300.14C175.887 300.14 179.034 288.383 179.034 273.009V218.565H183.449V312.258H179.187V299.597C177.664 308.279 174.415 314.971 171.319 314.971C165.381 314.97 161.626 300.863 161.626 278.435V218.565H166.041V275.541ZM233.96 215.853C240.304 215.853 244.872 228.694 245.583 248.409H241.167C240.355 237.195 237.716 230.684 233.96 230.684C229.139 230.684 225.637 245.155 225.637 265.412C225.637 285.85 229.139 300.139 233.96 300.14C237.716 300.14 240.406 293.085 241.167 281.328H245.583C244.872 301.948 240.355 314.971 233.96 314.971C226.398 314.97 221.222 294.894 221.222 265.412C221.222 236.473 226.499 215.853 233.96 215.853ZM104.974 297.245H123.854V312.258H100.508V182.029H104.974V297.245ZM204.188 215.853C210.278 215.853 214.136 229.96 214.136 252.389V312.258H209.72V255.283C209.72 240.271 207.385 230.684 203.63 230.684C199.519 230.684 196.22 242.622 196.22 257.815V312.258H191.804V218.565H196.067V231.227C197.59 222.545 200.99 215.853 204.188 215.853ZM257.084 230.503C258.657 222.183 261.957 215.853 265.053 215.853C271.143 215.853 275 229.961 275 252.389V312.258H270.584V255.283C270.584 240.271 268.25 230.684 264.494 230.684C260.383 230.684 257.084 242.622 257.084 257.815V312.258H252.669V177.507H257.084V230.503ZM142.156 267.221C137.436 269.391 134.848 276.264 134.848 286.936C134.848 295.436 136.827 301.224 139.821 301.225C144.744 301.225 148.298 287.478 148.298 267.582V264.326L142.156 267.221ZM46.6064 296.492H56.9961L51.8525 234.842L46.6064 296.492ZM82.2871 206C84.4259 206.001 86.1064 211.949 86.1064 219.52C86.1064 226.91 84.4259 232.859 82.2871 232.859C80.1482 232.859 78.4668 226.91 78.4668 219.52C78.4668 211.949 80.1482 206 82.2871 206ZM203.985 71.8232C210.126 71.8241 215.15 89.7307 215.15 121.383C215.15 153.035 210.126 170.942 203.985 170.942C200.331 170.942 197.641 163.526 196.22 154.845V205.308H191.804V74.5361H196.067V88.8252C197.438 80.1434 200.027 71.8232 203.985 71.8232ZM172.538 71.8232C179.796 71.824 184.719 91.901 184.719 121.383C184.719 150.865 179.796 170.942 172.538 170.942C165.28 170.942 160.356 150.865 160.356 121.383C160.356 92.0813 165.331 71.8232 172.538 71.8232ZM108.679 38C118.22 38 124.361 63.6839 124.361 103.295C124.361 142.725 118.22 168.229 108.679 168.229H100V38H108.679ZM148.805 73.2705C150.683 73.2705 152.764 74.356 154.286 77.25V93.5283C152.713 90.6343 150.581 89.5488 148.703 89.5488C143.983 89.5494 140.634 103.296 140.634 122.83V154.121H149.719V168.229H129.925V154.121H136.218V88.6445H130.433V74.5361H140.481V91.5391C141.7 81.4103 145.1 73.2708 148.805 73.2705ZM172.538 86.293C167.869 86.293 164.772 100.401 164.772 121.383C164.772 142.545 167.869 156.473 172.538 156.473C177.156 156.472 180.303 142.363 180.303 121.383C180.303 100.402 177.207 86.2938 172.538 86.293ZM203.478 87.0166C199.417 87.0166 196.22 99.3162 196.22 121.383C196.22 143.811 199.417 155.567 203.478 155.567C207.538 155.567 210.685 143.992 210.685 121.383C210.685 98.9548 207.538 87.0169 203.478 87.0166ZM104.466 153.217H108.679C115.429 153.217 119.794 133.682 119.794 103.114C119.794 72.5468 115.429 53.0127 108.679 53.0127H104.466V153.217Z"/>
</mask>
<path d="M142.105 359.881C148.45 359.881 152.561 373.628 152.561 395.514V428.433C152.561 436.029 152.611 444.169 152.764 456.287H148.5V439.646C146.47 452.307 143.273 459 139.213 459C134.036 459 130.534 448.148 130.534 431.869C130.534 413.42 134.797 401.301 142.105 398.227L148.298 395.694V394.971C148.298 381.405 145.912 373.628 142.004 373.628C138.4 373.628 135.457 381.043 135.152 390.991H130.889C131.295 372.542 135.863 359.881 142.105 359.881ZM173.096 359.881C179.44 359.881 184.008 372.723 184.719 392.438H180.303C179.491 381.224 176.851 374.713 173.096 374.713C168.274 374.713 164.772 389.183 164.772 409.44C164.772 429.879 168.274 444.167 173.096 444.168C176.851 444.168 179.541 437.114 180.303 425.357H184.719C184.008 445.977 179.491 459 173.096 459C165.534 459 160.356 438.923 160.356 409.44C160.356 380.501 165.635 359.881 173.096 359.881ZM112.688 326.058C119.845 326.058 124.361 340.528 124.361 363.318C124.361 386.108 119.845 400.396 112.688 400.396H104.466V456.287H100V326.058H112.688ZM196.169 407.271L209.314 362.595H215.1L204.289 399.674L215.658 456.287H210.634L201.244 410.164L196.169 427.347V456.287H191.804V321.536H196.169V407.271ZM142.156 411.249C137.436 413.42 134.848 420.293 134.848 430.965C134.848 439.466 136.827 445.254 139.821 445.254C144.744 445.254 148.298 431.507 148.298 411.611V408.355L142.156 411.249ZM104.466 385.385H112.688C117.104 385.385 119.794 377.064 119.794 363.499C119.794 349.391 117.155 341.07 112.688 341.07H104.466V385.385ZM65.501 343H60.8662L58.167 310.732H45.3848L42.6348 343H38L49.2041 213.211H54.4492L65.501 343ZM84.4766 328.939H94V343H70.5732V328.939H80.0459V263.685H71.083V249.624H84.4766V328.939ZM142.105 215.853C148.45 215.853 152.561 229.599 152.561 251.484V284.403C152.561 292 152.611 300.139 152.764 312.258H148.5V295.617C146.47 308.278 143.273 314.97 139.213 314.971C134.036 314.971 130.534 304.118 130.534 287.84C130.534 269.391 134.797 257.272 142.105 254.197L148.298 251.665V250.941C148.298 237.376 145.912 229.599 142.004 229.599C138.4 229.599 135.457 237.015 135.152 246.963H130.889C131.295 228.514 135.863 215.853 142.105 215.853ZM166.041 275.541C166.041 290.734 168.274 300.14 171.878 300.14C175.887 300.14 179.034 288.383 179.034 273.009V218.565H183.449V312.258H179.187V299.597C177.664 308.279 174.415 314.971 171.319 314.971C165.381 314.97 161.626 300.863 161.626 278.435V218.565H166.041V275.541ZM233.96 215.853C240.304 215.853 244.872 228.694 245.583 248.409H241.167C240.355 237.195 237.716 230.684 233.96 230.684C229.139 230.684 225.637 245.155 225.637 265.412C225.637 285.85 229.139 300.139 233.96 300.14C237.716 300.14 240.406 293.085 241.167 281.328H245.583C244.872 301.948 240.355 314.971 233.96 314.971C226.398 314.97 221.222 294.894 221.222 265.412C221.222 236.473 226.499 215.853 233.96 215.853ZM104.974 297.245H123.854V312.258H100.508V182.029H104.974V297.245ZM204.188 215.853C210.278 215.853 214.136 229.96 214.136 252.389V312.258H209.72V255.283C209.72 240.271 207.385 230.684 203.63 230.684C199.519 230.684 196.22 242.622 196.22 257.815V312.258H191.804V218.565H196.067V231.227C197.59 222.545 200.99 215.853 204.188 215.853ZM257.084 230.503C258.657 222.183 261.957 215.853 265.053 215.853C271.143 215.853 275 229.961 275 252.389V312.258H270.584V255.283C270.584 240.271 268.25 230.684 264.494 230.684C260.383 230.684 257.084 242.622 257.084 257.815V312.258H252.669V177.507H257.084V230.503ZM142.156 267.221C137.436 269.391 134.848 276.264 134.848 286.936C134.848 295.436 136.827 301.224 139.821 301.225C144.744 301.225 148.298 287.478 148.298 267.582V264.326L142.156 267.221ZM46.6064 296.492H56.9961L51.8525 234.842L46.6064 296.492ZM82.2871 206C84.4259 206.001 86.1064 211.949 86.1064 219.52C86.1064 226.91 84.4259 232.859 82.2871 232.859C80.1482 232.859 78.4668 226.91 78.4668 219.52C78.4668 211.949 80.1482 206 82.2871 206ZM203.985 71.8232C210.126 71.8241 215.15 89.7307 215.15 121.383C215.15 153.035 210.126 170.942 203.985 170.942C200.331 170.942 197.641 163.526 196.22 154.845V205.308H191.804V74.5361H196.067V88.8252C197.438 80.1434 200.027 71.8232 203.985 71.8232ZM172.538 71.8232C179.796 71.824 184.719 91.901 184.719 121.383C184.719 150.865 179.796 170.942 172.538 170.942C165.28 170.942 160.356 150.865 160.356 121.383C160.356 92.0813 165.331 71.8232 172.538 71.8232ZM108.679 38C118.22 38 124.361 63.6839 124.361 103.295C124.361 142.725 118.22 168.229 108.679 168.229H100V38H108.679ZM148.805 73.2705C150.683 73.2705 152.764 74.356 154.286 77.25V93.5283C152.713 90.6343 150.581 89.5488 148.703 89.5488C143.983 89.5494 140.634 103.296 140.634 122.83V154.121H149.719V168.229H129.925V154.121H136.218V88.6445H130.433V74.5361H140.481V91.5391C141.7 81.4103 145.1 73.2708 148.805 73.2705ZM172.538 86.293C167.869 86.293 164.772 100.401 164.772 121.383C164.772 142.545 167.869 156.473 172.538 156.473C177.156 156.472 180.303 142.363 180.303 121.383C180.303 100.402 177.207 86.2938 172.538 86.293ZM203.478 87.0166C199.417 87.0166 196.22 99.3162 196.22 121.383C196.22 143.811 199.417 155.567 203.478 155.567C207.538 155.567 210.685 143.992 210.685 121.383C210.685 98.9548 207.538 87.0169 203.478 87.0166ZM104.466 153.217H108.679C115.429 153.217 119.794 133.682 119.794 103.114C119.794 72.5468 115.429 53.0127 108.679 53.0127H104.466V153.217Z" fill="black"/>
<path d="M142.105 359.881L142.105 321.881H142.105V359.881ZM152.561 428.433H114.561V428.433H152.561ZM152.764 456.287V494.287C162.925 494.287 172.662 490.218 179.802 482.988C186.942 475.758 190.888 465.97 190.761 455.81L152.764 456.287ZM148.5 456.287H110.5C110.5 477.274 127.513 494.287 148.5 494.287V456.287ZM148.5 439.646H186.5C186.5 419.83 171.272 403.34 151.518 401.766C131.764 400.193 114.117 414.064 110.979 433.63L148.5 439.646ZM139.213 459V497H139.217L139.213 459ZM130.534 431.869H92.5342V431.869L130.534 431.869ZM142.105 398.227L127.722 363.054C127.604 363.102 127.487 363.151 127.369 363.2L142.105 398.227ZM148.298 395.694L162.681 430.867C176.965 425.026 186.298 411.126 186.298 395.694H148.298ZM148.298 394.971H186.298V394.971L148.298 394.971ZM142.004 373.628V335.628H142.003L142.004 373.628ZM135.152 390.991V428.991C155.686 428.991 172.506 412.679 173.135 392.154L135.152 390.991ZM130.889 390.991L92.8979 390.155C92.6729 400.376 96.5757 410.256 103.725 417.564C110.873 424.872 120.665 428.991 130.889 428.991V390.991ZM173.096 359.881V321.881H173.093L173.096 359.881ZM184.719 392.438V430.438C195.034 430.438 204.907 426.245 212.068 418.82C219.23 411.396 223.066 401.379 222.694 391.07L184.719 392.438ZM180.303 392.438L142.402 395.183C143.841 415.053 160.381 430.438 180.303 430.438V392.438ZM173.096 374.713V336.713H173.092L173.096 374.713ZM164.772 409.44L126.772 409.44V409.44H164.772ZM173.096 444.168L173.092 482.168H173.096V444.168ZM180.303 425.357V387.357C160.269 387.357 143.677 402.91 142.382 422.902L180.303 425.357ZM184.719 425.357L222.696 426.666C223.051 416.367 219.208 406.365 212.048 398.954C204.887 391.543 195.024 387.357 184.719 387.357V425.357ZM173.096 459L173.093 497H173.096V459ZM160.356 409.44L122.356 409.44V409.44H160.356ZM112.688 326.058L112.689 288.058H112.688V326.058ZM124.361 363.318L162.361 363.318V363.318H124.361ZM112.688 400.396V438.396H112.689L112.688 400.396ZM104.466 400.396V362.396C83.479 362.396 66.4658 379.41 66.4658 400.396H104.466ZM104.466 456.287V494.287C125.453 494.287 142.466 477.274 142.466 456.287H104.466ZM100 456.287H62C62 477.274 79.0132 494.287 100 494.287V456.287ZM100 326.058V288.058C79.0132 288.058 62 305.071 62 326.058H100ZM196.169 407.271H158.169C158.169 426.164 172.05 442.188 190.75 444.882C209.451 447.576 227.29 436.122 232.624 417.997L196.169 407.271ZM209.314 362.595V324.595C192.459 324.595 177.618 335.698 172.86 351.868L209.314 362.595ZM215.1 362.595L251.581 373.231C254.928 361.749 252.675 349.361 245.498 339.793C238.322 330.225 227.06 324.595 215.1 324.595V362.595ZM204.289 399.674L167.808 389.038C166.091 394.926 165.825 401.142 167.033 407.156L204.289 399.674ZM215.658 456.287V494.287C227.048 494.287 237.837 489.178 245.055 480.367C252.272 471.556 255.157 459.972 252.914 448.805L215.658 456.287ZM210.634 456.287L173.398 463.868C177.001 481.569 192.569 494.287 210.634 494.287V456.287ZM201.244 410.164L238.48 402.584C234.999 385.484 220.319 372.953 202.885 372.199C185.45 371.446 169.744 382.664 164.801 399.4L201.244 410.164ZM196.169 427.347L159.725 416.582C158.693 420.077 158.169 423.703 158.169 427.347H196.169ZM196.169 456.287V494.287C217.156 494.287 234.169 477.274 234.169 456.287H196.169ZM191.804 456.287H153.804C153.804 477.274 170.817 494.287 191.804 494.287V456.287ZM191.804 321.536V283.536C170.817 283.536 153.804 300.549 153.804 321.536H191.804ZM196.169 321.536H234.169C234.169 300.549 217.156 283.536 196.169 283.536V321.536ZM142.156 411.249L158.032 445.774C158.139 445.725 158.246 445.675 158.352 445.625L142.156 411.249ZM134.848 430.965H96.8477V430.965L134.848 430.965ZM139.821 445.254L139.817 483.254H139.821V445.254ZM148.298 411.611L186.298 411.611V411.611H148.298ZM148.298 408.355H186.298C186.298 395.343 179.64 383.236 168.652 376.266C157.664 369.297 143.873 368.434 132.102 373.98L148.298 408.355ZM104.466 385.385H66.4658C66.4658 406.372 83.479 423.385 104.466 423.385V385.385ZM112.688 385.385V423.385H112.69L112.688 385.385ZM119.794 363.499L157.794 363.499V363.499H119.794ZM112.688 341.07L112.69 303.07H112.688V341.07ZM104.466 341.07V303.07C83.479 303.07 66.4658 320.083 66.4658 341.07H104.466ZM65.501 343V381C76.1397 381 86.2912 376.54 93.4877 368.705C100.684 360.87 104.267 350.376 103.364 339.776L65.501 343ZM60.8662 343L22.9985 346.168C24.6456 365.858 41.1074 381 60.8662 381V343ZM58.167 310.732L96.0347 307.565C94.3876 287.875 77.9258 272.732 58.167 272.732V310.732ZM45.3848 310.732V272.732C25.6488 272.732 9.19794 287.841 7.52202 307.506L45.3848 310.732ZM42.6348 343V381C62.3707 381 78.8216 365.892 80.4975 346.227L42.6348 343ZM38 343L0.140804 339.732C-0.774849 350.339 2.80114 360.843 9.99829 368.689C17.1954 376.534 27.3536 381 38 381V343ZM49.2041 213.211V175.211C29.4841 175.211 13.0409 190.296 11.3449 209.943L49.2041 213.211ZM54.4492 213.211L92.3122 209.987C90.6376 190.321 74.1862 175.211 54.4492 175.211V213.211ZM84.4766 328.939H46.4766C46.4766 349.926 63.4897 366.939 84.4766 366.939V328.939ZM94 328.939H132C132 307.953 114.987 290.939 94 290.939V328.939ZM94 343V381C114.987 381 132 363.987 132 343H94ZM70.5732 343H32.5732C32.5732 363.987 49.5864 381 70.5732 381V343ZM70.5732 328.939V290.939C49.5864 290.939 32.5732 307.953 32.5732 328.939H70.5732ZM80.0459 328.939V366.939C101.033 366.939 118.046 349.926 118.046 328.939H80.0459ZM80.0459 263.685H118.046C118.046 242.698 101.033 225.685 80.0459 225.685V263.685ZM71.083 263.685H33.083C33.083 284.671 50.0962 301.685 71.083 301.685V263.685ZM71.083 249.624V211.624C50.0962 211.624 33.083 228.637 33.083 249.624H71.083ZM84.4766 249.624H122.477C122.477 228.637 105.463 211.624 84.4766 211.624V249.624ZM142.105 215.853L142.105 177.853H142.105V215.853ZM152.561 251.484H190.561V251.484L152.561 251.484ZM152.764 312.258V350.258C162.925 350.258 172.662 346.188 179.802 338.959C186.942 331.729 190.888 321.941 190.761 311.78L152.764 312.258ZM148.5 312.258H110.5C110.5 333.245 127.513 350.258 148.5 350.258V312.258ZM148.5 295.617H186.5C186.5 275.801 171.272 259.311 151.518 257.737C131.764 256.164 114.117 270.034 110.979 289.601L148.5 295.617ZM139.213 314.971V352.971H139.217L139.213 314.971ZM130.534 287.84L92.5342 287.84V287.84H130.534ZM142.105 254.197L127.722 219.024C127.604 219.073 127.487 219.122 127.369 219.171L142.105 254.197ZM148.298 251.665L162.681 286.838C176.965 280.997 186.298 267.097 186.298 251.665H148.298ZM148.298 250.941H186.298V250.941L148.298 250.941ZM142.004 229.599V191.599H142.003L142.004 229.599ZM135.152 246.963V284.963C155.686 284.963 172.506 268.65 173.135 248.126L135.152 246.963ZM130.889 246.963L92.8979 246.127C92.6729 256.348 96.5757 266.228 103.725 273.536C110.874 280.844 120.665 284.963 130.889 284.963V246.963ZM166.041 275.541H128.041V275.541L166.041 275.541ZM171.878 300.14V338.14H171.879L171.878 300.14ZM179.034 273.009L217.034 273.009V273.009H179.034ZM179.034 218.565V180.565C158.047 180.565 141.034 197.579 141.034 218.565H179.034ZM183.449 218.565H221.449C221.449 197.579 204.436 180.565 183.449 180.565V218.565ZM183.449 312.258V350.258C204.436 350.258 221.449 333.245 221.449 312.258H183.449ZM179.187 312.258H141.187C141.187 333.245 158.2 350.258 179.187 350.258V312.258ZM179.187 299.597H217.187C217.187 279.887 202.117 263.449 182.481 261.74C162.845 260.031 145.162 273.619 141.758 293.033L179.187 299.597ZM171.319 314.971L171.317 352.971H171.319V314.971ZM161.626 218.565V180.565C140.639 180.565 123.626 197.579 123.626 218.565H161.626ZM166.041 218.565H204.041C204.041 197.579 187.028 180.565 166.041 180.565V218.565ZM233.96 215.853V177.853H233.956L233.96 215.853ZM245.583 248.409V286.409C255.899 286.409 265.771 282.215 272.933 274.791C280.094 267.366 283.93 257.349 283.558 247.04L245.583 248.409ZM241.167 248.409L203.266 251.154C204.705 271.024 221.245 286.409 241.167 286.409V248.409ZM233.96 230.684V192.684H233.954L233.96 230.684ZM225.637 265.412H187.637V265.412L225.637 265.412ZM233.96 300.14L233.954 338.14H233.96V300.14ZM241.167 281.328V243.328C221.133 243.328 204.541 258.881 203.246 278.873L241.167 281.328ZM245.583 281.328L283.56 282.637C283.915 272.338 280.072 262.336 272.912 254.925C265.752 247.514 255.888 243.328 245.583 243.328V281.328ZM233.96 314.971L233.957 352.971H233.96V314.971ZM221.222 265.412H183.222V265.412L221.222 265.412ZM104.974 297.245H66.9736C66.9736 318.232 83.9868 335.245 104.974 335.245V297.245ZM123.854 297.245H161.854C161.854 276.258 144.841 259.245 123.854 259.245V297.245ZM123.854 312.258V350.258C144.841 350.258 161.854 333.245 161.854 312.258H123.854ZM100.508 312.258H62.5078C62.5078 333.245 79.521 350.258 100.508 350.258V312.258ZM100.508 182.029V144.029C79.521 144.029 62.5078 161.042 62.5078 182.029H100.508ZM104.974 182.029H142.974C142.974 161.042 125.96 144.029 104.974 144.029V182.029ZM204.188 215.853V177.853H204.18L204.188 215.853ZM214.136 252.389H252.136V252.389L214.136 252.389ZM214.136 312.258V350.258C235.123 350.258 252.136 333.245 252.136 312.258H214.136ZM209.72 312.258H171.72C171.72 333.245 188.733 350.258 209.72 350.258V312.258ZM203.63 230.684L203.634 192.684H203.63V230.684ZM196.22 312.258V350.258C217.207 350.258 234.22 333.245 234.22 312.258H196.22ZM191.804 312.258H153.804C153.804 333.245 170.817 350.258 191.804 350.258V312.258ZM191.804 218.565V180.565C170.817 180.565 153.804 197.579 153.804 218.565H191.804ZM196.067 218.565H234.067C234.067 197.579 217.054 180.565 196.067 180.565V218.565ZM196.067 231.227H158.067C158.067 250.936 173.137 267.375 192.773 269.083C212.409 270.792 230.091 257.204 233.496 237.791L196.067 231.227ZM257.084 230.503H219.084C219.084 250.116 234.011 266.507 253.538 268.337C273.066 270.167 290.778 256.835 294.422 237.564L257.084 230.503ZM265.053 215.853L265.057 177.853H265.053V215.853ZM275 252.389H313V252.389L275 252.389ZM275 312.258V350.258C295.987 350.258 313 333.245 313 312.258H275ZM270.584 312.258H232.584C232.584 333.245 249.597 350.258 270.584 350.258V312.258ZM264.494 230.684L264.496 192.684H264.494V230.684ZM257.084 312.258V350.258C278.071 350.258 295.084 333.245 295.084 312.258H257.084ZM252.669 312.258H214.669C214.669 333.245 231.682 350.258 252.669 350.258V312.258ZM252.669 177.507V139.507C231.682 139.507 214.669 156.52 214.669 177.507H252.669ZM257.084 177.507H295.084C295.084 156.52 278.071 139.507 257.084 139.507V177.507ZM142.156 267.221L158.033 301.745C158.141 301.695 158.249 301.645 158.357 301.594L142.156 267.221ZM134.848 286.936L96.8477 286.935V286.936H134.848ZM139.821 301.225L139.817 339.225H139.821V301.225ZM148.298 264.326H186.298C186.298 251.313 179.639 239.205 168.65 232.236C157.66 225.266 143.869 224.405 132.098 229.952L148.298 264.326ZM46.6064 296.492L8.74328 293.27C7.84128 303.87 11.424 314.363 18.6204 322.198C25.8169 330.033 35.9681 334.492 46.6064 334.492V296.492ZM56.9961 296.492V334.492C67.6235 334.492 77.7653 330.042 84.9609 322.221C92.1564 314.4 95.7481 303.923 94.8645 293.333L56.9961 296.492ZM51.8525 234.842L89.721 231.682C88.0789 212.001 71.6338 196.858 51.8839 196.842C32.134 196.826 15.6639 211.941 13.9894 231.62L51.8525 234.842ZM82.2871 206L82.2988 168H82.2871V206ZM86.1064 219.52H124.106V219.519L86.1064 219.52ZM82.2871 232.859V270.859H82.2988L82.2871 232.859ZM78.4668 219.52L40.4668 219.519V219.52H78.4668ZM203.985 71.8232L203.99 33.8232H203.985V71.8232ZM215.15 121.383L253.15 121.383V121.383H215.15ZM203.985 170.942V208.942H203.99L203.985 170.942ZM196.22 154.845L233.721 148.706C230.523 129.173 212.868 115.366 193.14 116.97C173.413 118.574 158.22 135.052 158.22 154.845H196.22ZM196.22 205.308V243.308C217.207 243.308 234.22 226.294 234.22 205.308H196.22ZM191.804 205.308H153.804C153.804 226.294 170.817 243.308 191.804 243.308V205.308ZM191.804 74.5361V36.5361C170.817 36.5361 153.804 53.5493 153.804 74.5361H191.804ZM196.067 74.5361H234.067C234.067 53.5493 217.054 36.5361 196.067 36.5361V74.5361ZM196.067 88.8252H158.067C158.067 108.66 173.322 125.158 193.096 126.709C212.87 128.26 230.51 114.342 233.603 94.7498L196.067 88.8252ZM172.538 71.8232L172.542 33.8232H172.538V71.8232ZM184.719 121.383L222.719 121.383V121.383H184.719ZM172.538 170.942V208.942H172.542L172.538 170.942ZM160.356 121.383H122.356V121.383L160.356 121.383ZM124.361 103.295H162.361V103.295L124.361 103.295ZM100 168.229H62C62 189.215 79.0132 206.229 100 206.229V168.229ZM100 38V0C79.0132 0 62 17.0132 62 38L100 38ZM148.805 73.2705V35.2705L148.801 35.2705L148.805 73.2705ZM154.286 77.25H192.286C192.286 71.085 190.786 65.0126 187.916 59.5566L154.286 77.25ZM154.286 93.5283L120.901 111.679C129.203 126.948 146.806 134.639 163.65 130.357C180.494 126.074 192.286 110.909 192.286 93.5283H154.286ZM148.703 89.5488V51.5488H148.699L148.703 89.5488ZM140.634 154.121H102.634C102.634 175.108 119.647 192.121 140.634 192.121V154.121ZM149.719 154.121H187.719C187.719 133.134 170.706 116.121 149.719 116.121V154.121ZM149.719 168.229V206.229C170.706 206.229 187.719 189.215 187.719 168.229H149.719ZM129.925 168.229H91.9248C91.9248 189.215 108.938 206.229 129.925 206.229V168.229ZM129.925 154.121V116.121C108.938 116.121 91.9248 133.134 91.9248 154.121H129.925ZM136.218 154.121V192.121C157.205 192.121 174.218 175.108 174.218 154.121H136.218ZM136.218 88.6445H174.218C174.218 67.6577 157.205 50.6445 136.218 50.6445V88.6445ZM130.433 88.6445H92.4326C92.4326 109.631 109.446 126.645 130.433 126.645V88.6445ZM130.433 74.5361V36.5361C109.446 36.5361 92.4326 53.5493 92.4326 74.5361H130.433ZM140.481 74.5361H178.481C178.481 53.5493 161.468 36.5361 140.481 36.5361V74.5361ZM140.481 91.5391H102.481C102.481 111.643 118.141 128.269 138.209 129.471C158.277 130.673 175.809 116.037 178.21 96.0762L140.481 91.5391ZM172.538 86.293L172.545 48.293H172.538V86.293ZM164.772 121.383H126.772V121.383L164.772 121.383ZM172.538 156.473V194.473H172.545L172.538 156.473ZM180.303 121.383L218.303 121.383V121.383H180.303ZM203.478 87.0166L203.48 49.0166H203.478V87.0166ZM196.22 121.383H158.22V121.383L196.22 121.383ZM203.478 155.567V193.567H203.48L203.478 155.567ZM210.685 121.383L248.685 121.383V121.383H210.685ZM104.466 153.217H66.4658C66.4658 174.204 83.479 191.217 104.466 191.217V153.217ZM119.794 103.114H157.794V103.114L119.794 103.114ZM104.466 53.0127V15.0127C83.479 15.0127 66.4658 32.0259 66.4658 53.0127H104.466ZM142.105 359.881L142.105 397.881C128.172 397.881 119.67 389.85 116.502 385.805C113.622 382.129 113.025 379.43 113.265 380.241C113.633 381.491 114.561 386.334 114.561 395.514H152.561H190.561C190.561 382.808 189.432 369.834 186.159 358.739C184.578 353.378 181.764 345.874 176.329 338.936C170.606 331.63 159.212 321.881 142.105 321.881L142.105 359.881ZM152.561 395.514H114.561V428.433H152.561H190.561V395.514H152.561ZM152.561 428.433H114.561C114.561 436.225 114.613 444.529 114.767 456.765L152.764 456.287L190.761 455.81C190.61 443.809 190.561 435.833 190.561 428.433H152.561ZM152.764 456.287V418.287H148.5V456.287V494.287H152.764V456.287ZM148.5 456.287H186.5V439.646H148.5H110.5V456.287H148.5ZM148.5 439.646L110.979 433.63C110.176 438.643 109.572 439.272 110.351 437.646C110.752 436.81 112.462 433.359 116.446 429.715C120.945 425.6 128.766 421.001 139.209 421L139.213 459L139.217 497C165.001 496.997 176.264 475.964 178.885 470.495C182.785 462.359 184.794 453.311 186.021 445.663L148.5 439.646ZM139.213 459V421C152.764 421 161.363 428.506 164.905 432.771C168.157 436.686 169.102 439.889 169.117 439.935C169.248 440.342 168.534 437.881 168.534 431.869L130.534 431.869L92.5342 431.869C92.5342 442.136 93.5718 453.241 96.7473 463.143C98.2848 467.937 101.076 474.87 106.441 481.329C112.095 488.137 123.074 497 139.213 497V459ZM130.534 431.869H168.534C168.534 428.682 168.721 426.201 168.968 424.382C169.221 422.518 169.49 421.707 169.49 421.708C169.481 421.735 169.359 422.087 169.055 422.68C168.753 423.269 168.214 424.211 167.341 425.346C165.573 427.646 162.216 430.992 156.842 433.253L142.105 398.227L127.369 363.2C109.336 370.787 101.218 386.597 97.6681 396.857C93.8277 407.956 92.5342 420.179 92.5342 431.869H130.534ZM142.105 398.227L156.489 433.399L162.681 430.867L148.298 395.694L133.915 360.522L127.722 363.054L142.105 398.227ZM148.298 395.694H186.298V394.971H148.298H110.298V395.694H148.298ZM148.298 394.971L186.298 394.971C186.298 386.664 185.643 377.115 183.033 368.357C181.77 364.12 179.274 357.354 173.996 350.931C168.158 343.825 157.355 335.628 142.004 335.628V373.628V411.628C128.607 411.628 119.568 404.403 115.276 399.179C111.545 394.638 110.378 390.665 110.2 390.067C109.759 388.59 110.298 389.712 110.298 394.971L148.298 394.971ZM142.004 373.628L142.003 335.628C127.012 335.628 116.762 343.519 111.57 349.128C106.457 354.651 103.604 360.556 102.002 364.609C98.7035 372.954 97.4123 381.918 97.1701 389.828L135.152 390.991L173.135 392.154C173.197 390.117 173.53 390.399 172.68 392.549C172.302 393.505 170.88 396.935 167.342 400.756C163.725 404.663 155.194 411.628 142.005 411.628L142.004 373.628ZM135.152 390.991V352.991H130.889V390.991V428.991H135.152V390.991ZM130.889 390.991L168.879 391.827C168.949 388.646 169.194 386.067 169.491 384.136C169.802 382.119 170.098 381.291 170.055 381.409C170.023 381.499 169.808 382.085 169.306 383.01C168.822 383.898 167.847 385.517 166.167 387.405C162.814 391.174 154.711 397.881 142.105 397.881V359.881V321.881C126.379 321.881 115.363 330.17 109.385 336.89C103.664 343.321 100.446 350.401 98.5617 355.627C94.7027 366.328 93.153 378.566 92.8979 390.155L130.889 390.991ZM173.096 359.881V397.881C160.464 397.881 152.338 391.134 148.97 387.309C147.301 385.414 146.348 383.804 145.892 382.956C145.418 382.071 145.231 381.541 145.228 381.531C145.217 381.5 145.312 381.766 145.462 382.387C145.609 382.998 145.785 383.848 145.959 384.956C146.313 387.195 146.612 390.152 146.743 393.807L184.719 392.438L222.694 391.07C222.266 379.184 220.648 366.758 216.812 356.002C214.939 350.749 211.736 343.588 206.007 337.082C199.976 330.233 188.899 321.881 173.096 321.881V359.881ZM184.719 392.438V354.438H180.303V392.438V430.438H184.719V392.438ZM180.303 392.438L218.203 389.694C217.673 382.374 216.401 373.419 213.009 365.068C210.951 360.003 200.395 336.713 173.096 336.713V374.713V412.713C161.864 412.713 153.549 407.487 148.866 402.82C144.736 398.703 143.056 394.802 142.597 393.673C141.666 391.381 142.12 391.289 142.402 395.183L180.303 392.438ZM173.096 374.713L173.092 336.713C151.077 336.715 140.054 352.956 137.197 357.705C133.315 364.16 131.315 370.872 130.178 375.6C127.761 385.658 126.772 397.562 126.772 409.44L164.772 409.44L202.772 409.44C202.772 401.061 203.535 395.602 204.074 393.361C204.416 391.939 204.195 393.767 202.325 396.876C201.35 398.497 199.038 401.968 194.747 405.32C190.094 408.955 182.667 412.712 173.1 412.713L173.096 374.713ZM164.772 409.44H126.772C126.772 421.383 127.756 433.31 130.186 443.38C131.328 448.115 133.344 454.85 137.271 461.324C140.239 466.216 151.279 482.166 173.092 482.168L173.096 444.168L173.1 406.168C182.535 406.169 189.911 409.83 194.593 413.448C198.909 416.784 201.25 420.257 202.251 421.908C204.166 425.064 204.402 426.948 204.066 425.557C203.539 423.373 202.772 417.936 202.772 409.44H164.772ZM173.096 444.168V482.168C187.248 482.168 197.537 475.149 203.421 468.873C208.852 463.08 211.747 456.843 213.313 452.752C216.501 444.42 217.731 435.415 218.223 427.813L180.303 425.357L142.382 422.902C142.113 427.057 141.618 427.457 142.332 425.591C142.66 424.733 144.131 420.994 147.978 416.891C152.277 412.305 160.821 406.168 173.096 406.168V444.168ZM180.303 425.357V463.357H184.719V425.357V387.357H180.303V425.357ZM184.719 425.357L146.741 424.049C146.605 428 146.298 431.195 145.93 433.629C145.747 434.834 145.563 435.768 145.404 436.452C145.325 436.789 145.258 437.045 145.207 437.225C145.155 437.406 145.126 437.491 145.126 437.49C145.127 437.488 145.137 437.46 145.157 437.407C145.177 437.355 145.209 437.273 145.254 437.166C145.343 436.958 145.497 436.614 145.733 436.162C146.168 435.333 147.102 433.713 148.762 431.792C152.132 427.893 160.319 421 173.096 421V459V497C189.069 497 200.219 488.479 206.258 481.494C211.969 474.887 215.12 467.629 216.951 462.332C220.707 451.475 222.276 438.851 222.696 426.666L184.719 425.357ZM173.096 459L173.098 421C189.995 421.001 198.276 432.421 199.615 434.447C201.393 437.137 201.336 438.31 200.692 435.807C199.546 431.355 198.356 422.459 198.356 409.44H160.356H122.356C122.356 425.904 123.755 441.788 127.089 454.744C128.685 460.947 131.339 468.981 136.215 476.357C140.652 483.069 152.415 496.999 173.093 497L173.096 459ZM160.356 409.44L198.356 409.44C198.356 396.807 199.552 387.863 200.735 383.258C201.398 380.673 201.501 381.666 199.858 384.204C198.97 385.576 196.764 388.66 192.666 391.621C188.214 394.839 181.486 397.88 173.098 397.881L173.096 359.881L173.093 321.881C151.862 321.882 140.145 336.591 136.058 342.906C131.326 350.215 128.711 358.171 127.122 364.359C123.8 377.299 122.356 393.134 122.356 409.44L160.356 409.44ZM112.688 326.058L112.688 364.058C100.021 364.057 91.8199 357.172 88.3598 353.027C85.343 349.413 84.6973 346.706 84.9429 347.491C85.3445 348.775 86.3613 353.784 86.3613 363.318H124.361H162.361C162.361 350.063 161.12 336.442 157.474 324.792C155.696 319.111 152.579 311.362 146.703 304.323C140.383 296.752 128.934 288.058 112.689 288.058L112.688 326.058ZM124.361 363.318L86.3613 363.318C86.3613 372.862 85.342 377.787 84.9659 378.981C84.7355 379.712 85.41 376.953 88.4804 373.312C92.0222 369.112 100.203 362.397 112.688 362.396L112.688 400.396L112.689 438.396C128.752 438.396 140.181 429.895 146.582 422.304C152.512 415.271 155.658 407.516 157.451 401.826C161.122 390.178 162.361 376.564 162.361 363.318L124.361 363.318ZM112.688 400.396V362.396H104.466V400.396V438.396H112.688V400.396ZM104.466 400.396H66.4658V456.287H104.466H142.466V400.396H104.466ZM104.466 456.287V418.287H100V456.287V494.287H104.466V456.287ZM100 456.287H138V326.058H100H62V456.287H100ZM100 326.058V364.058H112.688V326.058V288.058H100V326.058ZM196.169 407.271L232.624 417.997L245.769 373.321L209.314 362.595L172.86 351.868L159.714 396.544L196.169 407.271ZM209.314 362.595V400.595H215.1V362.595V324.595H209.314V362.595ZM215.1 362.595L178.618 351.959L167.808 389.038L204.289 399.674L240.77 410.31L251.581 373.231L215.1 362.595ZM204.289 399.674L167.033 407.156L178.402 463.769L215.658 456.287L252.914 448.805L241.545 392.192L204.289 399.674ZM215.658 456.287V418.287H210.634V456.287V494.287H215.658V456.287ZM210.634 456.287L247.87 448.707L238.48 402.584L201.244 410.164L164.008 417.745L173.398 463.868L210.634 456.287ZM201.244 410.164L164.801 399.4L159.725 416.582L196.169 427.347L232.612 438.111L237.688 420.928L201.244 410.164ZM196.169 427.347H158.169V456.287H196.169H234.169V427.347H196.169ZM196.169 456.287V418.287H191.804V456.287V494.287H196.169V456.287ZM191.804 456.287H229.804V321.536H191.804H153.804V456.287H191.804ZM191.804 321.536V359.536H196.169V321.536V283.536H191.804V321.536ZM196.169 321.536H158.169V407.271H196.169H234.169V321.536H196.169ZM142.156 411.249L126.28 376.724C111.761 383.401 104.499 395.582 101.119 404.663C97.7509 413.712 96.8477 423.016 96.8477 430.965H134.848H172.848C172.848 428.242 173.239 428.774 172.345 431.175C171.439 433.608 167.831 441.268 158.032 445.774L142.156 411.249ZM134.848 430.965L96.8477 430.965C96.8477 437.538 97.5386 445.747 100.304 453.732C101.651 457.621 104.273 463.777 109.508 469.607C115.17 475.911 125.435 483.252 139.817 483.254L139.821 445.254L139.826 407.254C152.71 407.255 161.605 413.873 166.054 418.826C170.075 423.305 171.642 427.483 172.119 428.862C173.146 431.827 172.848 432.893 172.848 430.965L134.848 430.965ZM139.821 445.254V483.254C160.597 483.254 171.724 468.747 175.214 463.303C179.39 456.788 181.532 449.992 182.737 445.244C185.293 435.178 186.298 423.351 186.298 411.611L148.298 411.611L110.298 411.611C110.298 419.767 109.526 424.761 109.074 426.544C108.776 427.719 109.106 425.603 111.232 422.287C112.67 420.043 121.507 407.254 139.821 407.254V445.254ZM148.298 411.611H186.298V408.355H148.298H110.298V411.611H148.298ZM148.298 408.355L132.102 373.98L125.96 376.873L142.156 411.249L158.352 445.625L164.494 442.731L148.298 408.355ZM104.466 385.385V423.385H112.688V385.385V347.385H104.466V385.385ZM112.688 385.385L112.69 423.385C127.271 423.384 137.983 416.028 144.187 408.979C149.799 402.602 152.585 395.749 154.044 391.251C157.023 382.063 157.794 372.088 157.794 363.499L119.794 363.499L81.7939 363.499C81.7939 368.475 81.2196 369.443 81.7501 367.807C81.9845 367.084 83.2703 363.159 87.1363 358.767C91.5942 353.702 100.313 347.385 112.687 347.385L112.688 385.385ZM119.794 363.499H157.794C157.794 354.813 157.065 344.743 154.141 335.514C152.707 330.991 149.942 324.037 144.28 317.567C137.963 310.348 127.197 303.071 112.69 303.07L112.688 341.07L112.687 379.07C100.414 379.07 91.6518 372.833 87.0856 367.615C83.1752 363.146 81.9071 359.154 81.6916 358.474C81.2031 356.933 81.7939 358.077 81.7939 363.499H119.794ZM112.688 341.07V303.07H104.466V341.07V379.07H112.688V341.07ZM104.466 341.07H66.4658V385.385H104.466H142.466V341.07H104.466ZM65.501 343V305H60.8662V343V381H65.501V343ZM60.8662 343L98.734 339.832L96.0347 307.565L58.167 310.732L20.2993 313.9L22.9985 346.168L60.8662 343ZM58.167 310.732V272.732H45.3848V310.732V348.732H58.167V310.732ZM45.3848 310.732L7.52202 307.506L4.77202 339.773L42.6348 343L80.4975 346.227L83.2475 313.959L45.3848 310.732ZM42.6348 343V305H38V343V381H42.6348V343ZM38 343L75.8592 346.268L87.0633 216.479L49.2041 213.211L11.3449 209.943L0.140804 339.732L38 343ZM49.2041 213.211V251.211H54.4492V213.211V175.211H49.2041V213.211ZM54.4492 213.211L16.5862 216.435L27.638 346.224L65.501 343L103.364 339.776L92.3122 209.987L54.4492 213.211ZM84.4766 328.939V366.939H94V328.939V290.939H84.4766V328.939ZM94 328.939H56V343H94H132V328.939H94ZM94 343V305H70.5732V343V381H94V343ZM70.5732 343H108.573V328.939H70.5732H32.5732V343H70.5732ZM70.5732 328.939V366.939H80.0459V328.939V290.939H70.5732V328.939ZM80.0459 328.939H118.046V263.685H80.0459H42.0459V328.939H80.0459ZM80.0459 263.685V225.685H71.083V263.685V301.685H80.0459V263.685ZM71.083 263.685H109.083V249.624H71.083H33.083V263.685H71.083ZM71.083 249.624V287.624H84.4766V249.624V211.624H71.083V249.624ZM84.4766 249.624H46.4766V328.939H84.4766H122.477V249.624H84.4766ZM142.105 215.853L142.105 253.853C128.173 253.853 119.672 245.823 116.503 241.778C113.623 238.102 113.025 235.401 113.265 236.213C113.633 237.463 114.561 242.305 114.561 251.484L152.561 251.484L190.561 251.484C190.561 238.778 189.432 225.805 186.159 214.71C184.578 209.349 181.764 201.844 176.328 194.907C170.604 187.601 159.21 177.853 142.105 177.853L142.105 215.853ZM152.561 251.484H114.561V284.403H152.561H190.561V251.484H152.561ZM152.561 284.403H114.561C114.561 292.196 114.613 300.499 114.767 312.735L152.764 312.258L190.761 311.78C190.61 299.779 190.561 291.804 190.561 284.403H152.561ZM152.764 312.258V274.258H148.5V312.258V350.258H152.764V312.258ZM148.5 312.258H186.5V295.617H148.5H110.5V312.258H148.5ZM148.5 295.617L110.979 289.601C110.176 294.613 109.572 295.242 110.351 293.617C110.752 292.78 112.462 289.33 116.446 285.686C120.945 281.571 128.766 276.972 139.209 276.971L139.213 314.971L139.217 352.971C165.001 352.968 176.264 331.935 178.885 326.466C182.785 318.329 184.794 309.282 186.021 301.633L148.5 295.617ZM139.213 314.971V276.971C152.763 276.971 161.363 284.477 164.905 288.741C168.157 292.657 169.102 295.859 169.117 295.906C169.248 296.312 168.534 293.851 168.534 287.84H130.534H92.5342C92.5342 298.107 93.5717 309.211 96.7473 319.114C98.2848 323.908 101.076 330.841 106.441 337.3C112.095 344.108 123.074 352.971 139.213 352.971V314.971ZM130.534 287.84L168.534 287.84C168.534 284.653 168.721 282.171 168.968 280.353C169.221 278.489 169.49 277.678 169.49 277.679C169.481 277.706 169.359 278.058 169.055 278.65C168.753 279.24 168.214 280.181 167.341 281.316C165.573 283.617 162.216 286.963 156.842 289.224L142.105 254.197L127.369 219.171C109.336 226.758 101.218 242.568 97.6681 252.827C93.8277 263.927 92.5342 276.15 92.5342 287.84L130.534 287.84ZM142.105 254.197L156.489 289.37L162.681 286.838L148.298 251.665L133.915 216.492L127.722 219.024L142.105 254.197ZM148.298 251.665H186.298V250.941H148.298H110.298V251.665H148.298ZM148.298 250.941L186.298 250.941C186.298 242.635 185.643 233.086 183.033 224.328C181.77 220.091 179.274 213.325 173.997 206.902C168.158 199.796 157.356 191.599 142.004 191.599V229.599V267.599C128.606 267.599 119.567 260.373 115.275 255.15C111.545 250.609 110.378 246.635 110.2 246.038C109.759 244.56 110.298 245.683 110.298 250.942L148.298 250.941ZM142.004 229.599L142.003 191.599C127.01 191.599 116.76 199.492 111.569 205.1C106.457 210.623 103.604 216.528 102.002 220.581C98.7034 228.926 97.4123 237.89 97.1701 245.8L135.152 246.963L173.135 248.126C173.197 246.088 173.53 246.37 172.68 248.519C172.303 249.475 170.88 252.904 167.343 256.726C163.727 260.633 155.196 267.598 142.005 267.599L142.004 229.599ZM135.152 246.963V208.963H130.889V246.963V284.963H135.152V246.963ZM130.889 246.963L168.879 247.799C168.949 244.618 169.194 242.039 169.491 240.108C169.802 238.09 170.098 237.262 170.055 237.38C170.022 237.47 169.808 238.057 169.306 238.981C168.822 239.87 167.847 241.489 166.167 243.377C162.814 247.146 154.71 253.853 142.105 253.853V215.853V177.853C126.379 177.853 115.363 186.142 109.386 192.861C103.664 199.293 100.446 206.372 98.5617 211.598C94.7027 222.299 93.1529 234.537 92.8979 246.127L130.889 246.963ZM166.041 275.541L128.041 275.541C128.041 284.449 128.647 293.937 130.635 302.313C131.56 306.21 133.394 312.595 137.438 318.914C141.213 324.814 152.115 338.14 171.878 338.14V300.14V262.14C189.839 262.14 199.111 274.29 201.454 277.951C202.914 280.233 203.683 282.1 204.028 283.02C204.4 284.012 204.553 284.645 204.581 284.763C204.624 284.944 204.459 284.265 204.3 282.462C204.149 280.75 204.041 278.446 204.041 275.541L166.041 275.541ZM171.878 300.14L171.879 338.14C192.934 338.139 203.815 323.046 206.697 318.541C210.573 312.483 212.579 306.274 213.692 302.071C216.067 293.108 217.034 282.859 217.034 273.009L179.034 273.009L141.034 273.009C141.034 278.532 140.428 281.849 140.227 282.607C140.053 283.266 140.52 280.956 142.678 277.584C143.8 275.829 146.246 272.415 150.57 269.179C155.209 265.708 162.514 262.14 171.877 262.14L171.878 300.14ZM179.034 273.009H217.034V218.565H179.034H141.034V273.009H179.034ZM179.034 218.565V256.565H183.449V218.565V180.565H179.034V218.565ZM183.449 218.565H145.449V312.258H183.449H221.449V218.565H183.449ZM183.449 312.258V274.258H179.187V312.258V350.258H183.449V312.258ZM179.187 312.258H217.187V299.597H179.187H141.187V312.258H179.187ZM179.187 299.597L141.758 293.033C141.425 294.929 141.145 294.955 141.906 293.444C142.229 292.802 143.641 290.046 146.782 286.907C149.594 284.098 157.92 276.971 171.319 276.971V314.971V352.971C186.267 352.971 196.16 345.006 200.499 340.671C205.167 336.007 208.068 331.035 209.78 327.635C213.32 320.608 215.425 312.946 216.615 306.161L179.187 299.597ZM171.319 314.971L171.322 276.971C186.952 276.972 195.679 286.744 198.291 290.427C200.852 294.036 201.278 296.508 200.973 295.36C200.492 293.55 199.626 288.111 199.626 278.435H161.626H123.626C123.626 291.186 124.637 304.015 127.519 314.866C128.895 320.048 131.373 327.45 136.308 334.405C141.295 341.433 152.718 352.969 171.317 352.971L171.319 314.971ZM161.626 278.435H199.626V218.565H161.626H123.626V278.435H161.626ZM161.626 218.565V256.565H166.041V218.565V180.565H161.626V218.565ZM166.041 218.565H128.041V275.541H166.041H204.041V218.565H166.041ZM233.96 215.853V253.853C221.329 253.853 213.203 247.106 209.835 243.282C208.166 241.387 207.212 239.776 206.757 238.928C206.282 238.043 206.096 237.512 206.092 237.503C206.081 237.472 206.176 237.737 206.326 238.359C206.474 238.969 206.649 239.819 206.824 240.927C207.177 243.166 207.476 246.123 207.608 249.778L245.583 248.409L283.558 247.04C283.13 235.155 281.512 222.729 277.676 211.973C275.803 206.72 272.6 199.559 266.87 193.052C260.839 186.204 249.763 177.853 233.96 177.853V215.853ZM245.583 248.409V210.409H241.167V248.409V286.409H245.583V248.409ZM241.167 248.409L279.068 245.664C278.538 238.345 277.265 229.39 273.873 221.039C271.816 215.975 261.259 192.684 233.96 192.684V230.684V268.684C222.728 268.684 214.412 263.457 209.73 258.79C205.6 254.673 203.92 250.772 203.462 249.643C202.531 247.352 202.984 247.26 203.266 251.154L241.167 248.409ZM233.96 230.684L233.954 192.684C211.939 192.687 200.917 208.928 198.061 213.677C194.179 220.132 192.179 226.844 191.043 231.571C188.625 241.63 187.637 253.534 187.637 265.412H225.637H263.637C263.637 257.033 264.399 251.574 264.938 249.332C265.28 247.91 265.059 249.738 263.19 252.846C262.215 254.466 259.903 257.938 255.613 261.29C250.96 264.925 243.533 268.682 233.966 268.684L233.96 230.684ZM225.637 265.412L187.637 265.412C187.637 277.355 188.621 289.281 191.05 299.352C192.193 304.087 194.208 310.821 198.135 317.295C201.102 322.186 212.142 338.136 233.954 338.14L233.96 300.14L233.966 262.14C243.402 262.141 250.777 265.802 255.458 269.421C259.774 272.757 262.115 276.229 263.116 277.88C265.03 281.036 265.266 282.92 264.931 281.528C264.404 279.344 263.637 273.908 263.637 265.412L225.637 265.412ZM233.96 300.14V338.14C248.114 338.14 258.403 331.119 264.286 324.843C269.717 319.05 272.612 312.813 274.177 308.722C277.365 300.391 278.595 291.385 279.088 283.784L241.167 281.328L203.246 278.873C202.977 283.028 202.482 283.428 203.196 281.563C203.524 280.706 204.994 276.967 208.841 272.864C213.139 268.279 221.684 262.14 233.96 262.14V300.14ZM241.167 281.328V319.328H245.583V281.328V243.328H241.167V281.328ZM245.583 281.328L207.606 280.019C207.469 283.97 207.162 287.166 206.794 289.6C206.612 290.804 206.427 291.739 206.268 292.423C206.189 292.76 206.122 293.016 206.071 293.196C206.02 293.376 205.99 293.461 205.991 293.46C205.991 293.459 206.001 293.43 206.021 293.378C206.041 293.325 206.073 293.244 206.119 293.137C206.207 292.928 206.361 292.585 206.597 292.133C207.032 291.304 207.966 289.684 209.626 287.763C212.997 283.864 221.184 276.971 233.96 276.971V314.971V352.971C249.934 352.971 261.084 344.45 267.122 337.465C272.833 330.858 275.984 323.599 277.816 318.303C281.571 307.445 283.141 294.822 283.56 282.637L245.583 281.328ZM233.96 314.971L233.963 276.971C250.86 276.972 259.14 288.392 260.48 290.418C262.258 293.109 262.2 294.281 261.557 291.779C260.411 287.327 259.222 278.431 259.222 265.412L221.222 265.412L183.222 265.412C183.222 281.875 184.62 297.758 187.953 310.715C189.549 316.917 192.203 324.951 197.079 332.327C201.516 339.039 213.279 352.969 233.957 352.971L233.96 314.971ZM221.222 265.412H259.222C259.222 252.779 260.417 243.834 261.6 239.229C262.263 236.644 262.366 237.636 260.723 240.175C259.835 241.547 257.629 244.631 253.531 247.592C249.079 250.81 242.351 253.852 233.963 253.853L233.96 215.853L233.956 177.853C212.725 177.855 201.009 192.564 196.921 198.879C192.19 206.188 189.575 214.144 187.987 220.332C184.665 233.271 183.222 249.106 183.222 265.412H221.222ZM104.974 297.245V335.245H123.854V297.245V259.245H104.974V297.245ZM123.854 297.245H85.8545V312.258H123.854H161.854V297.245H123.854ZM123.854 312.258V274.258H100.508V312.258V350.258H123.854V312.258ZM100.508 312.258H138.508V182.029H100.508H62.5078V312.258H100.508ZM100.508 182.029V220.029H104.974V182.029V144.029H100.508V182.029ZM104.974 182.029H66.9736V297.245H104.974H142.974V182.029H104.974ZM204.188 215.853V253.853C189.034 253.853 180.362 244.579 177.591 240.774C174.95 237.147 174.488 234.621 174.783 235.704C175.249 237.412 176.136 242.759 176.136 252.389L214.136 252.389L252.136 252.389C252.136 239.59 251.094 226.669 248.108 215.716C246.677 210.469 244.109 203.014 239.031 196.04C233.825 188.889 222.386 177.853 204.188 177.853V215.853ZM214.136 252.389H176.136V312.258H214.136H252.136V252.389H214.136ZM214.136 312.258V274.258H209.72V312.258V350.258H214.136V312.258ZM209.72 312.258H247.72V255.283H209.72H171.72V312.258H209.72ZM209.72 255.283H247.72C247.72 246.361 247.076 236.77 244.979 228.262C244 224.287 242.074 217.846 237.895 211.505C233.913 205.463 222.975 192.686 203.634 192.684L203.63 230.684L203.626 268.684C186.162 268.682 176.925 257.103 174.437 253.327C172.94 251.056 172.142 249.187 171.777 248.247C171.386 247.239 171.221 246.586 171.187 246.446C171.131 246.221 171.296 246.853 171.457 248.595C171.609 250.247 171.72 252.477 171.72 255.283H209.72ZM203.63 230.684V192.684C182.829 192.684 171.916 207.431 168.937 211.985C164.982 218.031 162.901 224.252 161.735 228.507C159.254 237.557 158.22 247.896 158.22 257.815H196.22H234.22C234.22 252.541 234.835 249.315 235.031 248.597C235.204 247.968 234.718 250.256 232.538 253.588C231.403 255.324 228.954 258.666 224.662 261.826C220.072 265.206 212.861 268.684 203.63 268.684V230.684ZM196.22 257.815H158.22V312.258H196.22H234.22V257.815H196.22ZM196.22 312.258V274.258H191.804V312.258V350.258H196.22V312.258ZM191.804 312.258H229.804V218.565H191.804H153.804V312.258H191.804ZM191.804 218.565V256.565H196.067V218.565V180.565H191.804V218.565ZM196.067 218.565H158.067V231.227H196.067H234.067V218.565H196.067ZM196.067 231.227L233.496 237.791C233.791 236.11 234.034 236.244 233.185 237.871C232.812 238.586 231.342 241.325 228.147 244.402C225.234 247.208 217.081 253.85 204.195 253.853L204.188 215.853L204.18 177.853C189.695 177.855 179.918 185.334 175.421 189.666C170.642 194.27 167.627 199.225 165.814 202.697C162.084 209.841 159.866 217.661 158.639 224.662L196.067 231.227ZM257.084 230.503L294.422 237.564C294.719 235.994 294.913 236.291 293.975 238.037C293.554 238.821 292.016 241.588 288.756 244.653C285.736 247.494 277.652 253.853 265.053 253.853V215.853V177.853C250.905 177.853 241.248 185.003 236.69 189.29C231.891 193.803 228.85 198.672 227.02 202.078C223.265 209.07 221.022 216.692 219.746 223.442L257.084 230.503ZM265.053 215.853L265.049 253.853C249.896 253.851 241.225 244.577 238.455 240.773C235.814 237.145 235.352 234.62 235.648 235.704C236.113 237.412 237 242.759 237 252.389L275 252.389L313 252.389C313 239.59 311.958 226.67 308.973 215.717C307.542 210.47 304.974 203.016 299.898 196.043C294.692 188.892 283.255 177.854 265.057 177.853L265.053 215.853ZM275 252.389H237V312.258H275H313V252.389H275ZM275 312.258V274.258H270.584V312.258V350.258H275V312.258ZM270.584 312.258H308.584V255.283H270.584H232.584V312.258H270.584ZM270.584 255.283H308.584C308.584 246.361 307.94 236.77 305.844 228.262C304.864 224.287 302.938 217.846 298.759 211.505C294.776 205.462 283.838 192.684 264.496 192.684L264.494 230.684L264.493 268.684C247.028 268.683 237.79 257.104 235.301 253.328C233.804 251.056 233.006 249.187 232.642 248.247C232.251 247.238 232.086 246.585 232.051 246.445C231.996 246.221 232.16 246.852 232.321 248.595C232.473 250.247 232.584 252.477 232.584 255.283H270.584ZM264.494 230.684V192.684C243.693 192.684 232.78 207.431 229.801 211.985C225.846 218.031 223.766 224.252 222.599 228.507C220.119 237.557 219.084 247.896 219.084 257.815H257.084H295.084C295.084 252.541 295.699 249.315 295.896 248.597C296.068 247.968 295.583 250.256 293.403 253.588C292.267 255.324 289.818 258.666 285.526 261.826C280.936 265.206 273.725 268.684 264.494 268.684V230.684ZM257.084 257.815H219.084V312.258H257.084H295.084V257.815H257.084ZM257.084 312.258V274.258H252.669V312.258V350.258H257.084V312.258ZM252.669 312.258H290.669V177.507H252.669H214.669V312.258H252.669ZM252.669 177.507V215.507H257.084V177.507V139.507H252.669V177.507ZM257.084 177.507H219.084V230.503H257.084H295.084V177.507H257.084ZM142.156 267.221L126.28 232.696C111.763 239.372 104.5 251.552 101.119 260.634C97.751 269.682 96.8477 278.987 96.8477 286.935L134.848 286.936L172.848 286.936C172.848 284.213 173.239 284.745 172.345 287.147C171.438 289.582 167.83 297.24 158.033 301.745L142.156 267.221ZM134.848 286.936H96.8477C96.8477 293.508 97.5386 301.718 100.304 309.703C101.651 313.592 104.274 319.748 109.509 325.578C115.17 331.882 125.436 339.223 139.817 339.225L139.821 301.225L139.826 263.225C152.71 263.226 161.605 269.843 166.053 274.797C170.075 279.275 171.642 283.453 172.119 284.832C173.146 287.798 172.848 288.864 172.848 286.936H134.848ZM139.821 301.225V339.225C160.597 339.225 171.724 324.717 175.214 319.274C179.39 312.759 181.532 305.963 182.737 301.214C185.293 291.149 186.298 279.322 186.298 267.582H148.298H110.298C110.298 275.738 109.526 280.732 109.074 282.514C108.776 283.69 109.106 281.573 111.232 278.258C112.671 276.013 121.508 263.225 139.821 263.225V301.225ZM148.298 267.582H186.298V264.326H148.298H110.298V267.582H148.298ZM148.298 264.326L132.098 229.952L125.956 232.847L142.156 267.221L158.357 301.594L164.498 298.7L148.298 264.326ZM46.6064 296.492V334.492H56.9961V296.492V258.492H46.6064V296.492ZM56.9961 296.492L94.8645 293.333L89.721 231.682L51.8525 234.842L13.9841 238.001L19.1277 299.652L56.9961 296.492ZM51.8525 234.842L13.9894 231.62L8.74328 293.27L46.6064 296.492L84.4696 299.714L89.7157 238.064L51.8525 234.842ZM82.2871 206L82.2754 244C63.7556 243.994 54.3179 231.3 52.3329 228.372C49.5688 224.294 48.6196 220.923 48.4301 220.252C47.9041 218.39 48.1064 218.102 48.1064 219.52L86.1064 219.52L124.106 219.519C124.106 213.367 123.468 206.319 121.567 199.59C120.691 196.486 118.92 191.154 115.239 185.725C112.338 181.445 101.888 168.006 82.2988 168L82.2871 206ZM86.1064 219.52H48.1064C48.1064 220.779 47.9177 220.426 48.4553 218.541C48.6506 217.856 49.6084 214.493 52.3737 210.43C54.3503 207.527 63.7845 194.865 82.2754 194.859L82.2871 232.859L82.2988 270.859C101.859 270.853 112.305 257.448 115.199 253.198C118.881 247.789 120.66 242.476 121.542 239.38C123.455 232.673 124.106 225.65 124.106 219.52H86.1064ZM82.2871 232.859V194.859C100.781 194.859 110.219 207.522 112.197 210.426C114.964 214.489 115.922 217.853 116.117 218.538C116.656 220.425 116.467 220.778 116.467 219.52H78.4668H40.4668C40.4668 225.652 41.1187 232.675 43.0322 239.384C43.9153 242.48 45.6951 247.793 49.3785 253.202C52.2731 257.453 62.7238 270.859 82.2871 270.859V232.859ZM78.4668 219.52L116.467 219.52C116.467 218.103 116.669 218.392 116.143 220.255C115.953 220.926 115.003 224.298 112.238 228.376C110.252 231.305 100.81 244 82.2871 244V206V168C62.695 168 52.2408 181.439 49.3376 185.72C45.6555 191.149 43.8844 196.482 43.007 199.587C41.1052 206.316 40.4668 213.365 40.4668 219.519L78.4668 219.52ZM203.985 71.8232L203.98 109.823C194.89 109.822 187.761 106.352 183.223 102.9C179.042 99.7192 176.823 96.4416 175.938 95.0004C174.269 92.2814 174.323 91.1128 174.92 93.6005C175.975 98.0002 177.15 107.101 177.15 121.383H215.15H253.15C253.15 104.013 251.813 88.334 248.822 75.867C247.395 69.9215 245.042 62.2978 240.703 55.232C237.234 49.5821 225.825 33.8262 203.99 33.8232L203.985 71.8232ZM215.15 121.383L177.15 121.383C177.15 135.665 175.975 144.765 174.92 149.165C174.323 151.653 174.269 150.484 175.938 147.765C176.823 146.324 179.042 143.047 183.223 139.866C187.761 136.414 194.89 132.944 203.98 132.942L203.985 170.942L203.99 208.942C225.825 208.939 237.234 193.183 240.703 187.534C245.042 180.468 247.395 172.844 248.822 166.899C251.813 154.432 253.15 138.753 253.15 121.383L215.15 121.383ZM203.985 170.942V132.942C217.054 132.942 225.495 139.802 228.998 143.494C232.367 147.045 233.75 150.176 233.987 150.709C234.56 151.998 234.189 151.567 233.721 148.706L196.22 154.845L158.719 160.983C159.672 166.804 161.356 174.422 164.543 181.589C166.088 185.062 168.917 190.589 173.863 195.802C178.942 201.155 189.09 208.942 203.985 208.942V170.942ZM196.22 154.845H158.22V205.308H196.22H234.22V154.845H196.22ZM196.22 205.308V167.308H191.804V205.308V243.308H196.22V205.308ZM191.804 205.308H229.804V74.5361H191.804H153.804V205.308H191.804ZM191.804 74.5361V112.536H196.067V74.5361V36.5361H191.804V74.5361ZM196.067 74.5361H158.067V88.8252H196.067H234.067V74.5361H196.067ZM196.067 88.8252L233.603 94.7498C234.102 91.5872 234.524 90.7418 234.154 91.6319C234.026 91.9418 232.792 95.0252 229.566 98.6235C226.209 102.369 217.626 109.823 203.985 109.823V71.8232V33.8232C188.366 33.8232 177.974 42.3177 172.975 47.8943C168.108 53.3239 165.399 59.03 163.957 62.5051C160.961 69.7258 159.403 77.3813 158.532 82.9006L196.067 88.8252ZM172.538 71.8232L172.534 109.823C164.085 109.822 157.264 106.746 152.708 103.412C148.53 100.356 146.294 97.166 145.389 95.7362C143.718 93.094 143.809 92.0128 144.447 94.6116C145.58 99.2259 146.719 108.268 146.719 121.383H184.719H222.719C222.719 105.016 221.396 89.2786 218.253 76.4836C216.753 70.3779 214.253 62.4347 209.617 55.1066C205.584 48.7316 193.916 33.8256 172.542 33.8232L172.538 71.8232ZM184.719 121.383L146.719 121.383C146.719 134.497 145.58 143.54 144.447 148.154C143.808 150.753 143.718 149.672 145.389 147.029C146.294 145.6 148.53 142.41 152.708 139.353C157.264 136.02 164.085 132.943 172.534 132.942L172.538 170.942L172.542 208.942C193.916 208.94 205.584 194.034 209.617 187.659C214.253 180.331 216.753 172.388 218.253 166.282C221.396 153.487 222.719 137.75 222.719 121.383L184.719 121.383ZM172.538 170.942V132.942C180.988 132.942 187.809 136.018 192.366 139.352C196.544 142.408 198.781 145.598 199.686 147.028C201.358 149.671 201.267 150.752 200.629 148.154C199.495 143.54 198.356 134.497 198.356 121.383L160.356 121.383L122.356 121.383C122.356 137.751 123.68 153.488 126.823 166.283C128.323 172.389 130.824 180.333 135.46 187.661C139.493 194.036 151.163 208.942 172.538 208.942V170.942ZM160.356 121.383H198.356C198.356 108.405 199.501 99.3477 200.647 94.6829C201.292 92.0572 201.398 93.0697 199.777 95.6522C198.904 97.0434 196.699 100.226 192.552 103.295C188.029 106.643 181.146 109.823 172.538 109.823V71.8232V33.8232C150.95 33.8232 139.305 49.0401 135.412 55.2406C130.83 62.5371 128.342 70.4455 126.842 76.547C123.7 89.3366 122.356 105.059 122.356 121.383H160.356ZM108.679 38V76C91.7987 76 83.9288 64.3491 83.0539 62.9681C81.743 60.8988 82.203 60.7246 83.1463 64.6571C84.8922 71.9355 86.3613 84.9332 86.3613 103.295L124.361 103.295L162.361 103.295C162.361 82.0456 160.76 62.3958 157.05 46.9295C155.265 39.4896 152.401 30.4189 147.255 22.296C142.545 14.8614 130.33 0 108.679 0V38ZM124.361 103.295H86.3613C86.3613 121.561 84.8927 134.448 83.1585 141.634C82.2211 145.518 81.7746 145.298 83.1144 143.196C84.0486 141.731 91.9246 130.229 108.679 130.229V168.229V206.229C130.204 206.229 142.425 191.538 147.195 184.059C152.369 175.944 155.247 166.883 157.038 159.462C160.759 144.04 162.361 124.46 162.361 103.295H124.361ZM108.679 168.229V130.229H100V168.229V206.229H108.679V168.229ZM100 168.229H138V38H100H62V168.229H100ZM100 38V76H108.679V38V0H100V38ZM148.805 73.2705V111.271C142.194 111.271 135.827 109.294 130.532 105.748C125.351 102.278 122.304 98.0748 120.657 94.9434L154.286 77.25L187.916 59.5566C181.165 46.7264 167.461 35.2705 148.805 35.2705V73.2705ZM154.286 77.25H116.286V93.5283H154.286H192.286V77.25H154.286ZM154.286 93.5283L187.671 75.378C180.747 62.6426 167.032 51.5488 148.703 51.5488V89.5488V127.549C142.137 127.549 135.905 125.601 130.754 122.219C125.677 118.886 122.608 114.819 120.901 111.679L154.286 93.5283ZM148.703 89.5488L148.699 51.5488C127.179 51.5513 116.145 67.1025 113.059 72.1339C109.104 78.5824 107.096 85.268 105.971 89.8983C103.578 99.7555 102.634 111.348 102.634 122.83H140.634H178.634C178.634 114.779 179.364 109.73 179.826 107.831C180.129 106.582 179.843 108.61 177.843 111.871C176.793 113.583 174.4 117.074 170.036 120.4C165.302 124.009 157.98 127.548 148.708 127.549L148.703 89.5488ZM140.634 122.83H102.634V154.121H140.634H178.634V122.83H140.634ZM140.634 154.121V192.121H149.719V154.121V116.121H140.634V154.121ZM149.719 154.121H111.719V168.229H149.719H187.719V154.121H149.719ZM149.719 168.229V130.229H129.925V168.229V206.229H149.719V168.229ZM129.925 168.229H167.925V154.121H129.925H91.9248V168.229H129.925ZM129.925 154.121V192.121H136.218V154.121V116.121H129.925V154.121ZM136.218 154.121H174.218V88.6445H136.218H98.2178V154.121H136.218ZM136.218 88.6445V50.6445H130.433V88.6445V126.645H136.218V88.6445ZM130.433 88.6445H168.433V74.5361H130.433H92.4326V88.6445H130.433ZM130.433 74.5361V112.536H140.481V74.5361V36.5361H130.433V74.5361ZM140.481 74.5361H102.481V91.5391H140.481H178.481V74.5361H140.481ZM140.481 91.5391L178.21 96.0762C178.52 93.4913 178.958 92.8624 178.442 94.0252C178.244 94.4713 177.001 97.2943 173.91 100.61C171.04 103.689 162.602 111.269 148.808 111.271L148.805 73.2705L148.801 35.2705C133.155 35.2719 122.903 43.8693 118.315 48.7912C113.507 53.95 110.643 59.441 108.979 63.1881C105.532 70.9529 103.66 79.4581 102.753 87.002L140.481 91.5391ZM172.538 86.293V48.293C150.078 48.293 139.141 65.1279 136.394 69.9155C132.66 76.4242 130.82 83.1488 129.798 87.7776C127.613 97.6746 126.772 109.485 126.772 121.383H164.772H202.772C202.772 112.299 203.48 106.565 204.011 104.162C204.347 102.641 204.156 104.527 202.316 107.735C201.356 109.409 199.04 113.05 194.654 116.571C189.854 120.425 182.261 124.293 172.538 124.293V86.293ZM164.772 121.383L126.772 121.383C126.772 133.347 127.609 145.179 129.804 155.085C130.831 159.719 132.686 166.468 136.464 172.998C139.325 177.942 150.287 194.473 172.538 194.473V156.473V118.473C182.124 118.473 189.666 122.239 194.498 126.077C198.912 129.583 201.258 133.228 202.245 134.934C204.13 138.191 204.335 140.135 204.004 138.642C203.484 136.294 202.772 130.581 202.772 121.383L164.772 121.383ZM172.538 156.473L172.545 194.473C195.122 194.468 206.033 177.443 208.682 172.812C212.386 166.339 214.225 159.65 215.251 155.023C217.445 145.131 218.303 133.319 218.303 121.383L180.303 121.383L142.303 121.383C142.303 130.427 141.588 136.16 141.054 138.568C140.716 140.09 140.902 138.24 142.717 135.068C143.66 133.42 145.954 129.794 150.309 126.273C155.068 122.426 162.694 118.475 172.531 118.473L172.538 156.473ZM180.303 121.383H218.303C218.303 109.486 217.463 97.6759 215.278 87.7793C214.256 83.1507 212.417 76.4266 208.683 69.9182C205.938 65.1315 195.003 48.2971 172.545 48.293L172.538 86.293L172.531 124.293C162.809 124.291 155.217 120.422 150.418 116.569C146.033 113.048 143.719 109.406 142.759 107.733C140.919 104.526 140.729 102.64 141.065 104.162C141.595 106.564 142.303 112.299 142.303 121.383H180.303ZM203.478 87.0166V49.0166C181.296 49.0166 170.457 65.5768 167.778 70.1855C164.082 76.5435 162.26 83.0891 161.245 87.6169C159.08 97.283 158.22 108.978 158.22 121.383H196.22H234.22C234.22 111.721 234.959 106.233 235.407 104.233C235.699 102.927 235.438 105.019 233.483 108.381C232.467 110.129 230.098 113.786 225.685 117.304C220.887 121.128 213.268 125.017 203.478 125.017V87.0166ZM196.22 121.383L158.22 121.383C158.22 133.908 159.07 145.637 161.273 155.318C162.307 159.861 164.184 166.488 168.038 172.917C171.112 178.046 182.027 193.567 203.478 193.567V155.567V117.567C212.797 117.567 220.234 121.112 225.133 124.871C229.639 128.329 232.112 131.988 233.223 133.843C235.336 137.367 235.652 139.653 235.379 138.453C234.968 136.649 234.22 131.286 234.22 121.383L196.22 121.383ZM203.478 155.567L203.48 193.567C224.735 193.566 235.67 178.324 238.872 173.004C242.765 166.538 244.64 159.875 245.667 155.339C247.854 145.672 248.685 133.941 248.685 121.383L210.685 121.383L172.685 121.383C172.685 131.434 171.942 136.794 171.541 138.567C171.273 139.751 171.6 137.396 173.761 133.807C174.902 131.91 177.411 128.229 181.96 124.771C186.911 121.009 194.303 117.568 203.475 117.567L203.478 155.567ZM210.685 121.383H248.685C248.685 108.88 247.848 97.1597 245.688 87.497C244.675 82.9692 242.838 76.3607 239.056 69.9413C236.121 64.9614 225.237 49.0181 203.48 49.0166L203.478 87.0166L203.475 125.017C193.987 125.016 186.469 121.349 181.58 117.535C177.09 114.033 174.653 110.349 173.577 108.524C171.527 105.044 171.238 102.821 171.519 104.082C171.947 105.995 172.685 111.458 172.685 121.383H210.685ZM104.466 153.217V191.217H108.679V153.217V115.217H104.466V153.217ZM108.679 153.217V191.217C130.994 191.217 142.479 174.966 146.015 168.956C150.304 161.667 152.539 153.827 153.862 147.874C156.649 135.337 157.794 119.715 157.794 103.114H119.794H81.7939C81.7939 117.082 80.7562 126.51 79.6731 131.382C79.0614 134.134 78.9396 133.089 80.5111 130.418C81.3529 128.987 83.548 125.594 87.7996 122.295C92.4771 118.666 99.6618 115.217 108.679 115.217V153.217ZM119.794 103.114L157.794 103.114C157.794 86.5141 156.649 70.8917 153.862 58.3544C152.539 52.4015 150.304 44.5621 146.015 37.2729C142.479 31.2622 130.993 15.0127 108.679 15.0127V53.0127V91.0127C99.6622 91.0127 92.4777 87.5639 87.8001 83.9347C83.5484 80.6359 81.3533 77.2431 80.5114 75.8121C78.9397 73.1408 79.0615 72.0953 79.6732 74.8469C80.7562 79.7186 81.7939 89.147 81.7939 103.114L119.794 103.114ZM108.679 53.0127V15.0127H104.466V53.0127V91.0127H108.679V53.0127ZM104.466 53.0127H66.4658V153.217H104.466H142.466V53.0127H104.466Z" fill="#FFC3C3" mask="url(#path-1-outside-1_225_532)"/>
</svg>
