<svg preserveAspectRatio="none" width="100%" height="100%" overflow="visible" style="display: block;" viewBox="0 0 54.7178 58.9961" fill="none" xmlns="http://www.w3.org/2000/svg">
<g id="Group 2085661047">
<path id="Subtract" d="M54.7178 6.98047V58.9961H18.0137L0 51.79V0H36.4785L54.7178 6.98047ZM19.7217 33.7246L6.75488 38.5068V41.0771L13.3564 42.8105V42.9297L6.75488 44.6035V47.1738L19.7217 52.0156H48.0107V49.624H25.0254L18.6602 47.1738V44.0654H30.7422V41.6748H18.6602V38.5068L25.0254 36.1152H48.0137V33.7246H19.7217ZM6.75488 20.3525V22.7432H21.4893V30.1553H6.75488V32.5459H48.0107V30.1553H34.3379V22.7432H48.0107V20.3525H6.75488ZM6.75488 6.98047V9.37109H15.3008V16.7832H6.75488V19.1738H35.0449L48.0107 14.333V11.7627L35.0449 6.98047H6.75488ZM29.7402 9.37109L36.2236 11.7627V14.333L29.7402 16.7832H24.6133V9.37109H29.7402Z" fill="var(--fill-0, black)"/>
</g>
</svg>
