<svg preserveAspectRatio="none" width="100%" height="100%" overflow="visible" style="display: block;" viewBox="0 0 29 27" fill="none" xmlns="http://www.w3.org/2000/svg">
<g id="Logo-2">
<path id="Subtract" d="M3.43164 1.40638e-08L29 0V18.1113L25.458 27L0 27L0 9L3.43164 1.40638e-08ZM17.0645 16.7148L19.4004 23L20.6562 23L21.5029 19.7998L21.5615 19.7998L22.3789 23L23.6348 23L26 16.7148V3.00195L24.832 3.00195V14.1436L23.6348 17.2295L22.1162 17.2295V11.3721L20.9482 11.3721V17.2295L19.4004 17.2295L18.2324 14.1436V3L17.0645 3V16.7148ZM10.5322 23L11.7002 23V15.8574L15.3213 15.8574V23L16.4893 23V3.00195L15.3213 3.00195V9.62988L11.7002 9.62988V3.00195L10.5322 3.00195L10.5322 23ZM4 23L5.16797 23L5.16797 18.8574L8.78906 18.8574V23L9.95703 23L9.95703 9.28711L7.5918 3.00195L6.33594 3.00195L4 9.28711L4 23ZM5.16797 11.8584L6.33594 8.71582L7.5918 8.71582L8.78906 11.8584L8.78906 14.3438L5.16797 14.3438V11.8584Z" fill="var(--fill-0, black)"/>
</g>
</svg>
