<svg preserveAspectRatio="none" width="100%" height="100%" overflow="visible" style="display: block;" viewBox="0 0 838.063 663.063" fill="none" xmlns="http://www.w3.org/2000/svg">
<g id="H1-Display">
<mask id="path-1-outside-1_0_8" maskUnits="userSpaceOnUse" x="-0.968418" y="-0.968418" width="840" height="665" fill="black">
<rect fill="white" x="-0.968418" y="-0.968418" width="840" height="665"/>
<path d="M69.1054 206.403C54.4439 206.403 45.0316 175.794 45.0316 128.32C45.0316 80.0127 54.2629 50.2371 69.1054 50.2371C80.6898 50.2371 88.9255 69.8099 89.8306 99.7937H81.4138C80.5992 79.5963 75.8931 67.5194 69.0149 67.5194C58.969 67.5194 53.0863 90.0073 53.0863 128.32C53.0863 166.216 59.15 189.12 69.0149 189.12C76.2551 189.12 80.7803 176.627 81.9568 153.306H90.2831C89.016 186.414 81.0518 206.403 69.1054 206.403Z"/>
<path d="M121.924 206.403C108.982 206.403 100.203 183.29 100.203 149.35C100.203 115.618 109.072 92.2977 121.924 92.2977C134.866 92.2977 143.644 115.41 143.644 149.35C143.644 183.29 134.866 206.403 121.924 206.403ZM121.924 189.745C130.16 189.745 135.771 173.504 135.771 149.35C135.771 125.197 130.25 108.955 121.924 108.955C113.597 108.955 108.077 125.197 108.077 149.35C108.077 173.712 113.597 189.745 121.924 189.745Z"/>
<path d="M156.28 203.279V95.421H163.882V109.997C166.597 100.002 172.661 92.2977 178.362 92.2977C189.223 92.2977 196.101 108.539 196.101 134.358V203.279H188.227V137.69C188.227 120.408 184.064 109.372 177.367 109.372C170.036 109.372 164.153 123.114 164.153 140.605V203.279H156.28Z"/>
<path d="M231.452 206.403C217.967 206.403 208.736 183.29 208.736 149.35C208.736 116.035 218.148 92.2977 231.452 92.2977C242.765 92.2977 250.91 107.081 252.177 129.777H244.304C242.856 116.868 238.149 109.372 231.452 109.372C222.854 109.372 216.61 126.03 216.61 149.35C216.61 172.879 222.854 189.329 231.452 189.329C238.149 189.329 242.946 181.208 244.304 167.674H252.177C250.91 191.411 242.856 206.403 231.452 206.403Z"/>
<path d="M285.447 206.403C272.415 206.403 263.364 182.874 263.364 149.35C263.364 116.243 272.596 92.2977 285.447 92.2977C298.842 92.2977 307.62 118.742 305.901 153.723H271.057C271.691 176.003 277.03 189.745 285.357 189.745C291.601 189.745 296.217 182.666 297.574 170.589H305.539C303.638 192.244 295.674 206.403 285.447 206.403ZM285.357 108.955C277.935 108.955 272.777 120.408 271.329 138.731H297.936C297.484 120.616 292.778 108.955 285.357 108.955Z"/>
<path d="M340.8 92.2977C351.75 92.2977 360.71 112.912 360.71 149.35C360.71 185.789 351.75 206.403 340.8 206.403C334.283 206.403 329.487 197.866 326.953 187.871V245.965H319.079V95.421H326.681V111.87C329.125 101.876 333.74 92.2977 340.8 92.2977ZM339.894 109.788C332.654 109.788 326.953 123.947 326.953 149.35C326.953 175.17 332.654 188.704 339.894 188.704C347.135 188.704 352.746 175.378 352.746 149.35C352.746 123.531 347.135 109.788 339.894 109.788Z"/>
<path d="M371.535 111.662V95.421H387.554V64.1879L395.428 54.818V95.421H414.977V111.662H395.428V162.052C395.428 178.918 399.682 188.912 406.831 188.912C409.999 188.912 413.076 187.455 415.882 184.956V201.197C413.257 203.904 409.546 205.57 406.107 205.57C394.432 205.57 387.554 189.329 387.554 162.468V111.662H371.535Z"/>
<path d="M431.232 142.063V124.572H463.813V142.063H431.232Z"/>
<path d="M499.979 206.403C489.028 206.403 480.068 185.789 480.068 149.35C480.068 112.912 489.028 92.2977 499.979 92.2977C506.495 92.2977 511.292 100.835 513.826 110.829V48.1549H521.699V203.279H514.097V186.83C511.654 196.825 507.038 206.403 499.979 206.403ZM500.884 188.912C508.124 188.912 513.826 174.961 513.826 149.35C513.826 123.739 508.124 109.997 500.884 109.997C493.644 109.997 488.032 123.531 488.032 149.35C488.032 175.378 493.644 188.912 500.884 188.912Z"/>
<path d="M534.334 203.279V187.038H545.557V111.662H535.239V95.421H553.159V114.994C555.331 103.333 561.395 93.9635 568.002 93.9635C571.35 93.9635 575.061 95.2128 577.776 98.5444V117.284C574.97 113.953 571.169 112.703 567.821 112.703C559.404 112.703 553.431 128.528 553.431 151.016V187.038H569.631V203.279H534.334Z"/>
<path d="M610.322 76.0565C606.52 76.0565 603.534 69.1852 603.534 60.6481C603.534 51.9029 606.52 45.0316 610.322 45.0316C614.123 45.0316 617.109 51.9029 617.109 60.6481C617.109 69.1852 614.123 76.0565 610.322 76.0565ZM589.506 203.279V187.038H606.339V111.662H590.411V95.421H614.213V187.038H631.137V203.279H589.506Z"/>
<path d="M660.334 203.279L641.057 95.421H649.293L664.588 183.082L679.883 95.421H688.119L668.842 203.279H660.334Z"/>
<path d="M719.578 206.403C706.546 206.403 697.496 182.874 697.496 149.35C697.496 116.243 706.727 92.2977 719.578 92.2977C732.973 92.2977 741.752 118.742 740.032 153.723H705.189C705.822 176.003 711.162 189.745 719.488 189.745C725.733 189.745 730.348 182.666 731.706 170.589H739.67C737.77 192.244 729.805 206.403 719.578 206.403ZM719.488 108.955C712.067 108.955 706.908 120.408 705.46 138.731H732.068C731.615 120.616 726.909 108.955 719.488 108.955Z"/>
<path d="M753.21 203.279V95.421H760.813V109.997C763.528 100.002 769.591 92.2977 775.293 92.2977C786.153 92.2977 793.032 108.539 793.032 134.358V203.279H785.158V137.69C785.158 120.408 780.995 109.372 774.297 109.372C766.967 109.372 761.084 123.114 761.084 140.605V203.279H753.21Z"/>
<path d="M64.0372 392.436C52.6338 392.436 45.0316 376.195 45.0316 352.874C45.0316 335.592 48.6517 322.682 57.521 309.564C52.0908 292.907 50.0997 283.953 50.0997 272.085C50.0997 251.054 56.7065 236.271 65.9378 236.271C74.8071 236.271 81.4138 251.262 81.4138 270.835C81.4138 286.452 77.5221 300.194 70.1009 310.814L68.1098 313.729L79.6942 347.669C80.7803 339.548 81.2328 329.553 80.9613 318.518H88.654C88.835 336.425 87.568 351.417 84.9434 363.077L93.9032 389.313H84.5814L80.5993 377.444C76.4361 387.231 70.8249 392.436 64.0372 392.436ZM57.9735 271.876C57.9735 281.454 58.8785 286.452 63.6752 300.611L65.6663 297.696C71.0964 289.575 73.54 281.038 73.54 271.252C73.54 260.216 70.1009 251.679 65.9378 251.679C61.3221 251.679 57.9735 260.008 57.9735 271.876ZM52.9053 352.458C52.9053 366.2 57.6115 376.195 64.4897 376.195C69.2864 376.195 73.178 371.822 76.0741 364.118L61.9556 322.682V322.89C55.3489 332.469 52.9053 341.63 52.9053 352.458Z"/>
<path d="M177.186 392.436C163.701 392.436 154.469 369.324 154.469 335.384C154.469 302.068 163.882 278.331 177.186 278.331C188.499 278.331 196.644 293.115 197.911 315.811H190.037C188.589 302.901 183.883 295.405 177.186 295.405C168.588 295.405 162.343 312.063 162.343 335.384C162.343 358.913 168.588 375.362 177.186 375.362C183.883 375.362 188.68 367.241 190.037 353.707H197.911C196.644 377.444 188.589 392.436 177.186 392.436Z"/>
<path d="M249.915 281.454V389.313H242.312V374.737C239.597 384.732 233.805 392.436 228.285 392.436C217.696 392.436 210.998 376.195 210.998 350.376V281.454H218.872V347.044C218.872 364.535 222.854 375.362 229.28 375.362C236.43 375.362 242.041 361.828 242.041 344.129V281.454H249.915Z"/>
<path d="M263.002 389.313V373.072H274.225V297.696H263.907V281.454H281.827V301.027C283.999 289.367 290.063 279.997 296.669 279.997C300.018 279.997 303.729 281.246 306.444 284.578V303.318C303.638 299.986 299.837 298.737 296.488 298.737C288.072 298.737 282.098 314.562 282.098 337.049V373.072H298.298V389.313H263.002Z"/>
<path d="M333.831 392.436C324.599 392.436 318.355 379.943 318.355 361.203C318.355 339.965 325.957 326.014 338.989 322.474L350.031 319.559V318.726C350.031 303.109 345.777 294.156 338.808 294.156C332.383 294.156 327.134 302.693 326.591 314.145H318.988C319.712 292.907 327.858 278.331 338.989 278.331C350.302 278.331 357.633 294.156 357.633 319.351V357.247C357.633 365.992 357.724 375.362 357.995 389.313H350.393V370.157C346.773 384.732 341.071 392.436 333.831 392.436ZM326.048 360.162C326.048 369.948 329.577 376.611 334.917 376.611C343.696 376.611 350.031 360.787 350.031 337.882V334.134L339.08 337.466C330.663 339.965 326.048 347.877 326.048 360.162Z"/>
<path d="M371.535 297.696V281.454H387.554V250.221L395.428 240.851V281.454H414.977V297.696H395.428V348.085C395.428 364.951 399.682 374.946 406.831 374.946C409.999 374.946 413.076 373.488 415.882 370.989V387.231C413.257 389.938 409.546 391.603 406.107 391.603C394.432 391.603 387.554 375.362 387.554 348.502V297.696H371.535Z"/>
<path d="M448.246 392.436C435.214 392.436 426.164 368.907 426.164 335.384C426.164 302.277 435.395 278.331 448.246 278.331C461.641 278.331 470.42 304.775 468.7 339.756H433.856C434.49 362.036 439.83 375.779 448.156 375.779C454.401 375.779 459.016 368.699 460.374 356.622H468.338C466.437 378.277 458.473 392.436 448.246 392.436ZM448.156 294.989C440.735 294.989 435.576 306.441 434.128 324.764H460.736C460.283 306.649 455.577 294.989 448.156 294.989Z"/>
<path d="M499.979 392.436C489.028 392.436 480.068 371.822 480.068 335.384C480.068 298.945 489.028 278.331 499.979 278.331C506.495 278.331 511.292 286.868 513.826 296.863V234.188H521.699V389.313H514.097V372.863C511.654 382.858 507.038 392.436 499.979 392.436ZM500.884 374.946C508.124 374.946 513.826 360.995 513.826 335.384C513.826 309.773 508.124 296.03 500.884 296.03C493.644 296.03 488.032 309.564 488.032 335.384C488.032 361.411 493.644 374.946 500.884 374.946Z"/>
<path d="M585.886 389.313L605.796 239.394H615.118L634.757 389.313H626.522L621.725 352.041H599.009L594.122 389.313H585.886ZM601.181 335.592H619.643L610.503 264.38L601.181 335.592Z"/>
<path d="M643.772 389.313V372.031H660.606V256.676H644.677V239.394H684.499V256.676H668.57V372.031H685.404V389.313H643.772Z"/>
<path d="M69.4674 464.365C80.4182 464.365 89.378 484.978 89.378 521.417C89.378 557.856 80.4182 578.47 69.4674 578.47C62.9512 578.47 58.1545 569.933 55.6204 559.938V618.032H47.7467V467.488H55.3489V483.937C57.7925 473.943 62.4082 464.365 69.4674 464.365ZM68.5624 481.855C61.3221 481.855 55.6204 496.014 55.6204 521.417C55.6204 547.236 61.3221 560.771 68.5624 560.771C75.8026 560.771 81.4138 547.445 81.4138 521.417C81.4138 495.598 75.8026 481.855 68.5624 481.855Z"/>
<path d="M100.203 575.346V559.105H111.425V483.729H101.108V467.488H119.028V487.061C121.2 475.4 127.263 466.03 133.87 466.03C137.219 466.03 140.929 467.28 143.644 470.611V489.351C140.839 486.02 137.038 484.77 133.689 484.77C125.272 484.77 119.299 500.595 119.299 523.083V559.105H135.499V575.346H100.203Z"/>
<path d="M176.19 578.47C163.248 578.47 154.469 555.357 154.469 521.417C154.469 487.685 163.339 464.365 176.19 464.365C189.132 464.365 197.911 487.477 197.911 521.417C197.911 555.357 189.132 578.47 176.19 578.47ZM176.19 561.812C184.426 561.812 190.037 545.571 190.037 521.417C190.037 497.263 184.516 481.022 176.19 481.022C167.864 481.022 162.343 497.263 162.343 521.417C162.343 545.779 167.864 561.812 176.19 561.812Z"/>
<path d="M228.647 578.47C217.696 578.47 208.736 557.856 208.736 521.417C208.736 484.978 217.696 464.365 228.647 464.365C235.163 464.365 239.959 472.902 242.494 482.896V420.222H250.367V575.346H242.765V558.897C240.321 568.891 235.706 578.47 228.647 578.47ZM229.552 560.979C236.792 560.979 242.494 547.028 242.494 521.417C242.494 495.806 236.792 482.063 229.552 482.063C222.311 482.063 216.7 495.598 216.7 521.417C216.7 547.445 222.311 560.979 229.552 560.979Z"/>
<path d="M304.181 467.488V575.346H296.579V560.771C293.864 570.765 288.072 578.47 282.551 578.47C271.962 578.47 265.265 562.228 265.265 536.409V467.488H273.139V533.077C273.139 550.568 277.121 561.396 283.546 561.396C290.696 561.396 296.307 547.861 296.307 530.162V467.488H304.181Z"/>
<path d="M339.985 578.47C326.5 578.47 317.269 555.357 317.269 521.417C317.269 488.102 326.681 464.365 339.985 464.365C351.298 464.365 359.443 479.148 360.71 501.844H352.836C351.388 488.935 346.682 481.439 339.985 481.439C331.387 481.439 325.143 498.096 325.143 521.417C325.143 544.946 331.387 561.396 339.985 561.396C346.682 561.396 351.479 553.275 352.836 539.741H360.71C359.443 563.478 351.388 578.47 339.985 578.47Z"/>
<path d="M371.535 483.729V467.488H387.554V436.255L395.428 426.885V467.488H414.977V483.729H395.428V534.119C395.428 550.984 399.682 560.979 406.831 560.979C409.999 560.979 413.076 559.522 415.882 557.023V573.264C413.257 575.971 409.546 577.637 406.107 577.637C394.432 577.637 387.554 561.396 387.554 534.535V483.729H371.535Z"/>
<path d="M447.522 448.123C443.721 448.123 440.735 441.252 440.735 432.715C440.735 423.97 443.721 417.098 447.522 417.098C451.323 417.098 454.31 423.97 454.31 432.715C454.31 441.252 451.323 448.123 447.522 448.123ZM426.707 575.346V559.105H443.54V483.729H427.612V467.488H451.414V559.105H468.338V575.346H426.707Z"/>
<path d="M501.789 578.47C488.847 578.47 480.068 555.357 480.068 521.417C480.068 487.685 488.937 464.365 501.789 464.365C514.731 464.365 523.509 487.477 523.509 521.417C523.509 555.357 514.731 578.47 501.789 578.47ZM501.789 561.812C510.025 561.812 515.636 545.571 515.636 521.417C515.636 497.263 510.115 481.022 501.789 481.022C493.462 481.022 487.942 497.263 487.942 521.417C487.942 545.779 493.462 561.812 501.789 561.812Z"/>
<path d="M536.145 575.346V467.488H543.747V482.063C546.462 472.069 552.526 464.365 558.227 464.365C569.088 464.365 575.966 480.606 575.966 506.425V575.346H568.092V509.757C568.092 492.474 563.929 481.439 557.232 481.439C549.901 481.439 544.018 495.181 544.018 512.672V575.346H536.145Z"/>
</mask>
<path d="M69.1054 206.403C54.4439 206.403 45.0316 175.794 45.0316 128.32C45.0316 80.0127 54.2629 50.2371 69.1054 50.2371C80.6898 50.2371 88.9255 69.8099 89.8306 99.7937H81.4138C80.5992 79.5963 75.8931 67.5194 69.0149 67.5194C58.969 67.5194 53.0863 90.0073 53.0863 128.32C53.0863 166.216 59.15 189.12 69.0149 189.12C76.2551 189.12 80.7803 176.627 81.9568 153.306H90.2831C89.016 186.414 81.0518 206.403 69.1054 206.403Z" fill="var(--fill-0, black)"/>
<path d="M121.924 206.403C108.982 206.403 100.203 183.29 100.203 149.35C100.203 115.618 109.072 92.2977 121.924 92.2977C134.866 92.2977 143.644 115.41 143.644 149.35C143.644 183.29 134.866 206.403 121.924 206.403ZM121.924 189.745C130.16 189.745 135.771 173.504 135.771 149.35C135.771 125.197 130.25 108.955 121.924 108.955C113.597 108.955 108.077 125.197 108.077 149.35C108.077 173.712 113.597 189.745 121.924 189.745Z" fill="var(--fill-0, black)"/>
<path d="M156.28 203.279V95.421H163.882V109.997C166.597 100.002 172.661 92.2977 178.362 92.2977C189.223 92.2977 196.101 108.539 196.101 134.358V203.279H188.227V137.69C188.227 120.408 184.064 109.372 177.367 109.372C170.036 109.372 164.153 123.114 164.153 140.605V203.279H156.28Z" fill="var(--fill-0, black)"/>
<path d="M231.452 206.403C217.967 206.403 208.736 183.29 208.736 149.35C208.736 116.035 218.148 92.2977 231.452 92.2977C242.765 92.2977 250.91 107.081 252.177 129.777H244.304C242.856 116.868 238.149 109.372 231.452 109.372C222.854 109.372 216.61 126.03 216.61 149.35C216.61 172.879 222.854 189.329 231.452 189.329C238.149 189.329 242.946 181.208 244.304 167.674H252.177C250.91 191.411 242.856 206.403 231.452 206.403Z" fill="var(--fill-0, black)"/>
<path d="M285.447 206.403C272.415 206.403 263.364 182.874 263.364 149.35C263.364 116.243 272.596 92.2977 285.447 92.2977C298.842 92.2977 307.62 118.742 305.901 153.723H271.057C271.691 176.003 277.03 189.745 285.357 189.745C291.601 189.745 296.217 182.666 297.574 170.589H305.539C303.638 192.244 295.674 206.403 285.447 206.403ZM285.357 108.955C277.935 108.955 272.777 120.408 271.329 138.731H297.936C297.484 120.616 292.778 108.955 285.357 108.955Z" fill="var(--fill-0, black)"/>
<path d="M340.8 92.2977C351.75 92.2977 360.71 112.912 360.71 149.35C360.71 185.789 351.75 206.403 340.8 206.403C334.283 206.403 329.487 197.866 326.953 187.871V245.965H319.079V95.421H326.681V111.87C329.125 101.876 333.74 92.2977 340.8 92.2977ZM339.894 109.788C332.654 109.788 326.953 123.947 326.953 149.35C326.953 175.17 332.654 188.704 339.894 188.704C347.135 188.704 352.746 175.378 352.746 149.35C352.746 123.531 347.135 109.788 339.894 109.788Z" fill="var(--fill-0, black)"/>
<path d="M371.535 111.662V95.421H387.554V64.1879L395.428 54.818V95.421H414.977V111.662H395.428V162.052C395.428 178.918 399.682 188.912 406.831 188.912C409.999 188.912 413.076 187.455 415.882 184.956V201.197C413.257 203.904 409.546 205.57 406.107 205.57C394.432 205.57 387.554 189.329 387.554 162.468V111.662H371.535Z" fill="var(--fill-0, black)"/>
<path d="M431.232 142.063V124.572H463.813V142.063H431.232Z" fill="var(--fill-0, black)"/>
<path d="M499.979 206.403C489.028 206.403 480.068 185.789 480.068 149.35C480.068 112.912 489.028 92.2977 499.979 92.2977C506.495 92.2977 511.292 100.835 513.826 110.829V48.1549H521.699V203.279H514.097V186.83C511.654 196.825 507.038 206.403 499.979 206.403ZM500.884 188.912C508.124 188.912 513.826 174.961 513.826 149.35C513.826 123.739 508.124 109.997 500.884 109.997C493.644 109.997 488.032 123.531 488.032 149.35C488.032 175.378 493.644 188.912 500.884 188.912Z" fill="var(--fill-0, black)"/>
<path d="M534.334 203.279V187.038H545.557V111.662H535.239V95.421H553.159V114.994C555.331 103.333 561.395 93.9635 568.002 93.9635C571.35 93.9635 575.061 95.2128 577.776 98.5444V117.284C574.97 113.953 571.169 112.703 567.821 112.703C559.404 112.703 553.431 128.528 553.431 151.016V187.038H569.631V203.279H534.334Z" fill="var(--fill-0, black)"/>
<path d="M610.322 76.0565C606.52 76.0565 603.534 69.1852 603.534 60.6481C603.534 51.9029 606.52 45.0316 610.322 45.0316C614.123 45.0316 617.109 51.9029 617.109 60.6481C617.109 69.1852 614.123 76.0565 610.322 76.0565ZM589.506 203.279V187.038H606.339V111.662H590.411V95.421H614.213V187.038H631.137V203.279H589.506Z" fill="var(--fill-0, black)"/>
<path d="M660.334 203.279L641.057 95.421H649.293L664.588 183.082L679.883 95.421H688.119L668.842 203.279H660.334Z" fill="var(--fill-0, black)"/>
<path d="M719.578 206.403C706.546 206.403 697.496 182.874 697.496 149.35C697.496 116.243 706.727 92.2977 719.578 92.2977C732.973 92.2977 741.752 118.742 740.032 153.723H705.189C705.822 176.003 711.162 189.745 719.488 189.745C725.733 189.745 730.348 182.666 731.706 170.589H739.67C737.77 192.244 729.805 206.403 719.578 206.403ZM719.488 108.955C712.067 108.955 706.908 120.408 705.46 138.731H732.068C731.615 120.616 726.909 108.955 719.488 108.955Z" fill="var(--fill-0, black)"/>
<path d="M753.21 203.279V95.421H760.813V109.997C763.528 100.002 769.591 92.2977 775.293 92.2977C786.153 92.2977 793.032 108.539 793.032 134.358V203.279H785.158V137.69C785.158 120.408 780.995 109.372 774.297 109.372C766.967 109.372 761.084 123.114 761.084 140.605V203.279H753.21Z" fill="var(--fill-0, black)"/>
<path d="M64.0372 392.436C52.6338 392.436 45.0316 376.195 45.0316 352.874C45.0316 335.592 48.6517 322.682 57.521 309.564C52.0908 292.907 50.0997 283.953 50.0997 272.085C50.0997 251.054 56.7065 236.271 65.9378 236.271C74.8071 236.271 81.4138 251.262 81.4138 270.835C81.4138 286.452 77.5221 300.194 70.1009 310.814L68.1098 313.729L79.6942 347.669C80.7803 339.548 81.2328 329.553 80.9613 318.518H88.654C88.835 336.425 87.568 351.417 84.9434 363.077L93.9032 389.313H84.5814L80.5993 377.444C76.4361 387.231 70.8249 392.436 64.0372 392.436ZM57.9735 271.876C57.9735 281.454 58.8785 286.452 63.6752 300.611L65.6663 297.696C71.0964 289.575 73.54 281.038 73.54 271.252C73.54 260.216 70.1009 251.679 65.9378 251.679C61.3221 251.679 57.9735 260.008 57.9735 271.876ZM52.9053 352.458C52.9053 366.2 57.6115 376.195 64.4897 376.195C69.2864 376.195 73.178 371.822 76.0741 364.118L61.9556 322.682V322.89C55.3489 332.469 52.9053 341.63 52.9053 352.458Z" fill="var(--fill-0, black)"/>
<path d="M177.186 392.436C163.701 392.436 154.469 369.324 154.469 335.384C154.469 302.068 163.882 278.331 177.186 278.331C188.499 278.331 196.644 293.115 197.911 315.811H190.037C188.589 302.901 183.883 295.405 177.186 295.405C168.588 295.405 162.343 312.063 162.343 335.384C162.343 358.913 168.588 375.362 177.186 375.362C183.883 375.362 188.68 367.241 190.037 353.707H197.911C196.644 377.444 188.589 392.436 177.186 392.436Z" fill="var(--fill-0, black)"/>
<path d="M249.915 281.454V389.313H242.312V374.737C239.597 384.732 233.805 392.436 228.285 392.436C217.696 392.436 210.998 376.195 210.998 350.376V281.454H218.872V347.044C218.872 364.535 222.854 375.362 229.28 375.362C236.43 375.362 242.041 361.828 242.041 344.129V281.454H249.915Z" fill="var(--fill-0, black)"/>
<path d="M263.002 389.313V373.072H274.225V297.696H263.907V281.454H281.827V301.027C283.999 289.367 290.063 279.997 296.669 279.997C300.018 279.997 303.729 281.246 306.444 284.578V303.318C303.638 299.986 299.837 298.737 296.488 298.737C288.072 298.737 282.098 314.562 282.098 337.049V373.072H298.298V389.313H263.002Z" fill="var(--fill-0, black)"/>
<path d="M333.831 392.436C324.599 392.436 318.355 379.943 318.355 361.203C318.355 339.965 325.957 326.014 338.989 322.474L350.031 319.559V318.726C350.031 303.109 345.777 294.156 338.808 294.156C332.383 294.156 327.134 302.693 326.591 314.145H318.988C319.712 292.907 327.858 278.331 338.989 278.331C350.302 278.331 357.633 294.156 357.633 319.351V357.247C357.633 365.992 357.724 375.362 357.995 389.313H350.393V370.157C346.773 384.732 341.071 392.436 333.831 392.436ZM326.048 360.162C326.048 369.948 329.577 376.611 334.917 376.611C343.696 376.611 350.031 360.787 350.031 337.882V334.134L339.08 337.466C330.663 339.965 326.048 347.877 326.048 360.162Z" fill="var(--fill-0, black)"/>
<path d="M371.535 297.696V281.454H387.554V250.221L395.428 240.851V281.454H414.977V297.696H395.428V348.085C395.428 364.951 399.682 374.946 406.831 374.946C409.999 374.946 413.076 373.488 415.882 370.989V387.231C413.257 389.938 409.546 391.603 406.107 391.603C394.432 391.603 387.554 375.362 387.554 348.502V297.696H371.535Z" fill="var(--fill-0, black)"/>
<path d="M448.246 392.436C435.214 392.436 426.164 368.907 426.164 335.384C426.164 302.277 435.395 278.331 448.246 278.331C461.641 278.331 470.42 304.775 468.7 339.756H433.856C434.49 362.036 439.83 375.779 448.156 375.779C454.401 375.779 459.016 368.699 460.374 356.622H468.338C466.437 378.277 458.473 392.436 448.246 392.436ZM448.156 294.989C440.735 294.989 435.576 306.441 434.128 324.764H460.736C460.283 306.649 455.577 294.989 448.156 294.989Z" fill="var(--fill-0, black)"/>
<path d="M499.979 392.436C489.028 392.436 480.068 371.822 480.068 335.384C480.068 298.945 489.028 278.331 499.979 278.331C506.495 278.331 511.292 286.868 513.826 296.863V234.188H521.699V389.313H514.097V372.863C511.654 382.858 507.038 392.436 499.979 392.436ZM500.884 374.946C508.124 374.946 513.826 360.995 513.826 335.384C513.826 309.773 508.124 296.03 500.884 296.03C493.644 296.03 488.032 309.564 488.032 335.384C488.032 361.411 493.644 374.946 500.884 374.946Z" fill="var(--fill-0, black)"/>
<path d="M585.886 389.313L605.796 239.394H615.118L634.757 389.313H626.522L621.725 352.041H599.009L594.122 389.313H585.886ZM601.181 335.592H619.643L610.503 264.38L601.181 335.592Z" fill="var(--fill-0, black)"/>
<path d="M643.772 389.313V372.031H660.606V256.676H644.677V239.394H684.499V256.676H668.57V372.031H685.404V389.313H643.772Z" fill="var(--fill-0, black)"/>
<path d="M69.4674 464.365C80.4182 464.365 89.378 484.978 89.378 521.417C89.378 557.856 80.4182 578.47 69.4674 578.47C62.9512 578.47 58.1545 569.933 55.6204 559.938V618.032H47.7467V467.488H55.3489V483.937C57.7925 473.943 62.4082 464.365 69.4674 464.365ZM68.5624 481.855C61.3221 481.855 55.6204 496.014 55.6204 521.417C55.6204 547.236 61.3221 560.771 68.5624 560.771C75.8026 560.771 81.4138 547.445 81.4138 521.417C81.4138 495.598 75.8026 481.855 68.5624 481.855Z" fill="var(--fill-0, black)"/>
<path d="M100.203 575.346V559.105H111.425V483.729H101.108V467.488H119.028V487.061C121.2 475.4 127.263 466.03 133.87 466.03C137.219 466.03 140.929 467.28 143.644 470.611V489.351C140.839 486.02 137.038 484.77 133.689 484.77C125.272 484.77 119.299 500.595 119.299 523.083V559.105H135.499V575.346H100.203Z" fill="var(--fill-0, black)"/>
<path d="M176.19 578.47C163.248 578.47 154.469 555.357 154.469 521.417C154.469 487.685 163.339 464.365 176.19 464.365C189.132 464.365 197.911 487.477 197.911 521.417C197.911 555.357 189.132 578.47 176.19 578.47ZM176.19 561.812C184.426 561.812 190.037 545.571 190.037 521.417C190.037 497.263 184.516 481.022 176.19 481.022C167.864 481.022 162.343 497.263 162.343 521.417C162.343 545.779 167.864 561.812 176.19 561.812Z" fill="var(--fill-0, black)"/>
<path d="M228.647 578.47C217.696 578.47 208.736 557.856 208.736 521.417C208.736 484.978 217.696 464.365 228.647 464.365C235.163 464.365 239.959 472.902 242.494 482.896V420.222H250.367V575.346H242.765V558.897C240.321 568.891 235.706 578.47 228.647 578.47ZM229.552 560.979C236.792 560.979 242.494 547.028 242.494 521.417C242.494 495.806 236.792 482.063 229.552 482.063C222.311 482.063 216.7 495.598 216.7 521.417C216.7 547.445 222.311 560.979 229.552 560.979Z" fill="var(--fill-0, black)"/>
<path d="M304.181 467.488V575.346H296.579V560.771C293.864 570.765 288.072 578.47 282.551 578.47C271.962 578.47 265.265 562.228 265.265 536.409V467.488H273.139V533.077C273.139 550.568 277.121 561.396 283.546 561.396C290.696 561.396 296.307 547.861 296.307 530.162V467.488H304.181Z" fill="var(--fill-0, black)"/>
<path d="M339.985 578.47C326.5 578.47 317.269 555.357 317.269 521.417C317.269 488.102 326.681 464.365 339.985 464.365C351.298 464.365 359.443 479.148 360.71 501.844H352.836C351.388 488.935 346.682 481.439 339.985 481.439C331.387 481.439 325.143 498.096 325.143 521.417C325.143 544.946 331.387 561.396 339.985 561.396C346.682 561.396 351.479 553.275 352.836 539.741H360.71C359.443 563.478 351.388 578.47 339.985 578.47Z" fill="var(--fill-0, black)"/>
<path d="M371.535 483.729V467.488H387.554V436.255L395.428 426.885V467.488H414.977V483.729H395.428V534.119C395.428 550.984 399.682 560.979 406.831 560.979C409.999 560.979 413.076 559.522 415.882 557.023V573.264C413.257 575.971 409.546 577.637 406.107 577.637C394.432 577.637 387.554 561.396 387.554 534.535V483.729H371.535Z" fill="var(--fill-0, black)"/>
<path d="M447.522 448.123C443.721 448.123 440.735 441.252 440.735 432.715C440.735 423.97 443.721 417.098 447.522 417.098C451.323 417.098 454.31 423.97 454.31 432.715C454.31 441.252 451.323 448.123 447.522 448.123ZM426.707 575.346V559.105H443.54V483.729H427.612V467.488H451.414V559.105H468.338V575.346H426.707Z" fill="var(--fill-0, black)"/>
<path d="M501.789 578.47C488.847 578.47 480.068 555.357 480.068 521.417C480.068 487.685 488.937 464.365 501.789 464.365C514.731 464.365 523.509 487.477 523.509 521.417C523.509 555.357 514.731 578.47 501.789 578.47ZM501.789 561.812C510.025 561.812 515.636 545.571 515.636 521.417C515.636 497.263 510.115 481.022 501.789 481.022C493.462 481.022 487.942 497.263 487.942 521.417C487.942 545.779 493.462 561.812 501.789 561.812Z" fill="var(--fill-0, black)"/>
<path d="M536.145 575.346V467.488H543.747V482.063C546.462 472.069 552.526 464.365 558.227 464.365C569.088 464.365 575.966 480.606 575.966 506.425V575.346H568.092V509.757C568.092 492.474 563.929 481.439 557.232 481.439C549.901 481.439 544.018 495.181 544.018 512.672V575.346H536.145Z" fill="var(--fill-0, black)"/>
<path d="M69.1054 206.403C54.4439 206.403 45.0316 175.794 45.0316 128.32C45.0316 80.0127 54.2629 50.2371 69.1054 50.2371C80.6898 50.2371 88.9255 69.8099 89.8306 99.7937H81.4138C80.5992 79.5963 75.8931 67.5194 69.0149 67.5194C58.969 67.5194 53.0863 90.0073 53.0863 128.32C53.0863 166.216 59.15 189.12 69.0149 189.12C76.2551 189.12 80.7803 176.627 81.9568 153.306H90.2831C89.016 186.414 81.0518 206.403 69.1054 206.403Z" stroke="var(--stroke-0, #00BFFF)" stroke-width="90.0632" stroke-linejoin="round" mask="url(#path-1-outside-1_0_8)"/>
<path d="M121.924 206.403C108.982 206.403 100.203 183.29 100.203 149.35C100.203 115.618 109.072 92.2977 121.924 92.2977C134.866 92.2977 143.644 115.41 143.644 149.35C143.644 183.29 134.866 206.403 121.924 206.403ZM121.924 189.745C130.16 189.745 135.771 173.504 135.771 149.35C135.771 125.197 130.25 108.955 121.924 108.955C113.597 108.955 108.077 125.197 108.077 149.35C108.077 173.712 113.597 189.745 121.924 189.745Z" stroke="var(--stroke-0, #00BFFF)" stroke-width="90.0632" stroke-linejoin="round" mask="url(#path-1-outside-1_0_8)"/>
<path d="M156.28 203.279V95.421H163.882V109.997C166.597 100.002 172.661 92.2977 178.362 92.2977C189.223 92.2977 196.101 108.539 196.101 134.358V203.279H188.227V137.69C188.227 120.408 184.064 109.372 177.367 109.372C170.036 109.372 164.153 123.114 164.153 140.605V203.279H156.28Z" stroke="var(--stroke-0, #00BFFF)" stroke-width="90.0632" stroke-linejoin="round" mask="url(#path-1-outside-1_0_8)"/>
<path d="M231.452 206.403C217.967 206.403 208.736 183.29 208.736 149.35C208.736 116.035 218.148 92.2977 231.452 92.2977C242.765 92.2977 250.91 107.081 252.177 129.777H244.304C242.856 116.868 238.149 109.372 231.452 109.372C222.854 109.372 216.61 126.03 216.61 149.35C216.61 172.879 222.854 189.329 231.452 189.329C238.149 189.329 242.946 181.208 244.304 167.674H252.177C250.91 191.411 242.856 206.403 231.452 206.403Z" stroke="var(--stroke-0, #00BFFF)" stroke-width="90.0632" stroke-linejoin="round" mask="url(#path-1-outside-1_0_8)"/>
<path d="M285.447 206.403C272.415 206.403 263.364 182.874 263.364 149.35C263.364 116.243 272.596 92.2977 285.447 92.2977C298.842 92.2977 307.62 118.742 305.901 153.723H271.057C271.691 176.003 277.03 189.745 285.357 189.745C291.601 189.745 296.217 182.666 297.574 170.589H305.539C303.638 192.244 295.674 206.403 285.447 206.403ZM285.357 108.955C277.935 108.955 272.777 120.408 271.329 138.731H297.936C297.484 120.616 292.778 108.955 285.357 108.955Z" stroke="var(--stroke-0, #00BFFF)" stroke-width="90.0632" stroke-linejoin="round" mask="url(#path-1-outside-1_0_8)"/>
<path d="M340.8 92.2977C351.75 92.2977 360.71 112.912 360.71 149.35C360.71 185.789 351.75 206.403 340.8 206.403C334.283 206.403 329.487 197.866 326.953 187.871V245.965H319.079V95.421H326.681V111.87C329.125 101.876 333.74 92.2977 340.8 92.2977ZM339.894 109.788C332.654 109.788 326.953 123.947 326.953 149.35C326.953 175.17 332.654 188.704 339.894 188.704C347.135 188.704 352.746 175.378 352.746 149.35C352.746 123.531 347.135 109.788 339.894 109.788Z" stroke="var(--stroke-0, #00BFFF)" stroke-width="90.0632" stroke-linejoin="round" mask="url(#path-1-outside-1_0_8)"/>
<path d="M371.535 111.662V95.421H387.554V64.1879L395.428 54.818V95.421H414.977V111.662H395.428V162.052C395.428 178.918 399.682 188.912 406.831 188.912C409.999 188.912 413.076 187.455 415.882 184.956V201.197C413.257 203.904 409.546 205.57 406.107 205.57C394.432 205.57 387.554 189.329 387.554 162.468V111.662H371.535Z" stroke="var(--stroke-0, #00BFFF)" stroke-width="90.0632" stroke-linejoin="round" mask="url(#path-1-outside-1_0_8)"/>
<path d="M431.232 142.063V124.572H463.813V142.063H431.232Z" stroke="var(--stroke-0, #00BFFF)" stroke-width="90.0632" stroke-linejoin="round" mask="url(#path-1-outside-1_0_8)"/>
<path d="M499.979 206.403C489.028 206.403 480.068 185.789 480.068 149.35C480.068 112.912 489.028 92.2977 499.979 92.2977C506.495 92.2977 511.292 100.835 513.826 110.829V48.1549H521.699V203.279H514.097V186.83C511.654 196.825 507.038 206.403 499.979 206.403ZM500.884 188.912C508.124 188.912 513.826 174.961 513.826 149.35C513.826 123.739 508.124 109.997 500.884 109.997C493.644 109.997 488.032 123.531 488.032 149.35C488.032 175.378 493.644 188.912 500.884 188.912Z" stroke="var(--stroke-0, #00BFFF)" stroke-width="90.0632" stroke-linejoin="round" mask="url(#path-1-outside-1_0_8)"/>
<path d="M534.334 203.279V187.038H545.557V111.662H535.239V95.421H553.159V114.994C555.331 103.333 561.395 93.9635 568.002 93.9635C571.35 93.9635 575.061 95.2128 577.776 98.5444V117.284C574.97 113.953 571.169 112.703 567.821 112.703C559.404 112.703 553.431 128.528 553.431 151.016V187.038H569.631V203.279H534.334Z" stroke="var(--stroke-0, #00BFFF)" stroke-width="90.0632" stroke-linejoin="round" mask="url(#path-1-outside-1_0_8)"/>
<path d="M610.322 76.0565C606.52 76.0565 603.534 69.1852 603.534 60.6481C603.534 51.9029 606.52 45.0316 610.322 45.0316C614.123 45.0316 617.109 51.9029 617.109 60.6481C617.109 69.1852 614.123 76.0565 610.322 76.0565ZM589.506 203.279V187.038H606.339V111.662H590.411V95.421H614.213V187.038H631.137V203.279H589.506Z" stroke="var(--stroke-0, #00BFFF)" stroke-width="90.0632" stroke-linejoin="round" mask="url(#path-1-outside-1_0_8)"/>
<path d="M660.334 203.279L641.057 95.421H649.293L664.588 183.082L679.883 95.421H688.119L668.842 203.279H660.334Z" stroke="var(--stroke-0, #00BFFF)" stroke-width="90.0632" stroke-linejoin="round" mask="url(#path-1-outside-1_0_8)"/>
<path d="M719.578 206.403C706.546 206.403 697.496 182.874 697.496 149.35C697.496 116.243 706.727 92.2977 719.578 92.2977C732.973 92.2977 741.752 118.742 740.032 153.723H705.189C705.822 176.003 711.162 189.745 719.488 189.745C725.733 189.745 730.348 182.666 731.706 170.589H739.67C737.77 192.244 729.805 206.403 719.578 206.403ZM719.488 108.955C712.067 108.955 706.908 120.408 705.46 138.731H732.068C731.615 120.616 726.909 108.955 719.488 108.955Z" stroke="var(--stroke-0, #00BFFF)" stroke-width="90.0632" stroke-linejoin="round" mask="url(#path-1-outside-1_0_8)"/>
<path d="M753.21 203.279V95.421H760.813V109.997C763.528 100.002 769.591 92.2977 775.293 92.2977C786.153 92.2977 793.032 108.539 793.032 134.358V203.279H785.158V137.69C785.158 120.408 780.995 109.372 774.297 109.372C766.967 109.372 761.084 123.114 761.084 140.605V203.279H753.21Z" stroke="var(--stroke-0, #00BFFF)" stroke-width="90.0632" stroke-linejoin="round" mask="url(#path-1-outside-1_0_8)"/>
<path d="M64.0372 392.436C52.6338 392.436 45.0316 376.195 45.0316 352.874C45.0316 335.592 48.6517 322.682 57.521 309.564C52.0908 292.907 50.0997 283.953 50.0997 272.085C50.0997 251.054 56.7065 236.271 65.9378 236.271C74.8071 236.271 81.4138 251.262 81.4138 270.835C81.4138 286.452 77.5221 300.194 70.1009 310.814L68.1098 313.729L79.6942 347.669C80.7803 339.548 81.2328 329.553 80.9613 318.518H88.654C88.835 336.425 87.568 351.417 84.9434 363.077L93.9032 389.313H84.5814L80.5993 377.444C76.4361 387.231 70.8249 392.436 64.0372 392.436ZM57.9735 271.876C57.9735 281.454 58.8785 286.452 63.6752 300.611L65.6663 297.696C71.0964 289.575 73.54 281.038 73.54 271.252C73.54 260.216 70.1009 251.679 65.9378 251.679C61.3221 251.679 57.9735 260.008 57.9735 271.876ZM52.9053 352.458C52.9053 366.2 57.6115 376.195 64.4897 376.195C69.2864 376.195 73.178 371.822 76.0741 364.118L61.9556 322.682V322.89C55.3489 332.469 52.9053 341.63 52.9053 352.458Z" stroke="var(--stroke-0, #00BFFF)" stroke-width="90.0632" stroke-linejoin="round" mask="url(#path-1-outside-1_0_8)"/>
<path d="M177.186 392.436C163.701 392.436 154.469 369.324 154.469 335.384C154.469 302.068 163.882 278.331 177.186 278.331C188.499 278.331 196.644 293.115 197.911 315.811H190.037C188.589 302.901 183.883 295.405 177.186 295.405C168.588 295.405 162.343 312.063 162.343 335.384C162.343 358.913 168.588 375.362 177.186 375.362C183.883 375.362 188.68 367.241 190.037 353.707H197.911C196.644 377.444 188.589 392.436 177.186 392.436Z" stroke="var(--stroke-0, #00BFFF)" stroke-width="90.0632" stroke-linejoin="round" mask="url(#path-1-outside-1_0_8)"/>
<path d="M249.915 281.454V389.313H242.312V374.737C239.597 384.732 233.805 392.436 228.285 392.436C217.696 392.436 210.998 376.195 210.998 350.376V281.454H218.872V347.044C218.872 364.535 222.854 375.362 229.28 375.362C236.43 375.362 242.041 361.828 242.041 344.129V281.454H249.915Z" stroke="var(--stroke-0, #00BFFF)" stroke-width="90.0632" stroke-linejoin="round" mask="url(#path-1-outside-1_0_8)"/>
<path d="M263.002 389.313V373.072H274.225V297.696H263.907V281.454H281.827V301.027C283.999 289.367 290.063 279.997 296.669 279.997C300.018 279.997 303.729 281.246 306.444 284.578V303.318C303.638 299.986 299.837 298.737 296.488 298.737C288.072 298.737 282.098 314.562 282.098 337.049V373.072H298.298V389.313H263.002Z" stroke="var(--stroke-0, #00BFFF)" stroke-width="90.0632" stroke-linejoin="round" mask="url(#path-1-outside-1_0_8)"/>
<path d="M333.831 392.436C324.599 392.436 318.355 379.943 318.355 361.203C318.355 339.965 325.957 326.014 338.989 322.474L350.031 319.559V318.726C350.031 303.109 345.777 294.156 338.808 294.156C332.383 294.156 327.134 302.693 326.591 314.145H318.988C319.712 292.907 327.858 278.331 338.989 278.331C350.302 278.331 357.633 294.156 357.633 319.351V357.247C357.633 365.992 357.724 375.362 357.995 389.313H350.393V370.157C346.773 384.732 341.071 392.436 333.831 392.436ZM326.048 360.162C326.048 369.948 329.577 376.611 334.917 376.611C343.696 376.611 350.031 360.787 350.031 337.882V334.134L339.08 337.466C330.663 339.965 326.048 347.877 326.048 360.162Z" stroke="var(--stroke-0, #00BFFF)" stroke-width="90.0632" stroke-linejoin="round" mask="url(#path-1-outside-1_0_8)"/>
<path d="M371.535 297.696V281.454H387.554V250.221L395.428 240.851V281.454H414.977V297.696H395.428V348.085C395.428 364.951 399.682 374.946 406.831 374.946C409.999 374.946 413.076 373.488 415.882 370.989V387.231C413.257 389.938 409.546 391.603 406.107 391.603C394.432 391.603 387.554 375.362 387.554 348.502V297.696H371.535Z" stroke="var(--stroke-0, #00BFFF)" stroke-width="90.0632" stroke-linejoin="round" mask="url(#path-1-outside-1_0_8)"/>
<path d="M448.246 392.436C435.214 392.436 426.164 368.907 426.164 335.384C426.164 302.277 435.395 278.331 448.246 278.331C461.641 278.331 470.42 304.775 468.7 339.756H433.856C434.49 362.036 439.83 375.779 448.156 375.779C454.401 375.779 459.016 368.699 460.374 356.622H468.338C466.437 378.277 458.473 392.436 448.246 392.436ZM448.156 294.989C440.735 294.989 435.576 306.441 434.128 324.764H460.736C460.283 306.649 455.577 294.989 448.156 294.989Z" stroke="var(--stroke-0, #00BFFF)" stroke-width="90.0632" stroke-linejoin="round" mask="url(#path-1-outside-1_0_8)"/>
<path d="M499.979 392.436C489.028 392.436 480.068 371.822 480.068 335.384C480.068 298.945 489.028 278.331 499.979 278.331C506.495 278.331 511.292 286.868 513.826 296.863V234.188H521.699V389.313H514.097V372.863C511.654 382.858 507.038 392.436 499.979 392.436ZM500.884 374.946C508.124 374.946 513.826 360.995 513.826 335.384C513.826 309.773 508.124 296.03 500.884 296.03C493.644 296.03 488.032 309.564 488.032 335.384C488.032 361.411 493.644 374.946 500.884 374.946Z" stroke="var(--stroke-0, #00BFFF)" stroke-width="90.0632" stroke-linejoin="round" mask="url(#path-1-outside-1_0_8)"/>
<path d="M585.886 389.313L605.796 239.394H615.118L634.757 389.313H626.522L621.725 352.041H599.009L594.122 389.313H585.886ZM601.181 335.592H619.643L610.503 264.38L601.181 335.592Z" stroke="var(--stroke-0, #00BFFF)" stroke-width="90.0632" stroke-linejoin="round" mask="url(#path-1-outside-1_0_8)"/>
<path d="M643.772 389.313V372.031H660.606V256.676H644.677V239.394H684.499V256.676H668.57V372.031H685.404V389.313H643.772Z" stroke="var(--stroke-0, #00BFFF)" stroke-width="90.0632" stroke-linejoin="round" mask="url(#path-1-outside-1_0_8)"/>
<path d="M69.4674 464.365C80.4182 464.365 89.378 484.978 89.378 521.417C89.378 557.856 80.4182 578.47 69.4674 578.47C62.9512 578.47 58.1545 569.933 55.6204 559.938V618.032H47.7467V467.488H55.3489V483.937C57.7925 473.943 62.4082 464.365 69.4674 464.365ZM68.5624 481.855C61.3221 481.855 55.6204 496.014 55.6204 521.417C55.6204 547.236 61.3221 560.771 68.5624 560.771C75.8026 560.771 81.4138 547.445 81.4138 521.417C81.4138 495.598 75.8026 481.855 68.5624 481.855Z" stroke="var(--stroke-0, #00BFFF)" stroke-width="90.0632" stroke-linejoin="round" mask="url(#path-1-outside-1_0_8)"/>
<path d="M100.203 575.346V559.105H111.425V483.729H101.108V467.488H119.028V487.061C121.2 475.4 127.263 466.03 133.87 466.03C137.219 466.03 140.929 467.28 143.644 470.611V489.351C140.839 486.02 137.038 484.77 133.689 484.77C125.272 484.77 119.299 500.595 119.299 523.083V559.105H135.499V575.346H100.203Z" stroke="var(--stroke-0, #00BFFF)" stroke-width="90.0632" stroke-linejoin="round" mask="url(#path-1-outside-1_0_8)"/>
<path d="M176.19 578.47C163.248 578.47 154.469 555.357 154.469 521.417C154.469 487.685 163.339 464.365 176.19 464.365C189.132 464.365 197.911 487.477 197.911 521.417C197.911 555.357 189.132 578.47 176.19 578.47ZM176.19 561.812C184.426 561.812 190.037 545.571 190.037 521.417C190.037 497.263 184.516 481.022 176.19 481.022C167.864 481.022 162.343 497.263 162.343 521.417C162.343 545.779 167.864 561.812 176.19 561.812Z" stroke="var(--stroke-0, #00BFFF)" stroke-width="90.0632" stroke-linejoin="round" mask="url(#path-1-outside-1_0_8)"/>
<path d="M228.647 578.47C217.696 578.47 208.736 557.856 208.736 521.417C208.736 484.978 217.696 464.365 228.647 464.365C235.163 464.365 239.959 472.902 242.494 482.896V420.222H250.367V575.346H242.765V558.897C240.321 568.891 235.706 578.47 228.647 578.47ZM229.552 560.979C236.792 560.979 242.494 547.028 242.494 521.417C242.494 495.806 236.792 482.063 229.552 482.063C222.311 482.063 216.7 495.598 216.7 521.417C216.7 547.445 222.311 560.979 229.552 560.979Z" stroke="var(--stroke-0, #00BFFF)" stroke-width="90.0632" stroke-linejoin="round" mask="url(#path-1-outside-1_0_8)"/>
<path d="M304.181 467.488V575.346H296.579V560.771C293.864 570.765 288.072 578.47 282.551 578.47C271.962 578.47 265.265 562.228 265.265 536.409V467.488H273.139V533.077C273.139 550.568 277.121 561.396 283.546 561.396C290.696 561.396 296.307 547.861 296.307 530.162V467.488H304.181Z" stroke="var(--stroke-0, #00BFFF)" stroke-width="90.0632" stroke-linejoin="round" mask="url(#path-1-outside-1_0_8)"/>
<path d="M339.985 578.47C326.5 578.47 317.269 555.357 317.269 521.417C317.269 488.102 326.681 464.365 339.985 464.365C351.298 464.365 359.443 479.148 360.71 501.844H352.836C351.388 488.935 346.682 481.439 339.985 481.439C331.387 481.439 325.143 498.096 325.143 521.417C325.143 544.946 331.387 561.396 339.985 561.396C346.682 561.396 351.479 553.275 352.836 539.741H360.71C359.443 563.478 351.388 578.47 339.985 578.47Z" stroke="var(--stroke-0, #00BFFF)" stroke-width="90.0632" stroke-linejoin="round" mask="url(#path-1-outside-1_0_8)"/>
<path d="M371.535 483.729V467.488H387.554V436.255L395.428 426.885V467.488H414.977V483.729H395.428V534.119C395.428 550.984 399.682 560.979 406.831 560.979C409.999 560.979 413.076 559.522 415.882 557.023V573.264C413.257 575.971 409.546 577.637 406.107 577.637C394.432 577.637 387.554 561.396 387.554 534.535V483.729H371.535Z" stroke="var(--stroke-0, #00BFFF)" stroke-width="90.0632" stroke-linejoin="round" mask="url(#path-1-outside-1_0_8)"/>
<path d="M447.522 448.123C443.721 448.123 440.735 441.252 440.735 432.715C440.735 423.97 443.721 417.098 447.522 417.098C451.323 417.098 454.31 423.97 454.31 432.715C454.31 441.252 451.323 448.123 447.522 448.123ZM426.707 575.346V559.105H443.54V483.729H427.612V467.488H451.414V559.105H468.338V575.346H426.707Z" stroke="var(--stroke-0, #00BFFF)" stroke-width="90.0632" stroke-linejoin="round" mask="url(#path-1-outside-1_0_8)"/>
<path d="M501.789 578.47C488.847 578.47 480.068 555.357 480.068 521.417C480.068 487.685 488.937 464.365 501.789 464.365C514.731 464.365 523.509 487.477 523.509 521.417C523.509 555.357 514.731 578.47 501.789 578.47ZM501.789 561.812C510.025 561.812 515.636 545.571 515.636 521.417C515.636 497.263 510.115 481.022 501.789 481.022C493.462 481.022 487.942 497.263 487.942 521.417C487.942 545.779 493.462 561.812 501.789 561.812Z" stroke="var(--stroke-0, #00BFFF)" stroke-width="90.0632" stroke-linejoin="round" mask="url(#path-1-outside-1_0_8)"/>
<path d="M536.145 575.346V467.488H543.747V482.063C546.462 472.069 552.526 464.365 558.227 464.365C569.088 464.365 575.966 480.606 575.966 506.425V575.346H568.092V509.757C568.092 492.474 563.929 481.439 557.232 481.439C549.901 481.439 544.018 495.181 544.018 512.672V575.346H536.145Z" stroke="var(--stroke-0, #00BFFF)" stroke-width="90.0632" stroke-linejoin="round" mask="url(#path-1-outside-1_0_8)"/>
</g>
</svg>
