<svg preserveAspectRatio="none" width="100%" height="100%" overflow="visible" style="display: block;" viewBox="0 0 838.333 663.432" fill="none" xmlns="http://www.w3.org/2000/svg">
<g id="Concept-driven &#38; curated AI production">
<mask id="path-1-outside-1_0_8" maskUnits="userSpaceOnUse" x="-0.968418" y="-0.968418" width="840" height="665" fill="black">
<rect fill="white" x="-0.968418" y="-0.968418" width="840" height="665"/>
<path d="M69.1141 206.507C54.4473 206.507 45.0316 175.879 45.0316 128.374C45.0316 80.0352 54.2662 50.2405 69.1141 50.2405C80.7026 50.2405 88.9414 69.8258 89.8467 99.829H81.4269C80.6121 79.6185 75.9042 67.5339 69.0235 67.5339C58.9741 67.5339 53.0893 90.0363 53.0893 128.374C53.0893 166.294 59.1551 189.213 69.0235 189.213C76.2664 189.213 80.7932 176.712 81.9701 153.376H90.2994C89.0319 186.505 81.0648 206.507 69.1141 206.507Z"/>
<path d="M121.952 206.507C109.005 206.507 100.223 183.379 100.223 149.417C100.223 115.664 109.095 92.3282 121.952 92.3282C134.898 92.3282 143.68 115.456 143.68 149.417C143.68 183.379 134.898 206.507 121.952 206.507ZM121.952 189.838C130.19 189.838 135.803 173.587 135.803 149.417C135.803 125.248 130.281 108.997 121.952 108.997C113.622 108.997 108.1 125.248 108.1 149.417C108.1 173.795 113.622 189.838 121.952 189.838Z"/>
<path d="M156.32 203.381V95.4535H163.925V110.038C166.641 100.037 172.707 92.3282 178.41 92.3282C189.275 92.3282 196.155 108.58 196.155 134.416V203.381H188.279V137.75C188.279 120.456 184.114 109.413 177.415 109.413C170.081 109.413 164.196 123.165 164.196 140.667V203.381H156.32Z"/>
<path d="M231.519 206.507C218.03 206.507 208.795 183.379 208.795 149.417C208.795 116.081 218.211 92.3282 231.519 92.3282C242.836 92.3282 250.985 107.121 252.252 129.832H244.376C242.927 116.914 238.219 109.413 231.519 109.413C222.919 109.413 216.672 126.082 216.672 149.417C216.672 172.962 222.919 189.422 231.519 189.422C238.219 189.422 243.018 181.296 244.376 167.753H252.252C250.985 191.505 242.927 206.507 231.519 206.507Z"/>
<path d="M285.534 206.507C272.497 206.507 263.443 182.963 263.443 149.417C263.443 116.289 272.678 92.3282 285.534 92.3282C298.933 92.3282 307.715 118.789 305.995 153.793H271.139C271.772 176.087 277.114 189.838 285.443 189.838C291.69 189.838 296.308 182.754 297.666 170.67H305.633C303.732 192.339 295.764 206.507 285.534 206.507ZM285.443 108.997C278.019 108.997 272.859 120.456 271.41 138.791H298.028C297.575 120.664 292.867 108.997 285.443 108.997Z"/>
<path d="M340.906 92.3282C351.861 92.3282 360.824 112.955 360.824 149.417C360.824 185.88 351.861 206.507 340.906 206.507C334.388 206.507 329.589 197.964 327.054 187.963V246.094H319.178V95.4535H326.783V111.914C329.227 101.913 333.845 92.3282 340.906 92.3282ZM340.001 109.83C332.758 109.83 327.054 123.998 327.054 149.417C327.054 175.254 332.758 188.797 340.001 188.797C347.244 188.797 352.857 175.462 352.857 149.417C352.857 123.581 347.244 109.83 340.001 109.83Z"/>
<path d="M371.653 111.705V95.4535H387.678V64.2003L395.555 54.8243V95.4535H415.11V111.705H395.555V162.127C395.555 179.004 399.81 189.005 406.962 189.005C410.131 189.005 413.209 187.546 416.016 185.046V201.298C413.39 204.007 409.678 205.673 406.238 205.673C394.559 205.673 387.678 189.422 387.678 162.544V111.705H371.653Z"/>
<path d="M431.371 142.125V124.623H463.964V142.125H431.371Z"/>
<path d="M500.143 206.507C489.188 206.507 480.225 185.88 480.225 149.417C480.225 112.955 489.188 92.3282 500.143 92.3282C506.662 92.3282 511.46 100.871 513.995 110.872V48.1569H521.872V203.381H514.267V186.921C511.822 196.922 507.205 206.507 500.143 206.507ZM501.048 189.005C508.291 189.005 513.995 175.045 513.995 149.417C513.995 123.79 508.291 110.038 501.048 110.038C493.806 110.038 488.192 123.581 488.192 149.417C488.192 175.462 493.806 189.005 501.048 189.005Z"/>
<path d="M534.511 203.381V187.13H545.738V111.705H535.417V95.4535H553.343V115.039C555.515 103.371 561.581 93.995 568.19 93.995C571.54 93.995 575.252 95.2452 577.968 98.5788V117.331C575.162 113.997 571.359 112.747 568.009 112.747C559.59 112.747 553.614 128.582 553.614 151.084V187.13H569.82V203.381H534.511Z"/>
<path d="M610.526 76.0765C606.723 76.0765 603.736 69.2008 603.736 60.6582C603.736 51.9073 606.723 45.0316 610.526 45.0316C614.328 45.0316 617.316 51.9073 617.316 60.6582C617.316 69.2008 614.328 76.0765 610.526 76.0765ZM589.703 203.381V187.13H606.542V111.705H590.608V95.4535H614.419V187.13H631.349V203.381H589.703Z"/>
<path d="M660.557 203.381L641.273 95.4535H649.511L664.812 183.171L680.112 95.4535H688.351L669.067 203.381H660.557Z"/>
<path d="M719.822 206.507C706.785 206.507 697.731 182.963 697.731 149.417C697.731 116.289 706.966 92.3282 719.822 92.3282C733.221 92.3282 742.003 118.789 740.283 153.793H705.427C706.061 176.087 711.402 189.838 719.732 189.838C725.979 189.838 730.596 182.754 731.954 170.67H739.921C738.02 192.339 730.053 206.507 719.822 206.507ZM719.732 108.997C712.308 108.997 707.147 120.456 705.699 138.791H732.316C731.863 120.664 727.156 108.997 719.732 108.997Z"/>
<path d="M753.466 203.381V95.4535H761.071V110.038C763.787 100.037 769.853 92.3282 775.557 92.3282C786.421 92.3282 793.302 108.58 793.302 134.416V203.381H785.425V137.75C785.425 120.456 781.26 109.413 774.561 109.413C767.227 109.413 761.343 123.165 761.343 140.667V203.381H753.466Z"/>
<path d="M64.0441 392.66C52.6366 392.66 45.0316 376.408 45.0316 353.073C45.0316 335.779 48.653 322.861 57.5255 309.735C52.0934 293.066 50.1016 284.107 50.1016 272.231C50.1016 251.187 56.7107 236.394 65.9453 236.394C74.8178 236.394 81.4269 251.395 81.4269 270.981C81.4269 286.607 77.5339 300.359 70.11 310.985L68.1182 313.902L79.7067 347.864C80.7932 339.738 81.2458 329.737 80.9742 318.694H88.6698C88.8508 336.613 87.5833 351.614 84.9578 363.282L93.9208 389.535H84.5957L80.6121 377.659C76.4475 387.451 70.8342 392.66 64.0441 392.66ZM57.9782 272.023C57.9782 281.607 58.8835 286.607 63.6819 300.776L65.6737 297.859C71.1059 289.733 73.5503 281.19 73.5503 271.397C73.5503 260.355 70.11 251.812 65.9453 251.812C61.328 251.812 57.9782 260.146 57.9782 272.023ZM52.9082 352.656C52.9082 366.407 57.616 376.408 64.4967 376.408C69.2951 376.408 73.1882 372.033 76.0853 364.324L61.9618 322.861V323.07C55.3526 332.654 52.9082 341.821 52.9082 352.656Z"/>
<path d="M177.233 392.66C163.744 392.66 154.509 369.533 154.509 335.571C154.509 302.234 163.925 278.482 177.233 278.482C188.55 278.482 196.699 293.275 197.966 315.985H190.09C188.641 303.067 183.933 295.567 177.233 295.567C168.633 295.567 162.386 312.235 162.386 335.571C162.386 359.115 168.633 375.575 177.233 375.575C183.933 375.575 188.731 367.449 190.09 353.906H197.966C196.699 377.659 188.641 392.66 177.233 392.66Z"/>
<path d="M249.989 281.607V389.535H242.384V374.95C239.668 384.951 233.873 392.66 228.351 392.66C217.758 392.66 211.058 376.408 211.058 350.572V281.607H218.935V347.239C218.935 364.741 222.919 375.575 229.347 375.575C236.499 375.575 242.112 362.032 242.112 344.322V281.607H249.989Z"/>
<path d="M263.081 389.535V373.283H274.307V297.859H263.986V281.607H281.912V301.192C284.085 289.524 290.151 280.148 296.76 280.148C300.11 280.148 303.822 281.398 306.538 284.732V303.484C303.732 300.15 299.929 298.9 296.579 298.9C288.159 298.9 282.184 314.735 282.184 337.238V373.283H298.39V389.535H263.081Z"/>
<path d="M333.935 392.66C324.7 392.66 318.453 380.159 318.453 361.407C318.453 340.155 326.058 326.195 339.096 322.653L350.141 319.736V318.902C350.141 303.276 345.886 294.317 338.915 294.317C332.487 294.317 327.235 302.859 326.692 314.319H319.087C319.812 293.066 327.96 278.482 339.096 278.482C350.413 278.482 357.746 294.316 357.746 319.527V357.448C357.746 366.199 357.837 375.575 358.108 389.535H350.503V370.366C346.882 384.951 341.178 392.66 333.935 392.66ZM326.149 360.365C326.149 370.158 329.68 376.825 335.022 376.825C343.803 376.825 350.141 360.99 350.141 338.071V334.321L339.186 337.654C330.766 340.155 326.149 348.072 326.149 360.365Z"/>
<path d="M371.653 297.859V281.607H387.678V250.354L395.555 240.978V281.607H415.11V297.859H395.555V348.28C395.555 365.157 399.81 375.158 406.962 375.158C410.131 375.158 413.209 373.7 416.016 371.2V387.451C413.39 390.16 409.678 391.827 406.238 391.827C394.559 391.827 387.678 375.575 387.678 348.697V297.859H371.653Z"/>
<path d="M448.392 392.66C435.355 392.66 426.301 369.116 426.301 335.571C426.301 302.442 435.536 278.482 448.392 278.482C461.791 278.482 470.573 304.943 468.853 339.946H433.997C434.631 362.24 439.972 375.992 448.301 375.992C454.548 375.992 459.166 368.908 460.524 356.823H468.491C466.59 378.492 458.623 392.66 448.392 392.66ZM448.301 295.15C440.878 295.15 435.717 306.609 434.268 324.945H460.886C460.433 306.818 455.725 295.15 448.301 295.15Z"/>
<path d="M500.143 392.66C489.188 392.66 480.225 372.033 480.225 335.571C480.225 299.109 489.188 278.482 500.143 278.482C506.662 278.482 511.46 287.024 513.995 297.025V234.31H521.872V389.535H514.267V373.075C511.822 383.076 507.205 392.66 500.143 392.66ZM501.048 375.158C508.291 375.158 513.995 361.198 513.995 335.571C513.995 309.943 508.291 296.192 501.048 296.192C493.806 296.192 488.192 309.735 488.192 335.571C488.192 361.615 493.806 375.158 501.048 375.158Z"/>
<path d="M586.081 389.535L605.999 239.519H615.324L634.97 389.535H626.732L621.933 352.239H599.209L594.32 389.535H586.081ZM601.382 335.779H619.851L610.707 264.522L601.382 335.779Z"/>
<path d="M643.989 389.535V372.241H660.828V256.813H644.894V239.519H684.73V256.813H668.795V372.241H685.635V389.535H643.989Z"/>
<path d="M69.4762 464.635C80.431 464.635 89.3941 485.262 89.3941 521.724C89.3941 558.186 80.431 578.813 69.4762 578.813C62.9576 578.813 58.1593 570.271 55.6243 560.27V618.401H47.7477V467.76H55.3526V484.22C57.7971 474.219 62.4144 464.635 69.4762 464.635ZM68.5709 482.137C61.328 482.137 55.6243 496.305 55.6243 521.724C55.6243 547.56 61.328 561.103 68.5709 561.103C75.8137 561.103 81.4269 547.769 81.4269 521.724C81.4269 495.888 75.8137 482.137 68.5709 482.137Z"/>
<path d="M100.223 575.688V559.436H111.449V484.012H101.128V467.76H119.054V487.346C121.227 475.678 127.293 466.302 133.902 466.302C137.252 466.302 140.964 467.552 143.68 470.885V489.637C140.873 486.304 137.071 485.054 133.721 485.054C125.301 485.054 119.326 500.889 119.326 523.391V559.436H135.532V575.688H100.223Z"/>
<path d="M176.238 578.813C163.291 578.813 154.509 555.686 154.509 521.724C154.509 487.971 163.381 464.635 176.238 464.635C189.184 464.635 197.966 487.762 197.966 521.724C197.966 555.686 189.184 578.813 176.238 578.813ZM176.238 562.145C184.476 562.145 190.09 545.893 190.09 521.724C190.09 497.555 184.567 481.303 176.238 481.303C167.908 481.303 162.386 497.555 162.386 521.724C162.386 546.102 167.908 562.145 176.238 562.145Z"/>
<path d="M228.713 578.813C217.758 578.813 208.795 558.186 208.795 521.724C208.795 485.262 217.758 464.635 228.713 464.635C235.231 464.635 240.03 473.177 242.565 483.178V420.464H250.441V575.688H242.836V559.228C240.392 569.229 235.775 578.813 228.713 578.813ZM229.618 561.312C236.861 561.312 242.565 547.352 242.565 521.724C242.565 496.096 236.861 482.345 229.618 482.345C222.375 482.345 216.762 495.888 216.762 521.724C216.762 547.769 222.375 561.312 229.618 561.312Z"/>
<path d="M304.275 467.76V575.688H296.67V561.103C293.954 571.104 288.159 578.813 282.637 578.813C272.044 578.813 265.344 562.562 265.344 536.726V467.76H273.221V533.392C273.221 550.894 277.205 561.728 283.633 561.728C290.785 561.728 296.398 548.185 296.398 530.475V467.76H304.275Z"/>
<path d="M340.092 578.813C326.602 578.813 317.367 555.686 317.367 521.724C317.367 488.387 326.783 464.635 340.092 464.635C351.408 464.635 359.557 479.428 360.824 502.139H352.948C351.499 489.221 346.791 481.72 340.092 481.72C331.491 481.72 325.244 498.388 325.244 521.724C325.244 545.268 331.491 561.728 340.092 561.728C346.791 561.728 351.59 553.602 352.948 540.059H360.824C359.557 563.812 351.499 578.813 340.092 578.813Z"/>
<path d="M371.653 484.012V467.76H387.678V436.507L395.555 427.131V467.76H415.11V484.012H395.555V534.434C395.555 551.311 399.81 561.312 406.962 561.312C410.131 561.312 413.209 559.853 416.016 557.353V573.605C413.39 576.313 409.678 577.98 406.238 577.98C394.559 577.98 387.678 561.728 387.678 534.851V484.012H371.653Z"/>
<path d="M447.668 448.383C443.865 448.383 440.877 441.507 440.877 432.965C440.877 424.214 443.865 417.338 447.668 417.338C451.47 417.338 454.458 424.214 454.458 432.965C454.458 441.507 451.47 448.383 447.668 448.383ZM426.844 575.688V559.436H443.684V484.012H427.75V467.76H451.561V559.436H468.491V575.688H426.844Z"/>
<path d="M501.954 578.813C489.007 578.813 480.225 555.686 480.225 521.724C480.225 487.971 489.098 464.635 501.954 464.635C514.9 464.635 523.682 487.762 523.682 521.724C523.682 555.686 514.9 578.813 501.954 578.813ZM501.954 562.145C510.192 562.145 515.806 545.893 515.806 521.724C515.806 497.555 510.283 481.303 501.954 481.303C493.624 481.303 488.102 497.555 488.102 521.724C488.102 546.102 493.624 562.145 501.954 562.145Z"/>
<path d="M536.322 575.688V467.76H543.927V482.345C546.643 472.344 552.709 464.635 558.413 464.635C569.277 464.635 576.158 480.887 576.158 506.723V575.688H568.281V510.056C568.281 492.763 564.116 481.72 557.417 481.72C550.083 481.72 544.198 495.471 544.198 512.973V575.688H536.322Z"/>
</mask>
<path d="M69.1141 206.507C54.4473 206.507 45.0316 175.879 45.0316 128.374C45.0316 80.0352 54.2662 50.2405 69.1141 50.2405C80.7026 50.2405 88.9414 69.8258 89.8467 99.829H81.4269C80.6121 79.6185 75.9042 67.5339 69.0235 67.5339C58.9741 67.5339 53.0893 90.0363 53.0893 128.374C53.0893 166.294 59.1551 189.213 69.0235 189.213C76.2664 189.213 80.7932 176.712 81.9701 153.376H90.2994C89.0319 186.505 81.0648 206.507 69.1141 206.507Z" fill="var(--fill-0, black)"/>
<path d="M121.952 206.507C109.005 206.507 100.223 183.379 100.223 149.417C100.223 115.664 109.095 92.3282 121.952 92.3282C134.898 92.3282 143.68 115.456 143.68 149.417C143.68 183.379 134.898 206.507 121.952 206.507ZM121.952 189.838C130.19 189.838 135.803 173.587 135.803 149.417C135.803 125.248 130.281 108.997 121.952 108.997C113.622 108.997 108.1 125.248 108.1 149.417C108.1 173.795 113.622 189.838 121.952 189.838Z" fill="var(--fill-0, black)"/>
<path d="M156.32 203.381V95.4535H163.925V110.038C166.641 100.037 172.707 92.3282 178.41 92.3282C189.275 92.3282 196.155 108.58 196.155 134.416V203.381H188.279V137.75C188.279 120.456 184.114 109.413 177.415 109.413C170.081 109.413 164.196 123.165 164.196 140.667V203.381H156.32Z" fill="var(--fill-0, black)"/>
<path d="M231.519 206.507C218.03 206.507 208.795 183.379 208.795 149.417C208.795 116.081 218.211 92.3282 231.519 92.3282C242.836 92.3282 250.985 107.121 252.252 129.832H244.376C242.927 116.914 238.219 109.413 231.519 109.413C222.919 109.413 216.672 126.082 216.672 149.417C216.672 172.962 222.919 189.422 231.519 189.422C238.219 189.422 243.018 181.296 244.376 167.753H252.252C250.985 191.505 242.927 206.507 231.519 206.507Z" fill="var(--fill-0, black)"/>
<path d="M285.534 206.507C272.497 206.507 263.443 182.963 263.443 149.417C263.443 116.289 272.678 92.3282 285.534 92.3282C298.933 92.3282 307.715 118.789 305.995 153.793H271.139C271.772 176.087 277.114 189.838 285.443 189.838C291.69 189.838 296.308 182.754 297.666 170.67H305.633C303.732 192.339 295.764 206.507 285.534 206.507ZM285.443 108.997C278.019 108.997 272.859 120.456 271.41 138.791H298.028C297.575 120.664 292.867 108.997 285.443 108.997Z" fill="var(--fill-0, black)"/>
<path d="M340.906 92.3282C351.861 92.3282 360.824 112.955 360.824 149.417C360.824 185.88 351.861 206.507 340.906 206.507C334.388 206.507 329.589 197.964 327.054 187.963V246.094H319.178V95.4535H326.783V111.914C329.227 101.913 333.845 92.3282 340.906 92.3282ZM340.001 109.83C332.758 109.83 327.054 123.998 327.054 149.417C327.054 175.254 332.758 188.797 340.001 188.797C347.244 188.797 352.857 175.462 352.857 149.417C352.857 123.581 347.244 109.83 340.001 109.83Z" fill="var(--fill-0, black)"/>
<path d="M371.653 111.705V95.4535H387.678V64.2003L395.555 54.8243V95.4535H415.11V111.705H395.555V162.127C395.555 179.004 399.81 189.005 406.962 189.005C410.131 189.005 413.209 187.546 416.016 185.046V201.298C413.39 204.007 409.678 205.673 406.238 205.673C394.559 205.673 387.678 189.422 387.678 162.544V111.705H371.653Z" fill="var(--fill-0, black)"/>
<path d="M431.371 142.125V124.623H463.964V142.125H431.371Z" fill="var(--fill-0, black)"/>
<path d="M500.143 206.507C489.188 206.507 480.225 185.88 480.225 149.417C480.225 112.955 489.188 92.3282 500.143 92.3282C506.662 92.3282 511.46 100.871 513.995 110.872V48.1569H521.872V203.381H514.267V186.921C511.822 196.922 507.205 206.507 500.143 206.507ZM501.048 189.005C508.291 189.005 513.995 175.045 513.995 149.417C513.995 123.79 508.291 110.038 501.048 110.038C493.806 110.038 488.192 123.581 488.192 149.417C488.192 175.462 493.806 189.005 501.048 189.005Z" fill="var(--fill-0, black)"/>
<path d="M534.511 203.381V187.13H545.738V111.705H535.417V95.4535H553.343V115.039C555.515 103.371 561.581 93.995 568.19 93.995C571.54 93.995 575.252 95.2452 577.968 98.5788V117.331C575.162 113.997 571.359 112.747 568.009 112.747C559.59 112.747 553.614 128.582 553.614 151.084V187.13H569.82V203.381H534.511Z" fill="var(--fill-0, black)"/>
<path d="M610.526 76.0765C606.723 76.0765 603.736 69.2008 603.736 60.6582C603.736 51.9073 606.723 45.0316 610.526 45.0316C614.328 45.0316 617.316 51.9073 617.316 60.6582C617.316 69.2008 614.328 76.0765 610.526 76.0765ZM589.703 203.381V187.13H606.542V111.705H590.608V95.4535H614.419V187.13H631.349V203.381H589.703Z" fill="var(--fill-0, black)"/>
<path d="M660.557 203.381L641.273 95.4535H649.511L664.812 183.171L680.112 95.4535H688.351L669.067 203.381H660.557Z" fill="var(--fill-0, black)"/>
<path d="M719.822 206.507C706.785 206.507 697.731 182.963 697.731 149.417C697.731 116.289 706.966 92.3282 719.822 92.3282C733.221 92.3282 742.003 118.789 740.283 153.793H705.427C706.061 176.087 711.402 189.838 719.732 189.838C725.979 189.838 730.596 182.754 731.954 170.67H739.921C738.02 192.339 730.053 206.507 719.822 206.507ZM719.732 108.997C712.308 108.997 707.147 120.456 705.699 138.791H732.316C731.863 120.664 727.156 108.997 719.732 108.997Z" fill="var(--fill-0, black)"/>
<path d="M753.466 203.381V95.4535H761.071V110.038C763.787 100.037 769.853 92.3282 775.557 92.3282C786.421 92.3282 793.302 108.58 793.302 134.416V203.381H785.425V137.75C785.425 120.456 781.26 109.413 774.561 109.413C767.227 109.413 761.343 123.165 761.343 140.667V203.381H753.466Z" fill="var(--fill-0, black)"/>
<path d="M64.0441 392.66C52.6366 392.66 45.0316 376.408 45.0316 353.073C45.0316 335.779 48.653 322.861 57.5255 309.735C52.0934 293.066 50.1016 284.107 50.1016 272.231C50.1016 251.187 56.7107 236.394 65.9453 236.394C74.8178 236.394 81.4269 251.395 81.4269 270.981C81.4269 286.607 77.5339 300.359 70.11 310.985L68.1182 313.902L79.7067 347.864C80.7932 339.738 81.2458 329.737 80.9742 318.694H88.6698C88.8508 336.613 87.5833 351.614 84.9578 363.282L93.9208 389.535H84.5957L80.6121 377.659C76.4475 387.451 70.8342 392.66 64.0441 392.66ZM57.9782 272.023C57.9782 281.607 58.8835 286.607 63.6819 300.776L65.6737 297.859C71.1059 289.733 73.5503 281.19 73.5503 271.397C73.5503 260.355 70.11 251.812 65.9453 251.812C61.328 251.812 57.9782 260.146 57.9782 272.023ZM52.9082 352.656C52.9082 366.407 57.616 376.408 64.4967 376.408C69.2951 376.408 73.1882 372.033 76.0853 364.324L61.9618 322.861V323.07C55.3526 332.654 52.9082 341.821 52.9082 352.656Z" fill="var(--fill-0, black)"/>
<path d="M177.233 392.66C163.744 392.66 154.509 369.533 154.509 335.571C154.509 302.234 163.925 278.482 177.233 278.482C188.55 278.482 196.699 293.275 197.966 315.985H190.09C188.641 303.067 183.933 295.567 177.233 295.567C168.633 295.567 162.386 312.235 162.386 335.571C162.386 359.115 168.633 375.575 177.233 375.575C183.933 375.575 188.731 367.449 190.09 353.906H197.966C196.699 377.659 188.641 392.66 177.233 392.66Z" fill="var(--fill-0, black)"/>
<path d="M249.989 281.607V389.535H242.384V374.95C239.668 384.951 233.873 392.66 228.351 392.66C217.758 392.66 211.058 376.408 211.058 350.572V281.607H218.935V347.239C218.935 364.741 222.919 375.575 229.347 375.575C236.499 375.575 242.112 362.032 242.112 344.322V281.607H249.989Z" fill="var(--fill-0, black)"/>
<path d="M263.081 389.535V373.283H274.307V297.859H263.986V281.607H281.912V301.192C284.085 289.524 290.151 280.148 296.76 280.148C300.11 280.148 303.822 281.398 306.538 284.732V303.484C303.732 300.15 299.929 298.9 296.579 298.9C288.159 298.9 282.184 314.735 282.184 337.238V373.283H298.39V389.535H263.081Z" fill="var(--fill-0, black)"/>
<path d="M333.935 392.66C324.7 392.66 318.453 380.159 318.453 361.407C318.453 340.155 326.058 326.195 339.096 322.653L350.141 319.736V318.902C350.141 303.276 345.886 294.317 338.915 294.317C332.487 294.317 327.235 302.859 326.692 314.319H319.087C319.812 293.066 327.96 278.482 339.096 278.482C350.413 278.482 357.746 294.316 357.746 319.527V357.448C357.746 366.199 357.837 375.575 358.108 389.535H350.503V370.366C346.882 384.951 341.178 392.66 333.935 392.66ZM326.149 360.365C326.149 370.158 329.68 376.825 335.022 376.825C343.803 376.825 350.141 360.99 350.141 338.071V334.321L339.186 337.654C330.766 340.155 326.149 348.072 326.149 360.365Z" fill="var(--fill-0, black)"/>
<path d="M371.653 297.859V281.607H387.678V250.354L395.555 240.978V281.607H415.11V297.859H395.555V348.28C395.555 365.157 399.81 375.158 406.962 375.158C410.131 375.158 413.209 373.7 416.016 371.2V387.451C413.39 390.16 409.678 391.827 406.238 391.827C394.559 391.827 387.678 375.575 387.678 348.697V297.859H371.653Z" fill="var(--fill-0, black)"/>
<path d="M448.392 392.66C435.355 392.66 426.301 369.116 426.301 335.571C426.301 302.442 435.536 278.482 448.392 278.482C461.791 278.482 470.573 304.943 468.853 339.946H433.997C434.631 362.24 439.972 375.992 448.301 375.992C454.548 375.992 459.166 368.908 460.524 356.823H468.491C466.59 378.492 458.623 392.66 448.392 392.66ZM448.301 295.15C440.878 295.15 435.717 306.609 434.268 324.945H460.886C460.433 306.818 455.725 295.15 448.301 295.15Z" fill="var(--fill-0, black)"/>
<path d="M500.143 392.66C489.188 392.66 480.225 372.033 480.225 335.571C480.225 299.109 489.188 278.482 500.143 278.482C506.662 278.482 511.46 287.024 513.995 297.025V234.31H521.872V389.535H514.267V373.075C511.822 383.076 507.205 392.66 500.143 392.66ZM501.048 375.158C508.291 375.158 513.995 361.198 513.995 335.571C513.995 309.943 508.291 296.192 501.048 296.192C493.806 296.192 488.192 309.735 488.192 335.571C488.192 361.615 493.806 375.158 501.048 375.158Z" fill="var(--fill-0, black)"/>
<path d="M586.081 389.535L605.999 239.519H615.324L634.97 389.535H626.732L621.933 352.239H599.209L594.32 389.535H586.081ZM601.382 335.779H619.851L610.707 264.522L601.382 335.779Z" fill="var(--fill-0, black)"/>
<path d="M643.989 389.535V372.241H660.828V256.813H644.894V239.519H684.73V256.813H668.795V372.241H685.635V389.535H643.989Z" fill="var(--fill-0, black)"/>
<path d="M69.4762 464.635C80.431 464.635 89.3941 485.262 89.3941 521.724C89.3941 558.186 80.431 578.813 69.4762 578.813C62.9576 578.813 58.1593 570.271 55.6243 560.27V618.401H47.7477V467.76H55.3526V484.22C57.7971 474.219 62.4144 464.635 69.4762 464.635ZM68.5709 482.137C61.328 482.137 55.6243 496.305 55.6243 521.724C55.6243 547.56 61.328 561.103 68.5709 561.103C75.8137 561.103 81.4269 547.769 81.4269 521.724C81.4269 495.888 75.8137 482.137 68.5709 482.137Z" fill="var(--fill-0, black)"/>
<path d="M100.223 575.688V559.436H111.449V484.012H101.128V467.76H119.054V487.346C121.227 475.678 127.293 466.302 133.902 466.302C137.252 466.302 140.964 467.552 143.68 470.885V489.637C140.873 486.304 137.071 485.054 133.721 485.054C125.301 485.054 119.326 500.889 119.326 523.391V559.436H135.532V575.688H100.223Z" fill="var(--fill-0, black)"/>
<path d="M176.238 578.813C163.291 578.813 154.509 555.686 154.509 521.724C154.509 487.971 163.381 464.635 176.238 464.635C189.184 464.635 197.966 487.762 197.966 521.724C197.966 555.686 189.184 578.813 176.238 578.813ZM176.238 562.145C184.476 562.145 190.09 545.893 190.09 521.724C190.09 497.555 184.567 481.303 176.238 481.303C167.908 481.303 162.386 497.555 162.386 521.724C162.386 546.102 167.908 562.145 176.238 562.145Z" fill="var(--fill-0, black)"/>
<path d="M228.713 578.813C217.758 578.813 208.795 558.186 208.795 521.724C208.795 485.262 217.758 464.635 228.713 464.635C235.231 464.635 240.03 473.177 242.565 483.178V420.464H250.441V575.688H242.836V559.228C240.392 569.229 235.775 578.813 228.713 578.813ZM229.618 561.312C236.861 561.312 242.565 547.352 242.565 521.724C242.565 496.096 236.861 482.345 229.618 482.345C222.375 482.345 216.762 495.888 216.762 521.724C216.762 547.769 222.375 561.312 229.618 561.312Z" fill="var(--fill-0, black)"/>
<path d="M304.275 467.76V575.688H296.67V561.103C293.954 571.104 288.159 578.813 282.637 578.813C272.044 578.813 265.344 562.562 265.344 536.726V467.76H273.221V533.392C273.221 550.894 277.205 561.728 283.633 561.728C290.785 561.728 296.398 548.185 296.398 530.475V467.76H304.275Z" fill="var(--fill-0, black)"/>
<path d="M340.092 578.813C326.602 578.813 317.367 555.686 317.367 521.724C317.367 488.387 326.783 464.635 340.092 464.635C351.408 464.635 359.557 479.428 360.824 502.139H352.948C351.499 489.221 346.791 481.72 340.092 481.72C331.491 481.72 325.244 498.388 325.244 521.724C325.244 545.268 331.491 561.728 340.092 561.728C346.791 561.728 351.59 553.602 352.948 540.059H360.824C359.557 563.812 351.499 578.813 340.092 578.813Z" fill="var(--fill-0, black)"/>
<path d="M371.653 484.012V467.76H387.678V436.507L395.555 427.131V467.76H415.11V484.012H395.555V534.434C395.555 551.311 399.81 561.312 406.962 561.312C410.131 561.312 413.209 559.853 416.016 557.353V573.605C413.39 576.313 409.678 577.98 406.238 577.98C394.559 577.98 387.678 561.728 387.678 534.851V484.012H371.653Z" fill="var(--fill-0, black)"/>
<path d="M447.668 448.383C443.865 448.383 440.877 441.507 440.877 432.965C440.877 424.214 443.865 417.338 447.668 417.338C451.47 417.338 454.458 424.214 454.458 432.965C454.458 441.507 451.47 448.383 447.668 448.383ZM426.844 575.688V559.436H443.684V484.012H427.75V467.76H451.561V559.436H468.491V575.688H426.844Z" fill="var(--fill-0, black)"/>
<path d="M501.954 578.813C489.007 578.813 480.225 555.686 480.225 521.724C480.225 487.971 489.098 464.635 501.954 464.635C514.9 464.635 523.682 487.762 523.682 521.724C523.682 555.686 514.9 578.813 501.954 578.813ZM501.954 562.145C510.192 562.145 515.806 545.893 515.806 521.724C515.806 497.555 510.283 481.303 501.954 481.303C493.624 481.303 488.102 497.555 488.102 521.724C488.102 546.102 493.624 562.145 501.954 562.145Z" fill="var(--fill-0, black)"/>
<path d="M536.322 575.688V467.76H543.927V482.345C546.643 472.344 552.709 464.635 558.413 464.635C569.277 464.635 576.158 480.887 576.158 506.723V575.688H568.281V510.056C568.281 492.763 564.116 481.72 557.417 481.72C550.083 481.72 544.198 495.471 544.198 512.973V575.688H536.322Z" fill="var(--fill-0, black)"/>
<path d="M69.1141 206.507C54.4473 206.507 45.0316 175.879 45.0316 128.374C45.0316 80.0352 54.2662 50.2405 69.1141 50.2405C80.7026 50.2405 88.9414 69.8258 89.8467 99.829H81.4269C80.6121 79.6185 75.9042 67.5339 69.0235 67.5339C58.9741 67.5339 53.0893 90.0363 53.0893 128.374C53.0893 166.294 59.1551 189.213 69.0235 189.213C76.2664 189.213 80.7932 176.712 81.9701 153.376H90.2994C89.0319 186.505 81.0648 206.507 69.1141 206.507Z" stroke="var(--stroke-0, #00BFFF)" stroke-width="90.0632" stroke-linejoin="round" mask="url(#path-1-outside-1_0_8)"/>
<path d="M121.952 206.507C109.005 206.507 100.223 183.379 100.223 149.417C100.223 115.664 109.095 92.3282 121.952 92.3282C134.898 92.3282 143.68 115.456 143.68 149.417C143.68 183.379 134.898 206.507 121.952 206.507ZM121.952 189.838C130.19 189.838 135.803 173.587 135.803 149.417C135.803 125.248 130.281 108.997 121.952 108.997C113.622 108.997 108.1 125.248 108.1 149.417C108.1 173.795 113.622 189.838 121.952 189.838Z" stroke="var(--stroke-0, #00BFFF)" stroke-width="90.0632" stroke-linejoin="round" mask="url(#path-1-outside-1_0_8)"/>
<path d="M156.32 203.381V95.4535H163.925V110.038C166.641 100.037 172.707 92.3282 178.41 92.3282C189.275 92.3282 196.155 108.58 196.155 134.416V203.381H188.279V137.75C188.279 120.456 184.114 109.413 177.415 109.413C170.081 109.413 164.196 123.165 164.196 140.667V203.381H156.32Z" stroke="var(--stroke-0, #00BFFF)" stroke-width="90.0632" stroke-linejoin="round" mask="url(#path-1-outside-1_0_8)"/>
<path d="M231.519 206.507C218.03 206.507 208.795 183.379 208.795 149.417C208.795 116.081 218.211 92.3282 231.519 92.3282C242.836 92.3282 250.985 107.121 252.252 129.832H244.376C242.927 116.914 238.219 109.413 231.519 109.413C222.919 109.413 216.672 126.082 216.672 149.417C216.672 172.962 222.919 189.422 231.519 189.422C238.219 189.422 243.018 181.296 244.376 167.753H252.252C250.985 191.505 242.927 206.507 231.519 206.507Z" stroke="var(--stroke-0, #00BFFF)" stroke-width="90.0632" stroke-linejoin="round" mask="url(#path-1-outside-1_0_8)"/>
<path d="M285.534 206.507C272.497 206.507 263.443 182.963 263.443 149.417C263.443 116.289 272.678 92.3282 285.534 92.3282C298.933 92.3282 307.715 118.789 305.995 153.793H271.139C271.772 176.087 277.114 189.838 285.443 189.838C291.69 189.838 296.308 182.754 297.666 170.67H305.633C303.732 192.339 295.764 206.507 285.534 206.507ZM285.443 108.997C278.019 108.997 272.859 120.456 271.41 138.791H298.028C297.575 120.664 292.867 108.997 285.443 108.997Z" stroke="var(--stroke-0, #00BFFF)" stroke-width="90.0632" stroke-linejoin="round" mask="url(#path-1-outside-1_0_8)"/>
<path d="M340.906 92.3282C351.861 92.3282 360.824 112.955 360.824 149.417C360.824 185.88 351.861 206.507 340.906 206.507C334.388 206.507 329.589 197.964 327.054 187.963V246.094H319.178V95.4535H326.783V111.914C329.227 101.913 333.845 92.3282 340.906 92.3282ZM340.001 109.83C332.758 109.83 327.054 123.998 327.054 149.417C327.054 175.254 332.758 188.797 340.001 188.797C347.244 188.797 352.857 175.462 352.857 149.417C352.857 123.581 347.244 109.83 340.001 109.83Z" stroke="var(--stroke-0, #00BFFF)" stroke-width="90.0632" stroke-linejoin="round" mask="url(#path-1-outside-1_0_8)"/>
<path d="M371.653 111.705V95.4535H387.678V64.2003L395.555 54.8243V95.4535H415.11V111.705H395.555V162.127C395.555 179.004 399.81 189.005 406.962 189.005C410.131 189.005 413.209 187.546 416.016 185.046V201.298C413.39 204.007 409.678 205.673 406.238 205.673C394.559 205.673 387.678 189.422 387.678 162.544V111.705H371.653Z" stroke="var(--stroke-0, #00BFFF)" stroke-width="90.0632" stroke-linejoin="round" mask="url(#path-1-outside-1_0_8)"/>
<path d="M431.371 142.125V124.623H463.964V142.125H431.371Z" stroke="var(--stroke-0, #00BFFF)" stroke-width="90.0632" stroke-linejoin="round" mask="url(#path-1-outside-1_0_8)"/>
<path d="M500.143 206.507C489.188 206.507 480.225 185.88 480.225 149.417C480.225 112.955 489.188 92.3282 500.143 92.3282C506.662 92.3282 511.46 100.871 513.995 110.872V48.1569H521.872V203.381H514.267V186.921C511.822 196.922 507.205 206.507 500.143 206.507ZM501.048 189.005C508.291 189.005 513.995 175.045 513.995 149.417C513.995 123.79 508.291 110.038 501.048 110.038C493.806 110.038 488.192 123.581 488.192 149.417C488.192 175.462 493.806 189.005 501.048 189.005Z" stroke="var(--stroke-0, #00BFFF)" stroke-width="90.0632" stroke-linejoin="round" mask="url(#path-1-outside-1_0_8)"/>
<path d="M534.511 203.381V187.13H545.738V111.705H535.417V95.4535H553.343V115.039C555.515 103.371 561.581 93.995 568.19 93.995C571.54 93.995 575.252 95.2452 577.968 98.5788V117.331C575.162 113.997 571.359 112.747 568.009 112.747C559.59 112.747 553.614 128.582 553.614 151.084V187.13H569.82V203.381H534.511Z" stroke="var(--stroke-0, #00BFFF)" stroke-width="90.0632" stroke-linejoin="round" mask="url(#path-1-outside-1_0_8)"/>
<path d="M610.526 76.0765C606.723 76.0765 603.736 69.2008 603.736 60.6582C603.736 51.9073 606.723 45.0316 610.526 45.0316C614.328 45.0316 617.316 51.9073 617.316 60.6582C617.316 69.2008 614.328 76.0765 610.526 76.0765ZM589.703 203.381V187.13H606.542V111.705H590.608V95.4535H614.419V187.13H631.349V203.381H589.703Z" stroke="var(--stroke-0, #00BFFF)" stroke-width="90.0632" stroke-linejoin="round" mask="url(#path-1-outside-1_0_8)"/>
<path d="M660.557 203.381L641.273 95.4535H649.511L664.812 183.171L680.112 95.4535H688.351L669.067 203.381H660.557Z" stroke="var(--stroke-0, #00BFFF)" stroke-width="90.0632" stroke-linejoin="round" mask="url(#path-1-outside-1_0_8)"/>
<path d="M719.822 206.507C706.785 206.507 697.731 182.963 697.731 149.417C697.731 116.289 706.966 92.3282 719.822 92.3282C733.221 92.3282 742.003 118.789 740.283 153.793H705.427C706.061 176.087 711.402 189.838 719.732 189.838C725.979 189.838 730.596 182.754 731.954 170.67H739.921C738.02 192.339 730.053 206.507 719.822 206.507ZM719.732 108.997C712.308 108.997 707.147 120.456 705.699 138.791H732.316C731.863 120.664 727.156 108.997 719.732 108.997Z" stroke="var(--stroke-0, #00BFFF)" stroke-width="90.0632" stroke-linejoin="round" mask="url(#path-1-outside-1_0_8)"/>
<path d="M753.466 203.381V95.4535H761.071V110.038C763.787 100.037 769.853 92.3282 775.557 92.3282C786.421 92.3282 793.302 108.58 793.302 134.416V203.381H785.425V137.75C785.425 120.456 781.26 109.413 774.561 109.413C767.227 109.413 761.343 123.165 761.343 140.667V203.381H753.466Z" stroke="var(--stroke-0, #00BFFF)" stroke-width="90.0632" stroke-linejoin="round" mask="url(#path-1-outside-1_0_8)"/>
<path d="M64.0441 392.66C52.6366 392.66 45.0316 376.408 45.0316 353.073C45.0316 335.779 48.653 322.861 57.5255 309.735C52.0934 293.066 50.1016 284.107 50.1016 272.231C50.1016 251.187 56.7107 236.394 65.9453 236.394C74.8178 236.394 81.4269 251.395 81.4269 270.981C81.4269 286.607 77.5339 300.359 70.11 310.985L68.1182 313.902L79.7067 347.864C80.7932 339.738 81.2458 329.737 80.9742 318.694H88.6698C88.8508 336.613 87.5833 351.614 84.9578 363.282L93.9208 389.535H84.5957L80.6121 377.659C76.4475 387.451 70.8342 392.66 64.0441 392.66ZM57.9782 272.023C57.9782 281.607 58.8835 286.607 63.6819 300.776L65.6737 297.859C71.1059 289.733 73.5503 281.19 73.5503 271.397C73.5503 260.355 70.11 251.812 65.9453 251.812C61.328 251.812 57.9782 260.146 57.9782 272.023ZM52.9082 352.656C52.9082 366.407 57.616 376.408 64.4967 376.408C69.2951 376.408 73.1882 372.033 76.0853 364.324L61.9618 322.861V323.07C55.3526 332.654 52.9082 341.821 52.9082 352.656Z" stroke="var(--stroke-0, #00BFFF)" stroke-width="90.0632" stroke-linejoin="round" mask="url(#path-1-outside-1_0_8)"/>
<path d="M177.233 392.66C163.744 392.66 154.509 369.533 154.509 335.571C154.509 302.234 163.925 278.482 177.233 278.482C188.55 278.482 196.699 293.275 197.966 315.985H190.09C188.641 303.067 183.933 295.567 177.233 295.567C168.633 295.567 162.386 312.235 162.386 335.571C162.386 359.115 168.633 375.575 177.233 375.575C183.933 375.575 188.731 367.449 190.09 353.906H197.966C196.699 377.659 188.641 392.66 177.233 392.66Z" stroke="var(--stroke-0, #00BFFF)" stroke-width="90.0632" stroke-linejoin="round" mask="url(#path-1-outside-1_0_8)"/>
<path d="M249.989 281.607V389.535H242.384V374.95C239.668 384.951 233.873 392.66 228.351 392.66C217.758 392.66 211.058 376.408 211.058 350.572V281.607H218.935V347.239C218.935 364.741 222.919 375.575 229.347 375.575C236.499 375.575 242.112 362.032 242.112 344.322V281.607H249.989Z" stroke="var(--stroke-0, #00BFFF)" stroke-width="90.0632" stroke-linejoin="round" mask="url(#path-1-outside-1_0_8)"/>
<path d="M263.081 389.535V373.283H274.307V297.859H263.986V281.607H281.912V301.192C284.085 289.524 290.151 280.148 296.76 280.148C300.11 280.148 303.822 281.398 306.538 284.732V303.484C303.732 300.15 299.929 298.9 296.579 298.9C288.159 298.9 282.184 314.735 282.184 337.238V373.283H298.39V389.535H263.081Z" stroke="var(--stroke-0, #00BFFF)" stroke-width="90.0632" stroke-linejoin="round" mask="url(#path-1-outside-1_0_8)"/>
<path d="M333.935 392.66C324.7 392.66 318.453 380.159 318.453 361.407C318.453 340.155 326.058 326.195 339.096 322.653L350.141 319.736V318.902C350.141 303.276 345.886 294.317 338.915 294.317C332.487 294.317 327.235 302.859 326.692 314.319H319.087C319.812 293.066 327.96 278.482 339.096 278.482C350.413 278.482 357.746 294.316 357.746 319.527V357.448C357.746 366.199 357.837 375.575 358.108 389.535H350.503V370.366C346.882 384.951 341.178 392.66 333.935 392.66ZM326.149 360.365C326.149 370.158 329.68 376.825 335.022 376.825C343.803 376.825 350.141 360.99 350.141 338.071V334.321L339.186 337.654C330.766 340.155 326.149 348.072 326.149 360.365Z" stroke="var(--stroke-0, #00BFFF)" stroke-width="90.0632" stroke-linejoin="round" mask="url(#path-1-outside-1_0_8)"/>
<path d="M371.653 297.859V281.607H387.678V250.354L395.555 240.978V281.607H415.11V297.859H395.555V348.28C395.555 365.157 399.81 375.158 406.962 375.158C410.131 375.158 413.209 373.7 416.016 371.2V387.451C413.39 390.16 409.678 391.827 406.238 391.827C394.559 391.827 387.678 375.575 387.678 348.697V297.859H371.653Z" stroke="var(--stroke-0, #00BFFF)" stroke-width="90.0632" stroke-linejoin="round" mask="url(#path-1-outside-1_0_8)"/>
<path d="M448.392 392.66C435.355 392.66 426.301 369.116 426.301 335.571C426.301 302.442 435.536 278.482 448.392 278.482C461.791 278.482 470.573 304.943 468.853 339.946H433.997C434.631 362.24 439.972 375.992 448.301 375.992C454.548 375.992 459.166 368.908 460.524 356.823H468.491C466.59 378.492 458.623 392.66 448.392 392.66ZM448.301 295.15C440.878 295.15 435.717 306.609 434.268 324.945H460.886C460.433 306.818 455.725 295.15 448.301 295.15Z" stroke="var(--stroke-0, #00BFFF)" stroke-width="90.0632" stroke-linejoin="round" mask="url(#path-1-outside-1_0_8)"/>
<path d="M500.143 392.66C489.188 392.66 480.225 372.033 480.225 335.571C480.225 299.109 489.188 278.482 500.143 278.482C506.662 278.482 511.46 287.024 513.995 297.025V234.31H521.872V389.535H514.267V373.075C511.822 383.076 507.205 392.66 500.143 392.66ZM501.048 375.158C508.291 375.158 513.995 361.198 513.995 335.571C513.995 309.943 508.291 296.192 501.048 296.192C493.806 296.192 488.192 309.735 488.192 335.571C488.192 361.615 493.806 375.158 501.048 375.158Z" stroke="var(--stroke-0, #00BFFF)" stroke-width="90.0632" stroke-linejoin="round" mask="url(#path-1-outside-1_0_8)"/>
<path d="M586.081 389.535L605.999 239.519H615.324L634.97 389.535H626.732L621.933 352.239H599.209L594.32 389.535H586.081ZM601.382 335.779H619.851L610.707 264.522L601.382 335.779Z" stroke="var(--stroke-0, #00BFFF)" stroke-width="90.0632" stroke-linejoin="round" mask="url(#path-1-outside-1_0_8)"/>
<path d="M643.989 389.535V372.241H660.828V256.813H644.894V239.519H684.73V256.813H668.795V372.241H685.635V389.535H643.989Z" stroke="var(--stroke-0, #00BFFF)" stroke-width="90.0632" stroke-linejoin="round" mask="url(#path-1-outside-1_0_8)"/>
<path d="M69.4762 464.635C80.431 464.635 89.3941 485.262 89.3941 521.724C89.3941 558.186 80.431 578.813 69.4762 578.813C62.9576 578.813 58.1593 570.271 55.6243 560.27V618.401H47.7477V467.76H55.3526V484.22C57.7971 474.219 62.4144 464.635 69.4762 464.635ZM68.5709 482.137C61.328 482.137 55.6243 496.305 55.6243 521.724C55.6243 547.56 61.328 561.103 68.5709 561.103C75.8137 561.103 81.4269 547.769 81.4269 521.724C81.4269 495.888 75.8137 482.137 68.5709 482.137Z" stroke="var(--stroke-0, #00BFFF)" stroke-width="90.0632" stroke-linejoin="round" mask="url(#path-1-outside-1_0_8)"/>
<path d="M100.223 575.688V559.436H111.449V484.012H101.128V467.76H119.054V487.346C121.227 475.678 127.293 466.302 133.902 466.302C137.252 466.302 140.964 467.552 143.68 470.885V489.637C140.873 486.304 137.071 485.054 133.721 485.054C125.301 485.054 119.326 500.889 119.326 523.391V559.436H135.532V575.688H100.223Z" stroke="var(--stroke-0, #00BFFF)" stroke-width="90.0632" stroke-linejoin="round" mask="url(#path-1-outside-1_0_8)"/>
<path d="M176.238 578.813C163.291 578.813 154.509 555.686 154.509 521.724C154.509 487.971 163.381 464.635 176.238 464.635C189.184 464.635 197.966 487.762 197.966 521.724C197.966 555.686 189.184 578.813 176.238 578.813ZM176.238 562.145C184.476 562.145 190.09 545.893 190.09 521.724C190.09 497.555 184.567 481.303 176.238 481.303C167.908 481.303 162.386 497.555 162.386 521.724C162.386 546.102 167.908 562.145 176.238 562.145Z" stroke="var(--stroke-0, #00BFFF)" stroke-width="90.0632" stroke-linejoin="round" mask="url(#path-1-outside-1_0_8)"/>
<path d="M228.713 578.813C217.758 578.813 208.795 558.186 208.795 521.724C208.795 485.262 217.758 464.635 228.713 464.635C235.231 464.635 240.03 473.177 242.565 483.178V420.464H250.441V575.688H242.836V559.228C240.392 569.229 235.775 578.813 228.713 578.813ZM229.618 561.312C236.861 561.312 242.565 547.352 242.565 521.724C242.565 496.096 236.861 482.345 229.618 482.345C222.375 482.345 216.762 495.888 216.762 521.724C216.762 547.769 222.375 561.312 229.618 561.312Z" stroke="var(--stroke-0, #00BFFF)" stroke-width="90.0632" stroke-linejoin="round" mask="url(#path-1-outside-1_0_8)"/>
<path d="M304.275 467.76V575.688H296.67V561.103C293.954 571.104 288.159 578.813 282.637 578.813C272.044 578.813 265.344 562.562 265.344 536.726V467.76H273.221V533.392C273.221 550.894 277.205 561.728 283.633 561.728C290.785 561.728 296.398 548.185 296.398 530.475V467.76H304.275Z" stroke="var(--stroke-0, #00BFFF)" stroke-width="90.0632" stroke-linejoin="round" mask="url(#path-1-outside-1_0_8)"/>
<path d="M340.092 578.813C326.602 578.813 317.367 555.686 317.367 521.724C317.367 488.387 326.783 464.635 340.092 464.635C351.408 464.635 359.557 479.428 360.824 502.139H352.948C351.499 489.221 346.791 481.72 340.092 481.72C331.491 481.72 325.244 498.388 325.244 521.724C325.244 545.268 331.491 561.728 340.092 561.728C346.791 561.728 351.59 553.602 352.948 540.059H360.824C359.557 563.812 351.499 578.813 340.092 578.813Z" stroke="var(--stroke-0, #00BFFF)" stroke-width="90.0632" stroke-linejoin="round" mask="url(#path-1-outside-1_0_8)"/>
<path d="M371.653 484.012V467.76H387.678V436.507L395.555 427.131V467.76H415.11V484.012H395.555V534.434C395.555 551.311 399.81 561.312 406.962 561.312C410.131 561.312 413.209 559.853 416.016 557.353V573.605C413.39 576.313 409.678 577.98 406.238 577.98C394.559 577.98 387.678 561.728 387.678 534.851V484.012H371.653Z" stroke="var(--stroke-0, #00BFFF)" stroke-width="90.0632" stroke-linejoin="round" mask="url(#path-1-outside-1_0_8)"/>
<path d="M447.668 448.383C443.865 448.383 440.877 441.507 440.877 432.965C440.877 424.214 443.865 417.338 447.668 417.338C451.47 417.338 454.458 424.214 454.458 432.965C454.458 441.507 451.47 448.383 447.668 448.383ZM426.844 575.688V559.436H443.684V484.012H427.75V467.76H451.561V559.436H468.491V575.688H426.844Z" stroke="var(--stroke-0, #00BFFF)" stroke-width="90.0632" stroke-linejoin="round" mask="url(#path-1-outside-1_0_8)"/>
<path d="M501.954 578.813C489.007 578.813 480.225 555.686 480.225 521.724C480.225 487.971 489.098 464.635 501.954 464.635C514.9 464.635 523.682 487.762 523.682 521.724C523.682 555.686 514.9 578.813 501.954 578.813ZM501.954 562.145C510.192 562.145 515.806 545.893 515.806 521.724C515.806 497.555 510.283 481.303 501.954 481.303C493.624 481.303 488.102 497.555 488.102 521.724C488.102 546.102 493.624 562.145 501.954 562.145Z" stroke="var(--stroke-0, #00BFFF)" stroke-width="90.0632" stroke-linejoin="round" mask="url(#path-1-outside-1_0_8)"/>
<path d="M536.322 575.688V467.76H543.927V482.345C546.643 472.344 552.709 464.635 558.413 464.635C569.277 464.635 576.158 480.887 576.158 506.723V575.688H568.281V510.056C568.281 492.763 564.116 481.72 557.417 481.72C550.083 481.72 544.198 495.471 544.198 512.973V575.688H536.322Z" stroke="var(--stroke-0, #00BFFF)" stroke-width="90.0632" stroke-linejoin="round" mask="url(#path-1-outside-1_0_8)"/>
</g>
</svg>
