<svg preserveAspectRatio="none" width="100%" height="100%" overflow="visible" style="display: block;" viewBox="0 0 34 32" fill="none" xmlns="http://www.w3.org/2000/svg">
<g id="Logo-2">
<path id="Subtract" d="M4.02246 1.66691e-08L34 0V21.4648L29.8477 32L0 32L0 10.667L4.02246 1.66691e-08ZM20.0068 19.8105L22.7451 27.2588L24.2178 27.2588L25.21 23.4668L25.2783 23.4668L26.2373 27.2588L27.709 27.2588L30.4824 19.8105V3.55762L29.1123 3.55762V16.7627L27.709 20.4199L25.9287 20.4199V13.4785L24.5596 13.4785V20.4199L22.7451 20.4199L21.376 16.7627V3.55566L20.0068 3.55566V19.8105ZM12.3477 27.2588L13.7178 27.2588V18.7939L17.9619 18.7939V27.2588L19.332 27.2588V3.55762L17.9619 3.55762V11.4131L13.7178 11.4131V3.55762L12.3477 3.55762L12.3477 27.2588ZM4.68945 27.2588L6.05859 27.2588L6.05859 22.3496L10.3037 22.3496V27.2588L11.6729 27.2588L11.6729 11.0068L8.90039 3.55762L7.42871 3.55762L4.68945 11.0068L4.68945 27.2588ZM6.05859 14.0537L7.42871 10.3291L8.90039 10.3291L10.3037 14.0537L10.3037 17L6.05859 17V14.0537Z" fill="var(--fill-0, black)"/>
</g>
</svg>
