<svg width="636" height="358" viewBox="0 0 636 358" fill="none" xmlns="http://www.w3.org/2000/svg">
<mask id="path-1-outside-1_225_569" maskUnits="userSpaceOnUse" x="0" y="0" width="637" height="358" fill="black">
<rect fill="white" width="637" height="358"/>
<path d="M20 218.578L33.4663 20H39.771L53.0537 218.578H47.4835L44.2394 169.209H28.8755L25.5702 218.578H20ZM30.3446 147.421H42.8315L36.6493 53.0963L30.3446 147.421Z"/>
<path d="M59.1508 218.578V195.686H70.536V42.8916H59.7629V20H86.6956V42.8916H75.9225V195.686H87.3077V218.578H59.1508Z"/>
<path d="M133.168 218.578V20H161.325V42.8916H138.554V105.499H157.224V128.39H138.554V195.686H161.325V218.578H133.168Z"/>
<path d="M172.319 137.492V114.324H194.354V137.492H172.319Z"/>
<path d="M220.712 222.715C211.592 222.715 205.348 192.101 205.348 147.145C205.348 103.016 211.714 71.575 220.712 71.575C228.364 71.575 233.873 91.157 234.729 121.219H229.404C228.425 104.12 225.242 94.1908 220.712 94.1908C214.897 94.1908 210.674 116.255 210.674 147.145C210.674 178.31 214.897 200.099 220.712 200.099C225.242 200.099 228.486 189.343 229.404 171.415H234.729C233.873 202.857 228.425 222.715 220.712 222.715Z"/>
<path d="M256.741 222.715C247.988 222.715 242.051 192.101 242.051 147.145C242.051 102.465 248.049 71.575 256.741 71.575C265.494 71.575 271.432 102.189 271.432 147.145C271.432 192.101 265.494 222.715 256.741 222.715ZM256.741 200.65C262.311 200.65 266.107 179.138 266.107 147.145C266.107 115.152 262.373 93.6392 256.741 93.6392C251.11 93.6392 247.376 115.152 247.376 147.145C247.376 179.414 251.11 200.65 256.741 200.65Z"/>
<path d="M278.386 218.578V75.7121H283.528V87.0199C284.507 77.3669 286.527 71.575 289.098 71.575C291.669 71.575 293.811 78.7459 294.79 89.5022C295.892 79.0217 298.341 71.575 300.973 71.575C305.441 71.575 308.502 86.4683 308.502 108.533V218.578H303.176V112.118C303.176 101.362 301.768 94.1908 299.748 94.1908C297.728 94.1908 296.137 102.189 296.137 112.118V218.578H290.812V112.118C290.812 101.362 289.343 94.1908 287.2 94.1908C285.242 94.1908 283.711 101.913 283.711 112.118V218.578H278.386Z"/>
<path d="M329.702 333.863V312.35H341.087V149.903H330.314V128.39H346.413V312.35H357.859V333.863H329.702Z"/>
<path d="M380.483 338C371.73 338 365.792 307.386 365.792 262.43C365.792 217.75 371.791 186.86 380.483 186.86C389.236 186.86 395.173 217.474 395.173 262.43C395.173 307.386 389.236 338 380.483 338ZM380.483 315.936C386.053 315.936 389.848 294.423 389.848 262.43C389.848 230.437 386.114 208.925 380.483 208.925C374.852 208.925 371.118 230.437 371.118 262.43C371.118 294.699 374.852 315.936 380.483 315.936Z"/>
<path d="M417.185 338C408.432 338 402.495 307.386 402.495 262.43C402.495 217.75 408.493 186.86 417.185 186.86C425.938 186.86 431.876 217.474 431.876 262.43C431.876 307.386 425.938 338 417.185 338ZM417.185 315.936C422.755 315.936 426.55 294.423 426.55 262.43C426.55 230.437 422.817 208.925 417.185 208.925C411.554 208.925 407.82 230.437 407.82 262.43C407.82 294.699 411.554 315.936 417.185 315.936Z"/>
<path d="M440.421 333.863V128.39H445.686V259.12L461.539 190.997H468.517L455.479 247.537L469.19 333.863H463.131L451.807 263.533L445.686 289.735V333.863H440.421Z"/>
<path d="M491.814 338C487.774 338 484.163 328.071 482.265 312.075V333.863H477.124V128.39H482.449V211.407C484.53 195.962 487.958 186.86 491.814 186.86C499.833 186.86 505.281 217.474 505.281 262.43C505.281 307.386 499.833 338 491.814 338ZM491.202 314.557C496.528 314.557 499.894 294.423 499.894 262.43C499.894 230.713 496.466 210.028 491.202 210.028C485.938 210.028 482.449 230.989 482.449 262.43C482.449 294.423 485.877 314.557 491.202 314.557Z"/>
<path d="M527.293 338C518.539 338 512.602 307.386 512.602 262.43C512.602 217.75 518.601 186.86 527.293 186.86C536.046 186.86 541.983 217.474 541.983 262.43C541.983 307.386 536.046 338 527.293 338ZM527.293 315.936C532.863 315.936 536.658 294.423 536.658 262.43C536.658 230.437 532.924 208.925 527.293 208.925C521.661 208.925 517.927 230.437 517.927 262.43C517.927 294.699 521.661 315.936 527.293 315.936Z"/>
<path d="M563.995 338C555.242 338 549.304 307.386 549.304 262.43C549.304 217.75 555.303 186.86 563.995 186.86C572.748 186.86 578.685 217.474 578.685 262.43C578.685 307.386 572.748 338 563.995 338ZM563.995 315.936C569.565 315.936 573.36 294.423 573.36 262.43C573.36 230.437 569.626 208.925 563.995 208.925C558.364 208.925 554.63 230.437 554.63 262.43C554.63 294.699 558.364 315.936 563.995 315.936Z"/>
<path d="M587.231 333.863V128.39H592.495V259.12L608.349 190.997H615.327L602.289 247.537L616 333.863H609.94L598.616 263.533L592.495 289.735V333.863H587.231Z"/>
</mask>
<path d="M20 218.578L33.4663 20H39.771L53.0537 218.578H47.4835L44.2394 169.209H28.8755L25.5702 218.578H20ZM30.3446 147.421H42.8315L36.6493 53.0963L30.3446 147.421Z" fill="black"/>
<path d="M59.1508 218.578V195.686H70.536V42.8916H59.7629V20H86.6956V42.8916H75.9225V195.686H87.3077V218.578H59.1508Z" fill="black"/>
<path d="M133.168 218.578V20H161.325V42.8916H138.554V105.499H157.224V128.39H138.554V195.686H161.325V218.578H133.168Z" fill="black"/>
<path d="M172.319 137.492V114.324H194.354V137.492H172.319Z" fill="black"/>
<path d="M220.712 222.715C211.592 222.715 205.348 192.101 205.348 147.145C205.348 103.016 211.714 71.575 220.712 71.575C228.364 71.575 233.873 91.157 234.729 121.219H229.404C228.425 104.12 225.242 94.1908 220.712 94.1908C214.897 94.1908 210.674 116.255 210.674 147.145C210.674 178.31 214.897 200.099 220.712 200.099C225.242 200.099 228.486 189.343 229.404 171.415H234.729C233.873 202.857 228.425 222.715 220.712 222.715Z" fill="black"/>
<path d="M256.741 222.715C247.988 222.715 242.051 192.101 242.051 147.145C242.051 102.465 248.049 71.575 256.741 71.575C265.494 71.575 271.432 102.189 271.432 147.145C271.432 192.101 265.494 222.715 256.741 222.715ZM256.741 200.65C262.311 200.65 266.107 179.138 266.107 147.145C266.107 115.152 262.373 93.6392 256.741 93.6392C251.11 93.6392 247.376 115.152 247.376 147.145C247.376 179.414 251.11 200.65 256.741 200.65Z" fill="black"/>
<path d="M278.386 218.578V75.7121H283.528V87.0199C284.507 77.3669 286.527 71.575 289.098 71.575C291.669 71.575 293.811 78.7459 294.79 89.5022C295.892 79.0217 298.341 71.575 300.973 71.575C305.441 71.575 308.502 86.4683 308.502 108.533V218.578H303.176V112.118C303.176 101.362 301.768 94.1908 299.748 94.1908C297.728 94.1908 296.137 102.189 296.137 112.118V218.578H290.812V112.118C290.812 101.362 289.343 94.1908 287.2 94.1908C285.242 94.1908 283.711 101.913 283.711 112.118V218.578H278.386Z" fill="black"/>
<path d="M329.702 333.863V312.35H341.087V149.903H330.314V128.39H346.413V312.35H357.859V333.863H329.702Z" fill="black"/>
<path d="M380.483 338C371.73 338 365.792 307.386 365.792 262.43C365.792 217.75 371.791 186.86 380.483 186.86C389.236 186.86 395.173 217.474 395.173 262.43C395.173 307.386 389.236 338 380.483 338ZM380.483 315.936C386.053 315.936 389.848 294.423 389.848 262.43C389.848 230.437 386.114 208.925 380.483 208.925C374.852 208.925 371.118 230.437 371.118 262.43C371.118 294.699 374.852 315.936 380.483 315.936Z" fill="black"/>
<path d="M417.185 338C408.432 338 402.495 307.386 402.495 262.43C402.495 217.75 408.493 186.86 417.185 186.86C425.938 186.86 431.876 217.474 431.876 262.43C431.876 307.386 425.938 338 417.185 338ZM417.185 315.936C422.755 315.936 426.55 294.423 426.55 262.43C426.55 230.437 422.817 208.925 417.185 208.925C411.554 208.925 407.82 230.437 407.82 262.43C407.82 294.699 411.554 315.936 417.185 315.936Z" fill="black"/>
<path d="M440.421 333.863V128.39H445.686V259.12L461.539 190.997H468.517L455.479 247.537L469.19 333.863H463.131L451.807 263.533L445.686 289.735V333.863H440.421Z" fill="black"/>
<path d="M491.814 338C487.774 338 484.163 328.071 482.265 312.075V333.863H477.124V128.39H482.449V211.407C484.53 195.962 487.958 186.86 491.814 186.86C499.833 186.86 505.281 217.474 505.281 262.43C505.281 307.386 499.833 338 491.814 338ZM491.202 314.557C496.528 314.557 499.894 294.423 499.894 262.43C499.894 230.713 496.466 210.028 491.202 210.028C485.938 210.028 482.449 230.989 482.449 262.43C482.449 294.423 485.877 314.557 491.202 314.557Z" fill="black"/>
<path d="M527.293 338C518.539 338 512.602 307.386 512.602 262.43C512.602 217.75 518.601 186.86 527.293 186.86C536.046 186.86 541.983 217.474 541.983 262.43C541.983 307.386 536.046 338 527.293 338ZM527.293 315.936C532.863 315.936 536.658 294.423 536.658 262.43C536.658 230.437 532.924 208.925 527.293 208.925C521.661 208.925 517.927 230.437 517.927 262.43C517.927 294.699 521.661 315.936 527.293 315.936Z" fill="black"/>
<path d="M563.995 338C555.242 338 549.304 307.386 549.304 262.43C549.304 217.75 555.303 186.86 563.995 186.86C572.748 186.86 578.685 217.474 578.685 262.43C578.685 307.386 572.748 338 563.995 338ZM563.995 315.936C569.565 315.936 573.36 294.423 573.36 262.43C573.36 230.437 569.626 208.925 563.995 208.925C558.364 208.925 554.63 230.437 554.63 262.43C554.63 294.699 558.364 315.936 563.995 315.936Z" fill="black"/>
<path d="M587.231 333.863V128.39H592.495V259.12L608.349 190.997H615.327L602.289 247.537L616 333.863H609.94L598.616 263.533L592.495 289.735V333.863H587.231Z" fill="black"/>
<path d="M20 218.578L33.4663 20H39.771L53.0537 218.578H47.4835L44.2394 169.209H28.8755L25.5702 218.578H20ZM30.3446 147.421H42.8315L36.6493 53.0963L30.3446 147.421Z" stroke="#FF8DCA" stroke-width="40" stroke-linejoin="round" mask="url(#path-1-outside-1_225_569)"/>
<path d="M59.1508 218.578V195.686H70.536V42.8916H59.7629V20H86.6956V42.8916H75.9225V195.686H87.3077V218.578H59.1508Z" stroke="#FF8DCA" stroke-width="40" stroke-linejoin="round" mask="url(#path-1-outside-1_225_569)"/>
<path d="M133.168 218.578V20H161.325V42.8916H138.554V105.499H157.224V128.39H138.554V195.686H161.325V218.578H133.168Z" stroke="#FF8DCA" stroke-width="40" stroke-linejoin="round" mask="url(#path-1-outside-1_225_569)"/>
<path d="M172.319 137.492V114.324H194.354V137.492H172.319Z" stroke="#FF8DCA" stroke-width="40" stroke-linejoin="round" mask="url(#path-1-outside-1_225_569)"/>
<path d="M220.712 222.715C211.592 222.715 205.348 192.101 205.348 147.145C205.348 103.016 211.714 71.575 220.712 71.575C228.364 71.575 233.873 91.157 234.729 121.219H229.404C228.425 104.12 225.242 94.1908 220.712 94.1908C214.897 94.1908 210.674 116.255 210.674 147.145C210.674 178.31 214.897 200.099 220.712 200.099C225.242 200.099 228.486 189.343 229.404 171.415H234.729C233.873 202.857 228.425 222.715 220.712 222.715Z" stroke="#FF8DCA" stroke-width="40" stroke-linejoin="round" mask="url(#path-1-outside-1_225_569)"/>
<path d="M256.741 222.715C247.988 222.715 242.051 192.101 242.051 147.145C242.051 102.465 248.049 71.575 256.741 71.575C265.494 71.575 271.432 102.189 271.432 147.145C271.432 192.101 265.494 222.715 256.741 222.715ZM256.741 200.65C262.311 200.65 266.107 179.138 266.107 147.145C266.107 115.152 262.373 93.6392 256.741 93.6392C251.11 93.6392 247.376 115.152 247.376 147.145C247.376 179.414 251.11 200.65 256.741 200.65Z" stroke="#FF8DCA" stroke-width="40" stroke-linejoin="round" mask="url(#path-1-outside-1_225_569)"/>
<path d="M278.386 218.578V75.7121H283.528V87.0199C284.507 77.3669 286.527 71.575 289.098 71.575C291.669 71.575 293.811 78.7459 294.79 89.5022C295.892 79.0217 298.341 71.575 300.973 71.575C305.441 71.575 308.502 86.4683 308.502 108.533V218.578H303.176V112.118C303.176 101.362 301.768 94.1908 299.748 94.1908C297.728 94.1908 296.137 102.189 296.137 112.118V218.578H290.812V112.118C290.812 101.362 289.343 94.1908 287.2 94.1908C285.242 94.1908 283.711 101.913 283.711 112.118V218.578H278.386Z" stroke="#FF8DCA" stroke-width="40" stroke-linejoin="round" mask="url(#path-1-outside-1_225_569)"/>
<path d="M329.702 333.863V312.35H341.087V149.903H330.314V128.39H346.413V312.35H357.859V333.863H329.702Z" stroke="#FF8DCA" stroke-width="40" stroke-linejoin="round" mask="url(#path-1-outside-1_225_569)"/>
<path d="M380.483 338C371.73 338 365.792 307.386 365.792 262.43C365.792 217.75 371.791 186.86 380.483 186.86C389.236 186.86 395.173 217.474 395.173 262.43C395.173 307.386 389.236 338 380.483 338ZM380.483 315.936C386.053 315.936 389.848 294.423 389.848 262.43C389.848 230.437 386.114 208.925 380.483 208.925C374.852 208.925 371.118 230.437 371.118 262.43C371.118 294.699 374.852 315.936 380.483 315.936Z" stroke="#FF8DCA" stroke-width="40" stroke-linejoin="round" mask="url(#path-1-outside-1_225_569)"/>
<path d="M417.185 338C408.432 338 402.495 307.386 402.495 262.43C402.495 217.75 408.493 186.86 417.185 186.86C425.938 186.86 431.876 217.474 431.876 262.43C431.876 307.386 425.938 338 417.185 338ZM417.185 315.936C422.755 315.936 426.55 294.423 426.55 262.43C426.55 230.437 422.817 208.925 417.185 208.925C411.554 208.925 407.82 230.437 407.82 262.43C407.82 294.699 411.554 315.936 417.185 315.936Z" stroke="#FF8DCA" stroke-width="40" stroke-linejoin="round" mask="url(#path-1-outside-1_225_569)"/>
<path d="M440.421 333.863V128.39H445.686V259.12L461.539 190.997H468.517L455.479 247.537L469.19 333.863H463.131L451.807 263.533L445.686 289.735V333.863H440.421Z" stroke="#FF8DCA" stroke-width="40" stroke-linejoin="round" mask="url(#path-1-outside-1_225_569)"/>
<path d="M491.814 338C487.774 338 484.163 328.071 482.265 312.075V333.863H477.124V128.39H482.449V211.407C484.53 195.962 487.958 186.86 491.814 186.86C499.833 186.86 505.281 217.474 505.281 262.43C505.281 307.386 499.833 338 491.814 338ZM491.202 314.557C496.528 314.557 499.894 294.423 499.894 262.43C499.894 230.713 496.466 210.028 491.202 210.028C485.938 210.028 482.449 230.989 482.449 262.43C482.449 294.423 485.877 314.557 491.202 314.557Z" stroke="#FF8DCA" stroke-width="40" stroke-linejoin="round" mask="url(#path-1-outside-1_225_569)"/>
<path d="M527.293 338C518.539 338 512.602 307.386 512.602 262.43C512.602 217.75 518.601 186.86 527.293 186.86C536.046 186.86 541.983 217.474 541.983 262.43C541.983 307.386 536.046 338 527.293 338ZM527.293 315.936C532.863 315.936 536.658 294.423 536.658 262.43C536.658 230.437 532.924 208.925 527.293 208.925C521.661 208.925 517.927 230.437 517.927 262.43C517.927 294.699 521.661 315.936 527.293 315.936Z" stroke="#FF8DCA" stroke-width="40" stroke-linejoin="round" mask="url(#path-1-outside-1_225_569)"/>
<path d="M563.995 338C555.242 338 549.304 307.386 549.304 262.43C549.304 217.75 555.303 186.86 563.995 186.86C572.748 186.86 578.685 217.474 578.685 262.43C578.685 307.386 572.748 338 563.995 338ZM563.995 315.936C569.565 315.936 573.36 294.423 573.36 262.43C573.36 230.437 569.626 208.925 563.995 208.925C558.364 208.925 554.63 230.437 554.63 262.43C554.63 294.699 558.364 315.936 563.995 315.936Z" stroke="#FF8DCA" stroke-width="40" stroke-linejoin="round" mask="url(#path-1-outside-1_225_569)"/>
<path d="M587.231 333.863V128.39H592.495V259.12L608.349 190.997H615.327L602.289 247.537L616 333.863H609.94L598.616 263.533L592.495 289.735V333.863H587.231Z" stroke="#FF8DCA" stroke-width="40" stroke-linejoin="round" mask="url(#path-1-outside-1_225_569)"/>
</svg>
