<svg preserveAspectRatio="none" width="100%" height="100%" overflow="visible" style="display: block;" viewBox="0 0 19 278" fill="none" xmlns="http://www.w3.org/2000/svg">
<g id="Icons">
<path id="Arrow Icon" d="M0 54.3831V39.4368H14.3627L9.40339 9.72414L11.4322 0L19 47L11.4322 94L9.40339 84.2759L14.3949 54.3831H0Z" fill="var(--fill-0, black)"/>
<path id="Arrow Icon_2" d="M0 121.192V113.718H14.3627L9.40339 98.8621L11.4322 94L19 117.5L11.4322 141L9.40339 136.138L14.3949 121.192H0Z" fill="var(--fill-0, black)"/>
<path id="Arrow Icon_3" d="M0 168.192V160.718H14.3627L9.40339 145.862L11.4322 141L19 164.5L11.4322 188L9.40339 183.138L14.3949 168.192H0Z" fill="var(--fill-0, black)"/>
<path id="Arrow Icon_4" d="M0 214.034V206.879H14.3627L9.40339 192.655L11.4322 188L19 210.5L11.4322 233L9.40339 228.345L14.3949 214.034H0Z" fill="var(--fill-0, black)"/>
<path id="Arrow Icon_5" d="M0 259.034V251.879H14.3627L9.40339 237.655L11.4322 233L19 255.5L11.4322 278L9.40339 273.345L14.3949 259.034H0Z" fill="var(--fill-0, black)"/>
</g>
</svg>
