<svg preserveAspectRatio="none" width="100%" height="100%" overflow="visible" style="display: block;" viewBox="0 0 311.321 192.682" fill="none" xmlns="http://www.w3.org/2000/svg">
<path id="Concept" d="M52.1308 17.953C66.5512 18.3164 74.0646 29.9937 77.1552 37.0487C78.186 39.4018 79.0583 41.9171 79.788 44.5565C81.5799 44.1506 83.4998 43.9257 85.5556 43.9257C91.0759 43.9257 95.6215 45.5312 99.3329 47.9472C101.842 46.6124 104.706 45.8554 107.747 45.8554H112.657C112.718 45.8554 112.779 45.8567 112.84 45.8573C115.482 44.6984 118.542 43.9257 122.011 43.9257C129.305 43.9257 134.88 46.7825 139.002 50.5683C143.291 46.7579 148.959 43.9257 156.304 43.9257L156.877 43.9315C163.978 44.0754 169.659 46.8846 173.976 50.6483C178.203 46.8109 183.829 43.9257 191.181 43.9257L191.963 43.9384C196.901 44.0902 201.142 45.6687 204.618 47.8798C207.097 46.587 209.915 45.8554 212.904 45.8554H217.638C220.297 44.6835 223.388 43.9257 226.934 43.9257L227.66 43.9355C232.178 44.0579 235.991 45.3213 239.19 47.2187V44.5067C239.19 40.1473 240.778 35.9368 243.655 32.662L248.741 26.8739C253.671 21.2633 261.561 19.2933 268.55 21.9276C275.538 24.562 280.165 31.2499 280.165 38.7187V46.6562C287.479 48.9223 292.792 55.7407 292.792 63.7997V73.8319C292.792 81.8909 287.479 88.7083 280.165 90.9745V101.801C281.112 102.06 282.046 102.396 282.956 102.816C289.309 105.75 293.377 112.11 293.377 119.107V129.14C293.377 133.942 291.452 138.544 288.033 141.916C283.268 146.616 276.446 149.785 269.119 149.785C259.199 149.785 252.286 144.666 247.87 138.793C245.072 142.718 241.187 146.513 235.934 148.614V156.794C235.934 166.704 227.9 174.738 217.99 174.738H212.904C202.994 174.738 194.96 166.704 194.96 156.794V150.028C193.75 150.205 192.491 150.3 191.181 150.3C183.814 150.3 178.17 147.435 173.924 143.601C169.505 147.461 163.659 150.3 156.304 150.3C150.641 150.3 145.965 148.638 142.142 146.138C139.572 147.56 136.615 148.371 133.469 148.371H128.383C125.597 148.371 122.96 147.736 120.607 146.603C118.255 147.736 115.618 148.371 112.833 148.371H107.747C104.706 148.371 101.843 147.613 99.3339 146.278C95.6223 148.694 91.0764 150.3 85.5556 150.3C78.2513 150.3 72.6538 147.49 68.4374 143.709C64.2846 147.473 58.7288 150.3 51.4384 150.3C42.358 150.3 35.594 145.553 31.3583 140.585C27.3304 135.86 24.7649 130.117 23.0321 124.738C19.5267 113.857 17.9442 99.7207 17.9442 84.122C17.9443 68.3314 19.4849 54.1639 22.9921 43.3017C24.7294 37.9211 27.32 32.1677 31.4306 27.4462C35.801 22.4263 42.568 17.9443 51.4384 17.9442L52.1308 17.953Z" fill="black" stroke="#00BFFF" stroke-width="35.8886" stroke-linejoin="round"/>
</svg>
