<svg preserveAspectRatio="none" width="311" height="193" viewBox="0 0 311 193" fill="none" xmlns="http://www.w3.org/2000/svg">
<mask id="path-1-outside-1_225_149" maskUnits="userSpaceOnUse" x="-0.111328" y="-0.111328" width="311" height="193" fill="black">
<rect fill="white" x="-0.111328" y="-0.111328" width="311" height="193"/>
<path d="M51.4034 132.431C41.9546 132.431 35.8887 113.509 35.8887 84.1599C35.8887 54.2961 41.8379 35.8887 51.4034 35.8887C58.8691 35.8887 64.1768 47.9887 64.7601 66.5248H59.3357C58.8108 54.0387 55.7778 46.5727 51.3451 46.5727C44.8709 46.5727 41.0797 60.4748 41.0797 84.1599C41.0797 107.588 44.9875 121.747 51.3451 121.747C56.0112 121.747 58.9275 114.024 59.6857 99.6068H65.0517C64.2351 120.074 59.1024 132.431 51.4034 132.431Z"/>
<path d="M85.443 132.431C77.1024 132.431 71.4448 118.143 71.4448 97.161C71.4448 76.3078 77.1607 61.8908 85.443 61.8908C93.7836 61.8908 99.4413 76.1791 99.4413 97.161C99.4413 118.143 93.7836 132.431 85.443 132.431ZM85.443 122.133C90.7507 122.133 94.3669 112.093 94.3669 97.161C94.3669 82.2291 90.809 72.1887 85.443 72.1887C80.077 72.1887 76.5191 82.2291 76.5191 97.161C76.5191 112.222 80.077 122.133 85.443 122.133Z"/>
<path d="M107.584 130.5V63.8217H112.484V72.8323C114.233 66.6536 118.141 61.8908 121.816 61.8908C128.815 61.8908 133.248 71.9312 133.248 87.8929V130.5H128.173V89.9525C128.173 79.2685 125.49 72.4461 121.174 72.4461C116.45 72.4461 112.658 80.9419 112.658 91.7546V130.5H107.584Z"/>
<path d="M156.03 132.431C147.34 132.431 141.39 118.143 141.39 97.161C141.39 76.5653 147.456 61.8908 156.03 61.8908C163.321 61.8908 168.57 71.0302 169.387 85.061H164.313C163.379 77.0802 160.346 72.4461 156.03 72.4461C150.489 72.4461 146.465 82.744 146.465 97.161C146.465 111.707 150.489 121.876 156.03 121.876C160.346 121.876 163.438 116.856 164.313 108.489H169.387C168.57 123.163 163.379 132.431 156.03 132.431Z"/>
<path d="M190.828 132.431C182.429 132.431 176.597 117.885 176.597 97.161C176.597 76.694 182.546 61.8908 190.828 61.8908C199.46 61.8908 205.118 78.2387 204.01 99.8642H181.554C181.963 113.638 185.404 122.133 190.77 122.133C194.794 122.133 197.769 117.757 198.644 110.291H203.776C202.552 123.678 197.419 132.431 190.828 132.431ZM190.77 72.1887C185.987 72.1887 182.662 79.2685 181.729 90.5961H198.877C198.585 79.3972 195.553 72.1887 190.77 72.1887Z"/>
<path d="M226.501 61.8908C233.558 61.8908 239.333 74.6344 239.333 97.161C239.333 119.688 233.558 132.431 226.501 132.431C222.301 132.431 219.21 127.154 217.577 120.975V156.889H212.503V63.8217H217.402V73.9908C218.977 67.8121 221.951 61.8908 226.501 61.8908ZM225.918 72.7036C221.252 72.7036 217.577 81.4568 217.577 97.161C217.577 113.123 221.252 121.49 225.918 121.49C230.584 121.49 234.2 113.251 234.2 97.161C234.2 81.1993 230.584 72.7036 225.918 72.7036Z"/>
<path d="M246.309 73.8621V63.8217H256.633V44.5131L261.707 38.7206V63.8217H274.305V73.8621H261.707V105.013C261.707 115.44 264.448 121.618 269.056 121.618C271.097 121.618 273.081 120.717 274.889 119.173V129.213C273.197 130.887 270.806 131.916 268.589 131.916C261.065 131.916 256.633 121.876 256.633 105.271V73.8621H246.309Z"/>
</mask>
<path d="M51.4034 132.431C41.9546 132.431 35.8887 113.509 35.8887 84.1599C35.8887 54.2961 41.8379 35.8887 51.4034 35.8887C58.8691 35.8887 64.1768 47.9887 64.7601 66.5248H59.3357C58.8108 54.0387 55.7778 46.5727 51.3451 46.5727C44.8709 46.5727 41.0797 60.4748 41.0797 84.1599C41.0797 107.588 44.9875 121.747 51.3451 121.747C56.0112 121.747 58.9275 114.024 59.6857 99.6068H65.0517C64.2351 120.074 59.1024 132.431 51.4034 132.431Z" fill="black"/>
<path d="M85.443 132.431C77.1024 132.431 71.4448 118.143 71.4448 97.161C71.4448 76.3078 77.1607 61.8908 85.443 61.8908C93.7836 61.8908 99.4413 76.1791 99.4413 97.161C99.4413 118.143 93.7836 132.431 85.443 132.431ZM85.443 122.133C90.7507 122.133 94.3669 112.093 94.3669 97.161C94.3669 82.2291 90.809 72.1887 85.443 72.1887C80.077 72.1887 76.5191 82.2291 76.5191 97.161C76.5191 112.222 80.077 122.133 85.443 122.133Z" fill="black"/>
<path d="M107.584 130.5V63.8217H112.484V72.8323C114.233 66.6536 118.141 61.8908 121.816 61.8908C128.815 61.8908 133.248 71.9312 133.248 87.8929V130.5H128.173V89.9525C128.173 79.2685 125.49 72.4461 121.174 72.4461C116.45 72.4461 112.658 80.9419 112.658 91.7546V130.5H107.584Z" fill="black"/>
<path d="M156.03 132.431C147.34 132.431 141.39 118.143 141.39 97.161C141.39 76.5653 147.456 61.8908 156.03 61.8908C163.321 61.8908 168.57 71.0302 169.387 85.061H164.313C163.379 77.0802 160.346 72.4461 156.03 72.4461C150.489 72.4461 146.465 82.744 146.465 97.161C146.465 111.707 150.489 121.876 156.03 121.876C160.346 121.876 163.438 116.856 164.313 108.489H169.387C168.57 123.163 163.379 132.431 156.03 132.431Z" fill="black"/>
<path d="M190.828 132.431C182.429 132.431 176.597 117.885 176.597 97.161C176.597 76.694 182.546 61.8908 190.828 61.8908C199.46 61.8908 205.118 78.2387 204.01 99.8642H181.554C181.963 113.638 185.404 122.133 190.77 122.133C194.794 122.133 197.769 117.757 198.644 110.291H203.776C202.552 123.678 197.419 132.431 190.828 132.431ZM190.77 72.1887C185.987 72.1887 182.662 79.2685 181.729 90.5961H198.877C198.585 79.3972 195.553 72.1887 190.77 72.1887Z" fill="black"/>
<path d="M226.501 61.8908C233.558 61.8908 239.333 74.6344 239.333 97.161C239.333 119.688 233.558 132.431 226.501 132.431C222.301 132.431 219.21 127.154 217.577 120.975V156.889H212.503V63.8217H217.402V73.9908C218.977 67.8121 221.951 61.8908 226.501 61.8908ZM225.918 72.7036C221.252 72.7036 217.577 81.4568 217.577 97.161C217.577 113.123 221.252 121.49 225.918 121.49C230.584 121.49 234.2 113.251 234.2 97.161C234.2 81.1993 230.584 72.7036 225.918 72.7036Z" fill="black"/>
<path d="M246.309 73.8621V63.8217H256.633V44.5131L261.707 38.7206V63.8217H274.305V73.8621H261.707V105.013C261.707 115.44 264.448 121.618 269.056 121.618C271.097 121.618 273.081 120.717 274.889 119.173V129.213C273.197 130.887 270.806 131.916 268.589 131.916C261.065 131.916 256.633 121.876 256.633 105.271V73.8621H246.309Z" fill="black"/>
<path d="M51.4034 132.431C41.9546 132.431 35.8887 113.509 35.8887 84.1599C35.8887 54.2961 41.8379 35.8887 51.4034 35.8887C58.8691 35.8887 64.1768 47.9887 64.7601 66.5248H59.3357C58.8108 54.0387 55.7778 46.5727 51.3451 46.5727C44.8709 46.5727 41.0797 60.4748 41.0797 84.1599C41.0797 107.588 44.9875 121.747 51.3451 121.747C56.0112 121.747 58.9275 114.024 59.6857 99.6068H65.0517C64.2351 120.074 59.1024 132.431 51.4034 132.431Z" stroke="#00BFFF" stroke-width="71.7772" stroke-linejoin="round" mask="url(#path-1-outside-1_225_149)"/>
<path d="M85.443 132.431C77.1024 132.431 71.4448 118.143 71.4448 97.161C71.4448 76.3078 77.1607 61.8908 85.443 61.8908C93.7836 61.8908 99.4413 76.1791 99.4413 97.161C99.4413 118.143 93.7836 132.431 85.443 132.431ZM85.443 122.133C90.7507 122.133 94.3669 112.093 94.3669 97.161C94.3669 82.2291 90.809 72.1887 85.443 72.1887C80.077 72.1887 76.5191 82.2291 76.5191 97.161C76.5191 112.222 80.077 122.133 85.443 122.133Z" stroke="#00BFFF" stroke-width="71.7772" stroke-linejoin="round" mask="url(#path-1-outside-1_225_149)"/>
<path d="M107.584 130.5V63.8217H112.484V72.8323C114.233 66.6536 118.141 61.8908 121.816 61.8908C128.815 61.8908 133.248 71.9312 133.248 87.8929V130.5H128.173V89.9525C128.173 79.2685 125.49 72.4461 121.174 72.4461C116.45 72.4461 112.658 80.9419 112.658 91.7546V130.5H107.584Z" stroke="#00BFFF" stroke-width="71.7772" stroke-linejoin="round" mask="url(#path-1-outside-1_225_149)"/>
<path d="M156.03 132.431C147.34 132.431 141.39 118.143 141.39 97.161C141.39 76.5653 147.456 61.8908 156.03 61.8908C163.321 61.8908 168.57 71.0302 169.387 85.061H164.313C163.379 77.0802 160.346 72.4461 156.03 72.4461C150.489 72.4461 146.465 82.744 146.465 97.161C146.465 111.707 150.489 121.876 156.03 121.876C160.346 121.876 163.438 116.856 164.313 108.489H169.387C168.57 123.163 163.379 132.431 156.03 132.431Z" stroke="#00BFFF" stroke-width="71.7772" stroke-linejoin="round" mask="url(#path-1-outside-1_225_149)"/>
<path d="M190.828 132.431C182.429 132.431 176.597 117.885 176.597 97.161C176.597 76.694 182.546 61.8908 190.828 61.8908C199.46 61.8908 205.118 78.2387 204.01 99.8642H181.554C181.963 113.638 185.404 122.133 190.77 122.133C194.794 122.133 197.769 117.757 198.644 110.291H203.776C202.552 123.678 197.419 132.431 190.828 132.431ZM190.77 72.1887C185.987 72.1887 182.662 79.2685 181.729 90.5961H198.877C198.585 79.3972 195.553 72.1887 190.77 72.1887Z" stroke="#00BFFF" stroke-width="71.7772" stroke-linejoin="round" mask="url(#path-1-outside-1_225_149)"/>
<path d="M226.501 61.8908C233.558 61.8908 239.333 74.6344 239.333 97.161C239.333 119.688 233.558 132.431 226.501 132.431C222.301 132.431 219.21 127.154 217.577 120.975V156.889H212.503V63.8217H217.402V73.9908C218.977 67.8121 221.951 61.8908 226.501 61.8908ZM225.918 72.7036C221.252 72.7036 217.577 81.4568 217.577 97.161C217.577 113.123 221.252 121.49 225.918 121.49C230.584 121.49 234.2 113.251 234.2 97.161C234.2 81.1993 230.584 72.7036 225.918 72.7036Z" stroke="#00BFFF" stroke-width="71.7772" stroke-linejoin="round" mask="url(#path-1-outside-1_225_149)"/>
<path d="M246.309 73.8621V63.8217H256.633V44.5131L261.707 38.7206V63.8217H274.305V73.8621H261.707V105.013C261.707 115.44 264.448 121.618 269.056 121.618C271.097 121.618 273.081 120.717 274.889 119.173V129.213C273.197 130.887 270.806 131.916 268.589 131.916C261.065 131.916 256.633 121.876 256.633 105.271V73.8621H246.309Z" stroke="#00BFFF" stroke-width="71.7772" stroke-linejoin="round" mask="url(#path-1-outside-1_225_149)"/>
</svg>
