<svg preserveAspectRatio="none" width="100%" height="100%" overflow="visible" style="display: block;" viewBox="0 0 1453.78 195.777" fill="none" xmlns="http://www.w3.org/2000/svg">
<g id="Display-Group">
<path id="H1-Display" d="M1371.43 30.9442C1381.34 30.9442 1389.38 38.9782 1389.38 48.8886V63.288C1393.32 60.3375 1398.3 58.2812 1404.51 58.2812L1405.29 58.2929C1413.32 58.5396 1419.51 62.5554 1423.56 66.9325C1427.55 71.2437 1430.09 76.4509 1431.75 81.2274C1435.1 90.8631 1436.31 102.84 1435.67 115.185C1435.59 116.819 1435.29 118.391 1434.8 119.877C1435.38 121.959 1435.59 124.15 1435.38 126.349C1434.62 134.687 1432.54 143.04 1428.51 149.91C1424.59 156.583 1416.78 164.833 1404.51 164.833C1399.01 164.833 1394.47 163.236 1390.75 160.832C1388.25 162.15 1385.41 162.898 1382.39 162.898H1355.44C1353.82 162.898 1352.25 162.682 1350.76 162.279C1349.25 162.686 1347.68 162.898 1346.09 162.898H1341.17C1340.81 162.898 1340.45 162.886 1340.1 162.865C1337.25 164.086 1334.03 164.833 1330.45 164.833C1324.15 164.833 1319.1 162.623 1315.19 159.542C1311.01 162.665 1305.74 164.833 1299.31 164.833C1291.94 164.833 1286.25 162.027 1281.93 158.218C1277.51 162.005 1271.69 164.833 1264.35 164.833C1250.74 164.833 1241.83 155.946 1237.25 146.844C1232.9 138.196 1231.18 127.466 1230.95 116.448C1230.85 111.625 1232.69 106.963 1236.07 103.516C1236.54 103.034 1237.04 102.583 1237.55 102.161C1233.51 94.3892 1232.12 85.4001 1232.12 76.7411C1232.12 67.1977 1233.93 57.6597 1237.85 49.8212C1241.36 42.8068 1249.39 32.2334 1263.36 32.2333L1263.98 32.2401C1277.03 32.5211 1285.22 41.5777 1289.28 49.3935C1290.84 52.3833 1292.07 55.6238 1293.01 59.0263C1294.96 58.5473 1297.05 58.2812 1299.31 58.2812L1299.88 58.287C1306.75 58.4264 1312.29 61.0606 1316.56 64.6405C1320.93 60.9667 1326.67 58.2812 1333.79 58.2812L1334.41 58.288C1335.68 58.316 1336.91 58.4314 1338.08 58.622V48.8886C1338.08 38.9782 1346.12 30.9443 1356.03 30.9442H1371.43Z" fill="var(--fill-0, black)" stroke="var(--stroke-0, #FFF700)" stroke-width="35.8886" stroke-linejoin="round"/>
<g id="H1-Display_2">
<mask id="path-2-outside-1_0_6" maskUnits="userSpaceOnUse" x="814.889" y="11.8886" width="414" height="172" fill="black">
<rect fill="white" x="814.889" y="11.8886" width="414" height="172"/>
<path d="M850.889 145.953V53.0499H865.513C873.761 53.0499 878.967 63.3725 878.967 79.6305C878.967 95.8886 873.761 106.082 865.513 106.082H856.036V145.953H850.889ZM865.513 63.7596H856.036V95.3725H865.513C870.602 95.3725 873.702 89.437 873.702 79.7596C873.702 69.695 870.66 63.7596 865.513 63.7596Z"/>
<path d="M885.379 145.953V135.889H892.632V89.1789H885.964V79.1144H897.546V91.2434C898.95 84.0176 902.869 78.2112 907.14 78.2112C909.304 78.2112 911.702 78.9854 913.457 81.0499V92.6628C911.644 90.5983 909.187 89.8241 907.023 89.8241C901.582 89.8241 897.722 99.6305 897.722 113.566V135.889H908.192V145.953H885.379Z"/>
<path d="M934.493 147.889C926.128 147.889 920.454 133.566 920.454 112.534C920.454 91.6305 926.187 77.1789 934.493 77.1789C942.858 77.1789 948.532 91.5015 948.532 112.534C948.532 133.566 942.858 147.889 934.493 147.889ZM934.493 137.566C939.816 137.566 943.443 127.501 943.443 112.534C943.443 97.566 939.875 87.5015 934.493 87.5015C929.111 87.5015 925.543 97.566 925.543 112.534C925.543 127.631 929.111 137.566 934.493 137.566Z"/>
<path d="M968.398 147.889C961.32 147.889 955.529 135.114 955.529 112.534C955.529 89.9531 961.32 77.1789 968.398 77.1789C972.61 77.1789 975.71 82.4692 977.348 88.6628V49.8241H982.438V145.953H977.524V135.76C975.944 141.953 972.961 147.889 968.398 147.889ZM968.983 137.05C973.663 137.05 977.348 128.405 977.348 112.534C977.348 96.6628 973.663 88.1466 968.983 88.1466C964.304 88.1466 960.677 96.5337 960.677 112.534C960.677 128.663 964.304 137.05 968.983 137.05Z"/>
<path d="M1017.22 79.1144V145.953H1012.31V136.921C1010.55 143.114 1006.81 147.889 1003.24 147.889C996.395 147.889 992.067 137.824 992.067 121.824V79.1144H997.156V119.76C997.156 130.598 999.73 137.308 1003.88 137.308C1008.5 137.308 1012.13 128.921 1012.13 117.953V79.1144H1017.22Z"/>
<path d="M1040.36 147.889C1031.65 147.889 1025.68 133.566 1025.68 112.534C1025.68 91.8886 1031.76 77.1789 1040.36 77.1789C1047.67 77.1789 1052.94 86.3402 1053.76 100.405H1048.67C1047.73 92.4047 1044.69 87.7595 1040.36 87.7595C1034.8 87.7595 1030.77 98.0821 1030.77 112.534C1030.77 127.114 1034.8 137.308 1040.36 137.308C1044.69 137.308 1047.79 132.276 1048.67 123.889H1053.76C1052.94 138.598 1047.73 147.889 1040.36 147.889Z"/>
<path d="M1060.75 89.1789V79.1144H1071.11V59.7595L1076.2 53.9531V79.1144H1088.83V89.1789H1076.2V120.405C1076.2 130.856 1078.95 137.05 1083.57 137.05C1085.62 137.05 1087.6 136.147 1089.42 134.598V144.663C1087.72 146.34 1085.32 147.372 1083.1 147.372C1075.55 147.372 1071.11 137.308 1071.11 120.663V89.1789H1060.75Z"/>
<path d="M1109.87 67.1144C1107.41 67.1144 1105.48 62.8563 1105.48 57.566C1105.48 52.1466 1107.41 47.8886 1109.87 47.8886C1112.33 47.8886 1114.26 52.1466 1114.26 57.566C1114.26 62.8563 1112.33 67.1144 1109.87 67.1144ZM1096.41 145.953V135.889H1107.3V89.1789H1097V79.1144H1112.38V135.889H1123.32V145.953H1096.41Z"/>
<path d="M1144.94 147.889C1136.58 147.889 1130.9 133.566 1130.9 112.534C1130.9 91.6305 1136.64 77.1789 1144.94 77.1789C1153.31 77.1789 1158.98 91.5015 1158.98 112.534C1158.98 133.566 1153.31 147.889 1144.94 147.889ZM1144.94 137.566C1150.27 137.566 1153.89 127.501 1153.89 112.534C1153.89 97.566 1150.33 87.5015 1144.94 87.5015C1139.56 87.5015 1135.99 97.566 1135.99 112.534C1135.99 127.631 1139.56 137.566 1144.94 137.566Z"/>
<path d="M1167.15 145.953V79.1144H1172.06V88.1466C1173.82 81.9531 1177.74 77.1789 1181.42 77.1789C1188.44 77.1789 1192.89 87.2434 1192.89 103.243V145.953H1187.8V105.308C1187.8 94.5983 1185.11 87.7595 1180.78 87.7595C1176.04 87.7595 1172.24 96.2757 1172.24 107.114V145.953H1167.15Z"/>
</mask>
<path d="M850.889 145.953V53.0499H865.513C873.761 53.0499 878.967 63.3725 878.967 79.6305C878.967 95.8886 873.761 106.082 865.513 106.082H856.036V145.953H850.889ZM865.513 63.7596H856.036V95.3725H865.513C870.602 95.3725 873.702 89.437 873.702 79.7596C873.702 69.695 870.66 63.7596 865.513 63.7596Z" fill="var(--fill-0, black)"/>
<path d="M885.379 145.953V135.889H892.632V89.1789H885.964V79.1144H897.546V91.2434C898.95 84.0176 902.869 78.2112 907.14 78.2112C909.304 78.2112 911.702 78.9854 913.457 81.0499V92.6628C911.644 90.5983 909.187 89.8241 907.023 89.8241C901.582 89.8241 897.722 99.6305 897.722 113.566V135.889H908.192V145.953H885.379Z" fill="var(--fill-0, black)"/>
<path d="M934.493 147.889C926.128 147.889 920.454 133.566 920.454 112.534C920.454 91.6305 926.187 77.1789 934.493 77.1789C942.858 77.1789 948.532 91.5015 948.532 112.534C948.532 133.566 942.858 147.889 934.493 147.889ZM934.493 137.566C939.816 137.566 943.443 127.501 943.443 112.534C943.443 97.566 939.875 87.5015 934.493 87.5015C929.111 87.5015 925.543 97.566 925.543 112.534C925.543 127.631 929.111 137.566 934.493 137.566Z" fill="var(--fill-0, black)"/>
<path d="M968.398 147.889C961.32 147.889 955.529 135.114 955.529 112.534C955.529 89.9531 961.32 77.1789 968.398 77.1789C972.61 77.1789 975.71 82.4692 977.348 88.6628V49.8241H982.438V145.953H977.524V135.76C975.944 141.953 972.961 147.889 968.398 147.889ZM968.983 137.05C973.663 137.05 977.348 128.405 977.348 112.534C977.348 96.6628 973.663 88.1466 968.983 88.1466C964.304 88.1466 960.677 96.5337 960.677 112.534C960.677 128.663 964.304 137.05 968.983 137.05Z" fill="var(--fill-0, black)"/>
<path d="M1017.22 79.1144V145.953H1012.31V136.921C1010.55 143.114 1006.81 147.889 1003.24 147.889C996.395 147.889 992.067 137.824 992.067 121.824V79.1144H997.156V119.76C997.156 130.598 999.73 137.308 1003.88 137.308C1008.5 137.308 1012.13 128.921 1012.13 117.953V79.1144H1017.22Z" fill="var(--fill-0, black)"/>
<path d="M1040.36 147.889C1031.65 147.889 1025.68 133.566 1025.68 112.534C1025.68 91.8886 1031.76 77.1789 1040.36 77.1789C1047.67 77.1789 1052.94 86.3402 1053.76 100.405H1048.67C1047.73 92.4047 1044.69 87.7595 1040.36 87.7595C1034.8 87.7595 1030.77 98.0821 1030.77 112.534C1030.77 127.114 1034.8 137.308 1040.36 137.308C1044.69 137.308 1047.79 132.276 1048.67 123.889H1053.76C1052.94 138.598 1047.73 147.889 1040.36 147.889Z" fill="var(--fill-0, black)"/>
<path d="M1060.75 89.1789V79.1144H1071.11V59.7595L1076.2 53.9531V79.1144H1088.83V89.1789H1076.2V120.405C1076.2 130.856 1078.95 137.05 1083.57 137.05C1085.62 137.05 1087.6 136.147 1089.42 134.598V144.663C1087.72 146.34 1085.32 147.372 1083.1 147.372C1075.55 147.372 1071.11 137.308 1071.11 120.663V89.1789H1060.75Z" fill="var(--fill-0, black)"/>
<path d="M1109.87 67.1144C1107.41 67.1144 1105.48 62.8563 1105.48 57.566C1105.48 52.1466 1107.41 47.8886 1109.87 47.8886C1112.33 47.8886 1114.26 52.1466 1114.26 57.566C1114.26 62.8563 1112.33 67.1144 1109.87 67.1144ZM1096.41 145.953V135.889H1107.3V89.1789H1097V79.1144H1112.38V135.889H1123.32V145.953H1096.41Z" fill="var(--fill-0, black)"/>
<path d="M1144.94 147.889C1136.58 147.889 1130.9 133.566 1130.9 112.534C1130.9 91.6305 1136.64 77.1789 1144.94 77.1789C1153.31 77.1789 1158.98 91.5015 1158.98 112.534C1158.98 133.566 1153.31 147.889 1144.94 147.889ZM1144.94 137.566C1150.27 137.566 1153.89 127.501 1153.89 112.534C1153.89 97.566 1150.33 87.5015 1144.94 87.5015C1139.56 87.5015 1135.99 97.566 1135.99 112.534C1135.99 127.631 1139.56 137.566 1144.94 137.566Z" fill="var(--fill-0, black)"/>
<path d="M1167.15 145.953V79.1144H1172.06V88.1466C1173.82 81.9531 1177.74 77.1789 1181.42 77.1789C1188.44 77.1789 1192.89 87.2434 1192.89 103.243V145.953H1187.8V105.308C1187.8 94.5983 1185.11 87.7595 1180.78 87.7595C1176.04 87.7595 1172.24 96.2757 1172.24 107.114V145.953H1167.15Z" fill="var(--fill-0, black)"/>
<path d="M850.889 145.953V53.0499H865.513C873.761 53.0499 878.967 63.3725 878.967 79.6305C878.967 95.8886 873.761 106.082 865.513 106.082H856.036V145.953H850.889ZM865.513 63.7596H856.036V95.3725H865.513C870.602 95.3725 873.702 89.437 873.702 79.7596C873.702 69.695 870.66 63.7596 865.513 63.7596Z" stroke="var(--stroke-0, #BB00FF)" stroke-width="71.7772" stroke-linejoin="round" mask="url(#path-2-outside-1_0_6)"/>
<path d="M885.379 145.953V135.889H892.632V89.1789H885.964V79.1144H897.546V91.2434C898.95 84.0176 902.869 78.2112 907.14 78.2112C909.304 78.2112 911.702 78.9854 913.457 81.0499V92.6628C911.644 90.5983 909.187 89.8241 907.023 89.8241C901.582 89.8241 897.722 99.6305 897.722 113.566V135.889H908.192V145.953H885.379Z" stroke="var(--stroke-0, #BB00FF)" stroke-width="71.7772" stroke-linejoin="round" mask="url(#path-2-outside-1_0_6)"/>
<path d="M934.493 147.889C926.128 147.889 920.454 133.566 920.454 112.534C920.454 91.6305 926.187 77.1789 934.493 77.1789C942.858 77.1789 948.532 91.5015 948.532 112.534C948.532 133.566 942.858 147.889 934.493 147.889ZM934.493 137.566C939.816 137.566 943.443 127.501 943.443 112.534C943.443 97.566 939.875 87.5015 934.493 87.5015C929.111 87.5015 925.543 97.566 925.543 112.534C925.543 127.631 929.111 137.566 934.493 137.566Z" stroke="var(--stroke-0, #BB00FF)" stroke-width="71.7772" stroke-linejoin="round" mask="url(#path-2-outside-1_0_6)"/>
<path d="M968.398 147.889C961.32 147.889 955.529 135.114 955.529 112.534C955.529 89.9531 961.32 77.1789 968.398 77.1789C972.61 77.1789 975.71 82.4692 977.348 88.6628V49.8241H982.438V145.953H977.524V135.76C975.944 141.953 972.961 147.889 968.398 147.889ZM968.983 137.05C973.663 137.05 977.348 128.405 977.348 112.534C977.348 96.6628 973.663 88.1466 968.983 88.1466C964.304 88.1466 960.677 96.5337 960.677 112.534C960.677 128.663 964.304 137.05 968.983 137.05Z" stroke="var(--stroke-0, #BB00FF)" stroke-width="71.7772" stroke-linejoin="round" mask="url(#path-2-outside-1_0_6)"/>
<path d="M1017.22 79.1144V145.953H1012.31V136.921C1010.55 143.114 1006.81 147.889 1003.24 147.889C996.395 147.889 992.067 137.824 992.067 121.824V79.1144H997.156V119.76C997.156 130.598 999.73 137.308 1003.88 137.308C1008.5 137.308 1012.13 128.921 1012.13 117.953V79.1144H1017.22Z" stroke="var(--stroke-0, #BB00FF)" stroke-width="71.7772" stroke-linejoin="round" mask="url(#path-2-outside-1_0_6)"/>
<path d="M1040.36 147.889C1031.65 147.889 1025.68 133.566 1025.68 112.534C1025.68 91.8886 1031.76 77.1789 1040.36 77.1789C1047.67 77.1789 1052.94 86.3402 1053.76 100.405H1048.67C1047.73 92.4047 1044.69 87.7595 1040.36 87.7595C1034.8 87.7595 1030.77 98.0821 1030.77 112.534C1030.77 127.114 1034.8 137.308 1040.36 137.308C1044.69 137.308 1047.79 132.276 1048.67 123.889H1053.76C1052.94 138.598 1047.73 147.889 1040.36 147.889Z" stroke="var(--stroke-0, #BB00FF)" stroke-width="71.7772" stroke-linejoin="round" mask="url(#path-2-outside-1_0_6)"/>
<path d="M1060.75 89.1789V79.1144H1071.11V59.7595L1076.2 53.9531V79.1144H1088.83V89.1789H1076.2V120.405C1076.2 130.856 1078.95 137.05 1083.57 137.05C1085.62 137.05 1087.6 136.147 1089.42 134.598V144.663C1087.72 146.34 1085.32 147.372 1083.1 147.372C1075.55 147.372 1071.11 137.308 1071.11 120.663V89.1789H1060.75Z" stroke="var(--stroke-0, #BB00FF)" stroke-width="71.7772" stroke-linejoin="round" mask="url(#path-2-outside-1_0_6)"/>
<path d="M1109.87 67.1144C1107.41 67.1144 1105.48 62.8563 1105.48 57.566C1105.48 52.1466 1107.41 47.8886 1109.87 47.8886C1112.33 47.8886 1114.26 52.1466 1114.26 57.566C1114.26 62.8563 1112.33 67.1144 1109.87 67.1144ZM1096.41 145.953V135.889H1107.3V89.1789H1097V79.1144H1112.38V135.889H1123.32V145.953H1096.41Z" stroke="var(--stroke-0, #BB00FF)" stroke-width="71.7772" stroke-linejoin="round" mask="url(#path-2-outside-1_0_6)"/>
<path d="M1144.94 147.889C1136.58 147.889 1130.9 133.566 1130.9 112.534C1130.9 91.6305 1136.64 77.1789 1144.94 77.1789C1153.31 77.1789 1158.98 91.5015 1158.98 112.534C1158.98 133.566 1153.31 147.889 1144.94 147.889ZM1144.94 137.566C1150.27 137.566 1153.89 127.501 1153.89 112.534C1153.89 97.566 1150.33 87.5015 1144.94 87.5015C1139.56 87.5015 1135.99 97.566 1135.99 112.534C1135.99 127.631 1139.56 137.566 1144.94 137.566Z" stroke="var(--stroke-0, #BB00FF)" stroke-width="71.7772" stroke-linejoin="round" mask="url(#path-2-outside-1_0_6)"/>
<path d="M1167.15 145.953V79.1144H1172.06V88.1466C1173.82 81.9531 1177.74 77.1789 1181.42 77.1789C1188.44 77.1789 1192.89 87.2434 1192.89 103.243V145.953H1187.8V105.308C1187.8 94.5983 1185.11 87.7595 1180.78 87.7595C1176.04 87.7595 1172.24 96.2757 1172.24 107.114V145.953H1167.15Z" stroke="var(--stroke-0, #BB00FF)" stroke-width="71.7772" stroke-linejoin="round" mask="url(#path-2-outside-1_0_6)"/>
</g>
<g id="H1-Display_3">
<mask id="path-3-outside-2_0_6" maskUnits="userSpaceOnUse" x="294.889" y="-0.11142" width="523" height="196" fill="black">
<rect fill="white" x="294.889" y="-0.11142" width="523" height="196"/>
<path d="M330.889 41.0285H336.386L346.797 116.199L356.973 41.0285H362.471L349.779 133.547H343.755L330.889 41.0285Z"/>
<path d="M381.748 55.0347C379.292 55.0347 377.362 50.7943 377.362 45.5259C377.362 40.129 379.292 35.8886 381.748 35.8886C384.205 35.8886 386.135 40.129 386.135 45.5259C386.135 50.7943 384.205 55.0347 381.748 55.0347ZM368.296 133.547V123.524H379.175V77.0078H368.881V66.985H384.263V123.524H395.2V133.547H368.296Z"/>
<path d="M417.226 135.474C409.506 135.474 403.891 126.094 403.716 112.216H408.746C409.096 120.697 412.489 125.837 417.46 125.837C421.612 125.837 424.771 121.853 424.771 115.685C424.771 111.188 423.075 107.847 420.501 106.562L412.606 103.093C407.693 100.908 405.003 94.2264 405.003 85.3601C405.003 72.6388 409.798 65.0575 416.875 65.0575C423.835 65.0575 429.04 73.9238 429.274 86.6451H424.303C424.01 79.7062 420.852 74.6948 416.758 74.6948C412.723 74.6948 410.149 78.9352 410.149 84.3321C410.149 88.8295 411.553 91.528 414.009 92.8129L422.139 96.4109C427.052 98.7238 429.917 105.149 429.917 114.914C429.917 127.379 424.888 135.474 417.226 135.474Z"/>
<path d="M464.459 66.985V133.547H459.547V124.552C457.792 130.72 454.049 135.474 450.481 135.474C443.639 135.474 439.311 125.451 439.311 109.518V66.985H444.399V107.462C444.399 118.255 446.972 124.937 451.125 124.937C455.745 124.937 459.371 116.585 459.371 105.663V66.985H464.459Z"/>
<path d="M483.62 135.474C477.654 135.474 473.619 127.764 473.619 116.199C473.619 103.093 478.532 94.4834 486.953 92.299L494.089 90.5V89.986C494.089 80.3487 491.34 74.8233 486.837 74.8233C482.684 74.8233 479.292 80.0917 478.941 87.1591H474.028C474.496 74.0523 479.76 65.0575 486.953 65.0575C494.264 65.0575 499.001 74.8233 499.001 90.3715V113.758C499.001 119.155 499.06 124.937 499.235 133.547H494.323V121.725C491.983 130.72 488.299 135.474 483.62 135.474ZM478.59 115.557C478.59 121.596 480.871 125.708 484.322 125.708C489.995 125.708 494.089 115.942 494.089 101.808V99.4948L487.012 101.551C481.573 103.093 478.59 107.976 478.59 115.557Z"/>
<path d="M508.57 133.547V123.524H519.449V47.8388H509.155V37.816H524.537V123.524H535.474V133.547H508.57Z"/>
<path d="M592.978 135.474C583.678 135.474 577.947 124.166 577.537 104.763H582.743C582.977 117.356 586.954 125.194 592.919 125.194C598.066 125.194 601.4 119.026 601.4 109.518C601.4 102.322 599.294 97.0534 595.317 94.2264L588.006 89.3435C581.807 85.1031 578.707 77.2647 578.707 65.5715C578.707 50.6658 584.497 39.101 591.983 39.101C600.113 39.101 605.727 49.8948 606.254 66.471H601.049C600.639 56.0627 597.13 49.3808 592.1 49.3808C587.714 49.3808 584.088 56.1912 584.088 64.5435C584.088 71.3539 586.018 75.9798 590.053 78.5497L597.306 83.4326C603.564 87.5445 606.78 96.5394 606.78 109.646C606.78 124.423 600.873 135.474 592.978 135.474Z"/>
<path d="M619.683 159.889L624.946 129.949L612.021 66.985H617.577L627.52 115.428L636 66.985H641.264L625.005 159.889H619.683Z"/>
<path d="M662.705 135.474C654.985 135.474 649.37 126.094 649.195 112.216H654.225C654.576 120.697 657.968 125.837 662.939 125.837C667.092 125.837 670.25 121.853 670.25 115.685C670.25 111.188 668.554 107.847 665.98 106.562L658.085 103.093C653.172 100.908 650.482 94.2264 650.482 85.3601C650.482 72.6388 655.278 65.0575 662.354 65.0575C669.314 65.0575 674.519 73.9238 674.753 86.6451H669.782C669.489 79.7062 666.331 74.6948 662.237 74.6948C658.202 74.6948 655.628 78.9352 655.628 84.3321C655.628 88.8295 657.032 91.528 659.488 92.8129L667.618 96.4109C672.531 98.7238 675.397 105.149 675.397 114.914C675.397 127.379 670.367 135.474 662.705 135.474Z"/>
<path d="M683.328 77.0078V66.985H693.68V47.7103L698.768 41.928V66.985H711.401V77.0078H698.768V108.104C698.768 118.512 701.517 124.68 706.137 124.68C708.184 124.68 710.173 123.781 711.986 122.239V132.262C710.29 133.932 707.892 134.96 705.669 134.96C698.125 134.96 693.68 124.937 693.68 108.361V77.0078H683.328Z"/>
<path d="M732.901 135.474C724.479 135.474 718.63 120.954 718.63 100.266C718.63 79.8347 724.596 65.0575 732.901 65.0575C741.556 65.0575 747.229 81.3767 746.118 102.964H723.601C724.011 116.713 727.461 125.194 732.842 125.194C736.878 125.194 739.86 120.825 740.738 113.373H745.884C744.656 126.736 739.509 135.474 732.901 135.474ZM732.842 75.3373C728.046 75.3373 724.713 82.4046 723.777 93.7124H740.972C740.679 82.5331 737.638 75.3373 732.842 75.3373Z"/>
<path d="M753.114 133.547V66.985H758.026V72.2534C758.962 67.7559 760.892 65.0575 763.349 65.0575C765.805 65.0575 767.852 68.3984 768.788 73.4098C769.841 68.5269 772.18 65.0575 774.695 65.0575C778.964 65.0575 781.889 71.9964 781.889 82.2761V133.547H776.8V83.9466C776.8 78.9352 775.455 75.5943 773.525 75.5943C771.595 75.5943 770.074 79.3207 770.074 83.9466V133.547H764.986V83.9466C764.986 78.9352 763.583 75.5943 761.536 75.5943C759.664 75.5943 758.202 79.1922 758.202 83.9466V133.547H753.114Z"/>
</mask>
<path d="M330.889 41.0285H336.386L346.797 116.199L356.973 41.0285H362.471L349.779 133.547H343.755L330.889 41.0285Z" fill="var(--fill-0, black)"/>
<path d="M381.748 55.0347C379.292 55.0347 377.362 50.7943 377.362 45.5259C377.362 40.129 379.292 35.8886 381.748 35.8886C384.205 35.8886 386.135 40.129 386.135 45.5259C386.135 50.7943 384.205 55.0347 381.748 55.0347ZM368.296 133.547V123.524H379.175V77.0078H368.881V66.985H384.263V123.524H395.2V133.547H368.296Z" fill="var(--fill-0, black)"/>
<path d="M417.226 135.474C409.506 135.474 403.891 126.094 403.716 112.216H408.746C409.096 120.697 412.489 125.837 417.46 125.837C421.612 125.837 424.771 121.853 424.771 115.685C424.771 111.188 423.075 107.847 420.501 106.562L412.606 103.093C407.693 100.908 405.003 94.2264 405.003 85.3601C405.003 72.6388 409.798 65.0575 416.875 65.0575C423.835 65.0575 429.04 73.9238 429.274 86.6451H424.303C424.01 79.7062 420.852 74.6948 416.758 74.6948C412.723 74.6948 410.149 78.9352 410.149 84.3321C410.149 88.8295 411.553 91.528 414.009 92.8129L422.139 96.4109C427.052 98.7238 429.917 105.149 429.917 114.914C429.917 127.379 424.888 135.474 417.226 135.474Z" fill="var(--fill-0, black)"/>
<path d="M464.459 66.985V133.547H459.547V124.552C457.792 130.72 454.049 135.474 450.481 135.474C443.639 135.474 439.311 125.451 439.311 109.518V66.985H444.399V107.462C444.399 118.255 446.972 124.937 451.125 124.937C455.745 124.937 459.371 116.585 459.371 105.663V66.985H464.459Z" fill="var(--fill-0, black)"/>
<path d="M483.62 135.474C477.654 135.474 473.619 127.764 473.619 116.199C473.619 103.093 478.532 94.4834 486.953 92.299L494.089 90.5V89.986C494.089 80.3487 491.34 74.8233 486.837 74.8233C482.684 74.8233 479.292 80.0917 478.941 87.1591H474.028C474.496 74.0523 479.76 65.0575 486.953 65.0575C494.264 65.0575 499.001 74.8233 499.001 90.3715V113.758C499.001 119.155 499.06 124.937 499.235 133.547H494.323V121.725C491.983 130.72 488.299 135.474 483.62 135.474ZM478.59 115.557C478.59 121.596 480.871 125.708 484.322 125.708C489.995 125.708 494.089 115.942 494.089 101.808V99.4948L487.012 101.551C481.573 103.093 478.59 107.976 478.59 115.557Z" fill="var(--fill-0, black)"/>
<path d="M508.57 133.547V123.524H519.449V47.8388H509.155V37.816H524.537V123.524H535.474V133.547H508.57Z" fill="var(--fill-0, black)"/>
<path d="M592.978 135.474C583.678 135.474 577.947 124.166 577.537 104.763H582.743C582.977 117.356 586.954 125.194 592.919 125.194C598.066 125.194 601.4 119.026 601.4 109.518C601.4 102.322 599.294 97.0534 595.317 94.2264L588.006 89.3435C581.807 85.1031 578.707 77.2647 578.707 65.5715C578.707 50.6658 584.497 39.101 591.983 39.101C600.113 39.101 605.727 49.8948 606.254 66.471H601.049C600.639 56.0627 597.13 49.3808 592.1 49.3808C587.714 49.3808 584.088 56.1912 584.088 64.5435C584.088 71.3539 586.018 75.9798 590.053 78.5497L597.306 83.4326C603.564 87.5445 606.78 96.5394 606.78 109.646C606.78 124.423 600.873 135.474 592.978 135.474Z" fill="var(--fill-0, black)"/>
<path d="M619.683 159.889L624.946 129.949L612.021 66.985H617.577L627.52 115.428L636 66.985H641.264L625.005 159.889H619.683Z" fill="var(--fill-0, black)"/>
<path d="M662.705 135.474C654.985 135.474 649.37 126.094 649.195 112.216H654.225C654.576 120.697 657.968 125.837 662.939 125.837C667.092 125.837 670.25 121.853 670.25 115.685C670.25 111.188 668.554 107.847 665.98 106.562L658.085 103.093C653.172 100.908 650.482 94.2264 650.482 85.3601C650.482 72.6388 655.278 65.0575 662.354 65.0575C669.314 65.0575 674.519 73.9238 674.753 86.6451H669.782C669.489 79.7062 666.331 74.6948 662.237 74.6948C658.202 74.6948 655.628 78.9352 655.628 84.3321C655.628 88.8295 657.032 91.528 659.488 92.8129L667.618 96.4109C672.531 98.7238 675.397 105.149 675.397 114.914C675.397 127.379 670.367 135.474 662.705 135.474Z" fill="var(--fill-0, black)"/>
<path d="M683.328 77.0078V66.985H693.68V47.7103L698.768 41.928V66.985H711.401V77.0078H698.768V108.104C698.768 118.512 701.517 124.68 706.137 124.68C708.184 124.68 710.173 123.781 711.986 122.239V132.262C710.29 133.932 707.892 134.96 705.669 134.96C698.125 134.96 693.68 124.937 693.68 108.361V77.0078H683.328Z" fill="var(--fill-0, black)"/>
<path d="M732.901 135.474C724.479 135.474 718.63 120.954 718.63 100.266C718.63 79.8347 724.596 65.0575 732.901 65.0575C741.556 65.0575 747.229 81.3767 746.118 102.964H723.601C724.011 116.713 727.461 125.194 732.842 125.194C736.878 125.194 739.86 120.825 740.738 113.373H745.884C744.656 126.736 739.509 135.474 732.901 135.474ZM732.842 75.3373C728.046 75.3373 724.713 82.4046 723.777 93.7124H740.972C740.679 82.5331 737.638 75.3373 732.842 75.3373Z" fill="var(--fill-0, black)"/>
<path d="M753.114 133.547V66.985H758.026V72.2534C758.962 67.7559 760.892 65.0575 763.349 65.0575C765.805 65.0575 767.852 68.3984 768.788 73.4098C769.841 68.5269 772.18 65.0575 774.695 65.0575C778.964 65.0575 781.889 71.9964 781.889 82.2761V133.547H776.8V83.9466C776.8 78.9352 775.455 75.5943 773.525 75.5943C771.595 75.5943 770.074 79.3207 770.074 83.9466V133.547H764.986V83.9466C764.986 78.9352 763.583 75.5943 761.536 75.5943C759.664 75.5943 758.202 79.1922 758.202 83.9466V133.547H753.114Z" fill="var(--fill-0, black)"/>
<path d="M330.889 41.0285H336.386L346.797 116.199L356.973 41.0285H362.471L349.779 133.547H343.755L330.889 41.0285Z" stroke="var(--stroke-0, #A2FF00)" stroke-width="71.7772" stroke-linejoin="round" mask="url(#path-3-outside-2_0_6)"/>
<path d="M381.748 55.0347C379.292 55.0347 377.362 50.7943 377.362 45.5259C377.362 40.129 379.292 35.8886 381.748 35.8886C384.205 35.8886 386.135 40.129 386.135 45.5259C386.135 50.7943 384.205 55.0347 381.748 55.0347ZM368.296 133.547V123.524H379.175V77.0078H368.881V66.985H384.263V123.524H395.2V133.547H368.296Z" stroke="var(--stroke-0, #A2FF00)" stroke-width="71.7772" stroke-linejoin="round" mask="url(#path-3-outside-2_0_6)"/>
<path d="M417.226 135.474C409.506 135.474 403.891 126.094 403.716 112.216H408.746C409.096 120.697 412.489 125.837 417.46 125.837C421.612 125.837 424.771 121.853 424.771 115.685C424.771 111.188 423.075 107.847 420.501 106.562L412.606 103.093C407.693 100.908 405.003 94.2264 405.003 85.3601C405.003 72.6388 409.798 65.0575 416.875 65.0575C423.835 65.0575 429.04 73.9238 429.274 86.6451H424.303C424.01 79.7062 420.852 74.6948 416.758 74.6948C412.723 74.6948 410.149 78.9352 410.149 84.3321C410.149 88.8295 411.553 91.528 414.009 92.8129L422.139 96.4109C427.052 98.7238 429.917 105.149 429.917 114.914C429.917 127.379 424.888 135.474 417.226 135.474Z" stroke="var(--stroke-0, #A2FF00)" stroke-width="71.7772" stroke-linejoin="round" mask="url(#path-3-outside-2_0_6)"/>
<path d="M464.459 66.985V133.547H459.547V124.552C457.792 130.72 454.049 135.474 450.481 135.474C443.639 135.474 439.311 125.451 439.311 109.518V66.985H444.399V107.462C444.399 118.255 446.972 124.937 451.125 124.937C455.745 124.937 459.371 116.585 459.371 105.663V66.985H464.459Z" stroke="var(--stroke-0, #A2FF00)" stroke-width="71.7772" stroke-linejoin="round" mask="url(#path-3-outside-2_0_6)"/>
<path d="M483.62 135.474C477.654 135.474 473.619 127.764 473.619 116.199C473.619 103.093 478.532 94.4834 486.953 92.299L494.089 90.5V89.986C494.089 80.3487 491.34 74.8233 486.837 74.8233C482.684 74.8233 479.292 80.0917 478.941 87.1591H474.028C474.496 74.0523 479.76 65.0575 486.953 65.0575C494.264 65.0575 499.001 74.8233 499.001 90.3715V113.758C499.001 119.155 499.06 124.937 499.235 133.547H494.323V121.725C491.983 130.72 488.299 135.474 483.62 135.474ZM478.59 115.557C478.59 121.596 480.871 125.708 484.322 125.708C489.995 125.708 494.089 115.942 494.089 101.808V99.4948L487.012 101.551C481.573 103.093 478.59 107.976 478.59 115.557Z" stroke="var(--stroke-0, #A2FF00)" stroke-width="71.7772" stroke-linejoin="round" mask="url(#path-3-outside-2_0_6)"/>
<path d="M508.57 133.547V123.524H519.449V47.8388H509.155V37.816H524.537V123.524H535.474V133.547H508.57Z" stroke="var(--stroke-0, #A2FF00)" stroke-width="71.7772" stroke-linejoin="round" mask="url(#path-3-outside-2_0_6)"/>
<path d="M592.978 135.474C583.678 135.474 577.947 124.166 577.537 104.763H582.743C582.977 117.356 586.954 125.194 592.919 125.194C598.066 125.194 601.4 119.026 601.4 109.518C601.4 102.322 599.294 97.0534 595.317 94.2264L588.006 89.3435C581.807 85.1031 578.707 77.2647 578.707 65.5715C578.707 50.6658 584.497 39.101 591.983 39.101C600.113 39.101 605.727 49.8948 606.254 66.471H601.049C600.639 56.0627 597.13 49.3808 592.1 49.3808C587.714 49.3808 584.088 56.1912 584.088 64.5435C584.088 71.3539 586.018 75.9798 590.053 78.5497L597.306 83.4326C603.564 87.5445 606.78 96.5394 606.78 109.646C606.78 124.423 600.873 135.474 592.978 135.474Z" stroke="var(--stroke-0, #A2FF00)" stroke-width="71.7772" stroke-linejoin="round" mask="url(#path-3-outside-2_0_6)"/>
<path d="M619.683 159.889L624.946 129.949L612.021 66.985H617.577L627.52 115.428L636 66.985H641.264L625.005 159.889H619.683Z" stroke="var(--stroke-0, #A2FF00)" stroke-width="71.7772" stroke-linejoin="round" mask="url(#path-3-outside-2_0_6)"/>
<path d="M662.705 135.474C654.985 135.474 649.37 126.094 649.195 112.216H654.225C654.576 120.697 657.968 125.837 662.939 125.837C667.092 125.837 670.25 121.853 670.25 115.685C670.25 111.188 668.554 107.847 665.98 106.562L658.085 103.093C653.172 100.908 650.482 94.2264 650.482 85.3601C650.482 72.6388 655.278 65.0575 662.354 65.0575C669.314 65.0575 674.519 73.9238 674.753 86.6451H669.782C669.489 79.7062 666.331 74.6948 662.237 74.6948C658.202 74.6948 655.628 78.9352 655.628 84.3321C655.628 88.8295 657.032 91.528 659.488 92.8129L667.618 96.4109C672.531 98.7238 675.397 105.149 675.397 114.914C675.397 127.379 670.367 135.474 662.705 135.474Z" stroke="var(--stroke-0, #A2FF00)" stroke-width="71.7772" stroke-linejoin="round" mask="url(#path-3-outside-2_0_6)"/>
<path d="M683.328 77.0078V66.985H693.68V47.7103L698.768 41.928V66.985H711.401V77.0078H698.768V108.104C698.768 118.512 701.517 124.68 706.137 124.68C708.184 124.68 710.173 123.781 711.986 122.239V132.262C710.29 133.932 707.892 134.96 705.669 134.96C698.125 134.96 693.68 124.937 693.68 108.361V77.0078H683.328Z" stroke="var(--stroke-0, #A2FF00)" stroke-width="71.7772" stroke-linejoin="round" mask="url(#path-3-outside-2_0_6)"/>
<path d="M732.901 135.474C724.479 135.474 718.63 120.954 718.63 100.266C718.63 79.8347 724.596 65.0575 732.901 65.0575C741.556 65.0575 747.229 81.3767 746.118 102.964H723.601C724.011 116.713 727.461 125.194 732.842 125.194C736.878 125.194 739.86 120.825 740.738 113.373H745.884C744.656 126.736 739.509 135.474 732.901 135.474ZM732.842 75.3373C728.046 75.3373 724.713 82.4046 723.777 93.7124H740.972C740.679 82.5331 737.638 75.3373 732.842 75.3373Z" stroke="var(--stroke-0, #A2FF00)" stroke-width="71.7772" stroke-linejoin="round" mask="url(#path-3-outside-2_0_6)"/>
<path d="M753.114 133.547V66.985H758.026V72.2534C758.962 67.7559 760.892 65.0575 763.349 65.0575C765.805 65.0575 767.852 68.3984 768.788 73.4098C769.841 68.5269 772.18 65.0575 774.695 65.0575C778.964 65.0575 781.889 71.9964 781.889 82.2761V133.547H776.8V83.9466C776.8 78.9352 775.455 75.5943 773.525 75.5943C771.595 75.5943 770.074 79.3207 770.074 83.9466V133.547H764.986V83.9466C764.986 78.9352 763.583 75.5943 761.536 75.5943C759.664 75.5943 758.202 79.1922 758.202 83.9466V133.547H753.114Z" stroke="var(--stroke-0, #A2FF00)" stroke-width="71.7772" stroke-linejoin="round" mask="url(#path-3-outside-2_0_6)"/>
</g>
<path id="H1-Display_4" d="M52.0966 19.953C66.5369 20.3178 74.0349 32.0392 77.1073 39.0741C78.1328 41.4221 79.0009 43.9318 79.7274 46.5653C81.5041 46.1664 83.4072 45.9462 85.4433 45.9462L86.1855 45.956C91.362 46.0927 95.6576 47.6555 99.1942 49.956C101.698 48.6292 104.553 47.8769 107.584 47.8769H112.483C112.538 47.8769 112.592 47.8783 112.646 47.8788C115.287 46.7192 118.346 45.9462 121.815 45.9462C129.094 45.9462 134.655 48.7935 138.768 52.5663C143.049 48.7682 148.703 45.9462 156.03 45.9462L156.604 45.9521C163.689 46.0959 169.355 48.8948 173.662 52.6444C177.88 48.8192 183.494 45.9462 190.828 45.9462L191.611 45.9589C196.54 46.1107 200.772 47.6852 204.239 49.8896C206.712 48.6041 209.523 47.8769 212.503 47.8769H217.206C219.864 46.7043 222.954 45.9462 226.501 45.9462L227.227 45.956C231.714 46.0779 235.505 47.3261 238.688 49.203V46.5126C238.688 42.1628 240.269 37.9613 243.135 34.6894L248.209 28.8964C253.134 23.2746 261.028 21.2939 268.023 23.9247C275.019 26.5555 279.651 33.2468 279.651 40.7206V48.6874C286.951 50.9624 292.25 57.7728 292.25 65.8212V75.8622C292.25 83.9106 286.951 90.721 279.651 92.996V103.874C280.584 104.131 281.504 104.463 282.4 104.876C288.76 107.807 292.833 114.17 292.833 121.173V131.213C292.833 136.005 290.916 140.599 287.509 143.97C282.752 148.676 275.93 151.86 268.59 151.86C258.693 151.86 251.798 146.761 247.391 140.911C244.604 144.813 240.74 148.583 235.521 150.679V158.889C235.521 168.799 227.487 176.833 217.577 176.833H212.503C202.592 176.833 194.559 168.799 194.559 158.889V152.11C193.364 152.282 192.121 152.376 190.828 152.376C183.478 152.376 177.847 149.521 173.609 145.699C169.201 149.545 163.37 152.376 156.03 152.376C150.379 152.376 145.712 150.719 141.897 148.225C139.332 149.639 136.384 150.444 133.248 150.444H128.173C125.394 150.444 122.763 149.812 120.415 148.684C118.067 149.812 115.437 150.444 112.658 150.444H107.584C104.553 150.444 101.698 149.692 99.1942 148.365C95.4899 150.775 90.9532 152.376 85.4433 152.376C78.1563 152.376 72.5711 149.576 68.3632 145.808C64.2187 149.559 58.6763 152.376 51.4032 152.376C42.3058 152.376 35.5424 147.606 31.3192 142.637C27.3018 137.909 24.7447 132.166 23.0175 126.788C19.5227 115.906 17.9443 101.767 17.9442 86.1601C17.9442 70.3609 19.4809 56.1895 22.9774 45.3271C24.7092 39.9474 27.2921 34.1927 31.3925 29.4687C35.7509 24.4475 42.5168 19.9443 51.4032 19.9442L52.0966 19.953Z" fill="var(--fill-0, black)" stroke="var(--stroke-0, #00BFFF)" stroke-width="35.8886" stroke-linejoin="round"/>
</g>
</svg>
