<svg preserveAspectRatio="none" width="100%" height="100%" overflow="visible" style="display: block;" viewBox="0 0 413.555 171.46" fill="none" xmlns="http://www.w3.org/2000/svg">
<g id="Production">
<mask id="path-1-outside-1_0_8" maskUnits="userSpaceOnUse" x="-0.11142" y="-0.11142" width="414" height="172" fill="black">
<rect fill="white" x="-0.11142" y="-0.11142" width="414" height="172"/>
<path d="M35.8886 133.642V41.0335H50.5033C58.7459 41.0335 63.9487 51.3233 63.9487 67.5298C63.9487 83.7362 58.7459 93.8974 50.5033 93.8974H41.0329V133.642H35.8886ZM50.5033 51.7092H41.0329V83.2217H50.5033C55.5892 83.2217 58.6875 77.3051 58.6875 67.6584C58.6875 57.6258 55.6476 51.7092 50.5033 51.7092Z"/>
<path d="M70.3564 133.642V123.609H77.6052V77.0478H70.941V67.0153H82.5158V79.1058C83.9188 71.9029 87.8355 66.1149 92.103 66.1149C94.266 66.1149 96.6628 66.8866 98.4165 68.9446V80.5206C96.6043 78.4627 94.149 77.6909 91.9861 77.6909C86.5494 77.6909 82.6911 87.4663 82.6911 101.358V123.609H93.1552V133.642H70.3564Z"/>
<path d="M119.439 135.571C111.079 135.571 105.409 121.294 105.409 100.329C105.409 79.4917 111.138 65.0859 119.439 65.0859C127.798 65.0859 133.469 79.363 133.469 100.329C133.469 121.294 127.798 135.571 119.439 135.571ZM119.439 125.281C124.759 125.281 128.383 115.249 128.383 100.329C128.383 85.4083 124.817 75.3757 119.439 75.3757C114.061 75.3757 110.495 85.4083 110.495 100.329C110.495 115.377 114.061 125.281 119.439 125.281Z"/>
<path d="M153.322 135.571C146.249 135.571 140.461 122.838 140.461 100.329C140.461 77.8196 146.249 65.0859 153.322 65.0859C157.531 65.0859 160.629 70.3595 162.266 76.5333V37.8179H167.352V133.642H162.442V123.481C160.863 129.655 157.882 135.571 153.322 135.571ZM153.907 124.767C158.583 124.767 162.266 116.149 162.266 100.329C162.266 84.5079 158.583 76.0189 153.907 76.0189C149.23 76.0189 145.605 84.3793 145.605 100.329C145.605 116.406 149.23 124.767 153.907 124.767Z"/>
<path d="M202.112 67.0153V133.642H197.202V124.638C195.448 130.812 191.707 135.571 188.141 135.571C181.301 135.571 176.975 125.539 176.975 109.589V67.0153H182.061V107.531C182.061 118.336 184.633 125.024 188.784 125.024C193.402 125.024 197.026 116.664 197.026 105.731V67.0153H202.112Z"/>
<path d="M225.239 135.571C216.529 135.571 210.566 121.294 210.566 100.329C210.566 79.7489 216.646 65.0859 225.239 65.0859C232.546 65.0859 237.808 74.2181 238.626 88.238H233.54C232.605 80.2634 229.565 75.633 225.239 75.633C219.685 75.633 215.652 85.9228 215.652 100.329C215.652 114.863 219.685 125.024 225.239 125.024C229.565 125.024 232.663 120.008 233.54 111.647H238.626C237.808 126.31 232.605 135.571 225.239 135.571Z"/>
<path d="M245.618 77.0478V67.0153H255.965V47.7219L261.051 41.9338V67.0153H273.678V77.0478H261.051V108.175C261.051 118.593 263.799 124.767 268.417 124.767C270.463 124.767 272.451 123.866 274.263 122.323V132.356C272.568 134.028 270.171 135.057 267.949 135.057C260.408 135.057 255.965 125.024 255.965 108.432V77.0478H245.618Z"/>
<path d="M294.701 55.0534C292.245 55.0534 290.316 50.8088 290.316 45.5353C290.316 40.1331 292.245 35.8886 294.701 35.8886C297.156 35.8886 299.085 40.1331 299.085 45.5353C299.085 50.8088 297.156 55.0534 294.701 55.0534ZM281.255 133.642V123.609H292.128V77.0478H281.84V67.0153H297.214V123.609H308.146V133.642H281.255Z"/>
<path d="M329.753 135.571C321.393 135.571 315.723 121.294 315.723 100.329C315.723 79.4917 321.452 65.0859 329.753 65.0859C338.113 65.0859 343.783 79.363 343.783 100.329C343.783 121.294 338.113 135.571 329.753 135.571ZM329.753 125.281C335.073 125.281 338.697 115.249 338.697 100.329C338.697 85.4083 335.131 75.3757 329.753 75.3757C324.375 75.3757 320.809 85.4083 320.809 100.329C320.809 115.377 324.375 125.281 329.753 125.281Z"/>
<path d="M351.944 133.642V67.0153H356.855V76.0189C358.609 69.845 362.526 65.0859 366.208 65.0859C373.223 65.0859 377.666 75.1185 377.666 91.0677V133.642H372.58V93.1257C372.58 82.45 369.891 75.633 365.565 75.633C360.83 75.633 357.03 84.1221 357.03 94.9264V133.642H351.944Z"/>
</mask>
<path d="M35.8886 133.642V41.0335H50.5033C58.7459 41.0335 63.9487 51.3233 63.9487 67.5298C63.9487 83.7362 58.7459 93.8974 50.5033 93.8974H41.0329V133.642H35.8886ZM50.5033 51.7092H41.0329V83.2217H50.5033C55.5892 83.2217 58.6875 77.3051 58.6875 67.6584C58.6875 57.6258 55.6476 51.7092 50.5033 51.7092Z" fill="var(--fill-0, black)"/>
<path d="M70.3564 133.642V123.609H77.6052V77.0478H70.941V67.0153H82.5158V79.1058C83.9188 71.9029 87.8355 66.1149 92.103 66.1149C94.266 66.1149 96.6628 66.8866 98.4165 68.9446V80.5206C96.6043 78.4627 94.149 77.6909 91.9861 77.6909C86.5494 77.6909 82.6911 87.4663 82.6911 101.358V123.609H93.1552V133.642H70.3564Z" fill="var(--fill-0, black)"/>
<path d="M119.439 135.571C111.079 135.571 105.409 121.294 105.409 100.329C105.409 79.4917 111.138 65.0859 119.439 65.0859C127.798 65.0859 133.469 79.363 133.469 100.329C133.469 121.294 127.798 135.571 119.439 135.571ZM119.439 125.281C124.759 125.281 128.383 115.249 128.383 100.329C128.383 85.4083 124.817 75.3757 119.439 75.3757C114.061 75.3757 110.495 85.4083 110.495 100.329C110.495 115.377 114.061 125.281 119.439 125.281Z" fill="var(--fill-0, black)"/>
<path d="M153.322 135.571C146.249 135.571 140.461 122.838 140.461 100.329C140.461 77.8196 146.249 65.0859 153.322 65.0859C157.531 65.0859 160.629 70.3595 162.266 76.5333V37.8179H167.352V133.642H162.442V123.481C160.863 129.655 157.882 135.571 153.322 135.571ZM153.907 124.767C158.583 124.767 162.266 116.149 162.266 100.329C162.266 84.5079 158.583 76.0189 153.907 76.0189C149.23 76.0189 145.605 84.3793 145.605 100.329C145.605 116.406 149.23 124.767 153.907 124.767Z" fill="var(--fill-0, black)"/>
<path d="M202.112 67.0153V133.642H197.202V124.638C195.448 130.812 191.707 135.571 188.141 135.571C181.301 135.571 176.975 125.539 176.975 109.589V67.0153H182.061V107.531C182.061 118.336 184.633 125.024 188.784 125.024C193.402 125.024 197.026 116.664 197.026 105.731V67.0153H202.112Z" fill="var(--fill-0, black)"/>
<path d="M225.239 135.571C216.529 135.571 210.566 121.294 210.566 100.329C210.566 79.7489 216.646 65.0859 225.239 65.0859C232.546 65.0859 237.808 74.2181 238.626 88.238H233.54C232.605 80.2634 229.565 75.633 225.239 75.633C219.685 75.633 215.652 85.9228 215.652 100.329C215.652 114.863 219.685 125.024 225.239 125.024C229.565 125.024 232.663 120.008 233.54 111.647H238.626C237.808 126.31 232.605 135.571 225.239 135.571Z" fill="var(--fill-0, black)"/>
<path d="M245.618 77.0478V67.0153H255.965V47.7219L261.051 41.9338V67.0153H273.678V77.0478H261.051V108.175C261.051 118.593 263.799 124.767 268.417 124.767C270.463 124.767 272.451 123.866 274.263 122.323V132.356C272.568 134.028 270.171 135.057 267.949 135.057C260.408 135.057 255.965 125.024 255.965 108.432V77.0478H245.618Z" fill="var(--fill-0, black)"/>
<path d="M294.701 55.0534C292.245 55.0534 290.316 50.8088 290.316 45.5353C290.316 40.1331 292.245 35.8886 294.701 35.8886C297.156 35.8886 299.085 40.1331 299.085 45.5353C299.085 50.8088 297.156 55.0534 294.701 55.0534ZM281.255 133.642V123.609H292.128V77.0478H281.84V67.0153H297.214V123.609H308.146V133.642H281.255Z" fill="var(--fill-0, black)"/>
<path d="M329.753 135.571C321.393 135.571 315.723 121.294 315.723 100.329C315.723 79.4917 321.452 65.0859 329.753 65.0859C338.113 65.0859 343.783 79.363 343.783 100.329C343.783 121.294 338.113 135.571 329.753 135.571ZM329.753 125.281C335.073 125.281 338.697 115.249 338.697 100.329C338.697 85.4083 335.131 75.3757 329.753 75.3757C324.375 75.3757 320.809 85.4083 320.809 100.329C320.809 115.377 324.375 125.281 329.753 125.281Z" fill="var(--fill-0, black)"/>
<path d="M351.944 133.642V67.0153H356.855V76.0189C358.609 69.845 362.526 65.0859 366.208 65.0859C373.223 65.0859 377.666 75.1185 377.666 91.0677V133.642H372.58V93.1257C372.58 82.45 369.891 75.633 365.565 75.633C360.83 75.633 357.03 84.1221 357.03 94.9264V133.642H351.944Z" fill="var(--fill-0, black)"/>
<path d="M35.8886 133.642V41.0335H50.5033C58.7459 41.0335 63.9487 51.3233 63.9487 67.5298C63.9487 83.7362 58.7459 93.8974 50.5033 93.8974H41.0329V133.642H35.8886ZM50.5033 51.7092H41.0329V83.2217H50.5033C55.5892 83.2217 58.6875 77.3051 58.6875 67.6584C58.6875 57.6258 55.6476 51.7092 50.5033 51.7092Z" stroke="var(--stroke-0, #BB00FF)" stroke-width="71.7772" stroke-linejoin="round" mask="url(#path-1-outside-1_0_8)"/>
<path d="M70.3564 133.642V123.609H77.6052V77.0478H70.941V67.0153H82.5158V79.1058C83.9188 71.9029 87.8355 66.1149 92.103 66.1149C94.266 66.1149 96.6628 66.8866 98.4165 68.9446V80.5206C96.6043 78.4627 94.149 77.6909 91.9861 77.6909C86.5494 77.6909 82.6911 87.4663 82.6911 101.358V123.609H93.1552V133.642H70.3564Z" stroke="var(--stroke-0, #BB00FF)" stroke-width="71.7772" stroke-linejoin="round" mask="url(#path-1-outside-1_0_8)"/>
<path d="M119.439 135.571C111.079 135.571 105.409 121.294 105.409 100.329C105.409 79.4917 111.138 65.0859 119.439 65.0859C127.798 65.0859 133.469 79.363 133.469 100.329C133.469 121.294 127.798 135.571 119.439 135.571ZM119.439 125.281C124.759 125.281 128.383 115.249 128.383 100.329C128.383 85.4083 124.817 75.3757 119.439 75.3757C114.061 75.3757 110.495 85.4083 110.495 100.329C110.495 115.377 114.061 125.281 119.439 125.281Z" stroke="var(--stroke-0, #BB00FF)" stroke-width="71.7772" stroke-linejoin="round" mask="url(#path-1-outside-1_0_8)"/>
<path d="M153.322 135.571C146.249 135.571 140.461 122.838 140.461 100.329C140.461 77.8196 146.249 65.0859 153.322 65.0859C157.531 65.0859 160.629 70.3595 162.266 76.5333V37.8179H167.352V133.642H162.442V123.481C160.863 129.655 157.882 135.571 153.322 135.571ZM153.907 124.767C158.583 124.767 162.266 116.149 162.266 100.329C162.266 84.5079 158.583 76.0189 153.907 76.0189C149.23 76.0189 145.605 84.3793 145.605 100.329C145.605 116.406 149.23 124.767 153.907 124.767Z" stroke="var(--stroke-0, #BB00FF)" stroke-width="71.7772" stroke-linejoin="round" mask="url(#path-1-outside-1_0_8)"/>
<path d="M202.112 67.0153V133.642H197.202V124.638C195.448 130.812 191.707 135.571 188.141 135.571C181.301 135.571 176.975 125.539 176.975 109.589V67.0153H182.061V107.531C182.061 118.336 184.633 125.024 188.784 125.024C193.402 125.024 197.026 116.664 197.026 105.731V67.0153H202.112Z" stroke="var(--stroke-0, #BB00FF)" stroke-width="71.7772" stroke-linejoin="round" mask="url(#path-1-outside-1_0_8)"/>
<path d="M225.239 135.571C216.529 135.571 210.566 121.294 210.566 100.329C210.566 79.7489 216.646 65.0859 225.239 65.0859C232.546 65.0859 237.808 74.2181 238.626 88.238H233.54C232.605 80.2634 229.565 75.633 225.239 75.633C219.685 75.633 215.652 85.9228 215.652 100.329C215.652 114.863 219.685 125.024 225.239 125.024C229.565 125.024 232.663 120.008 233.54 111.647H238.626C237.808 126.31 232.605 135.571 225.239 135.571Z" stroke="var(--stroke-0, #BB00FF)" stroke-width="71.7772" stroke-linejoin="round" mask="url(#path-1-outside-1_0_8)"/>
<path d="M245.618 77.0478V67.0153H255.965V47.7219L261.051 41.9338V67.0153H273.678V77.0478H261.051V108.175C261.051 118.593 263.799 124.767 268.417 124.767C270.463 124.767 272.451 123.866 274.263 122.323V132.356C272.568 134.028 270.171 135.057 267.949 135.057C260.408 135.057 255.965 125.024 255.965 108.432V77.0478H245.618Z" stroke="var(--stroke-0, #BB00FF)" stroke-width="71.7772" stroke-linejoin="round" mask="url(#path-1-outside-1_0_8)"/>
<path d="M294.701 55.0534C292.245 55.0534 290.316 50.8088 290.316 45.5353C290.316 40.1331 292.245 35.8886 294.701 35.8886C297.156 35.8886 299.085 40.1331 299.085 45.5353C299.085 50.8088 297.156 55.0534 294.701 55.0534ZM281.255 133.642V123.609H292.128V77.0478H281.84V67.0153H297.214V123.609H308.146V133.642H281.255Z" stroke="var(--stroke-0, #BB00FF)" stroke-width="71.7772" stroke-linejoin="round" mask="url(#path-1-outside-1_0_8)"/>
<path d="M329.753 135.571C321.393 135.571 315.723 121.294 315.723 100.329C315.723 79.4917 321.452 65.0859 329.753 65.0859C338.113 65.0859 343.783 79.363 343.783 100.329C343.783 121.294 338.113 135.571 329.753 135.571ZM329.753 125.281C335.073 125.281 338.697 115.249 338.697 100.329C338.697 85.4083 335.131 75.3757 329.753 75.3757C324.375 75.3757 320.809 85.4083 320.809 100.329C320.809 115.377 324.375 125.281 329.753 125.281Z" stroke="var(--stroke-0, #BB00FF)" stroke-width="71.7772" stroke-linejoin="round" mask="url(#path-1-outside-1_0_8)"/>
<path d="M351.944 133.642V67.0153H356.855V76.0189C358.609 69.845 362.526 65.0859 366.208 65.0859C373.223 65.0859 377.666 75.1185 377.666 91.0677V133.642H372.58V93.1257C372.58 82.45 369.891 75.633 365.565 75.633C360.83 75.633 357.03 84.1221 357.03 94.9264V133.642H351.944Z" stroke="var(--stroke-0, #BB00FF)" stroke-width="71.7772" stroke-linejoin="round" mask="url(#path-1-outside-1_0_8)"/>
</g>
</svg>
