<svg preserveAspectRatio="none" width="100%" height="100%" overflow="visible" style="display: block;" viewBox="0 0 1246 559" fill="none" xmlns="http://www.w3.org/2000/svg">
<g id="H1-Display">
<mask id="path-1-outside-1_0_5" maskUnits="userSpaceOnUse" x="0" y="0" width="1246" height="559" fill="black">
<rect fill="white" width="1246" height="559"/>
<path d="M51 410.917V69.943H83.3218C101.551 69.943 113.058 107.829 113.058 167.5C113.058 227.17 101.551 264.582 83.3218 264.582H62.3773V410.917H51ZM83.3218 109.25H62.3773V225.276H83.3218C94.5697 225.276 101.422 203.491 101.422 167.973C101.422 131.034 94.699 109.25 83.3218 109.25Z"/>
<path d="M127.229 410.917V373.978H143.26V202.544H128.522V165.605H154.121V210.121C157.223 183.601 165.886 162.29 175.324 162.29C180.107 162.29 185.408 165.132 189.287 172.709V215.331C185.279 207.753 179.849 204.912 175.065 204.912C163.041 204.912 154.508 240.904 154.508 292.05V373.978H177.651V410.917H127.229Z"/>
<path d="M235.779 418.021C217.291 418.021 204.751 365.454 204.751 288.261C204.751 211.542 217.421 158.502 235.779 158.502C254.267 158.502 266.808 211.068 266.808 288.261C266.808 365.454 254.267 418.021 235.779 418.021ZM235.779 380.135C247.545 380.135 255.56 343.196 255.56 288.261C255.56 233.326 247.674 196.388 235.779 196.388C223.885 196.388 215.998 233.326 215.998 288.261C215.998 343.669 223.885 380.135 235.779 380.135Z"/>
<path d="M325.842 121.563C320.412 121.563 316.275 105.935 316.275 86.5181C316.275 66.628 320.412 51 325.842 51C331.272 51 335.538 66.628 335.538 86.5181C335.538 105.935 331.272 121.563 325.842 121.563ZM320.153 202.544H287.444V165.605H331.401V398.131C331.401 466.325 320.153 508 301.665 508C295.718 508 289.383 503.264 284.858 495.213V457.801C289.9 465.852 295.33 470.114 300.76 470.114C312.784 470.114 320.153 442.647 320.153 397.183V202.544Z"/>
<path d="M391.857 418.021C373.24 418.021 360.311 364.507 360.311 288.261C360.311 212.963 373.498 158.502 391.857 158.502C410.992 158.502 423.532 218.646 421.076 298.206H371.3C372.205 348.879 379.833 380.135 391.728 380.135C400.649 380.135 407.242 364.033 409.182 336.566H420.559C417.844 385.818 406.466 418.021 391.857 418.021ZM391.728 196.388C381.126 196.388 373.757 222.434 371.688 264.109H409.699C409.052 222.908 402.329 196.388 391.728 196.388Z"/>
<path d="M469.767 418.021C450.503 418.021 437.316 365.454 437.316 288.261C437.316 212.489 450.761 158.502 469.767 158.502C485.928 158.502 497.563 192.125 499.373 243.745H488.125C486.057 214.383 479.334 197.335 469.767 197.335C457.484 197.335 448.564 235.221 448.564 288.261C448.564 341.775 457.484 379.188 469.767 379.188C479.334 379.188 486.186 360.718 488.125 329.936H499.373C497.563 383.923 486.057 418.021 469.767 418.021Z"/>
<path d="M514.837 202.544V165.605H537.721V94.5689L548.969 73.258V165.605H576.895V202.544H548.969V317.149C548.969 355.509 555.046 378.24 565.259 378.24C569.784 378.24 574.18 374.925 578.188 369.243V406.181C574.439 412.338 569.138 416.126 564.225 416.126C547.547 416.126 537.721 379.188 537.721 318.096V202.544H514.837Z"/>
<path d="M672.466 410.917V69.943H733.231V109.25H683.844V225.276H724.698V264.582H683.844V410.917H672.466Z"/>
<path d="M778.431 418.021C759.943 418.021 747.402 365.454 747.402 288.261C747.402 211.542 760.072 158.502 778.431 158.502C796.919 158.502 809.46 211.068 809.46 288.261C809.46 365.454 796.919 418.021 778.431 418.021ZM778.431 380.135C790.196 380.135 798.212 343.196 798.212 288.261C798.212 233.326 790.326 196.388 778.431 196.388C766.537 196.388 758.65 233.326 758.65 288.261C758.65 343.669 766.537 380.135 778.431 380.135Z"/>
<path d="M824.924 410.917V373.978H840.956V202.544H826.217V165.605H851.816V210.121C854.919 183.601 863.581 162.29 873.019 162.29C877.802 162.29 883.103 165.132 886.982 172.709V215.331C882.974 207.753 877.544 204.912 872.76 204.912C860.737 204.912 852.204 240.904 852.204 292.05V373.978H875.346V410.917H824.924Z"/>
<path d="M901.67 410.917V165.605H912.53V185.022C914.599 168.447 918.865 158.502 924.295 158.502C929.725 158.502 934.25 170.815 936.319 189.284C938.646 171.288 943.818 158.502 949.377 158.502C958.815 158.502 965.279 184.075 965.279 221.961V410.917H954.031V228.117C954.031 209.648 951.058 197.335 946.791 197.335C942.525 197.335 939.163 211.068 939.163 228.117V410.917H927.915V228.117C927.915 209.648 924.812 197.335 920.287 197.335C916.15 197.335 912.918 210.595 912.918 228.117V410.917H901.67Z"/>
<path d="M1003.63 418.021C990.44 418.021 981.519 389.606 981.519 346.984C981.519 298.68 992.379 266.95 1011 258.899L1026.77 252.269V250.375C1026.77 214.857 1020.69 194.493 1010.74 194.493C1001.56 194.493 994.06 213.91 993.284 239.956H982.424C983.458 191.652 995.094 158.502 1011 158.502C1027.16 158.502 1037.63 194.493 1037.63 251.796V337.987C1037.63 357.877 1037.76 379.188 1038.15 410.917H1027.29V367.348C1022.12 400.498 1013.97 418.021 1003.63 418.021ZM992.508 344.617C992.508 366.875 997.55 382.029 1005.18 382.029C1017.72 382.029 1026.77 346.037 1026.77 293.944V285.42L1011.13 292.997C999.102 298.68 992.508 316.676 992.508 344.617Z"/>
<path d="M1057.49 202.544V165.605H1080.37V94.5689L1091.62 73.258V165.605H1119.55V202.544H1091.62V317.149C1091.62 355.509 1097.7 378.24 1107.91 378.24C1112.44 378.24 1116.83 374.925 1120.84 369.243V406.181C1117.09 412.338 1111.79 416.126 1106.88 416.126C1090.2 416.126 1080.37 379.188 1080.37 318.096V202.544H1057.49Z"/>
<path d="M1166.94 418.021C1149.88 418.021 1137.47 383.45 1137.08 332.304H1148.2C1148.97 363.56 1156.47 382.503 1167.46 382.503C1176.64 382.503 1183.62 367.822 1183.62 345.09C1183.62 328.515 1179.87 316.202 1174.18 311.466L1156.73 298.68C1145.87 290.629 1139.92 266.003 1139.92 233.326C1139.92 186.442 1150.53 158.502 1166.17 158.502C1181.55 158.502 1193.06 191.178 1193.58 238.062H1182.59C1181.94 212.489 1174.96 194.02 1165.91 194.02C1156.99 194.02 1151.3 209.648 1151.3 229.538C1151.3 246.113 1154.4 256.058 1159.83 260.794L1177.8 274.054C1188.66 282.578 1195 306.257 1195 342.249C1195 388.185 1183.88 418.021 1166.94 418.021Z"/>
</mask>
<path d="M51 410.917V69.943H83.3218C101.551 69.943 113.058 107.829 113.058 167.5C113.058 227.17 101.551 264.582 83.3218 264.582H62.3773V410.917H51ZM83.3218 109.25H62.3773V225.276H83.3218C94.5697 225.276 101.422 203.491 101.422 167.973C101.422 131.034 94.699 109.25 83.3218 109.25Z" fill="var(--fill-0, black)"/>
<path d="M127.229 410.917V373.978H143.26V202.544H128.522V165.605H154.121V210.121C157.223 183.601 165.886 162.29 175.324 162.29C180.107 162.29 185.408 165.132 189.287 172.709V215.331C185.279 207.753 179.849 204.912 175.065 204.912C163.041 204.912 154.508 240.904 154.508 292.05V373.978H177.651V410.917H127.229Z" fill="var(--fill-0, black)"/>
<path d="M235.779 418.021C217.291 418.021 204.751 365.454 204.751 288.261C204.751 211.542 217.421 158.502 235.779 158.502C254.267 158.502 266.808 211.068 266.808 288.261C266.808 365.454 254.267 418.021 235.779 418.021ZM235.779 380.135C247.545 380.135 255.56 343.196 255.56 288.261C255.56 233.326 247.674 196.388 235.779 196.388C223.885 196.388 215.998 233.326 215.998 288.261C215.998 343.669 223.885 380.135 235.779 380.135Z" fill="var(--fill-0, black)"/>
<path d="M325.842 121.563C320.412 121.563 316.275 105.935 316.275 86.5181C316.275 66.628 320.412 51 325.842 51C331.272 51 335.538 66.628 335.538 86.5181C335.538 105.935 331.272 121.563 325.842 121.563ZM320.153 202.544H287.444V165.605H331.401V398.131C331.401 466.325 320.153 508 301.665 508C295.718 508 289.383 503.264 284.858 495.213V457.801C289.9 465.852 295.33 470.114 300.76 470.114C312.784 470.114 320.153 442.647 320.153 397.183V202.544Z" fill="var(--fill-0, black)"/>
<path d="M391.857 418.021C373.24 418.021 360.311 364.507 360.311 288.261C360.311 212.963 373.498 158.502 391.857 158.502C410.992 158.502 423.532 218.646 421.076 298.206H371.3C372.205 348.879 379.833 380.135 391.728 380.135C400.649 380.135 407.242 364.033 409.182 336.566H420.559C417.844 385.818 406.466 418.021 391.857 418.021ZM391.728 196.388C381.126 196.388 373.757 222.434 371.688 264.109H409.699C409.052 222.908 402.329 196.388 391.728 196.388Z" fill="var(--fill-0, black)"/>
<path d="M469.767 418.021C450.503 418.021 437.316 365.454 437.316 288.261C437.316 212.489 450.761 158.502 469.767 158.502C485.928 158.502 497.563 192.125 499.373 243.745H488.125C486.057 214.383 479.334 197.335 469.767 197.335C457.484 197.335 448.564 235.221 448.564 288.261C448.564 341.775 457.484 379.188 469.767 379.188C479.334 379.188 486.186 360.718 488.125 329.936H499.373C497.563 383.923 486.057 418.021 469.767 418.021Z" fill="var(--fill-0, black)"/>
<path d="M514.837 202.544V165.605H537.721V94.5689L548.969 73.258V165.605H576.895V202.544H548.969V317.149C548.969 355.509 555.046 378.24 565.259 378.24C569.784 378.24 574.18 374.925 578.188 369.243V406.181C574.439 412.338 569.138 416.126 564.225 416.126C547.547 416.126 537.721 379.188 537.721 318.096V202.544H514.837Z" fill="var(--fill-0, black)"/>
<path d="M672.466 410.917V69.943H733.231V109.25H683.844V225.276H724.698V264.582H683.844V410.917H672.466Z" fill="var(--fill-0, black)"/>
<path d="M778.431 418.021C759.943 418.021 747.402 365.454 747.402 288.261C747.402 211.542 760.072 158.502 778.431 158.502C796.919 158.502 809.46 211.068 809.46 288.261C809.46 365.454 796.919 418.021 778.431 418.021ZM778.431 380.135C790.196 380.135 798.212 343.196 798.212 288.261C798.212 233.326 790.326 196.388 778.431 196.388C766.537 196.388 758.65 233.326 758.65 288.261C758.65 343.669 766.537 380.135 778.431 380.135Z" fill="var(--fill-0, black)"/>
<path d="M824.924 410.917V373.978H840.956V202.544H826.217V165.605H851.816V210.121C854.919 183.601 863.581 162.29 873.019 162.29C877.802 162.29 883.103 165.132 886.982 172.709V215.331C882.974 207.753 877.544 204.912 872.76 204.912C860.737 204.912 852.204 240.904 852.204 292.05V373.978H875.346V410.917H824.924Z" fill="var(--fill-0, black)"/>
<path d="M901.67 410.917V165.605H912.53V185.022C914.599 168.447 918.865 158.502 924.295 158.502C929.725 158.502 934.25 170.815 936.319 189.284C938.646 171.288 943.818 158.502 949.377 158.502C958.815 158.502 965.279 184.075 965.279 221.961V410.917H954.031V228.117C954.031 209.648 951.058 197.335 946.791 197.335C942.525 197.335 939.163 211.068 939.163 228.117V410.917H927.915V228.117C927.915 209.648 924.812 197.335 920.287 197.335C916.15 197.335 912.918 210.595 912.918 228.117V410.917H901.67Z" fill="var(--fill-0, black)"/>
<path d="M1003.63 418.021C990.44 418.021 981.519 389.606 981.519 346.984C981.519 298.68 992.379 266.95 1011 258.899L1026.77 252.269V250.375C1026.77 214.857 1020.69 194.493 1010.74 194.493C1001.56 194.493 994.06 213.91 993.284 239.956H982.424C983.458 191.652 995.094 158.502 1011 158.502C1027.16 158.502 1037.63 194.493 1037.63 251.796V337.987C1037.63 357.877 1037.76 379.188 1038.15 410.917H1027.29V367.348C1022.12 400.498 1013.97 418.021 1003.63 418.021ZM992.508 344.617C992.508 366.875 997.55 382.029 1005.18 382.029C1017.72 382.029 1026.77 346.037 1026.77 293.944V285.42L1011.13 292.997C999.102 298.68 992.508 316.676 992.508 344.617Z" fill="var(--fill-0, black)"/>
<path d="M1057.49 202.544V165.605H1080.37V94.5689L1091.62 73.258V165.605H1119.55V202.544H1091.62V317.149C1091.62 355.509 1097.7 378.24 1107.91 378.24C1112.44 378.24 1116.83 374.925 1120.84 369.243V406.181C1117.09 412.338 1111.79 416.126 1106.88 416.126C1090.2 416.126 1080.37 379.188 1080.37 318.096V202.544H1057.49Z" fill="var(--fill-0, black)"/>
<path d="M1166.94 418.021C1149.88 418.021 1137.47 383.45 1137.08 332.304H1148.2C1148.97 363.56 1156.47 382.503 1167.46 382.503C1176.64 382.503 1183.62 367.822 1183.62 345.09C1183.62 328.515 1179.87 316.202 1174.18 311.466L1156.73 298.68C1145.87 290.629 1139.92 266.003 1139.92 233.326C1139.92 186.442 1150.53 158.502 1166.17 158.502C1181.55 158.502 1193.06 191.178 1193.58 238.062H1182.59C1181.94 212.489 1174.96 194.02 1165.91 194.02C1156.99 194.02 1151.3 209.648 1151.3 229.538C1151.3 246.113 1154.4 256.058 1159.83 260.794L1177.8 274.054C1188.66 282.578 1195 306.257 1195 342.249C1195 388.185 1183.88 418.021 1166.94 418.021Z" fill="var(--fill-0, black)"/>
<path d="M51 410.917V69.943H83.3218C101.551 69.943 113.058 107.829 113.058 167.5C113.058 227.17 101.551 264.582 83.3218 264.582H62.3773V410.917H51ZM83.3218 109.25H62.3773V225.276H83.3218C94.5697 225.276 101.422 203.491 101.422 167.973C101.422 131.034 94.699 109.25 83.3218 109.25Z" stroke="var(--stroke-0, #FF3A79)" stroke-width="102" stroke-linejoin="round" mask="url(#path-1-outside-1_0_5)"/>
<path d="M127.229 410.917V373.978H143.26V202.544H128.522V165.605H154.121V210.121C157.223 183.601 165.886 162.29 175.324 162.29C180.107 162.29 185.408 165.132 189.287 172.709V215.331C185.279 207.753 179.849 204.912 175.065 204.912C163.041 204.912 154.508 240.904 154.508 292.05V373.978H177.651V410.917H127.229Z" stroke="var(--stroke-0, #FF3A79)" stroke-width="102" stroke-linejoin="round" mask="url(#path-1-outside-1_0_5)"/>
<path d="M235.779 418.021C217.291 418.021 204.751 365.454 204.751 288.261C204.751 211.542 217.421 158.502 235.779 158.502C254.267 158.502 266.808 211.068 266.808 288.261C266.808 365.454 254.267 418.021 235.779 418.021ZM235.779 380.135C247.545 380.135 255.56 343.196 255.56 288.261C255.56 233.326 247.674 196.388 235.779 196.388C223.885 196.388 215.998 233.326 215.998 288.261C215.998 343.669 223.885 380.135 235.779 380.135Z" stroke="var(--stroke-0, #FF3A79)" stroke-width="102" stroke-linejoin="round" mask="url(#path-1-outside-1_0_5)"/>
<path d="M325.842 121.563C320.412 121.563 316.275 105.935 316.275 86.5181C316.275 66.628 320.412 51 325.842 51C331.272 51 335.538 66.628 335.538 86.5181C335.538 105.935 331.272 121.563 325.842 121.563ZM320.153 202.544H287.444V165.605H331.401V398.131C331.401 466.325 320.153 508 301.665 508C295.718 508 289.383 503.264 284.858 495.213V457.801C289.9 465.852 295.33 470.114 300.76 470.114C312.784 470.114 320.153 442.647 320.153 397.183V202.544Z" stroke="var(--stroke-0, #FF3A79)" stroke-width="102" stroke-linejoin="round" mask="url(#path-1-outside-1_0_5)"/>
<path d="M391.857 418.021C373.24 418.021 360.311 364.507 360.311 288.261C360.311 212.963 373.498 158.502 391.857 158.502C410.992 158.502 423.532 218.646 421.076 298.206H371.3C372.205 348.879 379.833 380.135 391.728 380.135C400.649 380.135 407.242 364.033 409.182 336.566H420.559C417.844 385.818 406.466 418.021 391.857 418.021ZM391.728 196.388C381.126 196.388 373.757 222.434 371.688 264.109H409.699C409.052 222.908 402.329 196.388 391.728 196.388Z" stroke="var(--stroke-0, #FF3A79)" stroke-width="102" stroke-linejoin="round" mask="url(#path-1-outside-1_0_5)"/>
<path d="M469.767 418.021C450.503 418.021 437.316 365.454 437.316 288.261C437.316 212.489 450.761 158.502 469.767 158.502C485.928 158.502 497.563 192.125 499.373 243.745H488.125C486.057 214.383 479.334 197.335 469.767 197.335C457.484 197.335 448.564 235.221 448.564 288.261C448.564 341.775 457.484 379.188 469.767 379.188C479.334 379.188 486.186 360.718 488.125 329.936H499.373C497.563 383.923 486.057 418.021 469.767 418.021Z" stroke="var(--stroke-0, #FF3A79)" stroke-width="102" stroke-linejoin="round" mask="url(#path-1-outside-1_0_5)"/>
<path d="M514.837 202.544V165.605H537.721V94.5689L548.969 73.258V165.605H576.895V202.544H548.969V317.149C548.969 355.509 555.046 378.24 565.259 378.24C569.784 378.24 574.18 374.925 578.188 369.243V406.181C574.439 412.338 569.138 416.126 564.225 416.126C547.547 416.126 537.721 379.188 537.721 318.096V202.544H514.837Z" stroke="var(--stroke-0, #FF3A79)" stroke-width="102" stroke-linejoin="round" mask="url(#path-1-outside-1_0_5)"/>
<path d="M672.466 410.917V69.943H733.231V109.25H683.844V225.276H724.698V264.582H683.844V410.917H672.466Z" stroke="var(--stroke-0, #FF3A79)" stroke-width="102" stroke-linejoin="round" mask="url(#path-1-outside-1_0_5)"/>
<path d="M778.431 418.021C759.943 418.021 747.402 365.454 747.402 288.261C747.402 211.542 760.072 158.502 778.431 158.502C796.919 158.502 809.46 211.068 809.46 288.261C809.46 365.454 796.919 418.021 778.431 418.021ZM778.431 380.135C790.196 380.135 798.212 343.196 798.212 288.261C798.212 233.326 790.326 196.388 778.431 196.388C766.537 196.388 758.65 233.326 758.65 288.261C758.65 343.669 766.537 380.135 778.431 380.135Z" stroke="var(--stroke-0, #FF3A79)" stroke-width="102" stroke-linejoin="round" mask="url(#path-1-outside-1_0_5)"/>
<path d="M824.924 410.917V373.978H840.956V202.544H826.217V165.605H851.816V210.121C854.919 183.601 863.581 162.29 873.019 162.29C877.802 162.29 883.103 165.132 886.982 172.709V215.331C882.974 207.753 877.544 204.912 872.76 204.912C860.737 204.912 852.204 240.904 852.204 292.05V373.978H875.346V410.917H824.924Z" stroke="var(--stroke-0, #FF3A79)" stroke-width="102" stroke-linejoin="round" mask="url(#path-1-outside-1_0_5)"/>
<path d="M901.67 410.917V165.605H912.53V185.022C914.599 168.447 918.865 158.502 924.295 158.502C929.725 158.502 934.25 170.815 936.319 189.284C938.646 171.288 943.818 158.502 949.377 158.502C958.815 158.502 965.279 184.075 965.279 221.961V410.917H954.031V228.117C954.031 209.648 951.058 197.335 946.791 197.335C942.525 197.335 939.163 211.068 939.163 228.117V410.917H927.915V228.117C927.915 209.648 924.812 197.335 920.287 197.335C916.15 197.335 912.918 210.595 912.918 228.117V410.917H901.67Z" stroke="var(--stroke-0, #FF3A79)" stroke-width="102" stroke-linejoin="round" mask="url(#path-1-outside-1_0_5)"/>
<path d="M1003.63 418.021C990.44 418.021 981.519 389.606 981.519 346.984C981.519 298.68 992.379 266.95 1011 258.899L1026.77 252.269V250.375C1026.77 214.857 1020.69 194.493 1010.74 194.493C1001.56 194.493 994.06 213.91 993.284 239.956H982.424C983.458 191.652 995.094 158.502 1011 158.502C1027.16 158.502 1037.63 194.493 1037.63 251.796V337.987C1037.63 357.877 1037.76 379.188 1038.15 410.917H1027.29V367.348C1022.12 400.498 1013.97 418.021 1003.63 418.021ZM992.508 344.617C992.508 366.875 997.55 382.029 1005.18 382.029C1017.72 382.029 1026.77 346.037 1026.77 293.944V285.42L1011.13 292.997C999.102 298.68 992.508 316.676 992.508 344.617Z" stroke="var(--stroke-0, #FF3A79)" stroke-width="102" stroke-linejoin="round" mask="url(#path-1-outside-1_0_5)"/>
<path d="M1057.49 202.544V165.605H1080.37V94.5689L1091.62 73.258V165.605H1119.55V202.544H1091.62V317.149C1091.62 355.509 1097.7 378.24 1107.91 378.24C1112.44 378.24 1116.83 374.925 1120.84 369.243V406.181C1117.09 412.338 1111.79 416.126 1106.88 416.126C1090.2 416.126 1080.37 379.188 1080.37 318.096V202.544H1057.49Z" stroke="var(--stroke-0, #FF3A79)" stroke-width="102" stroke-linejoin="round" mask="url(#path-1-outside-1_0_5)"/>
<path d="M1166.94 418.021C1149.88 418.021 1137.47 383.45 1137.08 332.304H1148.2C1148.97 363.56 1156.47 382.503 1167.46 382.503C1176.64 382.503 1183.62 367.822 1183.62 345.09C1183.62 328.515 1179.87 316.202 1174.18 311.466L1156.73 298.68C1145.87 290.629 1139.92 266.003 1139.92 233.326C1139.92 186.442 1150.53 158.502 1166.17 158.502C1181.55 158.502 1193.06 191.178 1193.58 238.062H1182.59C1181.94 212.489 1174.96 194.02 1165.91 194.02C1156.99 194.02 1151.3 209.648 1151.3 229.538C1151.3 246.113 1154.4 256.058 1159.83 260.794L1177.8 274.054C1188.66 282.578 1195 306.257 1195 342.249C1195 388.185 1183.88 418.021 1166.94 418.021Z" stroke="var(--stroke-0, #FF3A79)" stroke-width="102" stroke-linejoin="round" mask="url(#path-1-outside-1_0_5)"/>
</g>
</svg>
