<svg preserveAspectRatio="none" width="100%" height="100%" overflow="visible" style="display: block;" viewBox="0 0 1246.12 558.524" fill="none" xmlns="http://www.w3.org/2000/svg">
<g id="Project Formats">
<mask id="path-1-outside-1_0_5" maskUnits="userSpaceOnUse" x="0" y="0" width="1247" height="559" fill="black">
<rect fill="white" width="1247" height="559"/>
<path d="M51 410.542V69.9233H83.3253C101.557 69.9233 113.065 107.77 113.065 167.378C113.065 226.987 101.557 264.36 83.3253 264.36H62.3785V410.542H51ZM83.3253 109.189H62.3785V225.094H83.3253C94.5745 225.094 101.427 203.332 101.427 167.851C101.427 130.951 94.7038 109.189 83.3253 109.189Z"/>
<path d="M127.237 410.542V373.642H143.27V202.386H128.53V165.486H154.132V209.956C157.235 183.463 165.898 162.174 175.337 162.174C180.121 162.174 185.423 165.013 189.302 172.582V215.16C185.293 207.59 179.863 204.752 175.079 204.752C163.054 204.752 154.52 240.706 154.52 291.799V373.642H177.665V410.542H127.237Z"/>
<path d="M235.8 417.639C217.309 417.639 204.767 365.127 204.767 288.014C204.767 211.375 217.439 158.39 235.8 158.39C254.29 158.39 266.832 210.902 266.832 288.014C266.832 365.127 254.29 417.639 235.8 417.639ZM235.8 379.792C247.566 379.792 255.583 342.892 255.583 288.014C255.583 233.137 247.695 196.236 235.8 196.236C223.904 196.236 216.016 233.137 216.016 288.014C216.016 343.365 223.904 379.792 235.8 379.792Z"/>
<path d="M325.872 121.489C320.441 121.489 316.304 105.878 316.304 86.4812C316.304 66.6117 320.441 51 325.872 51C331.303 51 335.569 66.6117 335.569 86.4812C335.569 105.878 331.303 121.489 325.872 121.489ZM320.183 202.386H287.469V165.486H331.432V397.769C331.432 465.893 320.183 507.524 301.693 507.524C295.745 507.524 289.409 502.793 284.883 494.751V457.378C289.926 465.42 295.357 469.678 300.787 469.678C312.812 469.678 320.183 442.239 320.183 396.823V202.386Z"/>
<path d="M391.894 417.639C373.275 417.639 360.345 364.18 360.345 288.014C360.345 212.794 373.533 158.39 391.894 158.39C411.031 158.39 423.573 218.471 421.116 297.949H371.335C372.24 348.569 379.869 379.792 391.765 379.792C400.687 379.792 407.281 363.707 409.221 336.269H420.599C417.884 385.469 406.505 417.639 391.894 417.639ZM391.765 196.236C381.162 196.236 373.792 222.256 371.723 263.887H409.738C409.091 222.729 402.368 196.236 391.765 196.236Z"/>
<path d="M469.812 417.639C450.546 417.639 437.358 365.127 437.358 288.014C437.358 212.321 450.805 158.39 469.812 158.39C485.975 158.39 497.612 191.978 499.422 243.544H488.173C486.104 214.213 479.381 197.182 469.812 197.182C457.529 197.182 448.607 235.029 448.607 288.014C448.607 341.472 457.529 378.846 469.812 378.846C479.381 378.846 486.234 360.396 488.173 329.645H499.422C497.612 383.577 486.104 417.639 469.812 417.639Z"/>
<path d="M514.888 202.386V165.486H537.774V94.5236L549.023 73.2349V165.486H576.952V202.386H549.023V316.872C549.023 355.192 555.101 377.9 565.315 377.9C569.841 377.9 574.237 374.588 578.245 368.911V405.812C574.496 411.962 569.194 415.746 564.281 415.746C547.601 415.746 537.774 378.846 537.774 317.818V202.386H514.888Z"/>
<path d="M672.534 410.542V69.9233H733.306V109.189H683.913V225.094H724.772V264.36H683.913V410.542H672.534Z"/>
<path d="M778.511 417.639C760.021 417.639 747.478 365.127 747.478 288.014C747.478 211.375 760.15 158.39 778.511 158.39C797.001 158.39 809.543 210.902 809.543 288.014C809.543 365.127 797.001 417.639 778.511 417.639ZM778.511 379.792C790.277 379.792 798.294 342.892 798.294 288.014C798.294 233.137 790.406 196.236 778.511 196.236C766.615 196.236 758.728 233.137 758.728 288.014C758.728 343.365 766.615 379.792 778.511 379.792Z"/>
<path d="M825.008 410.542V373.642H841.042V202.386H826.301V165.486H851.903V209.956C855.006 183.463 863.669 162.174 873.108 162.174C877.893 162.174 883.194 165.013 887.073 172.582V215.16C883.065 207.59 877.634 204.752 872.85 204.752C860.825 204.752 852.291 240.706 852.291 291.799V373.642H875.436V410.542H825.008Z"/>
<path d="M901.763 410.542V165.486H912.624V184.882C914.693 168.324 918.96 158.39 924.39 158.39C929.821 158.39 934.347 170.69 936.415 189.14C938.743 171.163 943.915 158.39 949.475 158.39C958.914 158.39 965.379 183.936 965.379 221.783V410.542H954.13V227.933C954.13 209.483 951.156 197.182 946.889 197.182C942.622 197.182 939.26 210.902 939.26 227.933V410.542H928.011V227.933C928.011 209.483 924.908 197.182 920.382 197.182C916.245 197.182 913.012 210.429 913.012 227.933V410.542H901.763Z"/>
<path d="M1003.73 417.639C990.542 417.639 981.62 389.254 981.62 346.676C981.62 298.422 992.482 266.725 1011.1 258.683L1026.88 252.06V250.168C1026.88 214.686 1020.8 194.344 1010.84 194.344C1001.66 194.344 994.163 213.74 993.387 239.76H982.525C983.56 191.505 995.197 158.39 1011.1 158.39C1027.26 158.39 1037.74 194.344 1037.74 251.587V337.688C1037.74 357.557 1037.87 378.846 1038.25 410.542H1027.39V367.019C1022.22 400.135 1014.07 417.639 1003.73 417.639ZM992.611 344.311C992.611 366.546 997.654 381.684 1005.28 381.684C1017.82 381.684 1026.88 345.73 1026.88 293.691V285.176L1011.23 292.745C999.205 298.422 992.611 316.399 992.611 344.311Z"/>
<path d="M1057.6 202.386V165.486H1080.49V94.5236L1091.73 73.2349V165.486H1119.66V202.386H1091.73V316.872C1091.73 355.192 1097.81 377.9 1108.03 377.9C1112.55 377.9 1116.95 374.588 1120.96 368.911V405.812C1117.21 411.962 1111.91 415.746 1106.99 415.746C1090.31 415.746 1080.49 378.846 1080.49 317.818V202.386H1057.6Z"/>
<path d="M1167.07 417.639C1150 417.639 1137.59 383.104 1137.2 332.011H1148.32C1149.09 363.234 1156.59 382.158 1167.58 382.158C1176.76 382.158 1183.75 367.492 1183.75 344.784C1183.75 328.226 1180 315.926 1174.31 311.195L1156.85 298.422C1145.99 290.38 1140.04 265.779 1140.04 233.137C1140.04 186.301 1150.65 158.39 1166.29 158.39C1181.68 158.39 1193.19 191.032 1193.7 237.867H1182.71C1182.07 212.321 1175.08 193.871 1166.03 193.871C1157.11 193.871 1151.42 209.483 1151.42 229.352C1151.42 245.91 1154.52 255.845 1159.95 260.575L1177.93 273.822C1188.79 282.337 1195.12 305.991 1195.12 341.946C1195.12 387.834 1184 417.639 1167.07 417.639Z"/>
</mask>
<path d="M51 410.542V69.9233H83.3253C101.557 69.9233 113.065 107.77 113.065 167.378C113.065 226.987 101.557 264.36 83.3253 264.36H62.3785V410.542H51ZM83.3253 109.189H62.3785V225.094H83.3253C94.5745 225.094 101.427 203.332 101.427 167.851C101.427 130.951 94.7038 109.189 83.3253 109.189Z" fill="var(--fill-0, black)"/>
<path d="M127.237 410.542V373.642H143.27V202.386H128.53V165.486H154.132V209.956C157.235 183.463 165.898 162.174 175.337 162.174C180.121 162.174 185.423 165.013 189.302 172.582V215.16C185.293 207.59 179.863 204.752 175.079 204.752C163.054 204.752 154.52 240.706 154.52 291.799V373.642H177.665V410.542H127.237Z" fill="var(--fill-0, black)"/>
<path d="M235.8 417.639C217.309 417.639 204.767 365.127 204.767 288.014C204.767 211.375 217.439 158.39 235.8 158.39C254.29 158.39 266.832 210.902 266.832 288.014C266.832 365.127 254.29 417.639 235.8 417.639ZM235.8 379.792C247.566 379.792 255.583 342.892 255.583 288.014C255.583 233.137 247.695 196.236 235.8 196.236C223.904 196.236 216.016 233.137 216.016 288.014C216.016 343.365 223.904 379.792 235.8 379.792Z" fill="var(--fill-0, black)"/>
<path d="M325.872 121.489C320.441 121.489 316.304 105.878 316.304 86.4812C316.304 66.6117 320.441 51 325.872 51C331.303 51 335.569 66.6117 335.569 86.4812C335.569 105.878 331.303 121.489 325.872 121.489ZM320.183 202.386H287.469V165.486H331.432V397.769C331.432 465.893 320.183 507.524 301.693 507.524C295.745 507.524 289.409 502.793 284.883 494.751V457.378C289.926 465.42 295.357 469.678 300.787 469.678C312.812 469.678 320.183 442.239 320.183 396.823V202.386Z" fill="var(--fill-0, black)"/>
<path d="M391.894 417.639C373.275 417.639 360.345 364.18 360.345 288.014C360.345 212.794 373.533 158.39 391.894 158.39C411.031 158.39 423.573 218.471 421.116 297.949H371.335C372.24 348.569 379.869 379.792 391.765 379.792C400.687 379.792 407.281 363.707 409.221 336.269H420.599C417.884 385.469 406.505 417.639 391.894 417.639ZM391.765 196.236C381.162 196.236 373.792 222.256 371.723 263.887H409.738C409.091 222.729 402.368 196.236 391.765 196.236Z" fill="var(--fill-0, black)"/>
<path d="M469.812 417.639C450.546 417.639 437.358 365.127 437.358 288.014C437.358 212.321 450.805 158.39 469.812 158.39C485.975 158.39 497.612 191.978 499.422 243.544H488.173C486.104 214.213 479.381 197.182 469.812 197.182C457.529 197.182 448.607 235.029 448.607 288.014C448.607 341.472 457.529 378.846 469.812 378.846C479.381 378.846 486.234 360.396 488.173 329.645H499.422C497.612 383.577 486.104 417.639 469.812 417.639Z" fill="var(--fill-0, black)"/>
<path d="M514.888 202.386V165.486H537.774V94.5236L549.023 73.2349V165.486H576.952V202.386H549.023V316.872C549.023 355.192 555.101 377.9 565.315 377.9C569.841 377.9 574.237 374.588 578.245 368.911V405.812C574.496 411.962 569.194 415.746 564.281 415.746C547.601 415.746 537.774 378.846 537.774 317.818V202.386H514.888Z" fill="var(--fill-0, black)"/>
<path d="M672.534 410.542V69.9233H733.306V109.189H683.913V225.094H724.772V264.36H683.913V410.542H672.534Z" fill="var(--fill-0, black)"/>
<path d="M778.511 417.639C760.021 417.639 747.478 365.127 747.478 288.014C747.478 211.375 760.15 158.39 778.511 158.39C797.001 158.39 809.543 210.902 809.543 288.014C809.543 365.127 797.001 417.639 778.511 417.639ZM778.511 379.792C790.277 379.792 798.294 342.892 798.294 288.014C798.294 233.137 790.406 196.236 778.511 196.236C766.615 196.236 758.728 233.137 758.728 288.014C758.728 343.365 766.615 379.792 778.511 379.792Z" fill="var(--fill-0, black)"/>
<path d="M825.008 410.542V373.642H841.042V202.386H826.301V165.486H851.903V209.956C855.006 183.463 863.669 162.174 873.108 162.174C877.893 162.174 883.194 165.013 887.073 172.582V215.16C883.065 207.59 877.634 204.752 872.85 204.752C860.825 204.752 852.291 240.706 852.291 291.799V373.642H875.436V410.542H825.008Z" fill="var(--fill-0, black)"/>
<path d="M901.763 410.542V165.486H912.624V184.882C914.693 168.324 918.96 158.39 924.39 158.39C929.821 158.39 934.347 170.69 936.415 189.14C938.743 171.163 943.915 158.39 949.475 158.39C958.914 158.39 965.379 183.936 965.379 221.783V410.542H954.13V227.933C954.13 209.483 951.156 197.182 946.889 197.182C942.622 197.182 939.26 210.902 939.26 227.933V410.542H928.011V227.933C928.011 209.483 924.908 197.182 920.382 197.182C916.245 197.182 913.012 210.429 913.012 227.933V410.542H901.763Z" fill="var(--fill-0, black)"/>
<path d="M1003.73 417.639C990.542 417.639 981.62 389.254 981.62 346.676C981.62 298.422 992.482 266.725 1011.1 258.683L1026.88 252.06V250.168C1026.88 214.686 1020.8 194.344 1010.84 194.344C1001.66 194.344 994.163 213.74 993.387 239.76H982.525C983.56 191.505 995.197 158.39 1011.1 158.39C1027.26 158.39 1037.74 194.344 1037.74 251.587V337.688C1037.74 357.557 1037.87 378.846 1038.25 410.542H1027.39V367.019C1022.22 400.135 1014.07 417.639 1003.73 417.639ZM992.611 344.311C992.611 366.546 997.654 381.684 1005.28 381.684C1017.82 381.684 1026.88 345.73 1026.88 293.691V285.176L1011.23 292.745C999.205 298.422 992.611 316.399 992.611 344.311Z" fill="var(--fill-0, black)"/>
<path d="M1057.6 202.386V165.486H1080.49V94.5236L1091.73 73.2349V165.486H1119.66V202.386H1091.73V316.872C1091.73 355.192 1097.81 377.9 1108.03 377.9C1112.55 377.9 1116.95 374.588 1120.96 368.911V405.812C1117.21 411.962 1111.91 415.746 1106.99 415.746C1090.31 415.746 1080.49 378.846 1080.49 317.818V202.386H1057.6Z" fill="var(--fill-0, black)"/>
<path d="M1167.07 417.639C1150 417.639 1137.59 383.104 1137.2 332.011H1148.32C1149.09 363.234 1156.59 382.158 1167.58 382.158C1176.76 382.158 1183.75 367.492 1183.75 344.784C1183.75 328.226 1180 315.926 1174.31 311.195L1156.85 298.422C1145.99 290.38 1140.04 265.779 1140.04 233.137C1140.04 186.301 1150.65 158.39 1166.29 158.39C1181.68 158.39 1193.19 191.032 1193.7 237.867H1182.71C1182.07 212.321 1175.08 193.871 1166.03 193.871C1157.11 193.871 1151.42 209.483 1151.42 229.352C1151.42 245.91 1154.52 255.845 1159.95 260.575L1177.93 273.822C1188.79 282.337 1195.12 305.991 1195.12 341.946C1195.12 387.834 1184 417.639 1167.07 417.639Z" fill="var(--fill-0, black)"/>
<path d="M51 410.542V69.9233H83.3253C101.557 69.9233 113.065 107.77 113.065 167.378C113.065 226.987 101.557 264.36 83.3253 264.36H62.3785V410.542H51ZM83.3253 109.189H62.3785V225.094H83.3253C94.5745 225.094 101.427 203.332 101.427 167.851C101.427 130.951 94.7038 109.189 83.3253 109.189Z" stroke="var(--stroke-0, #FF3A79)" stroke-width="102" stroke-linejoin="round" mask="url(#path-1-outside-1_0_5)"/>
<path d="M127.237 410.542V373.642H143.27V202.386H128.53V165.486H154.132V209.956C157.235 183.463 165.898 162.174 175.337 162.174C180.121 162.174 185.423 165.013 189.302 172.582V215.16C185.293 207.59 179.863 204.752 175.079 204.752C163.054 204.752 154.52 240.706 154.52 291.799V373.642H177.665V410.542H127.237Z" stroke="var(--stroke-0, #FF3A79)" stroke-width="102" stroke-linejoin="round" mask="url(#path-1-outside-1_0_5)"/>
<path d="M235.8 417.639C217.309 417.639 204.767 365.127 204.767 288.014C204.767 211.375 217.439 158.39 235.8 158.39C254.29 158.39 266.832 210.902 266.832 288.014C266.832 365.127 254.29 417.639 235.8 417.639ZM235.8 379.792C247.566 379.792 255.583 342.892 255.583 288.014C255.583 233.137 247.695 196.236 235.8 196.236C223.904 196.236 216.016 233.137 216.016 288.014C216.016 343.365 223.904 379.792 235.8 379.792Z" stroke="var(--stroke-0, #FF3A79)" stroke-width="102" stroke-linejoin="round" mask="url(#path-1-outside-1_0_5)"/>
<path d="M325.872 121.489C320.441 121.489 316.304 105.878 316.304 86.4812C316.304 66.6117 320.441 51 325.872 51C331.303 51 335.569 66.6117 335.569 86.4812C335.569 105.878 331.303 121.489 325.872 121.489ZM320.183 202.386H287.469V165.486H331.432V397.769C331.432 465.893 320.183 507.524 301.693 507.524C295.745 507.524 289.409 502.793 284.883 494.751V457.378C289.926 465.42 295.357 469.678 300.787 469.678C312.812 469.678 320.183 442.239 320.183 396.823V202.386Z" stroke="var(--stroke-0, #FF3A79)" stroke-width="102" stroke-linejoin="round" mask="url(#path-1-outside-1_0_5)"/>
<path d="M391.894 417.639C373.275 417.639 360.345 364.18 360.345 288.014C360.345 212.794 373.533 158.39 391.894 158.39C411.031 158.39 423.573 218.471 421.116 297.949H371.335C372.24 348.569 379.869 379.792 391.765 379.792C400.687 379.792 407.281 363.707 409.221 336.269H420.599C417.884 385.469 406.505 417.639 391.894 417.639ZM391.765 196.236C381.162 196.236 373.792 222.256 371.723 263.887H409.738C409.091 222.729 402.368 196.236 391.765 196.236Z" stroke="var(--stroke-0, #FF3A79)" stroke-width="102" stroke-linejoin="round" mask="url(#path-1-outside-1_0_5)"/>
<path d="M469.812 417.639C450.546 417.639 437.358 365.127 437.358 288.014C437.358 212.321 450.805 158.39 469.812 158.39C485.975 158.39 497.612 191.978 499.422 243.544H488.173C486.104 214.213 479.381 197.182 469.812 197.182C457.529 197.182 448.607 235.029 448.607 288.014C448.607 341.472 457.529 378.846 469.812 378.846C479.381 378.846 486.234 360.396 488.173 329.645H499.422C497.612 383.577 486.104 417.639 469.812 417.639Z" stroke="var(--stroke-0, #FF3A79)" stroke-width="102" stroke-linejoin="round" mask="url(#path-1-outside-1_0_5)"/>
<path d="M514.888 202.386V165.486H537.774V94.5236L549.023 73.2349V165.486H576.952V202.386H549.023V316.872C549.023 355.192 555.101 377.9 565.315 377.9C569.841 377.9 574.237 374.588 578.245 368.911V405.812C574.496 411.962 569.194 415.746 564.281 415.746C547.601 415.746 537.774 378.846 537.774 317.818V202.386H514.888Z" stroke="var(--stroke-0, #FF3A79)" stroke-width="102" stroke-linejoin="round" mask="url(#path-1-outside-1_0_5)"/>
<path d="M672.534 410.542V69.9233H733.306V109.189H683.913V225.094H724.772V264.36H683.913V410.542H672.534Z" stroke="var(--stroke-0, #FF3A79)" stroke-width="102" stroke-linejoin="round" mask="url(#path-1-outside-1_0_5)"/>
<path d="M778.511 417.639C760.021 417.639 747.478 365.127 747.478 288.014C747.478 211.375 760.15 158.39 778.511 158.39C797.001 158.39 809.543 210.902 809.543 288.014C809.543 365.127 797.001 417.639 778.511 417.639ZM778.511 379.792C790.277 379.792 798.294 342.892 798.294 288.014C798.294 233.137 790.406 196.236 778.511 196.236C766.615 196.236 758.728 233.137 758.728 288.014C758.728 343.365 766.615 379.792 778.511 379.792Z" stroke="var(--stroke-0, #FF3A79)" stroke-width="102" stroke-linejoin="round" mask="url(#path-1-outside-1_0_5)"/>
<path d="M825.008 410.542V373.642H841.042V202.386H826.301V165.486H851.903V209.956C855.006 183.463 863.669 162.174 873.108 162.174C877.893 162.174 883.194 165.013 887.073 172.582V215.16C883.065 207.59 877.634 204.752 872.85 204.752C860.825 204.752 852.291 240.706 852.291 291.799V373.642H875.436V410.542H825.008Z" stroke="var(--stroke-0, #FF3A79)" stroke-width="102" stroke-linejoin="round" mask="url(#path-1-outside-1_0_5)"/>
<path d="M901.763 410.542V165.486H912.624V184.882C914.693 168.324 918.96 158.39 924.39 158.39C929.821 158.39 934.347 170.69 936.415 189.14C938.743 171.163 943.915 158.39 949.475 158.39C958.914 158.39 965.379 183.936 965.379 221.783V410.542H954.13V227.933C954.13 209.483 951.156 197.182 946.889 197.182C942.622 197.182 939.26 210.902 939.26 227.933V410.542H928.011V227.933C928.011 209.483 924.908 197.182 920.382 197.182C916.245 197.182 913.012 210.429 913.012 227.933V410.542H901.763Z" stroke="var(--stroke-0, #FF3A79)" stroke-width="102" stroke-linejoin="round" mask="url(#path-1-outside-1_0_5)"/>
<path d="M1003.73 417.639C990.542 417.639 981.62 389.254 981.62 346.676C981.62 298.422 992.482 266.725 1011.1 258.683L1026.88 252.06V250.168C1026.88 214.686 1020.8 194.344 1010.84 194.344C1001.66 194.344 994.163 213.74 993.387 239.76H982.525C983.56 191.505 995.197 158.39 1011.1 158.39C1027.26 158.39 1037.74 194.344 1037.74 251.587V337.688C1037.74 357.557 1037.87 378.846 1038.25 410.542H1027.39V367.019C1022.22 400.135 1014.07 417.639 1003.73 417.639ZM992.611 344.311C992.611 366.546 997.654 381.684 1005.28 381.684C1017.82 381.684 1026.88 345.73 1026.88 293.691V285.176L1011.23 292.745C999.205 298.422 992.611 316.399 992.611 344.311Z" stroke="var(--stroke-0, #FF3A79)" stroke-width="102" stroke-linejoin="round" mask="url(#path-1-outside-1_0_5)"/>
<path d="M1057.6 202.386V165.486H1080.49V94.5236L1091.73 73.2349V165.486H1119.66V202.386H1091.73V316.872C1091.73 355.192 1097.81 377.9 1108.03 377.9C1112.55 377.9 1116.95 374.588 1120.96 368.911V405.812C1117.21 411.962 1111.91 415.746 1106.99 415.746C1090.31 415.746 1080.49 378.846 1080.49 317.818V202.386H1057.6Z" stroke="var(--stroke-0, #FF3A79)" stroke-width="102" stroke-linejoin="round" mask="url(#path-1-outside-1_0_5)"/>
<path d="M1167.07 417.639C1150 417.639 1137.59 383.104 1137.2 332.011H1148.32C1149.09 363.234 1156.59 382.158 1167.58 382.158C1176.76 382.158 1183.75 367.492 1183.75 344.784C1183.75 328.226 1180 315.926 1174.31 311.195L1156.85 298.422C1145.99 290.38 1140.04 265.779 1140.04 233.137C1140.04 186.301 1150.65 158.39 1166.29 158.39C1181.68 158.39 1193.19 191.032 1193.7 237.867H1182.71C1182.07 212.321 1175.08 193.871 1166.03 193.871C1157.11 193.871 1151.42 209.483 1151.42 229.352C1151.42 245.91 1154.52 255.845 1159.95 260.575L1177.93 273.822C1188.79 282.337 1195.12 305.991 1195.12 341.946C1195.12 387.834 1184 417.639 1167.07 417.639Z" stroke="var(--stroke-0, #FF3A79)" stroke-width="102" stroke-linejoin="round" mask="url(#path-1-outside-1_0_5)"/>
</g>
</svg>
