<svg preserveAspectRatio="none" width="414" height="172" viewBox="0 0 414 172" fill="none" xmlns="http://www.w3.org/2000/svg">
<mask id="path-1-outside-1_225_147" maskUnits="userSpaceOnUse" x="-0.111328" y="-0.111328" width="414" height="172" fill="black">
<rect fill="white" x="-0.111328" y="-0.111328" width="414" height="172"/>
<path d="M35.8887 133.953V41.05H50.5128C58.7609 41.05 63.9671 51.3725 63.9671 67.6306C63.9671 83.8887 58.7609 94.0822 50.5128 94.0822H41.0364V133.953H35.8887ZM50.5128 51.7596H41.0364V83.3725H50.5128C55.6021 83.3725 58.7024 77.4371 58.7024 67.7596C58.7024 57.6951 55.6606 51.7596 50.5128 51.7596Z"/>
<path d="M70.3789 133.953V123.889H77.6325V77.179H70.9638V67.1145H82.5462V79.2435C83.9501 72.0177 87.8694 66.2113 92.1396 66.2113C94.304 66.2113 96.7024 66.9854 98.4573 69.05V80.6629C96.6439 78.5984 94.187 77.8242 92.0226 77.8242C86.5825 77.8242 82.7217 87.6306 82.7217 101.566V123.889H93.1926V133.953H70.3789Z"/>
<path d="M119.493 135.889C111.128 135.889 105.454 121.566 105.454 100.534C105.454 79.6306 111.187 65.179 119.493 65.179C127.858 65.179 133.532 79.5016 133.532 100.534C133.532 121.566 127.858 135.889 119.493 135.889ZM119.493 125.566C124.816 125.566 128.443 115.502 128.443 100.534C128.443 85.5661 124.875 75.5016 119.493 75.5016C114.112 75.5016 110.543 85.5661 110.543 100.534C110.543 115.631 114.112 125.566 119.493 125.566Z"/>
<path d="M153.398 135.889C146.32 135.889 140.529 123.114 140.529 100.534C140.529 77.9532 146.32 65.179 153.398 65.179C157.61 65.179 160.711 70.4693 162.348 76.6629V37.8242H167.438V133.953H162.524V123.76C160.945 129.953 157.961 135.889 153.398 135.889ZM153.983 125.05C158.663 125.05 162.348 116.405 162.348 100.534C162.348 84.6629 158.663 76.1467 153.983 76.1467C149.304 76.1467 145.677 84.5338 145.677 100.534C145.677 116.663 149.304 125.05 153.983 125.05Z"/>
<path d="M202.22 67.1145V133.953H197.307V124.921C195.552 131.114 191.808 135.889 188.24 135.889C181.396 135.889 177.067 125.824 177.067 109.824V67.1145H182.156V107.76C182.156 118.598 184.73 125.308 188.883 125.308C193.504 125.308 197.131 116.921 197.131 105.953V67.1145H202.22Z"/>
<path d="M225.362 135.889C216.646 135.889 210.68 121.566 210.68 100.534C210.68 79.8887 216.763 65.179 225.362 65.179C232.674 65.179 237.939 74.3403 238.758 88.4048H233.669C232.733 80.4048 229.691 75.7596 225.362 75.7596C219.805 75.7596 215.769 86.0822 215.769 100.534C215.769 115.114 219.805 125.308 225.362 125.308C229.691 125.308 232.791 120.276 233.669 111.889H238.758C237.939 126.598 232.733 135.889 225.362 135.889Z"/>
<path d="M245.755 77.179V67.1145H256.109V47.7596L261.198 41.9532V67.1145H273.833V77.179H261.198V108.405C261.198 118.856 263.947 125.05 268.568 125.05C270.616 125.05 272.605 124.147 274.418 122.598V132.663C272.722 134.34 270.323 135.373 268.1 135.373C260.554 135.373 256.109 125.308 256.109 108.663V77.179H245.755Z"/>
<path d="M294.869 55.1145C292.412 55.1145 290.482 50.8564 290.482 45.5661C290.482 40.1467 292.412 35.8887 294.869 35.8887C297.326 35.8887 299.256 40.1467 299.256 45.5661C299.256 50.8564 297.326 55.1145 294.869 55.1145ZM281.415 133.953V123.889H292.295V77.179H282V67.1145H297.384V123.889H308.323V133.953H281.415Z"/>
<path d="M329.944 135.889C321.579 135.889 315.905 121.566 315.905 100.534C315.905 79.6306 321.638 65.179 329.944 65.179C338.309 65.179 343.983 79.5016 343.983 100.534C343.983 121.566 338.309 135.889 329.944 135.889ZM329.944 125.566C335.267 125.566 338.894 115.502 338.894 100.534C338.894 85.5661 335.326 75.5016 329.944 75.5016C324.563 75.5016 320.994 85.5661 320.994 100.534C320.994 115.631 324.563 125.566 329.944 125.566Z"/>
<path d="M352.15 133.953V67.1145H357.064V76.1467C358.819 69.9532 362.738 65.179 366.423 65.179C373.443 65.179 377.889 75.2435 377.889 91.2435V133.953H372.799V93.308C372.799 82.5984 370.109 75.7596 365.78 75.7596C361.042 75.7596 357.239 84.2758 357.239 95.1145V133.953H352.15Z"/>
</mask>
<path d="M35.8887 133.953V41.05H50.5128C58.7609 41.05 63.9671 51.3725 63.9671 67.6306C63.9671 83.8887 58.7609 94.0822 50.5128 94.0822H41.0364V133.953H35.8887ZM50.5128 51.7596H41.0364V83.3725H50.5128C55.6021 83.3725 58.7024 77.4371 58.7024 67.7596C58.7024 57.6951 55.6606 51.7596 50.5128 51.7596Z" fill="black"/>
<path d="M70.3789 133.953V123.889H77.6325V77.179H70.9638V67.1145H82.5462V79.2435C83.9501 72.0177 87.8694 66.2113 92.1396 66.2113C94.304 66.2113 96.7024 66.9854 98.4573 69.05V80.6629C96.6439 78.5984 94.187 77.8242 92.0226 77.8242C86.5825 77.8242 82.7217 87.6306 82.7217 101.566V123.889H93.1926V133.953H70.3789Z" fill="black"/>
<path d="M119.493 135.889C111.128 135.889 105.454 121.566 105.454 100.534C105.454 79.6306 111.187 65.179 119.493 65.179C127.858 65.179 133.532 79.5016 133.532 100.534C133.532 121.566 127.858 135.889 119.493 135.889ZM119.493 125.566C124.816 125.566 128.443 115.502 128.443 100.534C128.443 85.5661 124.875 75.5016 119.493 75.5016C114.112 75.5016 110.543 85.5661 110.543 100.534C110.543 115.631 114.112 125.566 119.493 125.566Z" fill="black"/>
<path d="M153.398 135.889C146.32 135.889 140.529 123.114 140.529 100.534C140.529 77.9532 146.32 65.179 153.398 65.179C157.61 65.179 160.711 70.4693 162.348 76.6629V37.8242H167.438V133.953H162.524V123.76C160.945 129.953 157.961 135.889 153.398 135.889ZM153.983 125.05C158.663 125.05 162.348 116.405 162.348 100.534C162.348 84.6629 158.663 76.1467 153.983 76.1467C149.304 76.1467 145.677 84.5338 145.677 100.534C145.677 116.663 149.304 125.05 153.983 125.05Z" fill="black"/>
<path d="M202.22 67.1145V133.953H197.307V124.921C195.552 131.114 191.808 135.889 188.24 135.889C181.396 135.889 177.067 125.824 177.067 109.824V67.1145H182.156V107.76C182.156 118.598 184.73 125.308 188.883 125.308C193.504 125.308 197.131 116.921 197.131 105.953V67.1145H202.22Z" fill="black"/>
<path d="M225.362 135.889C216.646 135.889 210.68 121.566 210.68 100.534C210.68 79.8887 216.763 65.179 225.362 65.179C232.674 65.179 237.939 74.3403 238.758 88.4048H233.669C232.733 80.4048 229.691 75.7596 225.362 75.7596C219.805 75.7596 215.769 86.0822 215.769 100.534C215.769 115.114 219.805 125.308 225.362 125.308C229.691 125.308 232.791 120.276 233.669 111.889H238.758C237.939 126.598 232.733 135.889 225.362 135.889Z" fill="black"/>
<path d="M245.755 77.179V67.1145H256.109V47.7596L261.198 41.9532V67.1145H273.833V77.179H261.198V108.405C261.198 118.856 263.947 125.05 268.568 125.05C270.616 125.05 272.605 124.147 274.418 122.598V132.663C272.722 134.34 270.323 135.373 268.1 135.373C260.554 135.373 256.109 125.308 256.109 108.663V77.179H245.755Z" fill="black"/>
<path d="M294.869 55.1145C292.412 55.1145 290.482 50.8564 290.482 45.5661C290.482 40.1467 292.412 35.8887 294.869 35.8887C297.326 35.8887 299.256 40.1467 299.256 45.5661C299.256 50.8564 297.326 55.1145 294.869 55.1145ZM281.415 133.953V123.889H292.295V77.179H282V67.1145H297.384V123.889H308.323V133.953H281.415Z" fill="black"/>
<path d="M329.944 135.889C321.579 135.889 315.905 121.566 315.905 100.534C315.905 79.6306 321.638 65.179 329.944 65.179C338.309 65.179 343.983 79.5016 343.983 100.534C343.983 121.566 338.309 135.889 329.944 135.889ZM329.944 125.566C335.267 125.566 338.894 115.502 338.894 100.534C338.894 85.5661 335.326 75.5016 329.944 75.5016C324.563 75.5016 320.994 85.5661 320.994 100.534C320.994 115.631 324.563 125.566 329.944 125.566Z" fill="black"/>
<path d="M352.15 133.953V67.1145H357.064V76.1467C358.819 69.9532 362.738 65.179 366.423 65.179C373.443 65.179 377.889 75.2435 377.889 91.2435V133.953H372.799V93.308C372.799 82.5984 370.109 75.7596 365.78 75.7596C361.042 75.7596 357.239 84.2758 357.239 95.1145V133.953H352.15Z" fill="black"/>
<path d="M35.8887 133.953V41.05H50.5128C58.7609 41.05 63.9671 51.3725 63.9671 67.6306C63.9671 83.8887 58.7609 94.0822 50.5128 94.0822H41.0364V133.953H35.8887ZM50.5128 51.7596H41.0364V83.3725H50.5128C55.6021 83.3725 58.7024 77.4371 58.7024 67.7596C58.7024 57.6951 55.6606 51.7596 50.5128 51.7596Z" stroke="#BB00FF" stroke-width="71.7772" stroke-linejoin="round" mask="url(#path-1-outside-1_225_147)"/>
<path d="M70.3789 133.953V123.889H77.6325V77.179H70.9638V67.1145H82.5462V79.2435C83.9501 72.0177 87.8694 66.2113 92.1396 66.2113C94.304 66.2113 96.7024 66.9854 98.4573 69.05V80.6629C96.6439 78.5984 94.187 77.8242 92.0226 77.8242C86.5825 77.8242 82.7217 87.6306 82.7217 101.566V123.889H93.1926V133.953H70.3789Z" stroke="#BB00FF" stroke-width="71.7772" stroke-linejoin="round" mask="url(#path-1-outside-1_225_147)"/>
<path d="M119.493 135.889C111.128 135.889 105.454 121.566 105.454 100.534C105.454 79.6306 111.187 65.179 119.493 65.179C127.858 65.179 133.532 79.5016 133.532 100.534C133.532 121.566 127.858 135.889 119.493 135.889ZM119.493 125.566C124.816 125.566 128.443 115.502 128.443 100.534C128.443 85.5661 124.875 75.5016 119.493 75.5016C114.112 75.5016 110.543 85.5661 110.543 100.534C110.543 115.631 114.112 125.566 119.493 125.566Z" stroke="#BB00FF" stroke-width="71.7772" stroke-linejoin="round" mask="url(#path-1-outside-1_225_147)"/>
<path d="M153.398 135.889C146.32 135.889 140.529 123.114 140.529 100.534C140.529 77.9532 146.32 65.179 153.398 65.179C157.61 65.179 160.711 70.4693 162.348 76.6629V37.8242H167.438V133.953H162.524V123.76C160.945 129.953 157.961 135.889 153.398 135.889ZM153.983 125.05C158.663 125.05 162.348 116.405 162.348 100.534C162.348 84.6629 158.663 76.1467 153.983 76.1467C149.304 76.1467 145.677 84.5338 145.677 100.534C145.677 116.663 149.304 125.05 153.983 125.05Z" stroke="#BB00FF" stroke-width="71.7772" stroke-linejoin="round" mask="url(#path-1-outside-1_225_147)"/>
<path d="M202.22 67.1145V133.953H197.307V124.921C195.552 131.114 191.808 135.889 188.24 135.889C181.396 135.889 177.067 125.824 177.067 109.824V67.1145H182.156V107.76C182.156 118.598 184.73 125.308 188.883 125.308C193.504 125.308 197.131 116.921 197.131 105.953V67.1145H202.22Z" stroke="#BB00FF" stroke-width="71.7772" stroke-linejoin="round" mask="url(#path-1-outside-1_225_147)"/>
<path d="M225.362 135.889C216.646 135.889 210.68 121.566 210.68 100.534C210.68 79.8887 216.763 65.179 225.362 65.179C232.674 65.179 237.939 74.3403 238.758 88.4048H233.669C232.733 80.4048 229.691 75.7596 225.362 75.7596C219.805 75.7596 215.769 86.0822 215.769 100.534C215.769 115.114 219.805 125.308 225.362 125.308C229.691 125.308 232.791 120.276 233.669 111.889H238.758C237.939 126.598 232.733 135.889 225.362 135.889Z" stroke="#BB00FF" stroke-width="71.7772" stroke-linejoin="round" mask="url(#path-1-outside-1_225_147)"/>
<path d="M245.755 77.179V67.1145H256.109V47.7596L261.198 41.9532V67.1145H273.833V77.179H261.198V108.405C261.198 118.856 263.947 125.05 268.568 125.05C270.616 125.05 272.605 124.147 274.418 122.598V132.663C272.722 134.34 270.323 135.373 268.1 135.373C260.554 135.373 256.109 125.308 256.109 108.663V77.179H245.755Z" stroke="#BB00FF" stroke-width="71.7772" stroke-linejoin="round" mask="url(#path-1-outside-1_225_147)"/>
<path d="M294.869 55.1145C292.412 55.1145 290.482 50.8564 290.482 45.5661C290.482 40.1467 292.412 35.8887 294.869 35.8887C297.326 35.8887 299.256 40.1467 299.256 45.5661C299.256 50.8564 297.326 55.1145 294.869 55.1145ZM281.415 133.953V123.889H292.295V77.179H282V67.1145H297.384V123.889H308.323V133.953H281.415Z" stroke="#BB00FF" stroke-width="71.7772" stroke-linejoin="round" mask="url(#path-1-outside-1_225_147)"/>
<path d="M329.944 135.889C321.579 135.889 315.905 121.566 315.905 100.534C315.905 79.6306 321.638 65.179 329.944 65.179C338.309 65.179 343.983 79.5016 343.983 100.534C343.983 121.566 338.309 135.889 329.944 135.889ZM329.944 125.566C335.267 125.566 338.894 115.502 338.894 100.534C338.894 85.5661 335.326 75.5016 329.944 75.5016C324.563 75.5016 320.994 85.5661 320.994 100.534C320.994 115.631 324.563 125.566 329.944 125.566Z" stroke="#BB00FF" stroke-width="71.7772" stroke-linejoin="round" mask="url(#path-1-outside-1_225_147)"/>
<path d="M352.15 133.953V67.1145H357.064V76.1467C358.819 69.9532 362.738 65.179 366.423 65.179C373.443 65.179 377.889 75.2435 377.889 91.2435V133.953H372.799V93.308C372.799 82.5984 370.109 75.7596 365.78 75.7596C361.042 75.7596 357.239 84.2758 357.239 95.1145V133.953H352.15Z" stroke="#BB00FF" stroke-width="71.7772" stroke-linejoin="round" mask="url(#path-1-outside-1_225_147)"/>
</svg>
