<svg preserveAspectRatio="none" width="100%" height="100%" overflow="visible" style="display: block;" viewBox="0 0 240.419 169.53" fill="none" xmlns="http://www.w3.org/2000/svg">
<path id="Scale" d="M158.174 17.9442C168.084 17.9442 176.118 25.9782 176.118 35.8886V50.1708C180.051 47.2467 185.007 45.2118 191.181 45.2118L191.963 45.2245C199.984 45.471 206.167 49.481 210.217 53.8534C214.205 58.1599 216.737 63.3611 218.395 68.1298C221.742 77.7491 222.946 89.7024 222.312 102.021C222.229 103.65 221.929 105.219 221.443 106.701C222.022 108.779 222.229 110.965 222.027 113.159C221.263 121.481 219.189 129.821 215.161 136.682C211.248 143.347 203.441 151.586 191.181 151.586C185.693 151.586 181.161 149.996 177.45 147.6C174.957 148.912 172.118 149.657 169.105 149.657H142.215C140.597 149.657 139.031 149.441 137.54 149.04C136.035 149.444 134.471 149.657 132.885 149.657H127.974C127.616 149.657 127.262 149.645 126.91 149.624C124.07 150.841 120.855 151.586 117.276 151.586C110.998 151.586 105.951 149.387 102.053 146.316C97.8795 149.427 92.613 151.586 86.1991 151.586C78.8568 151.586 73.1721 148.793 68.8583 144.998C64.4475 148.771 58.6416 151.586 51.3212 151.586C37.7189 151.586 28.8171 142.711 24.2431 133.62C19.8981 124.984 18.1798 114.274 17.9482 103.279C17.8465 98.4556 19.6919 93.7939 23.0673 90.3466C23.5308 89.8732 24.0185 89.4291 24.5263 89.0136C20.4987 81.2609 19.1132 72.2998 19.1132 63.6708C19.1132 54.1452 20.9228 44.6229 24.8407 36.7958C28.3472 29.7908 36.3692 19.2304 50.328 19.2304L50.9521 19.2372C63.9878 19.5179 72.167 28.5631 76.2284 36.369C77.7758 39.3432 79.0001 42.5656 79.9443 45.9482C81.8791 45.4749 83.9616 45.2118 86.1991 45.2118L86.7724 45.2177C93.6263 45.3566 99.1556 47.9803 103.415 51.5468C107.784 47.8864 113.504 45.2118 120.608 45.2118L121.226 45.2187C122.484 45.2463 123.694 45.3586 124.855 45.5448V35.8886C124.855 25.9782 132.889 17.9442 142.8 17.9442H158.174Z" fill="black" stroke="#FFF700" stroke-width="35.8886" stroke-linejoin="round"/>
</svg>
