<svg preserveAspectRatio="none" width="241" height="170" viewBox="0 0 241 170" fill="none" xmlns="http://www.w3.org/2000/svg">
<mask id="path-1-outside-1_225_146" maskUnits="userSpaceOnUse" x="-0.111328" y="-0.111328" width="241" height="170" fill="black">
<rect fill="white" x="-0.111328" y="-0.111328" width="241" height="170"/>
<path d="M51.3545 133.889C42.0399 133.889 36.2988 122.541 35.8887 103.07H41.1025C41.3369 115.707 45.3205 123.573 51.2959 123.573C56.4512 123.573 59.7904 117.383 59.7904 107.841C59.7904 100.62 57.6815 95.3334 53.6978 92.4966L46.375 87.5966C40.1652 83.3413 37.0603 75.4755 37.0603 63.7413C37.0603 48.7834 42.86 37.1782 50.3586 37.1782C58.5016 37.1782 64.1256 48.0097 64.6528 64.6439H59.4389C59.0289 54.1992 55.5139 47.4939 50.4758 47.4939C46.0821 47.4939 42.4499 54.3281 42.4499 62.7097C42.4499 69.5439 44.3832 74.186 48.4254 76.765L55.6896 81.665C61.958 85.7913 65.18 94.8176 65.18 107.97C65.18 122.799 59.2632 133.889 51.3545 133.889Z"/>
<path d="M86.3055 133.889C77.5767 133.889 71.6013 119.576 71.6013 98.5571C71.6013 77.9255 77.6939 63.2255 86.3055 63.2255C93.6284 63.2255 98.9008 72.3808 99.721 86.436H94.6243C93.687 78.4413 90.6407 73.7992 86.3055 73.7992C80.7402 73.7992 76.698 84.115 76.698 98.5571C76.698 113.128 80.7402 123.315 86.3055 123.315C90.6407 123.315 93.7455 118.286 94.6243 109.904H99.721C98.9008 124.604 93.687 133.889 86.3055 133.889Z"/>
<path d="M117.449 133.889C111.473 133.889 107.431 126.152 107.431 114.547C107.431 101.394 112.352 92.7545 120.788 90.5624L127.935 88.7571V88.2413C127.935 78.5703 125.182 73.0255 120.671 73.0255C116.511 73.0255 113.114 78.3124 112.762 85.4045H107.841C108.31 72.2518 113.582 63.2255 120.788 63.2255C128.111 63.2255 132.856 73.0255 132.856 88.6281V112.097C132.856 117.512 132.915 123.315 133.09 131.954H128.169V120.091C125.826 129.118 122.135 133.889 117.449 133.889ZM112.411 113.902C112.411 119.962 114.695 124.089 118.152 124.089C123.834 124.089 127.935 114.289 127.935 100.104V97.7834L120.846 99.8466C115.398 101.394 112.411 106.294 112.411 113.902Z"/>
<path d="M142.441 131.954V121.897H153.337V45.9466H143.026V35.8887H158.434V121.897H169.389V131.954H142.441Z"/>
<path d="M191.51 133.889C183.074 133.889 177.216 119.318 177.216 98.5571C177.216 78.0545 183.191 63.2255 191.51 63.2255C200.18 63.2255 205.863 79.6018 204.75 101.265H182.195C182.605 115.062 186.062 123.573 191.451 123.573C195.494 123.573 198.481 119.189 199.36 111.71H204.515C203.285 125.12 198.13 133.889 191.51 133.889ZM191.451 73.5413C186.648 73.5413 183.308 80.6334 182.371 91.9808H199.594C199.302 80.7624 196.255 73.5413 191.451 73.5413Z"/>
</mask>
<path d="M51.3545 133.889C42.0399 133.889 36.2988 122.541 35.8887 103.07H41.1025C41.3369 115.707 45.3205 123.573 51.2959 123.573C56.4512 123.573 59.7904 117.383 59.7904 107.841C59.7904 100.62 57.6815 95.3334 53.6978 92.4966L46.375 87.5966C40.1652 83.3413 37.0603 75.4755 37.0603 63.7413C37.0603 48.7834 42.86 37.1782 50.3586 37.1782C58.5016 37.1782 64.1256 48.0097 64.6528 64.6439H59.4389C59.0289 54.1992 55.5139 47.4939 50.4758 47.4939C46.0821 47.4939 42.4499 54.3281 42.4499 62.7097C42.4499 69.5439 44.3832 74.186 48.4254 76.765L55.6896 81.665C61.958 85.7913 65.18 94.8176 65.18 107.97C65.18 122.799 59.2632 133.889 51.3545 133.889Z" fill="black"/>
<path d="M86.3055 133.889C77.5767 133.889 71.6013 119.576 71.6013 98.5571C71.6013 77.9255 77.6939 63.2255 86.3055 63.2255C93.6284 63.2255 98.9008 72.3808 99.721 86.436H94.6243C93.687 78.4413 90.6407 73.7992 86.3055 73.7992C80.7402 73.7992 76.698 84.115 76.698 98.5571C76.698 113.128 80.7402 123.315 86.3055 123.315C90.6407 123.315 93.7455 118.286 94.6243 109.904H99.721C98.9008 124.604 93.687 133.889 86.3055 133.889Z" fill="black"/>
<path d="M117.449 133.889C111.473 133.889 107.431 126.152 107.431 114.547C107.431 101.394 112.352 92.7545 120.788 90.5624L127.935 88.7571V88.2413C127.935 78.5703 125.182 73.0255 120.671 73.0255C116.511 73.0255 113.114 78.3124 112.762 85.4045H107.841C108.31 72.2518 113.582 63.2255 120.788 63.2255C128.111 63.2255 132.856 73.0255 132.856 88.6281V112.097C132.856 117.512 132.915 123.315 133.09 131.954H128.169V120.091C125.826 129.118 122.135 133.889 117.449 133.889ZM112.411 113.902C112.411 119.962 114.695 124.089 118.152 124.089C123.834 124.089 127.935 114.289 127.935 100.104V97.7834L120.846 99.8466C115.398 101.394 112.411 106.294 112.411 113.902Z" fill="black"/>
<path d="M142.441 131.954V121.897H153.337V45.9466H143.026V35.8887H158.434V121.897H169.389V131.954H142.441Z" fill="black"/>
<path d="M191.51 133.889C183.074 133.889 177.216 119.318 177.216 98.5571C177.216 78.0545 183.191 63.2255 191.51 63.2255C200.18 63.2255 205.863 79.6018 204.75 101.265H182.195C182.605 115.062 186.062 123.573 191.451 123.573C195.494 123.573 198.481 119.189 199.36 111.71H204.515C203.285 125.12 198.13 133.889 191.51 133.889ZM191.451 73.5413C186.648 73.5413 183.308 80.6334 182.371 91.9808H199.594C199.302 80.7624 196.255 73.5413 191.451 73.5413Z" fill="black"/>
<path d="M51.3545 133.889C42.0399 133.889 36.2988 122.541 35.8887 103.07H41.1025C41.3369 115.707 45.3205 123.573 51.2959 123.573C56.4512 123.573 59.7904 117.383 59.7904 107.841C59.7904 100.62 57.6815 95.3334 53.6978 92.4966L46.375 87.5966C40.1652 83.3413 37.0603 75.4755 37.0603 63.7413C37.0603 48.7834 42.86 37.1782 50.3586 37.1782C58.5016 37.1782 64.1256 48.0097 64.6528 64.6439H59.4389C59.0289 54.1992 55.5139 47.4939 50.4758 47.4939C46.0821 47.4939 42.4499 54.3281 42.4499 62.7097C42.4499 69.5439 44.3832 74.186 48.4254 76.765L55.6896 81.665C61.958 85.7913 65.18 94.8176 65.18 107.97C65.18 122.799 59.2632 133.889 51.3545 133.889Z" stroke="#FFF700" stroke-width="71.7772" stroke-linejoin="round" mask="url(#path-1-outside-1_225_146)"/>
<path d="M86.3055 133.889C77.5767 133.889 71.6013 119.576 71.6013 98.5571C71.6013 77.9255 77.6939 63.2255 86.3055 63.2255C93.6284 63.2255 98.9008 72.3808 99.721 86.436H94.6243C93.687 78.4413 90.6407 73.7992 86.3055 73.7992C80.7402 73.7992 76.698 84.115 76.698 98.5571C76.698 113.128 80.7402 123.315 86.3055 123.315C90.6407 123.315 93.7455 118.286 94.6243 109.904H99.721C98.9008 124.604 93.687 133.889 86.3055 133.889Z" stroke="#FFF700" stroke-width="71.7772" stroke-linejoin="round" mask="url(#path-1-outside-1_225_146)"/>
<path d="M117.449 133.889C111.473 133.889 107.431 126.152 107.431 114.547C107.431 101.394 112.352 92.7545 120.788 90.5624L127.935 88.7571V88.2413C127.935 78.5703 125.182 73.0255 120.671 73.0255C116.511 73.0255 113.114 78.3124 112.762 85.4045H107.841C108.31 72.2518 113.582 63.2255 120.788 63.2255C128.111 63.2255 132.856 73.0255 132.856 88.6281V112.097C132.856 117.512 132.915 123.315 133.09 131.954H128.169V120.091C125.826 129.118 122.135 133.889 117.449 133.889ZM112.411 113.902C112.411 119.962 114.695 124.089 118.152 124.089C123.834 124.089 127.935 114.289 127.935 100.104V97.7834L120.846 99.8466C115.398 101.394 112.411 106.294 112.411 113.902Z" stroke="#FFF700" stroke-width="71.7772" stroke-linejoin="round" mask="url(#path-1-outside-1_225_146)"/>
<path d="M142.441 131.954V121.897H153.337V45.9466H143.026V35.8887H158.434V121.897H169.389V131.954H142.441Z" stroke="#FFF700" stroke-width="71.7772" stroke-linejoin="round" mask="url(#path-1-outside-1_225_146)"/>
<path d="M191.51 133.889C183.074 133.889 177.216 119.318 177.216 98.5571C177.216 78.0545 183.191 63.2255 191.51 63.2255C200.18 63.2255 205.863 79.6018 204.75 101.265H182.195C182.605 115.062 186.062 123.573 191.451 123.573C195.494 123.573 198.481 119.189 199.36 111.71H204.515C203.285 125.12 198.13 133.889 191.51 133.889ZM191.451 73.5413C186.648 73.5413 183.308 80.6334 182.371 91.9808H199.594C199.302 80.7624 196.255 73.5413 191.451 73.5413Z" stroke="#FFF700" stroke-width="71.7772" stroke-linejoin="round" mask="url(#path-1-outside-1_225_146)"/>
</svg>
