<svg preserveAspectRatio="none" width="523" height="196" viewBox="0 0 523 196" fill="none" xmlns="http://www.w3.org/2000/svg">
<mask id="path-1-outside-1_225_148" maskUnits="userSpaceOnUse" x="-0.111328" y="-0.111328" width="523" height="196" fill="black">
<rect fill="white" x="-0.111328" y="-0.111328" width="523" height="196"/>
<path d="M35.8887 41.0286H41.3863L51.7967 116.2L61.9732 41.0286H67.4708L54.7795 133.547H48.7555L35.8887 41.0286Z"/>
<path d="M86.7482 55.0348C84.2918 55.0348 82.3618 50.7944 82.3618 45.526C82.3618 40.1291 84.2918 35.8887 86.7482 35.8887C89.2046 35.8887 91.1346 40.1291 91.1346 45.526C91.1346 50.7944 89.2046 55.0348 86.7482 55.0348ZM73.2965 133.547V123.524H84.1749V77.0078H73.8814V66.985H89.2631V123.524H100.2V133.547H73.2965Z"/>
<path d="M122.226 135.474C114.506 135.474 108.891 126.094 108.716 112.216H113.746C114.097 120.697 117.489 125.837 122.46 125.837C126.612 125.837 129.771 121.853 129.771 115.686C129.771 111.188 128.075 107.847 125.501 106.562L117.606 103.093C112.693 100.908 110.003 94.2265 110.003 85.3602C110.003 72.6389 114.798 65.0576 121.875 65.0576C128.835 65.0576 134.04 73.9239 134.274 86.6452H129.303C129.01 79.7063 125.852 74.6949 121.758 74.6949C117.723 74.6949 115.149 78.9353 115.149 84.3322C115.149 88.8296 116.553 91.5281 119.009 92.813L127.139 96.411C132.052 98.7239 134.917 105.149 134.917 114.915C134.917 127.379 129.888 135.474 122.226 135.474Z"/>
<path d="M169.46 66.985V133.547H164.547V124.552C162.792 130.72 159.049 135.474 155.481 135.474C148.639 135.474 144.311 125.451 144.311 109.518V66.985H149.399V107.462C149.399 118.256 151.972 124.937 156.125 124.937C160.745 124.937 164.371 116.585 164.371 105.663V66.985H169.46Z"/>
<path d="M188.62 135.474C182.654 135.474 178.619 127.764 178.619 116.2C178.619 103.093 183.532 94.4835 191.954 92.299L199.089 90.5001V89.9861C199.089 80.3488 196.34 74.8234 191.837 74.8234C187.684 74.8234 184.292 80.0918 183.941 87.1591H179.028C179.496 74.0524 184.76 65.0576 191.954 65.0576C199.264 65.0576 204.002 74.8234 204.002 90.3716V113.758C204.002 119.155 204.06 124.937 204.236 133.547H199.323V121.725C196.983 130.72 193.299 135.474 188.62 135.474ZM183.59 115.557C183.59 121.596 185.871 125.708 189.322 125.708C194.995 125.708 199.089 115.943 199.089 101.808V99.4949L192.012 101.551C186.573 103.093 183.59 107.976 183.59 115.557Z"/>
<path d="M213.57 133.547V123.524H224.449V47.8389H214.155V37.8161H229.537V123.524H240.474V133.547H213.57Z"/>
<path d="M297.978 135.474C288.679 135.474 282.947 124.166 282.538 104.763H287.743C287.977 117.356 291.954 125.194 297.919 125.194C303.066 125.194 306.4 119.027 306.4 109.518C306.4 102.322 304.294 97.0534 300.317 94.2265L293.006 89.3436C286.807 85.1032 283.707 77.2648 283.707 65.5716C283.707 50.6659 289.497 39.1011 296.983 39.1011C305.113 39.1011 310.728 49.8949 311.254 66.4711H306.049C305.639 56.0628 302.13 49.3809 297.1 49.3809C292.714 49.3809 289.088 56.1913 289.088 64.5436C289.088 71.354 291.018 75.9799 295.053 78.5498L302.306 83.4327C308.564 87.5446 311.78 96.5395 311.78 109.646C311.78 124.423 305.873 135.474 297.978 135.474Z"/>
<path d="M324.683 159.889L329.946 129.949L317.021 66.985H322.577L332.52 115.429L341 66.985H346.264L330.005 159.889H324.683Z"/>
<path d="M367.705 135.474C359.985 135.474 354.371 126.094 354.195 112.216H359.225C359.576 120.697 362.968 125.837 367.939 125.837C372.092 125.837 375.25 121.853 375.25 115.686C375.25 111.188 373.554 107.847 370.98 106.562L363.085 103.093C358.172 100.908 355.482 94.2265 355.482 85.3602C355.482 72.6389 360.278 65.0576 367.354 65.0576C374.314 65.0576 379.519 73.9239 379.753 86.6452H374.782C374.49 79.7063 371.331 74.6949 367.237 74.6949C363.202 74.6949 360.628 78.9353 360.628 84.3322C360.628 88.8296 362.032 91.5281 364.489 92.813L372.618 96.411C377.531 98.7239 380.397 105.149 380.397 114.915C380.397 127.379 375.367 135.474 367.705 135.474Z"/>
<path d="M388.328 77.0078V66.985H398.68V47.7104L403.768 41.928V66.985H416.401V77.0078H403.768V108.104C403.768 118.513 406.517 124.68 411.137 124.68C413.184 124.68 415.173 123.781 416.986 122.239V132.262C415.29 133.932 412.892 134.96 410.669 134.96C403.125 134.96 398.68 124.937 398.68 108.361V77.0078H388.328Z"/>
<path d="M437.901 135.474C429.479 135.474 423.63 120.954 423.63 100.266C423.63 79.8348 429.596 65.0576 437.901 65.0576C446.556 65.0576 452.23 81.3768 451.118 102.964H428.601C429.011 116.714 432.461 125.194 437.842 125.194C441.878 125.194 444.86 120.825 445.738 113.373H450.884C449.656 126.736 444.509 135.474 437.901 135.474ZM437.842 75.3374C433.046 75.3374 429.713 82.4047 428.777 93.7125H445.972C445.679 82.5332 442.638 75.3374 437.842 75.3374Z"/>
<path d="M458.114 133.547V66.985H463.027V72.2534C463.962 67.756 465.892 65.0576 468.349 65.0576C470.805 65.0576 472.852 68.3985 473.788 73.4099C474.841 68.527 477.18 65.0576 479.695 65.0576C483.964 65.0576 486.889 71.9964 486.889 82.2762V133.547H481.8V83.9467C481.8 78.9353 480.455 75.5944 478.525 75.5944C476.595 75.5944 475.075 79.3208 475.075 83.9467V133.547H469.986V83.9467C469.986 78.9353 468.583 75.5944 466.536 75.5944C464.664 75.5944 463.202 79.1923 463.202 83.9467V133.547H458.114Z"/>
</mask>
<path d="M35.8887 41.0286H41.3863L51.7967 116.2L61.9732 41.0286H67.4708L54.7795 133.547H48.7555L35.8887 41.0286Z" fill="black"/>
<path d="M86.7482 55.0348C84.2918 55.0348 82.3618 50.7944 82.3618 45.526C82.3618 40.1291 84.2918 35.8887 86.7482 35.8887C89.2046 35.8887 91.1346 40.1291 91.1346 45.526C91.1346 50.7944 89.2046 55.0348 86.7482 55.0348ZM73.2965 133.547V123.524H84.1749V77.0078H73.8814V66.985H89.2631V123.524H100.2V133.547H73.2965Z" fill="black"/>
<path d="M122.226 135.474C114.506 135.474 108.891 126.094 108.716 112.216H113.746C114.097 120.697 117.489 125.837 122.46 125.837C126.612 125.837 129.771 121.853 129.771 115.686C129.771 111.188 128.075 107.847 125.501 106.562L117.606 103.093C112.693 100.908 110.003 94.2265 110.003 85.3602C110.003 72.6389 114.798 65.0576 121.875 65.0576C128.835 65.0576 134.04 73.9239 134.274 86.6452H129.303C129.01 79.7063 125.852 74.6949 121.758 74.6949C117.723 74.6949 115.149 78.9353 115.149 84.3322C115.149 88.8296 116.553 91.5281 119.009 92.813L127.139 96.411C132.052 98.7239 134.917 105.149 134.917 114.915C134.917 127.379 129.888 135.474 122.226 135.474Z" fill="black"/>
<path d="M169.46 66.985V133.547H164.547V124.552C162.792 130.72 159.049 135.474 155.481 135.474C148.639 135.474 144.311 125.451 144.311 109.518V66.985H149.399V107.462C149.399 118.256 151.972 124.937 156.125 124.937C160.745 124.937 164.371 116.585 164.371 105.663V66.985H169.46Z" fill="black"/>
<path d="M188.62 135.474C182.654 135.474 178.619 127.764 178.619 116.2C178.619 103.093 183.532 94.4835 191.954 92.299L199.089 90.5001V89.9861C199.089 80.3488 196.34 74.8234 191.837 74.8234C187.684 74.8234 184.292 80.0918 183.941 87.1591H179.028C179.496 74.0524 184.76 65.0576 191.954 65.0576C199.264 65.0576 204.002 74.8234 204.002 90.3716V113.758C204.002 119.155 204.06 124.937 204.236 133.547H199.323V121.725C196.983 130.72 193.299 135.474 188.62 135.474ZM183.59 115.557C183.59 121.596 185.871 125.708 189.322 125.708C194.995 125.708 199.089 115.943 199.089 101.808V99.4949L192.012 101.551C186.573 103.093 183.59 107.976 183.59 115.557Z" fill="black"/>
<path d="M213.57 133.547V123.524H224.449V47.8389H214.155V37.8161H229.537V123.524H240.474V133.547H213.57Z" fill="black"/>
<path d="M297.978 135.474C288.679 135.474 282.947 124.166 282.538 104.763H287.743C287.977 117.356 291.954 125.194 297.919 125.194C303.066 125.194 306.4 119.027 306.4 109.518C306.4 102.322 304.294 97.0534 300.317 94.2265L293.006 89.3436C286.807 85.1032 283.707 77.2648 283.707 65.5716C283.707 50.6659 289.497 39.1011 296.983 39.1011C305.113 39.1011 310.728 49.8949 311.254 66.4711H306.049C305.639 56.0628 302.13 49.3809 297.1 49.3809C292.714 49.3809 289.088 56.1913 289.088 64.5436C289.088 71.354 291.018 75.9799 295.053 78.5498L302.306 83.4327C308.564 87.5446 311.78 96.5395 311.78 109.646C311.78 124.423 305.873 135.474 297.978 135.474Z" fill="black"/>
<path d="M324.683 159.889L329.946 129.949L317.021 66.985H322.577L332.52 115.429L341 66.985H346.264L330.005 159.889H324.683Z" fill="black"/>
<path d="M367.705 135.474C359.985 135.474 354.371 126.094 354.195 112.216H359.225C359.576 120.697 362.968 125.837 367.939 125.837C372.092 125.837 375.25 121.853 375.25 115.686C375.25 111.188 373.554 107.847 370.98 106.562L363.085 103.093C358.172 100.908 355.482 94.2265 355.482 85.3602C355.482 72.6389 360.278 65.0576 367.354 65.0576C374.314 65.0576 379.519 73.9239 379.753 86.6452H374.782C374.49 79.7063 371.331 74.6949 367.237 74.6949C363.202 74.6949 360.628 78.9353 360.628 84.3322C360.628 88.8296 362.032 91.5281 364.489 92.813L372.618 96.411C377.531 98.7239 380.397 105.149 380.397 114.915C380.397 127.379 375.367 135.474 367.705 135.474Z" fill="black"/>
<path d="M388.328 77.0078V66.985H398.68V47.7104L403.768 41.928V66.985H416.401V77.0078H403.768V108.104C403.768 118.513 406.517 124.68 411.137 124.68C413.184 124.68 415.173 123.781 416.986 122.239V132.262C415.29 133.932 412.892 134.96 410.669 134.96C403.125 134.96 398.68 124.937 398.68 108.361V77.0078H388.328Z" fill="black"/>
<path d="M437.901 135.474C429.479 135.474 423.63 120.954 423.63 100.266C423.63 79.8348 429.596 65.0576 437.901 65.0576C446.556 65.0576 452.23 81.3768 451.118 102.964H428.601C429.011 116.714 432.461 125.194 437.842 125.194C441.878 125.194 444.86 120.825 445.738 113.373H450.884C449.656 126.736 444.509 135.474 437.901 135.474ZM437.842 75.3374C433.046 75.3374 429.713 82.4047 428.777 93.7125H445.972C445.679 82.5332 442.638 75.3374 437.842 75.3374Z" fill="black"/>
<path d="M458.114 133.547V66.985H463.027V72.2534C463.962 67.756 465.892 65.0576 468.349 65.0576C470.805 65.0576 472.852 68.3985 473.788 73.4099C474.841 68.527 477.18 65.0576 479.695 65.0576C483.964 65.0576 486.889 71.9964 486.889 82.2762V133.547H481.8V83.9467C481.8 78.9353 480.455 75.5944 478.525 75.5944C476.595 75.5944 475.075 79.3208 475.075 83.9467V133.547H469.986V83.9467C469.986 78.9353 468.583 75.5944 466.536 75.5944C464.664 75.5944 463.202 79.1923 463.202 83.9467V133.547H458.114Z" fill="black"/>
<path d="M35.8887 41.0286H41.3863L51.7967 116.2L61.9732 41.0286H67.4708L54.7795 133.547H48.7555L35.8887 41.0286Z" stroke="#A2FF00" stroke-width="71.7772" stroke-linejoin="round" mask="url(#path-1-outside-1_225_148)"/>
<path d="M86.7482 55.0348C84.2918 55.0348 82.3618 50.7944 82.3618 45.526C82.3618 40.1291 84.2918 35.8887 86.7482 35.8887C89.2046 35.8887 91.1346 40.1291 91.1346 45.526C91.1346 50.7944 89.2046 55.0348 86.7482 55.0348ZM73.2965 133.547V123.524H84.1749V77.0078H73.8814V66.985H89.2631V123.524H100.2V133.547H73.2965Z" stroke="#A2FF00" stroke-width="71.7772" stroke-linejoin="round" mask="url(#path-1-outside-1_225_148)"/>
<path d="M122.226 135.474C114.506 135.474 108.891 126.094 108.716 112.216H113.746C114.097 120.697 117.489 125.837 122.46 125.837C126.612 125.837 129.771 121.853 129.771 115.686C129.771 111.188 128.075 107.847 125.501 106.562L117.606 103.093C112.693 100.908 110.003 94.2265 110.003 85.3602C110.003 72.6389 114.798 65.0576 121.875 65.0576C128.835 65.0576 134.04 73.9239 134.274 86.6452H129.303C129.01 79.7063 125.852 74.6949 121.758 74.6949C117.723 74.6949 115.149 78.9353 115.149 84.3322C115.149 88.8296 116.553 91.5281 119.009 92.813L127.139 96.411C132.052 98.7239 134.917 105.149 134.917 114.915C134.917 127.379 129.888 135.474 122.226 135.474Z" stroke="#A2FF00" stroke-width="71.7772" stroke-linejoin="round" mask="url(#path-1-outside-1_225_148)"/>
<path d="M169.46 66.985V133.547H164.547V124.552C162.792 130.72 159.049 135.474 155.481 135.474C148.639 135.474 144.311 125.451 144.311 109.518V66.985H149.399V107.462C149.399 118.256 151.972 124.937 156.125 124.937C160.745 124.937 164.371 116.585 164.371 105.663V66.985H169.46Z" stroke="#A2FF00" stroke-width="71.7772" stroke-linejoin="round" mask="url(#path-1-outside-1_225_148)"/>
<path d="M188.62 135.474C182.654 135.474 178.619 127.764 178.619 116.2C178.619 103.093 183.532 94.4835 191.954 92.299L199.089 90.5001V89.9861C199.089 80.3488 196.34 74.8234 191.837 74.8234C187.684 74.8234 184.292 80.0918 183.941 87.1591H179.028C179.496 74.0524 184.76 65.0576 191.954 65.0576C199.264 65.0576 204.002 74.8234 204.002 90.3716V113.758C204.002 119.155 204.06 124.937 204.236 133.547H199.323V121.725C196.983 130.72 193.299 135.474 188.62 135.474ZM183.59 115.557C183.59 121.596 185.871 125.708 189.322 125.708C194.995 125.708 199.089 115.943 199.089 101.808V99.4949L192.012 101.551C186.573 103.093 183.59 107.976 183.59 115.557Z" stroke="#A2FF00" stroke-width="71.7772" stroke-linejoin="round" mask="url(#path-1-outside-1_225_148)"/>
<path d="M213.57 133.547V123.524H224.449V47.8389H214.155V37.8161H229.537V123.524H240.474V133.547H213.57Z" stroke="#A2FF00" stroke-width="71.7772" stroke-linejoin="round" mask="url(#path-1-outside-1_225_148)"/>
<path d="M297.978 135.474C288.679 135.474 282.947 124.166 282.538 104.763H287.743C287.977 117.356 291.954 125.194 297.919 125.194C303.066 125.194 306.4 119.027 306.4 109.518C306.4 102.322 304.294 97.0534 300.317 94.2265L293.006 89.3436C286.807 85.1032 283.707 77.2648 283.707 65.5716C283.707 50.6659 289.497 39.1011 296.983 39.1011C305.113 39.1011 310.728 49.8949 311.254 66.4711H306.049C305.639 56.0628 302.13 49.3809 297.1 49.3809C292.714 49.3809 289.088 56.1913 289.088 64.5436C289.088 71.354 291.018 75.9799 295.053 78.5498L302.306 83.4327C308.564 87.5446 311.78 96.5395 311.78 109.646C311.78 124.423 305.873 135.474 297.978 135.474Z" stroke="#A2FF00" stroke-width="71.7772" stroke-linejoin="round" mask="url(#path-1-outside-1_225_148)"/>
<path d="M324.683 159.889L329.946 129.949L317.021 66.985H322.577L332.52 115.429L341 66.985H346.264L330.005 159.889H324.683Z" stroke="#A2FF00" stroke-width="71.7772" stroke-linejoin="round" mask="url(#path-1-outside-1_225_148)"/>
<path d="M367.705 135.474C359.985 135.474 354.371 126.094 354.195 112.216H359.225C359.576 120.697 362.968 125.837 367.939 125.837C372.092 125.837 375.25 121.853 375.25 115.686C375.25 111.188 373.554 107.847 370.98 106.562L363.085 103.093C358.172 100.908 355.482 94.2265 355.482 85.3602C355.482 72.6389 360.278 65.0576 367.354 65.0576C374.314 65.0576 379.519 73.9239 379.753 86.6452H374.782C374.49 79.7063 371.331 74.6949 367.237 74.6949C363.202 74.6949 360.628 78.9353 360.628 84.3322C360.628 88.8296 362.032 91.5281 364.489 92.813L372.618 96.411C377.531 98.7239 380.397 105.149 380.397 114.915C380.397 127.379 375.367 135.474 367.705 135.474Z" stroke="#A2FF00" stroke-width="71.7772" stroke-linejoin="round" mask="url(#path-1-outside-1_225_148)"/>
<path d="M388.328 77.0078V66.985H398.68V47.7104L403.768 41.928V66.985H416.401V77.0078H403.768V108.104C403.768 118.513 406.517 124.68 411.137 124.68C413.184 124.68 415.173 123.781 416.986 122.239V132.262C415.29 133.932 412.892 134.96 410.669 134.96C403.125 134.96 398.68 124.937 398.68 108.361V77.0078H388.328Z" stroke="#A2FF00" stroke-width="71.7772" stroke-linejoin="round" mask="url(#path-1-outside-1_225_148)"/>
<path d="M437.901 135.474C429.479 135.474 423.63 120.954 423.63 100.266C423.63 79.8348 429.596 65.0576 437.901 65.0576C446.556 65.0576 452.23 81.3768 451.118 102.964H428.601C429.011 116.714 432.461 125.194 437.842 125.194C441.878 125.194 444.86 120.825 445.738 113.373H450.884C449.656 126.736 444.509 135.474 437.901 135.474ZM437.842 75.3374C433.046 75.3374 429.713 82.4047 428.777 93.7125H445.972C445.679 82.5332 442.638 75.3374 437.842 75.3374Z" stroke="#A2FF00" stroke-width="71.7772" stroke-linejoin="round" mask="url(#path-1-outside-1_225_148)"/>
<path d="M458.114 133.547V66.985H463.027V72.2534C463.962 67.756 465.892 65.0576 468.349 65.0576C470.805 65.0576 472.852 68.3985 473.788 73.4099C474.841 68.527 477.18 65.0576 479.695 65.0576C483.964 65.0576 486.889 71.9964 486.889 82.2762V133.547H481.8V83.9467C481.8 78.9353 480.455 75.5944 478.525 75.5944C476.595 75.5944 475.075 79.3208 475.075 83.9467V133.547H469.986V83.9467C469.986 78.9353 468.583 75.5944 466.536 75.5944C464.664 75.5944 463.202 79.1923 463.202 83.9467V133.547H458.114Z" stroke="#A2FF00" stroke-width="71.7772" stroke-linejoin="round" mask="url(#path-1-outside-1_225_148)"/>
</svg>
