<svg preserveAspectRatio="none" width="100%" height="100%" overflow="visible" style="display: block;" viewBox="0 0 522.57 195.898" fill="none" xmlns="http://www.w3.org/2000/svg">
<g id="Visual System">
<mask id="path-1-outside-1_0_7" maskUnits="userSpaceOnUse" x="-0.111191" y="-0.11142" width="523" height="197" fill="black">
<rect fill="white" x="-0.111191" y="-0.11142" width="523" height="197"/>
<path d="M35.8888 41.0335H41.3839L51.7896 116.278L61.9614 41.0335H67.4565L54.771 133.642H48.7497L35.8888 41.0335Z"/>
<path d="M86.725 55.0534C84.2697 55.0534 82.3406 50.8088 82.3406 45.5353C82.3406 40.1331 84.2697 35.8886 86.725 35.8886C89.1803 35.8886 91.1094 40.1331 91.1094 45.5353C91.1094 50.8088 89.1803 55.0534 86.725 55.0534ZM73.2795 133.642V123.609H84.1528V77.0478H73.8641V67.0153H89.2387V123.609H100.171V133.642H73.2795Z"/>
<path d="M122.187 135.571C114.47 135.571 108.858 126.182 108.683 112.29H113.71C114.061 120.78 117.451 125.924 122.42 125.924C126.571 125.924 129.728 121.937 129.728 115.763C129.728 111.261 128.032 107.917 125.46 106.631L117.568 103.158C112.658 100.972 109.969 94.2833 109.969 85.4083C109.969 72.6747 114.762 65.0859 121.836 65.0859C128.792 65.0859 133.995 73.9609 134.229 86.6945H129.26C128.968 79.7489 125.811 74.7326 121.719 74.7326C117.685 74.7326 115.113 78.9772 115.113 84.3793C115.113 88.8811 116.516 91.5822 118.971 92.8684L127.097 96.4699C132.008 98.7851 134.872 105.216 134.872 114.992C134.872 127.468 129.845 135.571 122.187 135.571Z"/>
<path d="M169.398 67.0153V133.642H164.488V124.638C162.734 130.812 158.993 135.571 155.427 135.571C148.587 135.571 144.261 125.539 144.261 109.589V67.0153H149.347V107.531C149.347 118.336 151.919 125.024 156.07 125.024C160.688 125.024 164.312 116.664 164.312 105.731V67.0153H169.398Z"/>
<path d="M188.55 135.571C182.587 135.571 178.554 127.854 178.554 116.278C178.554 103.158 183.464 94.5405 191.882 92.3539L199.014 90.5532V90.0387C199.014 80.392 196.267 74.8613 191.765 74.8613C187.615 74.8613 184.224 80.1348 183.873 87.209H178.963C179.43 74.0895 184.692 65.0859 191.882 65.0859C199.189 65.0859 203.925 74.8613 203.925 90.4246V113.834C203.925 119.236 203.983 125.024 204.158 133.642H199.248V121.809C196.91 130.812 193.227 135.571 188.55 135.571ZM183.523 115.635C183.523 121.68 185.802 125.796 189.251 125.796C194.922 125.796 199.014 116.021 199.014 101.872V99.5568L191.941 101.615C186.504 103.158 183.523 108.046 183.523 115.635Z"/>
<path d="M213.489 133.642V123.609H224.362V47.8505H214.074V37.8179H229.448V123.609H240.38V133.642H213.489Z"/>
<path d="M297.858 135.571C288.563 135.571 282.834 124.252 282.425 104.83H287.627C287.861 117.435 291.836 125.281 297.799 125.281C302.944 125.281 306.276 119.107 306.276 109.589C306.276 102.387 304.171 97.113 300.196 94.2833L292.889 89.3956C286.692 85.1511 283.594 77.3051 283.594 65.6004C283.594 50.6802 289.381 39.1042 296.864 39.1042C304.99 39.1042 310.602 49.9085 311.128 66.5008H305.925C305.516 56.0823 302.008 49.394 296.981 49.394C292.596 49.394 288.972 56.211 288.972 64.5714C288.972 71.3884 290.901 76.0189 294.935 78.5913L302.184 83.479C308.439 87.5949 311.654 96.5985 311.654 109.718C311.654 124.51 305.75 135.571 297.858 135.571Z"/>
<path d="M324.55 160.009L329.812 130.04L316.892 67.0153H322.446L332.384 115.506L340.86 67.0153H346.122L329.87 160.009H324.55Z"/>
<path d="M367.553 135.571C359.837 135.571 354.225 126.182 354.049 112.29H359.077C359.427 120.78 362.818 125.924 367.787 125.924C371.938 125.924 375.094 121.937 375.094 115.763C375.094 111.261 373.399 107.917 370.827 106.631L362.935 103.158C358.024 100.972 355.335 94.2833 355.335 85.4083C355.335 72.6747 360.129 65.0859 367.202 65.0859C374.159 65.0859 379.362 73.9609 379.596 86.6945H374.627C374.334 79.7489 371.178 74.7326 367.085 74.7326C363.052 74.7326 360.48 78.9772 360.48 84.3793C360.48 88.8811 361.883 91.5822 364.338 92.8684L372.464 96.4699C377.374 98.7851 380.239 105.216 380.239 114.992C380.239 127.468 375.211 135.571 367.553 135.571Z"/>
<path d="M388.166 77.0478V67.0153H398.513V47.7219L403.599 41.9338V67.0153H416.226V77.0478H403.599V108.175C403.599 118.593 406.347 124.767 410.965 124.767C413.011 124.767 414.999 123.866 416.811 122.323V132.356C415.116 134.028 412.719 135.057 410.497 135.057C402.956 135.057 398.513 125.024 398.513 108.432V77.0478H388.166Z"/>
<path d="M437.716 135.571C429.298 135.571 423.452 121.037 423.452 100.329C423.452 79.8775 429.415 65.0859 437.716 65.0859C446.368 65.0859 452.039 81.421 450.928 103.03H428.421C428.831 116.792 432.28 125.281 437.658 125.281C441.691 125.281 444.673 120.908 445.55 113.448H450.694C449.467 126.825 444.322 135.571 437.716 135.571ZM437.658 75.3757C432.864 75.3757 429.532 82.45 428.597 93.7688H445.784C445.491 82.5786 442.451 75.3757 437.658 75.3757Z"/>
<path d="M457.92 133.642V67.0153H462.831V72.2888C463.766 67.787 465.695 65.0859 468.15 65.0859C470.606 65.0859 472.652 68.4301 473.587 73.4464C474.639 68.5587 476.978 65.0859 479.491 65.0859C483.759 65.0859 486.682 72.0316 486.682 82.3214V133.642H481.596V83.9935C481.596 78.9772 480.251 75.633 478.322 75.633C476.393 75.633 474.873 79.3631 474.873 83.9935V133.642H469.787V83.9935C469.787 78.9772 468.384 75.633 466.338 75.633C464.468 75.633 463.006 79.2344 463.006 83.9935V133.642H457.92Z"/>
</mask>
<path d="M35.8888 41.0335H41.3839L51.7896 116.278L61.9614 41.0335H67.4565L54.771 133.642H48.7497L35.8888 41.0335Z" fill="var(--fill-0, black)"/>
<path d="M86.725 55.0534C84.2697 55.0534 82.3406 50.8088 82.3406 45.5353C82.3406 40.1331 84.2697 35.8886 86.725 35.8886C89.1803 35.8886 91.1094 40.1331 91.1094 45.5353C91.1094 50.8088 89.1803 55.0534 86.725 55.0534ZM73.2795 133.642V123.609H84.1528V77.0478H73.8641V67.0153H89.2387V123.609H100.171V133.642H73.2795Z" fill="var(--fill-0, black)"/>
<path d="M122.187 135.571C114.47 135.571 108.858 126.182 108.683 112.29H113.71C114.061 120.78 117.451 125.924 122.42 125.924C126.571 125.924 129.728 121.937 129.728 115.763C129.728 111.261 128.032 107.917 125.46 106.631L117.568 103.158C112.658 100.972 109.969 94.2833 109.969 85.4083C109.969 72.6747 114.762 65.0859 121.836 65.0859C128.792 65.0859 133.995 73.9609 134.229 86.6945H129.26C128.968 79.7489 125.811 74.7326 121.719 74.7326C117.685 74.7326 115.113 78.9772 115.113 84.3793C115.113 88.8811 116.516 91.5822 118.971 92.8684L127.097 96.4699C132.008 98.7851 134.872 105.216 134.872 114.992C134.872 127.468 129.845 135.571 122.187 135.571Z" fill="var(--fill-0, black)"/>
<path d="M169.398 67.0153V133.642H164.488V124.638C162.734 130.812 158.993 135.571 155.427 135.571C148.587 135.571 144.261 125.539 144.261 109.589V67.0153H149.347V107.531C149.347 118.336 151.919 125.024 156.07 125.024C160.688 125.024 164.312 116.664 164.312 105.731V67.0153H169.398Z" fill="var(--fill-0, black)"/>
<path d="M188.55 135.571C182.587 135.571 178.554 127.854 178.554 116.278C178.554 103.158 183.464 94.5405 191.882 92.3539L199.014 90.5532V90.0387C199.014 80.392 196.267 74.8613 191.765 74.8613C187.615 74.8613 184.224 80.1348 183.873 87.209H178.963C179.43 74.0895 184.692 65.0859 191.882 65.0859C199.189 65.0859 203.925 74.8613 203.925 90.4246V113.834C203.925 119.236 203.983 125.024 204.158 133.642H199.248V121.809C196.91 130.812 193.227 135.571 188.55 135.571ZM183.523 115.635C183.523 121.68 185.802 125.796 189.251 125.796C194.922 125.796 199.014 116.021 199.014 101.872V99.5568L191.941 101.615C186.504 103.158 183.523 108.046 183.523 115.635Z" fill="var(--fill-0, black)"/>
<path d="M213.489 133.642V123.609H224.362V47.8505H214.074V37.8179H229.448V123.609H240.38V133.642H213.489Z" fill="var(--fill-0, black)"/>
<path d="M297.858 135.571C288.563 135.571 282.834 124.252 282.425 104.83H287.627C287.861 117.435 291.836 125.281 297.799 125.281C302.944 125.281 306.276 119.107 306.276 109.589C306.276 102.387 304.171 97.113 300.196 94.2833L292.889 89.3956C286.692 85.1511 283.594 77.3051 283.594 65.6004C283.594 50.6802 289.381 39.1042 296.864 39.1042C304.99 39.1042 310.602 49.9085 311.128 66.5008H305.925C305.516 56.0823 302.008 49.394 296.981 49.394C292.596 49.394 288.972 56.211 288.972 64.5714C288.972 71.3884 290.901 76.0189 294.935 78.5913L302.184 83.479C308.439 87.5949 311.654 96.5985 311.654 109.718C311.654 124.51 305.75 135.571 297.858 135.571Z" fill="var(--fill-0, black)"/>
<path d="M324.55 160.009L329.812 130.04L316.892 67.0153H322.446L332.384 115.506L340.86 67.0153H346.122L329.87 160.009H324.55Z" fill="var(--fill-0, black)"/>
<path d="M367.553 135.571C359.837 135.571 354.225 126.182 354.049 112.29H359.077C359.427 120.78 362.818 125.924 367.787 125.924C371.938 125.924 375.094 121.937 375.094 115.763C375.094 111.261 373.399 107.917 370.827 106.631L362.935 103.158C358.024 100.972 355.335 94.2833 355.335 85.4083C355.335 72.6747 360.129 65.0859 367.202 65.0859C374.159 65.0859 379.362 73.9609 379.596 86.6945H374.627C374.334 79.7489 371.178 74.7326 367.085 74.7326C363.052 74.7326 360.48 78.9772 360.48 84.3793C360.48 88.8811 361.883 91.5822 364.338 92.8684L372.464 96.4699C377.374 98.7851 380.239 105.216 380.239 114.992C380.239 127.468 375.211 135.571 367.553 135.571Z" fill="var(--fill-0, black)"/>
<path d="M388.166 77.0478V67.0153H398.513V47.7219L403.599 41.9338V67.0153H416.226V77.0478H403.599V108.175C403.599 118.593 406.347 124.767 410.965 124.767C413.011 124.767 414.999 123.866 416.811 122.323V132.356C415.116 134.028 412.719 135.057 410.497 135.057C402.956 135.057 398.513 125.024 398.513 108.432V77.0478H388.166Z" fill="var(--fill-0, black)"/>
<path d="M437.716 135.571C429.298 135.571 423.452 121.037 423.452 100.329C423.452 79.8775 429.415 65.0859 437.716 65.0859C446.368 65.0859 452.039 81.421 450.928 103.03H428.421C428.831 116.792 432.28 125.281 437.658 125.281C441.691 125.281 444.673 120.908 445.55 113.448H450.694C449.467 126.825 444.322 135.571 437.716 135.571ZM437.658 75.3757C432.864 75.3757 429.532 82.45 428.597 93.7688H445.784C445.491 82.5786 442.451 75.3757 437.658 75.3757Z" fill="var(--fill-0, black)"/>
<path d="M457.92 133.642V67.0153H462.831V72.2888C463.766 67.787 465.695 65.0859 468.15 65.0859C470.606 65.0859 472.652 68.4301 473.587 73.4464C474.639 68.5587 476.978 65.0859 479.491 65.0859C483.759 65.0859 486.682 72.0316 486.682 82.3214V133.642H481.596V83.9935C481.596 78.9772 480.251 75.633 478.322 75.633C476.393 75.633 474.873 79.3631 474.873 83.9935V133.642H469.787V83.9935C469.787 78.9772 468.384 75.633 466.338 75.633C464.468 75.633 463.006 79.2344 463.006 83.9935V133.642H457.92Z" fill="var(--fill-0, black)"/>
<path d="M35.8888 41.0335H41.3839L51.7896 116.278L61.9614 41.0335H67.4565L54.771 133.642H48.7497L35.8888 41.0335Z" stroke="var(--stroke-0, #A2FF00)" stroke-width="71.7772" stroke-linejoin="round" mask="url(#path-1-outside-1_0_7)"/>
<path d="M86.725 55.0534C84.2697 55.0534 82.3406 50.8088 82.3406 45.5353C82.3406 40.1331 84.2697 35.8886 86.725 35.8886C89.1803 35.8886 91.1094 40.1331 91.1094 45.5353C91.1094 50.8088 89.1803 55.0534 86.725 55.0534ZM73.2795 133.642V123.609H84.1528V77.0478H73.8641V67.0153H89.2387V123.609H100.171V133.642H73.2795Z" stroke="var(--stroke-0, #A2FF00)" stroke-width="71.7772" stroke-linejoin="round" mask="url(#path-1-outside-1_0_7)"/>
<path d="M122.187 135.571C114.47 135.571 108.858 126.182 108.683 112.29H113.71C114.061 120.78 117.451 125.924 122.42 125.924C126.571 125.924 129.728 121.937 129.728 115.763C129.728 111.261 128.032 107.917 125.46 106.631L117.568 103.158C112.658 100.972 109.969 94.2833 109.969 85.4083C109.969 72.6747 114.762 65.0859 121.836 65.0859C128.792 65.0859 133.995 73.9609 134.229 86.6945H129.26C128.968 79.7489 125.811 74.7326 121.719 74.7326C117.685 74.7326 115.113 78.9772 115.113 84.3793C115.113 88.8811 116.516 91.5822 118.971 92.8684L127.097 96.4699C132.008 98.7851 134.872 105.216 134.872 114.992C134.872 127.468 129.845 135.571 122.187 135.571Z" stroke="var(--stroke-0, #A2FF00)" stroke-width="71.7772" stroke-linejoin="round" mask="url(#path-1-outside-1_0_7)"/>
<path d="M169.398 67.0153V133.642H164.488V124.638C162.734 130.812 158.993 135.571 155.427 135.571C148.587 135.571 144.261 125.539 144.261 109.589V67.0153H149.347V107.531C149.347 118.336 151.919 125.024 156.07 125.024C160.688 125.024 164.312 116.664 164.312 105.731V67.0153H169.398Z" stroke="var(--stroke-0, #A2FF00)" stroke-width="71.7772" stroke-linejoin="round" mask="url(#path-1-outside-1_0_7)"/>
<path d="M188.55 135.571C182.587 135.571 178.554 127.854 178.554 116.278C178.554 103.158 183.464 94.5405 191.882 92.3539L199.014 90.5532V90.0387C199.014 80.392 196.267 74.8613 191.765 74.8613C187.615 74.8613 184.224 80.1348 183.873 87.209H178.963C179.43 74.0895 184.692 65.0859 191.882 65.0859C199.189 65.0859 203.925 74.8613 203.925 90.4246V113.834C203.925 119.236 203.983 125.024 204.158 133.642H199.248V121.809C196.91 130.812 193.227 135.571 188.55 135.571ZM183.523 115.635C183.523 121.68 185.802 125.796 189.251 125.796C194.922 125.796 199.014 116.021 199.014 101.872V99.5568L191.941 101.615C186.504 103.158 183.523 108.046 183.523 115.635Z" stroke="var(--stroke-0, #A2FF00)" stroke-width="71.7772" stroke-linejoin="round" mask="url(#path-1-outside-1_0_7)"/>
<path d="M213.489 133.642V123.609H224.362V47.8505H214.074V37.8179H229.448V123.609H240.38V133.642H213.489Z" stroke="var(--stroke-0, #A2FF00)" stroke-width="71.7772" stroke-linejoin="round" mask="url(#path-1-outside-1_0_7)"/>
<path d="M297.858 135.571C288.563 135.571 282.834 124.252 282.425 104.83H287.627C287.861 117.435 291.836 125.281 297.799 125.281C302.944 125.281 306.276 119.107 306.276 109.589C306.276 102.387 304.171 97.113 300.196 94.2833L292.889 89.3956C286.692 85.1511 283.594 77.3051 283.594 65.6004C283.594 50.6802 289.381 39.1042 296.864 39.1042C304.99 39.1042 310.602 49.9085 311.128 66.5008H305.925C305.516 56.0823 302.008 49.394 296.981 49.394C292.596 49.394 288.972 56.211 288.972 64.5714C288.972 71.3884 290.901 76.0189 294.935 78.5913L302.184 83.479C308.439 87.5949 311.654 96.5985 311.654 109.718C311.654 124.51 305.75 135.571 297.858 135.571Z" stroke="var(--stroke-0, #A2FF00)" stroke-width="71.7772" stroke-linejoin="round" mask="url(#path-1-outside-1_0_7)"/>
<path d="M324.55 160.009L329.812 130.04L316.892 67.0153H322.446L332.384 115.506L340.86 67.0153H346.122L329.87 160.009H324.55Z" stroke="var(--stroke-0, #A2FF00)" stroke-width="71.7772" stroke-linejoin="round" mask="url(#path-1-outside-1_0_7)"/>
<path d="M367.553 135.571C359.837 135.571 354.225 126.182 354.049 112.29H359.077C359.427 120.78 362.818 125.924 367.787 125.924C371.938 125.924 375.094 121.937 375.094 115.763C375.094 111.261 373.399 107.917 370.827 106.631L362.935 103.158C358.024 100.972 355.335 94.2833 355.335 85.4083C355.335 72.6747 360.129 65.0859 367.202 65.0859C374.159 65.0859 379.362 73.9609 379.596 86.6945H374.627C374.334 79.7489 371.178 74.7326 367.085 74.7326C363.052 74.7326 360.48 78.9772 360.48 84.3793C360.48 88.8811 361.883 91.5822 364.338 92.8684L372.464 96.4699C377.374 98.7851 380.239 105.216 380.239 114.992C380.239 127.468 375.211 135.571 367.553 135.571Z" stroke="var(--stroke-0, #A2FF00)" stroke-width="71.7772" stroke-linejoin="round" mask="url(#path-1-outside-1_0_7)"/>
<path d="M388.166 77.0478V67.0153H398.513V47.7219L403.599 41.9338V67.0153H416.226V77.0478H403.599V108.175C403.599 118.593 406.347 124.767 410.965 124.767C413.011 124.767 414.999 123.866 416.811 122.323V132.356C415.116 134.028 412.719 135.057 410.497 135.057C402.956 135.057 398.513 125.024 398.513 108.432V77.0478H388.166Z" stroke="var(--stroke-0, #A2FF00)" stroke-width="71.7772" stroke-linejoin="round" mask="url(#path-1-outside-1_0_7)"/>
<path d="M437.716 135.571C429.298 135.571 423.452 121.037 423.452 100.329C423.452 79.8775 429.415 65.0859 437.716 65.0859C446.368 65.0859 452.039 81.421 450.928 103.03H428.421C428.831 116.792 432.28 125.281 437.658 125.281C441.691 125.281 444.673 120.908 445.55 113.448H450.694C449.467 126.825 444.322 135.571 437.716 135.571ZM437.658 75.3757C432.864 75.3757 429.532 82.45 428.597 93.7688H445.784C445.491 82.5786 442.451 75.3757 437.658 75.3757Z" stroke="var(--stroke-0, #A2FF00)" stroke-width="71.7772" stroke-linejoin="round" mask="url(#path-1-outside-1_0_7)"/>
<path d="M457.92 133.642V67.0153H462.831V72.2888C463.766 67.787 465.695 65.0859 468.15 65.0859C470.606 65.0859 472.652 68.4301 473.587 73.4464C474.639 68.5587 476.978 65.0859 479.491 65.0859C483.759 65.0859 486.682 72.0316 486.682 82.3214V133.642H481.596V83.9935C481.596 78.9772 480.251 75.633 478.322 75.633C476.393 75.633 474.873 79.3631 474.873 83.9935V133.642H469.787V83.9935C469.787 78.9772 468.384 75.633 466.338 75.633C464.468 75.633 463.006 79.2344 463.006 83.9935V133.642H457.92Z" stroke="var(--stroke-0, #A2FF00)" stroke-width="71.7772" stroke-linejoin="round" mask="url(#path-1-outside-1_0_7)"/>
</g>
</svg>
