<svg width="165" height="216" viewBox="0 0 165 216" fill="none" xmlns="http://www.w3.org/2000/svg">
<mask id="path-1-outside-1_225_242" maskUnits="userSpaceOnUse" x="-0.837402" y="-0.837891" width="166" height="217" fill="black">
<rect fill="white" x="-0.837402" y="-0.837891" width="166" height="217"/>
<path d="M40.1626 175.162L56.9686 40.1621H64.8368L81.4136 175.162H74.4621L70.4133 141.6H51.2393L47.1142 175.162H40.1626ZM53.0726 126.787H68.6564L60.9409 62.6621L53.0726 126.787Z"/>
<path d="M89.0228 175.162V159.6H103.232V55.7246H89.7868V40.1621H123.399V55.7246H109.954V159.6H124.163V175.162H89.0228Z"/>
</mask>
<path d="M40.1626 175.162L56.9686 40.1621H64.8368L81.4136 175.162H74.4621L70.4133 141.6H51.2393L47.1142 175.162H40.1626ZM53.0726 126.787H68.6564L60.9409 62.6621L53.0726 126.787Z" fill="black"/>
<path d="M89.0228 175.162V159.6H103.232V55.7246H89.7868V40.1621H123.399V55.7246H109.954V159.6H124.163V175.162H89.0228Z" fill="black"/>
<path d="M40.1626 175.162L56.9686 40.1621H64.8368L81.4136 175.162H74.4621L70.4133 141.6H51.2393L47.1142 175.162H40.1626ZM53.0726 126.787H68.6564L60.9409 62.6621L53.0726 126.787Z" stroke="#99D0FF" stroke-width="80.325" stroke-linejoin="round" mask="url(#path-1-outside-1_225_242)"/>
<path d="M89.0228 175.162V159.6H103.232V55.7246H89.7868V40.1621H123.399V55.7246H109.954V159.6H124.163V175.162H89.0228Z" stroke="#99D0FF" stroke-width="80.325" stroke-linejoin="round" mask="url(#path-1-outside-1_225_242)"/>
</svg>
