<svg preserveAspectRatio="none" width="100%" height="100%" overflow="visible" style="display: block;" viewBox="0 0 164.325 215.325" fill="none" xmlns="http://www.w3.org/2000/svg">
<path id="AI Visual System" d="M64.8366 20.0814C69.5232 20.0814 73.8688 21.6977 77.3112 24.4281C80.7376 21.7077 85.0718 20.0815 89.7867 20.0814H123.399C134.49 20.0816 143.48 29.072 143.48 40.1625V55.725C143.48 64.4894 137.865 71.9402 130.036 74.6811V140.392C138.261 142.904 144.244 150.553 144.244 159.6V175.162C144.244 186.253 135.253 195.244 124.163 195.244H89.0231C87.7194 195.244 86.445 195.118 85.2106 194.88C83.969 195.119 82.6983 195.244 81.4137 195.244H74.4625C69.2128 195.244 64.3897 193.218 60.7867 189.869C57.1836 193.218 52.3622 195.244 47.1139 195.244H40.1627C34.4047 195.244 28.9238 192.772 25.1119 188.456C21.3002 184.141 19.5238 178.396 20.235 172.682L37.0416 37.682C38.2932 27.6284 46.8372 20.0816 56.9684 20.0814H64.8366Z" fill="var(--fill-0, black)" stroke="var(--stroke-0, #99D0FF)" stroke-width="40.1625" stroke-linejoin="round"/>
</svg>
