<svg width="509" height="416" viewBox="0 0 509 416" fill="none" xmlns="http://www.w3.org/2000/svg">
<mask id="path-1-outside-1_225_240" maskUnits="userSpaceOnUse" x="160.163" y="-0.837891" width="349" height="417" fill="black">
<rect fill="white" x="160.163" y="-0.837891" width="349" height="417"/>
<path d="M201.163 47.6481H208.305L221.829 157.131L235.05 47.6481H242.192L225.704 182.396H217.878L201.163 47.6481Z"/>
<path d="M267.236 68.0475C264.045 68.0475 261.538 61.8716 261.538 54.1984C261.538 46.3381 264.045 40.1621 267.236 40.1621C270.427 40.1621 272.935 46.3381 272.935 54.1984C272.935 61.8716 270.427 68.0475 267.236 68.0475ZM249.761 182.396V167.799H263.893V100.05H250.52V85.4525H270.503V167.799H284.712V182.396H249.761Z"/>
<path d="M313.327 185.204C303.297 185.204 296.003 171.542 295.775 151.33H302.31C302.766 163.681 307.172 171.167 313.631 171.167C319.025 171.167 323.128 165.366 323.128 156.383C323.128 149.832 320.925 144.966 317.582 143.095L307.324 138.042C300.942 134.86 297.447 125.128 297.447 112.215C297.447 93.6872 303.677 82.6453 312.871 82.6453C321.913 82.6453 328.675 95.5586 328.979 114.087H322.521C322.141 103.98 318.038 96.6815 312.719 96.6815C307.476 96.6815 304.133 102.858 304.133 110.718C304.133 117.268 305.957 121.198 309.148 123.07L319.709 128.31C326.092 131.679 329.815 141.036 329.815 155.26C329.815 173.413 323.28 185.204 313.327 185.204Z"/>
<path d="M374.69 85.4525V182.396H368.307V169.296C366.028 178.279 361.165 185.204 356.53 185.204C347.64 185.204 342.018 170.606 342.018 147.399V85.4525H348.628V144.405C348.628 160.126 351.971 169.857 357.366 169.857C363.368 169.857 368.079 157.693 368.079 141.785V85.4525H374.69Z"/>
<path d="M399.582 185.204C391.832 185.204 386.589 173.975 386.589 157.131C386.589 138.042 392.971 125.503 403.913 122.321L413.182 119.701V118.952C413.182 104.916 409.611 96.8687 403.761 96.8687C398.366 96.8687 393.959 104.542 393.503 114.835H387.121C387.729 95.7458 394.567 82.6453 403.913 82.6453C413.41 82.6453 419.565 96.8687 419.565 119.514V153.575C419.565 161.436 419.641 169.857 419.869 182.396H413.486V165.179C410.447 178.279 405.66 185.204 399.582 185.204ZM393.047 156.195C393.047 164.991 396.011 170.98 400.493 170.98C407.864 170.98 413.182 156.757 413.182 136.17V132.802L403.989 135.796C396.922 138.042 393.047 145.154 393.047 156.195Z"/>
<path d="M431.996 182.396V167.799H446.128V57.5671H432.756V42.9694H452.739V167.799H466.947V182.396H431.996Z"/>
<path d="M222.741 339.604C210.66 339.604 203.214 323.134 202.682 294.875H209.445C209.748 313.215 214.915 324.631 222.665 324.631C229.351 324.631 233.682 315.648 233.682 301.799C233.682 291.319 230.947 283.645 225.78 279.528L216.283 272.416C208.229 266.241 204.202 254.824 204.202 237.794C204.202 216.084 211.724 199.241 221.449 199.241C232.011 199.241 239.305 214.961 239.989 239.104H233.226C232.695 223.944 228.136 214.213 221.601 214.213C215.903 214.213 211.192 224.132 211.192 236.296C211.192 246.215 213.699 252.953 218.942 256.696L228.364 263.808C236.494 269.796 240.673 282.897 240.673 301.986C240.673 323.509 232.999 339.604 222.741 339.604Z"/>
<path d="M257.435 375.162L264.273 331.556L247.481 239.852H254.699L267.616 310.408L278.633 239.852H285.472L264.349 375.162H257.435Z"/>
<path d="M313.327 339.604C303.297 339.604 296.003 325.942 295.775 305.729H302.31C302.766 318.081 307.172 325.567 313.631 325.567C319.025 325.567 323.128 319.766 323.128 310.782C323.128 304.232 320.925 299.366 317.582 297.495L307.324 292.442C300.942 289.26 297.447 279.528 297.447 266.615C297.447 248.087 303.677 237.045 312.871 237.045C321.913 237.045 328.675 249.958 328.979 268.486H322.521C322.141 258.38 318.038 251.081 312.719 251.081C307.476 251.081 304.133 257.257 304.133 265.118C304.133 271.668 305.957 275.598 309.148 277.47L319.709 282.71C326.092 286.078 329.815 295.436 329.815 309.659C329.815 327.813 323.28 339.604 313.327 339.604Z"/>
<path d="M340.118 254.45V239.852H353.567V211.78L360.177 203.358V239.852H376.589V254.45H360.177V299.74C360.177 314.9 363.748 323.883 369.751 323.883C372.41 323.883 374.994 322.573 377.349 320.327V334.925C375.146 337.358 372.03 338.855 369.143 338.855C359.342 338.855 353.567 324.257 353.567 300.115V254.45H340.118Z"/>
<path d="M404.52 339.604C393.579 339.604 385.981 318.455 385.981 288.324C385.981 258.567 393.731 237.045 404.52 237.045C415.766 237.045 423.136 260.813 421.692 292.254H392.439C392.971 312.28 397.454 324.631 404.444 324.631C409.687 324.631 413.562 318.268 414.702 307.414H421.388C419.793 326.877 413.106 339.604 404.52 339.604ZM404.444 252.017C398.214 252.017 393.883 262.31 392.667 278.78H415.006C414.626 262.497 410.675 252.017 404.444 252.017Z"/>
<path d="M430.78 336.796V239.852H437.162V247.525C438.378 240.975 440.886 237.045 444.077 237.045C447.268 237.045 449.927 241.911 451.143 249.21C452.511 242.098 455.55 237.045 458.817 237.045C464.364 237.045 468.163 247.151 468.163 262.123V336.796H461.552V264.556C461.552 257.257 459.805 252.391 457.297 252.391C454.79 252.391 452.814 257.819 452.814 264.556V336.796H446.204V264.556C446.204 257.257 444.381 252.391 441.721 252.391C439.29 252.391 437.39 257.632 437.39 264.556V336.796H430.78Z"/>
</mask>
<path d="M201.163 47.6481H208.305L221.829 157.131L235.05 47.6481H242.192L225.704 182.396H217.878L201.163 47.6481Z" fill="black"/>
<path d="M267.236 68.0475C264.045 68.0475 261.538 61.8716 261.538 54.1984C261.538 46.3381 264.045 40.1621 267.236 40.1621C270.427 40.1621 272.935 46.3381 272.935 54.1984C272.935 61.8716 270.427 68.0475 267.236 68.0475ZM249.761 182.396V167.799H263.893V100.05H250.52V85.4525H270.503V167.799H284.712V182.396H249.761Z" fill="black"/>
<path d="M313.327 185.204C303.297 185.204 296.003 171.542 295.775 151.33H302.31C302.766 163.681 307.172 171.167 313.631 171.167C319.025 171.167 323.128 165.366 323.128 156.383C323.128 149.832 320.925 144.966 317.582 143.095L307.324 138.042C300.942 134.86 297.447 125.128 297.447 112.215C297.447 93.6872 303.677 82.6453 312.871 82.6453C321.913 82.6453 328.675 95.5586 328.979 114.087H322.521C322.141 103.98 318.038 96.6815 312.719 96.6815C307.476 96.6815 304.133 102.858 304.133 110.718C304.133 117.268 305.957 121.198 309.148 123.07L319.709 128.31C326.092 131.679 329.815 141.036 329.815 155.26C329.815 173.413 323.28 185.204 313.327 185.204Z" fill="black"/>
<path d="M374.69 85.4525V182.396H368.307V169.296C366.028 178.279 361.165 185.204 356.53 185.204C347.64 185.204 342.018 170.606 342.018 147.399V85.4525H348.628V144.405C348.628 160.126 351.971 169.857 357.366 169.857C363.368 169.857 368.079 157.693 368.079 141.785V85.4525H374.69Z" fill="black"/>
<path d="M399.582 185.204C391.832 185.204 386.589 173.975 386.589 157.131C386.589 138.042 392.971 125.503 403.913 122.321L413.182 119.701V118.952C413.182 104.916 409.611 96.8687 403.761 96.8687C398.366 96.8687 393.959 104.542 393.503 114.835H387.121C387.729 95.7458 394.567 82.6453 403.913 82.6453C413.41 82.6453 419.565 96.8687 419.565 119.514V153.575C419.565 161.436 419.641 169.857 419.869 182.396H413.486V165.179C410.447 178.279 405.66 185.204 399.582 185.204ZM393.047 156.195C393.047 164.991 396.011 170.98 400.493 170.98C407.864 170.98 413.182 156.757 413.182 136.17V132.802L403.989 135.796C396.922 138.042 393.047 145.154 393.047 156.195Z" fill="black"/>
<path d="M431.996 182.396V167.799H446.128V57.5671H432.756V42.9694H452.739V167.799H466.947V182.396H431.996Z" fill="black"/>
<path d="M222.741 339.604C210.66 339.604 203.214 323.134 202.682 294.875H209.445C209.748 313.215 214.915 324.631 222.665 324.631C229.351 324.631 233.682 315.648 233.682 301.799C233.682 291.319 230.947 283.645 225.78 279.528L216.283 272.416C208.229 266.241 204.202 254.824 204.202 237.794C204.202 216.084 211.724 199.241 221.449 199.241C232.011 199.241 239.305 214.961 239.989 239.104H233.226C232.695 223.944 228.136 214.213 221.601 214.213C215.903 214.213 211.192 224.132 211.192 236.296C211.192 246.215 213.699 252.953 218.942 256.696L228.364 263.808C236.494 269.796 240.673 282.897 240.673 301.986C240.673 323.509 232.999 339.604 222.741 339.604Z" fill="black"/>
<path d="M257.435 375.162L264.273 331.556L247.481 239.852H254.699L267.616 310.408L278.633 239.852H285.472L264.349 375.162H257.435Z" fill="black"/>
<path d="M313.327 339.604C303.297 339.604 296.003 325.942 295.775 305.729H302.31C302.766 318.081 307.172 325.567 313.631 325.567C319.025 325.567 323.128 319.766 323.128 310.782C323.128 304.232 320.925 299.366 317.582 297.495L307.324 292.442C300.942 289.26 297.447 279.528 297.447 266.615C297.447 248.087 303.677 237.045 312.871 237.045C321.913 237.045 328.675 249.958 328.979 268.486H322.521C322.141 258.38 318.038 251.081 312.719 251.081C307.476 251.081 304.133 257.257 304.133 265.118C304.133 271.668 305.957 275.598 309.148 277.47L319.709 282.71C326.092 286.078 329.815 295.436 329.815 309.659C329.815 327.813 323.28 339.604 313.327 339.604Z" fill="black"/>
<path d="M340.118 254.45V239.852H353.567V211.78L360.177 203.358V239.852H376.589V254.45H360.177V299.74C360.177 314.9 363.748 323.883 369.751 323.883C372.41 323.883 374.994 322.573 377.349 320.327V334.925C375.146 337.358 372.03 338.855 369.143 338.855C359.342 338.855 353.567 324.257 353.567 300.115V254.45H340.118Z" fill="black"/>
<path d="M404.52 339.604C393.579 339.604 385.981 318.455 385.981 288.324C385.981 258.567 393.731 237.045 404.52 237.045C415.766 237.045 423.136 260.813 421.692 292.254H392.439C392.971 312.28 397.454 324.631 404.444 324.631C409.687 324.631 413.562 318.268 414.702 307.414H421.388C419.793 326.877 413.106 339.604 404.52 339.604ZM404.444 252.017C398.214 252.017 393.883 262.31 392.667 278.78H415.006C414.626 262.497 410.675 252.017 404.444 252.017Z" fill="black"/>
<path d="M430.78 336.796V239.852H437.162V247.525C438.378 240.975 440.886 237.045 444.077 237.045C447.268 237.045 449.927 241.911 451.143 249.21C452.511 242.098 455.55 237.045 458.817 237.045C464.364 237.045 468.163 247.151 468.163 262.123V336.796H461.552V264.556C461.552 257.257 459.805 252.391 457.297 252.391C454.79 252.391 452.814 257.819 452.814 264.556V336.796H446.204V264.556C446.204 257.257 444.381 252.391 441.721 252.391C439.29 252.391 437.39 257.632 437.39 264.556V336.796H430.78Z" fill="black"/>
<path d="M201.163 47.6481H208.305L221.829 157.131L235.05 47.6481H242.192L225.704 182.396H217.878L201.163 47.6481Z" stroke="#99D0FF" stroke-width="80.325" stroke-linejoin="round" mask="url(#path-1-outside-1_225_240)"/>
<path d="M267.236 68.0475C264.045 68.0475 261.538 61.8716 261.538 54.1984C261.538 46.3381 264.045 40.1621 267.236 40.1621C270.427 40.1621 272.935 46.3381 272.935 54.1984C272.935 61.8716 270.427 68.0475 267.236 68.0475ZM249.761 182.396V167.799H263.893V100.05H250.52V85.4525H270.503V167.799H284.712V182.396H249.761Z" stroke="#99D0FF" stroke-width="80.325" stroke-linejoin="round" mask="url(#path-1-outside-1_225_240)"/>
<path d="M313.327 185.204C303.297 185.204 296.003 171.542 295.775 151.33H302.31C302.766 163.681 307.172 171.167 313.631 171.167C319.025 171.167 323.128 165.366 323.128 156.383C323.128 149.832 320.925 144.966 317.582 143.095L307.324 138.042C300.942 134.86 297.447 125.128 297.447 112.215C297.447 93.6872 303.677 82.6453 312.871 82.6453C321.913 82.6453 328.675 95.5586 328.979 114.087H322.521C322.141 103.98 318.038 96.6815 312.719 96.6815C307.476 96.6815 304.133 102.858 304.133 110.718C304.133 117.268 305.957 121.198 309.148 123.07L319.709 128.31C326.092 131.679 329.815 141.036 329.815 155.26C329.815 173.413 323.28 185.204 313.327 185.204Z" stroke="#99D0FF" stroke-width="80.325" stroke-linejoin="round" mask="url(#path-1-outside-1_225_240)"/>
<path d="M374.69 85.4525V182.396H368.307V169.296C366.028 178.279 361.165 185.204 356.53 185.204C347.64 185.204 342.018 170.606 342.018 147.399V85.4525H348.628V144.405C348.628 160.126 351.971 169.857 357.366 169.857C363.368 169.857 368.079 157.693 368.079 141.785V85.4525H374.69Z" stroke="#99D0FF" stroke-width="80.325" stroke-linejoin="round" mask="url(#path-1-outside-1_225_240)"/>
<path d="M399.582 185.204C391.832 185.204 386.589 173.975 386.589 157.131C386.589 138.042 392.971 125.503 403.913 122.321L413.182 119.701V118.952C413.182 104.916 409.611 96.8687 403.761 96.8687C398.366 96.8687 393.959 104.542 393.503 114.835H387.121C387.729 95.7458 394.567 82.6453 403.913 82.6453C413.41 82.6453 419.565 96.8687 419.565 119.514V153.575C419.565 161.436 419.641 169.857 419.869 182.396H413.486V165.179C410.447 178.279 405.66 185.204 399.582 185.204ZM393.047 156.195C393.047 164.991 396.011 170.98 400.493 170.98C407.864 170.98 413.182 156.757 413.182 136.17V132.802L403.989 135.796C396.922 138.042 393.047 145.154 393.047 156.195Z" stroke="#99D0FF" stroke-width="80.325" stroke-linejoin="round" mask="url(#path-1-outside-1_225_240)"/>
<path d="M431.996 182.396V167.799H446.128V57.5671H432.756V42.9694H452.739V167.799H466.947V182.396H431.996Z" stroke="#99D0FF" stroke-width="80.325" stroke-linejoin="round" mask="url(#path-1-outside-1_225_240)"/>
<path d="M222.741 339.604C210.66 339.604 203.214 323.134 202.682 294.875H209.445C209.748 313.215 214.915 324.631 222.665 324.631C229.351 324.631 233.682 315.648 233.682 301.799C233.682 291.319 230.947 283.645 225.78 279.528L216.283 272.416C208.229 266.241 204.202 254.824 204.202 237.794C204.202 216.084 211.724 199.241 221.449 199.241C232.011 199.241 239.305 214.961 239.989 239.104H233.226C232.695 223.944 228.136 214.213 221.601 214.213C215.903 214.213 211.192 224.132 211.192 236.296C211.192 246.215 213.699 252.953 218.942 256.696L228.364 263.808C236.494 269.796 240.673 282.897 240.673 301.986C240.673 323.509 232.999 339.604 222.741 339.604Z" stroke="#99D0FF" stroke-width="80.325" stroke-linejoin="round" mask="url(#path-1-outside-1_225_240)"/>
<path d="M257.435 375.162L264.273 331.556L247.481 239.852H254.699L267.616 310.408L278.633 239.852H285.472L264.349 375.162H257.435Z" stroke="#99D0FF" stroke-width="80.325" stroke-linejoin="round" mask="url(#path-1-outside-1_225_240)"/>
<path d="M313.327 339.604C303.297 339.604 296.003 325.942 295.775 305.729H302.31C302.766 318.081 307.172 325.567 313.631 325.567C319.025 325.567 323.128 319.766 323.128 310.782C323.128 304.232 320.925 299.366 317.582 297.495L307.324 292.442C300.942 289.26 297.447 279.528 297.447 266.615C297.447 248.087 303.677 237.045 312.871 237.045C321.913 237.045 328.675 249.958 328.979 268.486H322.521C322.141 258.38 318.038 251.081 312.719 251.081C307.476 251.081 304.133 257.257 304.133 265.118C304.133 271.668 305.957 275.598 309.148 277.47L319.709 282.71C326.092 286.078 329.815 295.436 329.815 309.659C329.815 327.813 323.28 339.604 313.327 339.604Z" stroke="#99D0FF" stroke-width="80.325" stroke-linejoin="round" mask="url(#path-1-outside-1_225_240)"/>
<path d="M340.118 254.45V239.852H353.567V211.78L360.177 203.358V239.852H376.589V254.45H360.177V299.74C360.177 314.9 363.748 323.883 369.751 323.883C372.41 323.883 374.994 322.573 377.349 320.327V334.925C375.146 337.358 372.03 338.855 369.143 338.855C359.342 338.855 353.567 324.257 353.567 300.115V254.45H340.118Z" stroke="#99D0FF" stroke-width="80.325" stroke-linejoin="round" mask="url(#path-1-outside-1_225_240)"/>
<path d="M404.52 339.604C393.579 339.604 385.981 318.455 385.981 288.324C385.981 258.567 393.731 237.045 404.52 237.045C415.766 237.045 423.136 260.813 421.692 292.254H392.439C392.971 312.28 397.454 324.631 404.444 324.631C409.687 324.631 413.562 318.268 414.702 307.414H421.388C419.793 326.877 413.106 339.604 404.52 339.604ZM404.444 252.017C398.214 252.017 393.883 262.31 392.667 278.78H415.006C414.626 262.497 410.675 252.017 404.444 252.017Z" stroke="#99D0FF" stroke-width="80.325" stroke-linejoin="round" mask="url(#path-1-outside-1_225_240)"/>
<path d="M430.78 336.796V239.852H437.162V247.525C438.378 240.975 440.886 237.045 444.077 237.045C447.268 237.045 449.927 241.911 451.143 249.21C452.511 242.098 455.55 237.045 458.817 237.045C464.364 237.045 468.163 247.151 468.163 262.123V336.796H461.552V264.556C461.552 257.257 459.805 252.391 457.297 252.391C454.79 252.391 452.814 257.819 452.814 264.556V336.796H446.204V264.556C446.204 257.257 444.381 252.391 441.721 252.391C439.29 252.391 437.39 257.632 437.39 264.556V336.796H430.78Z" stroke="#99D0FF" stroke-width="80.325" stroke-linejoin="round" mask="url(#path-1-outside-1_225_240)"/>
<mask id="path-2-outside-2_225_240" maskUnits="userSpaceOnUse" x="-0.837402" y="98.1621" width="166" height="217" fill="black">
<rect fill="white" x="-0.837402" y="98.1621" width="166" height="217"/>
<path d="M40.1626 274.162L56.9686 139.162H64.8368L81.4136 274.162H74.4621L70.4133 240.6H51.2393L47.1142 274.162H40.1626ZM53.0726 225.787H68.6564L60.9409 161.662L53.0726 225.787Z"/>
<path d="M89.0228 274.162V258.6H103.232V154.725H89.7868V139.162H123.399V154.725H109.954V258.6H124.163V274.162H89.0228Z"/>
</mask>
<path d="M40.1626 274.162L56.9686 139.162H64.8368L81.4136 274.162H74.4621L70.4133 240.6H51.2393L47.1142 274.162H40.1626ZM53.0726 225.787H68.6564L60.9409 161.662L53.0726 225.787Z" fill="black"/>
<path d="M89.0228 274.162V258.6H103.232V154.725H89.7868V139.162H123.399V154.725H109.954V258.6H124.163V274.162H89.0228Z" fill="black"/>
<path d="M40.1626 274.162L56.9686 139.162H64.8368L81.4136 274.162H74.4621L70.4133 240.6H51.2393L47.1142 274.162H40.1626ZM53.0726 225.787H68.6564L60.9409 161.662L53.0726 225.787Z" stroke="#99D0FF" stroke-width="80.325" stroke-linejoin="round" mask="url(#path-2-outside-2_225_240)"/>
<path d="M89.0228 274.162V258.6H103.232V154.725H89.7868V139.162H123.399V154.725H109.954V258.6H124.163V274.162H89.0228Z" stroke="#99D0FF" stroke-width="80.325" stroke-linejoin="round" mask="url(#path-2-outside-2_225_240)"/>
</svg>
