<svg width="348" height="416" viewBox="0 0 348 416" fill="none" xmlns="http://www.w3.org/2000/svg">
<mask id="path-1-outside-1_225_241" maskUnits="userSpaceOnUse" x="-0.837402" y="-0.837891" width="349" height="417" fill="black">
<rect fill="white" x="-0.837402" y="-0.837891" width="349" height="417"/>
<path d="M40.1626 47.6481H47.3048L60.8294 157.131L74.05 47.6481H81.1922L64.7044 182.396H56.8784L40.1626 47.6481Z"/>
<path d="M106.236 68.0475C103.045 68.0475 100.538 61.8716 100.538 54.1984C100.538 46.3381 103.045 40.1621 106.236 40.1621C109.427 40.1621 111.935 46.3381 111.935 54.1984C111.935 61.8716 109.427 68.0475 106.236 68.0475ZM88.7606 182.396V167.799H102.893V100.05H89.5204V85.4525H109.503V167.799H123.712V182.396H88.7606Z"/>
<path d="M152.327 185.204C142.297 185.204 135.003 171.542 134.775 151.33H141.31C141.766 163.681 146.172 171.167 152.631 171.167C158.025 171.167 162.128 165.366 162.128 156.383C162.128 149.832 159.925 144.966 156.582 143.095L146.324 138.042C139.942 134.86 136.447 125.128 136.447 112.215C136.447 93.6872 142.677 82.6453 151.871 82.6453C160.913 82.6453 167.675 95.5586 167.979 114.087H161.521C161.141 103.98 157.038 96.6815 151.719 96.6815C146.476 96.6815 143.133 102.858 143.133 110.718C143.133 117.268 144.957 121.198 148.148 123.07L158.709 128.31C165.092 131.679 168.815 141.036 168.815 155.26C168.815 173.413 162.28 185.204 152.327 185.204Z"/>
<path d="M213.69 85.4525V182.396H207.307V169.296C205.028 178.279 200.165 185.204 195.53 185.204C186.64 185.204 181.018 170.606 181.018 147.399V85.4525H187.628V144.405C187.628 160.126 190.971 169.857 196.366 169.857C202.368 169.857 207.079 157.693 207.079 141.785V85.4525H213.69Z"/>
<path d="M238.582 185.204C230.832 185.204 225.589 173.975 225.589 157.131C225.589 138.042 231.971 125.503 242.913 122.321L252.182 119.701V118.952C252.182 104.916 248.611 96.8687 242.761 96.8687C237.366 96.8687 232.959 104.542 232.503 114.835H226.121C226.729 95.7458 233.567 82.6453 242.913 82.6453C252.41 82.6453 258.565 96.8687 258.565 119.514V153.575C258.565 161.436 258.641 169.857 258.869 182.396H252.486V165.179C249.447 178.279 244.66 185.204 238.582 185.204ZM232.047 156.195C232.047 164.991 235.011 170.98 239.493 170.98C246.864 170.98 252.182 156.757 252.182 136.17V132.802L242.989 135.796C235.922 138.042 232.047 145.154 232.047 156.195Z"/>
<path d="M270.996 182.396V167.799H285.128V57.5671H271.756V42.9694H291.739V167.799H305.947V182.396H270.996Z"/>
<path d="M61.7411 339.604C49.6602 339.604 42.2141 323.134 41.6822 294.875H48.4445C48.7484 313.215 53.9151 324.631 61.6652 324.631C68.3515 324.631 72.6824 315.648 72.6824 301.799C72.6824 291.319 69.9471 283.645 64.7804 279.528L55.2828 272.416C47.2288 266.241 43.2018 254.824 43.2018 237.794C43.2018 216.084 50.7239 199.241 60.4495 199.241C71.0108 199.241 78.3049 214.961 78.9888 239.104H72.2265C71.6946 223.944 67.1358 214.213 60.6014 214.213C54.9029 214.213 50.1921 224.132 50.1921 236.296C50.1921 246.215 52.6994 252.953 57.9421 256.696L67.3637 263.808C75.4937 269.796 79.6726 282.897 79.6726 301.986C79.6726 323.509 71.9985 339.604 61.7411 339.604Z"/>
<path d="M96.4347 375.162L103.273 331.556L86.4812 239.852H93.6994L106.616 310.408L117.633 239.852H124.472L103.349 375.162H96.4347Z"/>
<path d="M152.327 339.604C142.297 339.604 135.003 325.942 134.775 305.729H141.31C141.766 318.081 146.172 325.567 152.631 325.567C158.025 325.567 162.128 319.766 162.128 310.782C162.128 304.232 159.925 299.366 156.582 297.495L146.324 292.442C139.942 289.26 136.447 279.528 136.447 266.615C136.447 248.087 142.677 237.045 151.871 237.045C160.913 237.045 167.675 249.958 167.979 268.486H161.521C161.141 258.38 157.038 251.081 151.719 251.081C146.476 251.081 143.133 257.257 143.133 265.118C143.133 271.668 144.957 275.598 148.148 277.47L158.709 282.71C165.092 286.078 168.815 295.436 168.815 309.659C168.815 327.813 162.28 339.604 152.327 339.604Z"/>
<path d="M179.118 254.45V239.852H192.567V211.78L199.177 203.358V239.852H215.589V254.45H199.177V299.74C199.177 314.9 202.748 323.883 208.751 323.883C211.41 323.883 213.994 322.573 216.349 320.327V334.925C214.146 337.358 211.03 338.855 208.143 338.855C198.342 338.855 192.567 324.257 192.567 300.115V254.45H179.118Z"/>
<path d="M243.52 339.604C232.579 339.604 224.981 318.455 224.981 288.324C224.981 258.567 232.731 237.045 243.52 237.045C254.766 237.045 262.136 260.813 260.692 292.254H231.439C231.971 312.28 236.454 324.631 243.444 324.631C248.687 324.631 252.562 318.268 253.702 307.414H260.388C258.793 326.877 252.106 339.604 243.52 339.604ZM243.444 252.017C237.214 252.017 232.883 262.31 231.667 278.78H254.006C253.626 262.497 249.675 252.017 243.444 252.017Z"/>
<path d="M269.78 336.796V239.852H276.162V247.525C277.378 240.975 279.886 237.045 283.077 237.045C286.268 237.045 288.927 241.911 290.143 249.21C291.511 242.098 294.55 237.045 297.817 237.045C303.364 237.045 307.163 247.151 307.163 262.123V336.796H300.552V264.556C300.552 257.257 298.805 252.391 296.297 252.391C293.79 252.391 291.814 257.819 291.814 264.556V336.796H285.204V264.556C285.204 257.257 283.381 252.391 280.721 252.391C278.29 252.391 276.39 257.632 276.39 264.556V336.796H269.78Z"/>
</mask>
<path d="M40.1626 47.6481H47.3048L60.8294 157.131L74.05 47.6481H81.1922L64.7044 182.396H56.8784L40.1626 47.6481Z" fill="black"/>
<path d="M106.236 68.0475C103.045 68.0475 100.538 61.8716 100.538 54.1984C100.538 46.3381 103.045 40.1621 106.236 40.1621C109.427 40.1621 111.935 46.3381 111.935 54.1984C111.935 61.8716 109.427 68.0475 106.236 68.0475ZM88.7606 182.396V167.799H102.893V100.05H89.5204V85.4525H109.503V167.799H123.712V182.396H88.7606Z" fill="black"/>
<path d="M152.327 185.204C142.297 185.204 135.003 171.542 134.775 151.33H141.31C141.766 163.681 146.172 171.167 152.631 171.167C158.025 171.167 162.128 165.366 162.128 156.383C162.128 149.832 159.925 144.966 156.582 143.095L146.324 138.042C139.942 134.86 136.447 125.128 136.447 112.215C136.447 93.6872 142.677 82.6453 151.871 82.6453C160.913 82.6453 167.675 95.5586 167.979 114.087H161.521C161.141 103.98 157.038 96.6815 151.719 96.6815C146.476 96.6815 143.133 102.858 143.133 110.718C143.133 117.268 144.957 121.198 148.148 123.07L158.709 128.31C165.092 131.679 168.815 141.036 168.815 155.26C168.815 173.413 162.28 185.204 152.327 185.204Z" fill="black"/>
<path d="M213.69 85.4525V182.396H207.307V169.296C205.028 178.279 200.165 185.204 195.53 185.204C186.64 185.204 181.018 170.606 181.018 147.399V85.4525H187.628V144.405C187.628 160.126 190.971 169.857 196.366 169.857C202.368 169.857 207.079 157.693 207.079 141.785V85.4525H213.69Z" fill="black"/>
<path d="M238.582 185.204C230.832 185.204 225.589 173.975 225.589 157.131C225.589 138.042 231.971 125.503 242.913 122.321L252.182 119.701V118.952C252.182 104.916 248.611 96.8687 242.761 96.8687C237.366 96.8687 232.959 104.542 232.503 114.835H226.121C226.729 95.7458 233.567 82.6453 242.913 82.6453C252.41 82.6453 258.565 96.8687 258.565 119.514V153.575C258.565 161.436 258.641 169.857 258.869 182.396H252.486V165.179C249.447 178.279 244.66 185.204 238.582 185.204ZM232.047 156.195C232.047 164.991 235.011 170.98 239.493 170.98C246.864 170.98 252.182 156.757 252.182 136.17V132.802L242.989 135.796C235.922 138.042 232.047 145.154 232.047 156.195Z" fill="black"/>
<path d="M270.996 182.396V167.799H285.128V57.5671H271.756V42.9694H291.739V167.799H305.947V182.396H270.996Z" fill="black"/>
<path d="M61.7411 339.604C49.6602 339.604 42.2141 323.134 41.6822 294.875H48.4445C48.7484 313.215 53.9151 324.631 61.6652 324.631C68.3515 324.631 72.6824 315.648 72.6824 301.799C72.6824 291.319 69.9471 283.645 64.7804 279.528L55.2828 272.416C47.2288 266.241 43.2018 254.824 43.2018 237.794C43.2018 216.084 50.7239 199.241 60.4495 199.241C71.0108 199.241 78.3049 214.961 78.9888 239.104H72.2265C71.6946 223.944 67.1358 214.213 60.6014 214.213C54.9029 214.213 50.1921 224.132 50.1921 236.296C50.1921 246.215 52.6994 252.953 57.9421 256.696L67.3637 263.808C75.4937 269.796 79.6726 282.897 79.6726 301.986C79.6726 323.509 71.9985 339.604 61.7411 339.604Z" fill="black"/>
<path d="M96.4347 375.162L103.273 331.556L86.4812 239.852H93.6994L106.616 310.408L117.633 239.852H124.472L103.349 375.162H96.4347Z" fill="black"/>
<path d="M152.327 339.604C142.297 339.604 135.003 325.942 134.775 305.729H141.31C141.766 318.081 146.172 325.567 152.631 325.567C158.025 325.567 162.128 319.766 162.128 310.782C162.128 304.232 159.925 299.366 156.582 297.495L146.324 292.442C139.942 289.26 136.447 279.528 136.447 266.615C136.447 248.087 142.677 237.045 151.871 237.045C160.913 237.045 167.675 249.958 167.979 268.486H161.521C161.141 258.38 157.038 251.081 151.719 251.081C146.476 251.081 143.133 257.257 143.133 265.118C143.133 271.668 144.957 275.598 148.148 277.47L158.709 282.71C165.092 286.078 168.815 295.436 168.815 309.659C168.815 327.813 162.28 339.604 152.327 339.604Z" fill="black"/>
<path d="M179.118 254.45V239.852H192.567V211.78L199.177 203.358V239.852H215.589V254.45H199.177V299.74C199.177 314.9 202.748 323.883 208.751 323.883C211.41 323.883 213.994 322.573 216.349 320.327V334.925C214.146 337.358 211.03 338.855 208.143 338.855C198.342 338.855 192.567 324.257 192.567 300.115V254.45H179.118Z" fill="black"/>
<path d="M243.52 339.604C232.579 339.604 224.981 318.455 224.981 288.324C224.981 258.567 232.731 237.045 243.52 237.045C254.766 237.045 262.136 260.813 260.692 292.254H231.439C231.971 312.28 236.454 324.631 243.444 324.631C248.687 324.631 252.562 318.268 253.702 307.414H260.388C258.793 326.877 252.106 339.604 243.52 339.604ZM243.444 252.017C237.214 252.017 232.883 262.31 231.667 278.78H254.006C253.626 262.497 249.675 252.017 243.444 252.017Z" fill="black"/>
<path d="M269.78 336.796V239.852H276.162V247.525C277.378 240.975 279.886 237.045 283.077 237.045C286.268 237.045 288.927 241.911 290.143 249.21C291.511 242.098 294.55 237.045 297.817 237.045C303.364 237.045 307.163 247.151 307.163 262.123V336.796H300.552V264.556C300.552 257.257 298.805 252.391 296.297 252.391C293.79 252.391 291.814 257.819 291.814 264.556V336.796H285.204V264.556C285.204 257.257 283.381 252.391 280.721 252.391C278.29 252.391 276.39 257.632 276.39 264.556V336.796H269.78Z" fill="black"/>
<path d="M40.1626 47.6481H47.3048L60.8294 157.131L74.05 47.6481H81.1922L64.7044 182.396H56.8784L40.1626 47.6481Z" stroke="#99D0FF" stroke-width="80.325" stroke-linejoin="round" mask="url(#path-1-outside-1_225_241)"/>
<path d="M106.236 68.0475C103.045 68.0475 100.538 61.8716 100.538 54.1984C100.538 46.3381 103.045 40.1621 106.236 40.1621C109.427 40.1621 111.935 46.3381 111.935 54.1984C111.935 61.8716 109.427 68.0475 106.236 68.0475ZM88.7606 182.396V167.799H102.893V100.05H89.5204V85.4525H109.503V167.799H123.712V182.396H88.7606Z" stroke="#99D0FF" stroke-width="80.325" stroke-linejoin="round" mask="url(#path-1-outside-1_225_241)"/>
<path d="M152.327 185.204C142.297 185.204 135.003 171.542 134.775 151.33H141.31C141.766 163.681 146.172 171.167 152.631 171.167C158.025 171.167 162.128 165.366 162.128 156.383C162.128 149.832 159.925 144.966 156.582 143.095L146.324 138.042C139.942 134.86 136.447 125.128 136.447 112.215C136.447 93.6872 142.677 82.6453 151.871 82.6453C160.913 82.6453 167.675 95.5586 167.979 114.087H161.521C161.141 103.98 157.038 96.6815 151.719 96.6815C146.476 96.6815 143.133 102.858 143.133 110.718C143.133 117.268 144.957 121.198 148.148 123.07L158.709 128.31C165.092 131.679 168.815 141.036 168.815 155.26C168.815 173.413 162.28 185.204 152.327 185.204Z" stroke="#99D0FF" stroke-width="80.325" stroke-linejoin="round" mask="url(#path-1-outside-1_225_241)"/>
<path d="M213.69 85.4525V182.396H207.307V169.296C205.028 178.279 200.165 185.204 195.53 185.204C186.64 185.204 181.018 170.606 181.018 147.399V85.4525H187.628V144.405C187.628 160.126 190.971 169.857 196.366 169.857C202.368 169.857 207.079 157.693 207.079 141.785V85.4525H213.69Z" stroke="#99D0FF" stroke-width="80.325" stroke-linejoin="round" mask="url(#path-1-outside-1_225_241)"/>
<path d="M238.582 185.204C230.832 185.204 225.589 173.975 225.589 157.131C225.589 138.042 231.971 125.503 242.913 122.321L252.182 119.701V118.952C252.182 104.916 248.611 96.8687 242.761 96.8687C237.366 96.8687 232.959 104.542 232.503 114.835H226.121C226.729 95.7458 233.567 82.6453 242.913 82.6453C252.41 82.6453 258.565 96.8687 258.565 119.514V153.575C258.565 161.436 258.641 169.857 258.869 182.396H252.486V165.179C249.447 178.279 244.66 185.204 238.582 185.204ZM232.047 156.195C232.047 164.991 235.011 170.98 239.493 170.98C246.864 170.98 252.182 156.757 252.182 136.17V132.802L242.989 135.796C235.922 138.042 232.047 145.154 232.047 156.195Z" stroke="#99D0FF" stroke-width="80.325" stroke-linejoin="round" mask="url(#path-1-outside-1_225_241)"/>
<path d="M270.996 182.396V167.799H285.128V57.5671H271.756V42.9694H291.739V167.799H305.947V182.396H270.996Z" stroke="#99D0FF" stroke-width="80.325" stroke-linejoin="round" mask="url(#path-1-outside-1_225_241)"/>
<path d="M61.7411 339.604C49.6602 339.604 42.2141 323.134 41.6822 294.875H48.4445C48.7484 313.215 53.9151 324.631 61.6652 324.631C68.3515 324.631 72.6824 315.648 72.6824 301.799C72.6824 291.319 69.9471 283.645 64.7804 279.528L55.2828 272.416C47.2288 266.241 43.2018 254.824 43.2018 237.794C43.2018 216.084 50.7239 199.241 60.4495 199.241C71.0108 199.241 78.3049 214.961 78.9888 239.104H72.2265C71.6946 223.944 67.1358 214.213 60.6014 214.213C54.9029 214.213 50.1921 224.132 50.1921 236.296C50.1921 246.215 52.6994 252.953 57.9421 256.696L67.3637 263.808C75.4937 269.796 79.6726 282.897 79.6726 301.986C79.6726 323.509 71.9985 339.604 61.7411 339.604Z" stroke="#99D0FF" stroke-width="80.325" stroke-linejoin="round" mask="url(#path-1-outside-1_225_241)"/>
<path d="M96.4347 375.162L103.273 331.556L86.4812 239.852H93.6994L106.616 310.408L117.633 239.852H124.472L103.349 375.162H96.4347Z" stroke="#99D0FF" stroke-width="80.325" stroke-linejoin="round" mask="url(#path-1-outside-1_225_241)"/>
<path d="M152.327 339.604C142.297 339.604 135.003 325.942 134.775 305.729H141.31C141.766 318.081 146.172 325.567 152.631 325.567C158.025 325.567 162.128 319.766 162.128 310.782C162.128 304.232 159.925 299.366 156.582 297.495L146.324 292.442C139.942 289.26 136.447 279.528 136.447 266.615C136.447 248.087 142.677 237.045 151.871 237.045C160.913 237.045 167.675 249.958 167.979 268.486H161.521C161.141 258.38 157.038 251.081 151.719 251.081C146.476 251.081 143.133 257.257 143.133 265.118C143.133 271.668 144.957 275.598 148.148 277.47L158.709 282.71C165.092 286.078 168.815 295.436 168.815 309.659C168.815 327.813 162.28 339.604 152.327 339.604Z" stroke="#99D0FF" stroke-width="80.325" stroke-linejoin="round" mask="url(#path-1-outside-1_225_241)"/>
<path d="M179.118 254.45V239.852H192.567V211.78L199.177 203.358V239.852H215.589V254.45H199.177V299.74C199.177 314.9 202.748 323.883 208.751 323.883C211.41 323.883 213.994 322.573 216.349 320.327V334.925C214.146 337.358 211.03 338.855 208.143 338.855C198.342 338.855 192.567 324.257 192.567 300.115V254.45H179.118Z" stroke="#99D0FF" stroke-width="80.325" stroke-linejoin="round" mask="url(#path-1-outside-1_225_241)"/>
<path d="M243.52 339.604C232.579 339.604 224.981 318.455 224.981 288.324C224.981 258.567 232.731 237.045 243.52 237.045C254.766 237.045 262.136 260.813 260.692 292.254H231.439C231.971 312.28 236.454 324.631 243.444 324.631C248.687 324.631 252.562 318.268 253.702 307.414H260.388C258.793 326.877 252.106 339.604 243.52 339.604ZM243.444 252.017C237.214 252.017 232.883 262.31 231.667 278.78H254.006C253.626 262.497 249.675 252.017 243.444 252.017Z" stroke="#99D0FF" stroke-width="80.325" stroke-linejoin="round" mask="url(#path-1-outside-1_225_241)"/>
<path d="M269.78 336.796V239.852H276.162V247.525C277.378 240.975 279.886 237.045 283.077 237.045C286.268 237.045 288.927 241.911 290.143 249.21C291.511 242.098 294.55 237.045 297.817 237.045C303.364 237.045 307.163 247.151 307.163 262.123V336.796H300.552V264.556C300.552 257.257 298.805 252.391 296.297 252.391C293.79 252.391 291.814 257.819 291.814 264.556V336.796H285.204V264.556C285.204 257.257 283.381 252.391 280.721 252.391C278.29 252.391 276.39 257.632 276.39 264.556V336.796H269.78Z" stroke="#99D0FF" stroke-width="80.325" stroke-linejoin="round" mask="url(#path-1-outside-1_225_241)"/>
</svg>
