<svg preserveAspectRatio="none" width="100%" height="100%" overflow="visible" style="display: block;" viewBox="0 0 347.325 415.325" fill="none" xmlns="http://www.w3.org/2000/svg">
<g id="AI Visual System">
<mask id="path-1-outside-1_0_10" maskUnits="userSpaceOnUse" x="-0.837276" y="-0.837502" width="349" height="417" fill="black">
<rect fill="white" x="-0.837276" y="-0.837502" width="349" height="417"/>
<path d="M40.1627 47.6485H47.3049L60.8295 157.132L74.0501 47.6485H81.1923L64.7045 182.397H56.8785L40.1627 47.6485Z"/>
<path d="M106.236 68.0479C103.045 68.0479 100.538 61.872 100.538 54.1988C100.538 46.3385 103.045 40.1625 106.236 40.1625C109.428 40.1625 111.935 46.3385 111.935 54.1988C111.935 61.872 109.428 68.0479 106.236 68.0479ZM88.7607 182.397V167.799H102.893V100.051H89.5205V85.4529H109.503V167.799H123.712V182.397H88.7607Z"/>
<path d="M152.327 185.204C142.298 185.204 135.003 171.542 134.775 151.33H141.31C141.766 163.682 146.173 171.168 152.631 171.168C158.026 171.168 162.128 165.366 162.128 156.383C162.128 149.833 159.925 144.967 156.582 143.095L146.324 138.042C139.942 134.861 136.447 125.129 136.447 112.215C136.447 93.6875 142.677 82.6457 151.871 82.6457C160.913 82.6457 167.675 95.559 167.979 114.087H161.521C161.141 103.981 157.038 96.6819 151.719 96.6819C146.476 96.6819 143.133 102.858 143.133 110.718C143.133 117.269 144.957 121.199 148.148 123.07L158.709 128.31C165.092 131.679 168.815 141.037 168.815 155.26C168.815 173.414 162.28 185.204 152.327 185.204Z"/>
<path d="M213.69 85.4529V182.397H207.307V169.296C205.028 178.28 200.165 185.204 195.53 185.204C186.641 185.204 181.018 170.606 181.018 147.4V85.4529H187.628V144.405C187.628 160.126 190.972 169.858 196.366 169.858C202.369 169.858 207.079 157.693 207.079 141.785V85.4529H213.69Z"/>
<path d="M238.582 185.204C230.832 185.204 225.589 173.975 225.589 157.132C225.589 138.042 231.971 125.503 242.913 122.322L252.182 119.701V118.953C252.182 104.917 248.611 96.8691 242.761 96.8691C237.366 96.8691 232.959 104.542 232.503 114.836H226.121C226.729 95.7462 233.567 82.6457 242.913 82.6457C252.41 82.6457 258.565 96.8691 258.565 119.514V153.576C258.565 161.436 258.641 169.858 258.869 182.397H252.486V165.179C249.447 178.28 244.66 185.204 238.582 185.204ZM232.047 156.196C232.047 164.992 235.011 170.981 239.494 170.981C246.864 170.981 252.182 156.757 252.182 136.171V132.802L242.989 135.796C235.922 138.042 232.047 145.154 232.047 156.196Z"/>
<path d="M270.996 182.397V167.799H285.128V57.5675H271.756V42.9698H291.739V167.799H305.947V182.397H270.996Z"/>
<path d="M61.7413 339.604C49.6603 339.604 42.2142 323.135 41.6823 294.875H48.4446C48.7486 313.216 53.9152 324.632 61.6653 324.632C68.3516 324.632 72.6825 315.649 72.6825 301.799C72.6825 291.319 69.9472 283.646 64.7805 279.529L55.2829 272.417C47.2289 266.241 43.202 254.825 43.202 237.794C43.202 216.085 50.7241 199.241 60.4496 199.241C71.0109 199.241 78.3051 214.962 78.9889 239.104H72.2266C71.6947 223.945 67.1359 214.213 60.6016 214.213C54.903 214.213 50.1922 224.132 50.1922 236.297C50.1922 246.216 52.6996 252.953 57.9422 256.696L67.3638 263.808C75.4938 269.797 79.6727 282.897 79.6727 301.987C79.6727 323.509 71.9987 339.604 61.7413 339.604Z"/>
<path d="M96.4348 375.162L103.273 331.556L86.4813 239.853H93.6995L106.616 310.408L117.633 239.853H124.472L103.349 375.162H96.4348Z"/>
<path d="M152.327 339.604C142.298 339.604 135.003 325.942 134.775 305.73H141.31C141.766 318.082 146.173 325.568 152.631 325.568C158.026 325.568 162.128 319.766 162.128 310.783C162.128 304.232 159.925 299.367 156.582 297.495L146.324 292.442C139.942 289.26 136.447 279.529 136.447 266.615C136.447 248.087 142.677 237.045 151.871 237.045C160.913 237.045 167.675 249.959 167.979 268.487H161.521C161.141 258.381 157.038 251.082 151.719 251.082C146.476 251.082 143.133 257.258 143.133 265.118C143.133 271.668 144.957 275.598 148.148 277.47L158.709 282.71C165.092 286.079 168.815 295.436 168.815 309.66C168.815 327.813 162.28 339.604 152.327 339.604Z"/>
<path d="M179.118 254.45V239.853H192.567V211.78L199.177 203.358V239.853H215.589V254.45H199.177V299.741C199.177 314.9 202.749 323.883 208.751 323.883C211.41 323.883 213.994 322.573 216.349 320.327V334.925C214.146 337.358 211.03 338.855 208.143 338.855C198.342 338.855 192.567 324.258 192.567 300.115V254.45H179.118Z"/>
<path d="M243.521 339.604C232.579 339.604 224.981 318.456 224.981 288.325C224.981 258.568 232.731 237.045 243.521 237.045C254.766 237.045 262.136 260.814 260.692 292.255H231.44C231.971 312.28 236.454 324.632 243.445 324.632C248.687 324.632 252.562 318.269 253.702 307.414H260.388C258.793 326.878 252.106 339.604 243.521 339.604ZM243.445 252.017C237.214 252.017 232.883 262.311 231.668 278.78H254.006C253.626 262.498 249.675 252.017 243.445 252.017Z"/>
<path d="M269.78 336.797V239.853H276.163V247.526C277.378 240.976 279.886 237.045 283.077 237.045C286.268 237.045 288.927 241.911 290.143 249.21C291.511 242.098 294.55 237.045 297.817 237.045C303.364 237.045 307.163 247.152 307.163 262.124V336.797H300.552V264.557C300.552 257.258 298.805 252.392 296.297 252.392C293.79 252.392 291.815 257.819 291.815 264.557V336.797H285.204V264.557C285.204 257.258 283.381 252.392 280.721 252.392C278.29 252.392 276.391 257.632 276.391 264.557V336.797H269.78Z"/>
</mask>
<path d="M40.1627 47.6485H47.3049L60.8295 157.132L74.0501 47.6485H81.1923L64.7045 182.397H56.8785L40.1627 47.6485Z" fill="var(--fill-0, black)"/>
<path d="M106.236 68.0479C103.045 68.0479 100.538 61.872 100.538 54.1988C100.538 46.3385 103.045 40.1625 106.236 40.1625C109.428 40.1625 111.935 46.3385 111.935 54.1988C111.935 61.872 109.428 68.0479 106.236 68.0479ZM88.7607 182.397V167.799H102.893V100.051H89.5205V85.4529H109.503V167.799H123.712V182.397H88.7607Z" fill="var(--fill-0, black)"/>
<path d="M152.327 185.204C142.298 185.204 135.003 171.542 134.775 151.33H141.31C141.766 163.682 146.173 171.168 152.631 171.168C158.026 171.168 162.128 165.366 162.128 156.383C162.128 149.833 159.925 144.967 156.582 143.095L146.324 138.042C139.942 134.861 136.447 125.129 136.447 112.215C136.447 93.6875 142.677 82.6457 151.871 82.6457C160.913 82.6457 167.675 95.559 167.979 114.087H161.521C161.141 103.981 157.038 96.6819 151.719 96.6819C146.476 96.6819 143.133 102.858 143.133 110.718C143.133 117.269 144.957 121.199 148.148 123.07L158.709 128.31C165.092 131.679 168.815 141.037 168.815 155.26C168.815 173.414 162.28 185.204 152.327 185.204Z" fill="var(--fill-0, black)"/>
<path d="M213.69 85.4529V182.397H207.307V169.296C205.028 178.28 200.165 185.204 195.53 185.204C186.641 185.204 181.018 170.606 181.018 147.4V85.4529H187.628V144.405C187.628 160.126 190.972 169.858 196.366 169.858C202.369 169.858 207.079 157.693 207.079 141.785V85.4529H213.69Z" fill="var(--fill-0, black)"/>
<path d="M238.582 185.204C230.832 185.204 225.589 173.975 225.589 157.132C225.589 138.042 231.971 125.503 242.913 122.322L252.182 119.701V118.953C252.182 104.917 248.611 96.8691 242.761 96.8691C237.366 96.8691 232.959 104.542 232.503 114.836H226.121C226.729 95.7462 233.567 82.6457 242.913 82.6457C252.41 82.6457 258.565 96.8691 258.565 119.514V153.576C258.565 161.436 258.641 169.858 258.869 182.397H252.486V165.179C249.447 178.28 244.66 185.204 238.582 185.204ZM232.047 156.196C232.047 164.992 235.011 170.981 239.494 170.981C246.864 170.981 252.182 156.757 252.182 136.171V132.802L242.989 135.796C235.922 138.042 232.047 145.154 232.047 156.196Z" fill="var(--fill-0, black)"/>
<path d="M270.996 182.397V167.799H285.128V57.5675H271.756V42.9698H291.739V167.799H305.947V182.397H270.996Z" fill="var(--fill-0, black)"/>
<path d="M61.7413 339.604C49.6603 339.604 42.2142 323.135 41.6823 294.875H48.4446C48.7486 313.216 53.9152 324.632 61.6653 324.632C68.3516 324.632 72.6825 315.649 72.6825 301.799C72.6825 291.319 69.9472 283.646 64.7805 279.529L55.2829 272.417C47.2289 266.241 43.202 254.825 43.202 237.794C43.202 216.085 50.7241 199.241 60.4496 199.241C71.0109 199.241 78.3051 214.962 78.9889 239.104H72.2266C71.6947 223.945 67.1359 214.213 60.6016 214.213C54.903 214.213 50.1922 224.132 50.1922 236.297C50.1922 246.216 52.6996 252.953 57.9422 256.696L67.3638 263.808C75.4938 269.797 79.6727 282.897 79.6727 301.987C79.6727 323.509 71.9987 339.604 61.7413 339.604Z" fill="var(--fill-0, black)"/>
<path d="M96.4348 375.162L103.273 331.556L86.4813 239.853H93.6995L106.616 310.408L117.633 239.853H124.472L103.349 375.162H96.4348Z" fill="var(--fill-0, black)"/>
<path d="M152.327 339.604C142.298 339.604 135.003 325.942 134.775 305.73H141.31C141.766 318.082 146.173 325.568 152.631 325.568C158.026 325.568 162.128 319.766 162.128 310.783C162.128 304.232 159.925 299.367 156.582 297.495L146.324 292.442C139.942 289.26 136.447 279.529 136.447 266.615C136.447 248.087 142.677 237.045 151.871 237.045C160.913 237.045 167.675 249.959 167.979 268.487H161.521C161.141 258.381 157.038 251.082 151.719 251.082C146.476 251.082 143.133 257.258 143.133 265.118C143.133 271.668 144.957 275.598 148.148 277.47L158.709 282.71C165.092 286.079 168.815 295.436 168.815 309.66C168.815 327.813 162.28 339.604 152.327 339.604Z" fill="var(--fill-0, black)"/>
<path d="M179.118 254.45V239.853H192.567V211.78L199.177 203.358V239.853H215.589V254.45H199.177V299.741C199.177 314.9 202.749 323.883 208.751 323.883C211.41 323.883 213.994 322.573 216.349 320.327V334.925C214.146 337.358 211.03 338.855 208.143 338.855C198.342 338.855 192.567 324.258 192.567 300.115V254.45H179.118Z" fill="var(--fill-0, black)"/>
<path d="M243.521 339.604C232.579 339.604 224.981 318.456 224.981 288.325C224.981 258.568 232.731 237.045 243.521 237.045C254.766 237.045 262.136 260.814 260.692 292.255H231.44C231.971 312.28 236.454 324.632 243.445 324.632C248.687 324.632 252.562 318.269 253.702 307.414H260.388C258.793 326.878 252.106 339.604 243.521 339.604ZM243.445 252.017C237.214 252.017 232.883 262.311 231.668 278.78H254.006C253.626 262.498 249.675 252.017 243.445 252.017Z" fill="var(--fill-0, black)"/>
<path d="M269.78 336.797V239.853H276.163V247.526C277.378 240.976 279.886 237.045 283.077 237.045C286.268 237.045 288.927 241.911 290.143 249.21C291.511 242.098 294.55 237.045 297.817 237.045C303.364 237.045 307.163 247.152 307.163 262.124V336.797H300.552V264.557C300.552 257.258 298.805 252.392 296.297 252.392C293.79 252.392 291.815 257.819 291.815 264.557V336.797H285.204V264.557C285.204 257.258 283.381 252.392 280.721 252.392C278.29 252.392 276.391 257.632 276.391 264.557V336.797H269.78Z" fill="var(--fill-0, black)"/>
<path d="M40.1627 47.6485H47.3049L60.8295 157.132L74.0501 47.6485H81.1923L64.7045 182.397H56.8785L40.1627 47.6485Z" stroke="var(--stroke-0, #99D0FF)" stroke-width="80.325" stroke-linejoin="round" mask="url(#path-1-outside-1_0_10)"/>
<path d="M106.236 68.0479C103.045 68.0479 100.538 61.872 100.538 54.1988C100.538 46.3385 103.045 40.1625 106.236 40.1625C109.428 40.1625 111.935 46.3385 111.935 54.1988C111.935 61.872 109.428 68.0479 106.236 68.0479ZM88.7607 182.397V167.799H102.893V100.051H89.5205V85.4529H109.503V167.799H123.712V182.397H88.7607Z" stroke="var(--stroke-0, #99D0FF)" stroke-width="80.325" stroke-linejoin="round" mask="url(#path-1-outside-1_0_10)"/>
<path d="M152.327 185.204C142.298 185.204 135.003 171.542 134.775 151.33H141.31C141.766 163.682 146.173 171.168 152.631 171.168C158.026 171.168 162.128 165.366 162.128 156.383C162.128 149.833 159.925 144.967 156.582 143.095L146.324 138.042C139.942 134.861 136.447 125.129 136.447 112.215C136.447 93.6875 142.677 82.6457 151.871 82.6457C160.913 82.6457 167.675 95.559 167.979 114.087H161.521C161.141 103.981 157.038 96.6819 151.719 96.6819C146.476 96.6819 143.133 102.858 143.133 110.718C143.133 117.269 144.957 121.199 148.148 123.07L158.709 128.31C165.092 131.679 168.815 141.037 168.815 155.26C168.815 173.414 162.28 185.204 152.327 185.204Z" stroke="var(--stroke-0, #99D0FF)" stroke-width="80.325" stroke-linejoin="round" mask="url(#path-1-outside-1_0_10)"/>
<path d="M213.69 85.4529V182.397H207.307V169.296C205.028 178.28 200.165 185.204 195.53 185.204C186.641 185.204 181.018 170.606 181.018 147.4V85.4529H187.628V144.405C187.628 160.126 190.972 169.858 196.366 169.858C202.369 169.858 207.079 157.693 207.079 141.785V85.4529H213.69Z" stroke="var(--stroke-0, #99D0FF)" stroke-width="80.325" stroke-linejoin="round" mask="url(#path-1-outside-1_0_10)"/>
<path d="M238.582 185.204C230.832 185.204 225.589 173.975 225.589 157.132C225.589 138.042 231.971 125.503 242.913 122.322L252.182 119.701V118.953C252.182 104.917 248.611 96.8691 242.761 96.8691C237.366 96.8691 232.959 104.542 232.503 114.836H226.121C226.729 95.7462 233.567 82.6457 242.913 82.6457C252.41 82.6457 258.565 96.8691 258.565 119.514V153.576C258.565 161.436 258.641 169.858 258.869 182.397H252.486V165.179C249.447 178.28 244.66 185.204 238.582 185.204ZM232.047 156.196C232.047 164.992 235.011 170.981 239.494 170.981C246.864 170.981 252.182 156.757 252.182 136.171V132.802L242.989 135.796C235.922 138.042 232.047 145.154 232.047 156.196Z" stroke="var(--stroke-0, #99D0FF)" stroke-width="80.325" stroke-linejoin="round" mask="url(#path-1-outside-1_0_10)"/>
<path d="M270.996 182.397V167.799H285.128V57.5675H271.756V42.9698H291.739V167.799H305.947V182.397H270.996Z" stroke="var(--stroke-0, #99D0FF)" stroke-width="80.325" stroke-linejoin="round" mask="url(#path-1-outside-1_0_10)"/>
<path d="M61.7413 339.604C49.6603 339.604 42.2142 323.135 41.6823 294.875H48.4446C48.7486 313.216 53.9152 324.632 61.6653 324.632C68.3516 324.632 72.6825 315.649 72.6825 301.799C72.6825 291.319 69.9472 283.646 64.7805 279.529L55.2829 272.417C47.2289 266.241 43.202 254.825 43.202 237.794C43.202 216.085 50.7241 199.241 60.4496 199.241C71.0109 199.241 78.3051 214.962 78.9889 239.104H72.2266C71.6947 223.945 67.1359 214.213 60.6016 214.213C54.903 214.213 50.1922 224.132 50.1922 236.297C50.1922 246.216 52.6996 252.953 57.9422 256.696L67.3638 263.808C75.4938 269.797 79.6727 282.897 79.6727 301.987C79.6727 323.509 71.9987 339.604 61.7413 339.604Z" stroke="var(--stroke-0, #99D0FF)" stroke-width="80.325" stroke-linejoin="round" mask="url(#path-1-outside-1_0_10)"/>
<path d="M96.4348 375.162L103.273 331.556L86.4813 239.853H93.6995L106.616 310.408L117.633 239.853H124.472L103.349 375.162H96.4348Z" stroke="var(--stroke-0, #99D0FF)" stroke-width="80.325" stroke-linejoin="round" mask="url(#path-1-outside-1_0_10)"/>
<path d="M152.327 339.604C142.298 339.604 135.003 325.942 134.775 305.73H141.31C141.766 318.082 146.173 325.568 152.631 325.568C158.026 325.568 162.128 319.766 162.128 310.783C162.128 304.232 159.925 299.367 156.582 297.495L146.324 292.442C139.942 289.26 136.447 279.529 136.447 266.615C136.447 248.087 142.677 237.045 151.871 237.045C160.913 237.045 167.675 249.959 167.979 268.487H161.521C161.141 258.381 157.038 251.082 151.719 251.082C146.476 251.082 143.133 257.258 143.133 265.118C143.133 271.668 144.957 275.598 148.148 277.47L158.709 282.71C165.092 286.079 168.815 295.436 168.815 309.66C168.815 327.813 162.28 339.604 152.327 339.604Z" stroke="var(--stroke-0, #99D0FF)" stroke-width="80.325" stroke-linejoin="round" mask="url(#path-1-outside-1_0_10)"/>
<path d="M179.118 254.45V239.853H192.567V211.78L199.177 203.358V239.853H215.589V254.45H199.177V299.741C199.177 314.9 202.749 323.883 208.751 323.883C211.41 323.883 213.994 322.573 216.349 320.327V334.925C214.146 337.358 211.03 338.855 208.143 338.855C198.342 338.855 192.567 324.258 192.567 300.115V254.45H179.118Z" stroke="var(--stroke-0, #99D0FF)" stroke-width="80.325" stroke-linejoin="round" mask="url(#path-1-outside-1_0_10)"/>
<path d="M243.521 339.604C232.579 339.604 224.981 318.456 224.981 288.325C224.981 258.568 232.731 237.045 243.521 237.045C254.766 237.045 262.136 260.814 260.692 292.255H231.44C231.971 312.28 236.454 324.632 243.445 324.632C248.687 324.632 252.562 318.269 253.702 307.414H260.388C258.793 326.878 252.106 339.604 243.521 339.604ZM243.445 252.017C237.214 252.017 232.883 262.311 231.668 278.78H254.006C253.626 262.498 249.675 252.017 243.445 252.017Z" stroke="var(--stroke-0, #99D0FF)" stroke-width="80.325" stroke-linejoin="round" mask="url(#path-1-outside-1_0_10)"/>
<path d="M269.78 336.797V239.853H276.163V247.526C277.378 240.976 279.886 237.045 283.077 237.045C286.268 237.045 288.927 241.911 290.143 249.21C291.511 242.098 294.55 237.045 297.817 237.045C303.364 237.045 307.163 247.152 307.163 262.124V336.797H300.552V264.557C300.552 257.258 298.805 252.392 296.297 252.392C293.79 252.392 291.815 257.819 291.815 264.557V336.797H285.204V264.557C285.204 257.258 283.381 252.392 280.721 252.392C278.29 252.392 276.391 257.632 276.391 264.557V336.797H269.78Z" stroke="var(--stroke-0, #99D0FF)" stroke-width="80.325" stroke-linejoin="round" mask="url(#path-1-outside-1_0_10)"/>
</g>
</svg>
