<svg width="541" height="423" viewBox="0 0 541 423" fill="none" xmlns="http://www.w3.org/2000/svg">
<mask id="path-1-outside-1_225_425" maskUnits="userSpaceOnUse" x="-1" y="0" width="542" height="423" fill="black">
<rect fill="white" x="-1" width="542" height="423"/>
<path d="M41 195.616L56.5687 41H63.8577L79.2141 195.616H72.7743L69.0236 157.176H51.2612L47.4398 195.616H41ZM52.9596 140.212H67.396L60.2486 66.7693L52.9596 140.212Z"/>
<path d="M86.2631 195.616V177.792H99.4257V58.8237H86.9708V41H118.108V58.8237H105.653V177.792H118.816V195.616H86.2631Z"/>
<path d="M60.6732 341.199C50.4827 341.199 43.4061 316.933 43.4061 282.359C43.4061 248.215 50.6243 223.519 60.6732 223.519C71.1467 223.519 78.011 250.791 76.6665 286.868H49.4212C49.9166 309.846 54.0919 324.019 60.6024 324.019C65.4853 324.019 69.0944 316.718 70.1559 304.263H76.3834C74.8973 326.596 68.6698 341.199 60.6732 341.199ZM60.6024 240.699C54.7995 240.699 50.7658 252.509 49.6335 271.407H70.439C70.0851 252.724 66.4053 240.699 60.6024 240.699Z"/>
<path d="M85.2016 226.74H92.2783L102.539 268.186L112.801 226.74H119.877L106.078 282.359L119.877 337.978H112.801L102.539 296.747L92.2783 337.978H85.2016L99.1427 282.359L85.2016 226.74Z"/>
<path d="M146.387 223.519C154.95 223.519 161.956 244.779 161.956 282.359C161.956 319.939 154.95 341.199 146.387 341.199C141.292 341.199 137.541 332.394 135.56 322.086V382H129.403V226.74H135.348V243.705C137.258 233.397 140.867 223.519 146.387 223.519ZM145.68 241.558C140.018 241.558 135.56 256.16 135.56 282.359C135.56 308.987 140.018 322.945 145.68 322.945C151.341 322.945 155.728 309.202 155.728 282.359C155.728 255.731 151.341 241.558 145.68 241.558Z"/>
<path d="M171.128 337.978V321.227H184.291V194.743H171.836V177.993H190.447V321.227H203.681V337.978H171.128Z"/>
<path d="M229.837 341.199C219.717 341.199 212.853 317.362 212.853 282.359C212.853 247.57 219.788 223.519 229.837 223.519C239.956 223.519 246.821 247.356 246.821 282.359C246.821 317.362 239.956 341.199 229.837 341.199ZM229.837 324.019C236.277 324.019 240.664 307.269 240.664 282.359C240.664 257.449 236.347 240.699 229.837 240.699C223.326 240.699 219.009 257.449 219.009 282.359C219.009 307.484 223.326 324.019 229.837 324.019Z"/>
<path d="M255.285 337.978V321.227H264.06V243.49H255.993V226.74H270.005V246.926C271.703 234.9 276.444 225.237 281.61 225.237C284.229 225.237 287.13 226.525 289.253 229.961V249.288C287.059 245.852 284.087 244.564 281.469 244.564C274.888 244.564 270.217 260.884 270.217 284.077V321.227H282.884V337.978H255.285Z"/>
<path d="M310.668 341.199C303.45 341.199 298.567 328.314 298.567 308.987C298.567 287.083 304.511 272.695 314.702 269.045L323.335 266.038V265.179C323.335 249.074 320.009 239.84 314.56 239.84C309.536 239.84 305.431 248.644 305.007 260.455H299.062C299.628 238.551 305.997 223.519 314.702 223.519C323.547 223.519 329.28 239.84 329.28 265.824V304.907C329.28 313.926 329.35 323.59 329.563 337.978H323.618V318.221C320.788 333.253 316.329 341.199 310.668 341.199ZM304.582 307.913C304.582 318.006 307.342 324.878 311.517 324.878C318.381 324.878 323.335 308.558 323.335 284.936V281.07L314.772 284.506C308.191 287.083 304.582 295.243 304.582 307.913Z"/>
<path d="M340.15 243.49V226.74H352.676V194.529L358.832 184.865V226.74H374.118V243.49H358.832V295.458C358.832 312.852 362.158 323.16 367.749 323.16C370.226 323.16 372.632 321.657 374.826 319.08V335.83C372.773 338.622 369.872 340.34 367.183 340.34C358.054 340.34 352.676 323.59 352.676 295.888V243.49H340.15Z"/>
<path d="M399.566 206.769C396.594 206.769 394.259 199.682 394.259 190.878C394.259 181.859 396.594 174.772 399.566 174.772C402.539 174.772 404.874 181.859 404.874 190.878C404.874 199.682 402.539 206.769 399.566 206.769ZM383.29 337.978V321.227H396.453V243.49H383.998V226.74H402.609V321.227H415.843V337.978H383.29Z"/>
<path d="M441.999 341.199C431.879 341.199 425.015 317.362 425.015 282.359C425.015 247.57 431.95 223.519 441.999 223.519C452.119 223.519 458.983 247.356 458.983 282.359C458.983 317.362 452.119 341.199 441.999 341.199ZM441.999 324.019C448.439 324.019 452.826 307.269 452.826 282.359C452.826 257.449 448.509 240.699 441.999 240.699C435.488 240.699 431.172 257.449 431.172 282.359C431.172 307.484 435.488 324.019 441.999 324.019Z"/>
<path d="M468.863 337.978V226.74H474.807V241.772C476.93 231.465 481.671 223.519 486.13 223.519C494.622 223.519 500 240.269 500 266.897V337.978H493.843V270.333C493.843 252.509 490.588 241.128 485.351 241.128C479.619 241.128 475.019 255.301 475.019 273.34V337.978H468.863Z"/>
</mask>
<path d="M41 195.616L56.5687 41H63.8577L79.2141 195.616H72.7743L69.0236 157.176H51.2612L47.4398 195.616H41ZM52.9596 140.212H67.396L60.2486 66.7693L52.9596 140.212Z" fill="black"/>
<path d="M86.2631 195.616V177.792H99.4257V58.8237H86.9708V41H118.108V58.8237H105.653V177.792H118.816V195.616H86.2631Z" fill="black"/>
<path d="M60.6732 341.199C50.4827 341.199 43.4061 316.933 43.4061 282.359C43.4061 248.215 50.6243 223.519 60.6732 223.519C71.1467 223.519 78.011 250.791 76.6665 286.868H49.4212C49.9166 309.846 54.0919 324.019 60.6024 324.019C65.4853 324.019 69.0944 316.718 70.1559 304.263H76.3834C74.8973 326.596 68.6698 341.199 60.6732 341.199ZM60.6024 240.699C54.7995 240.699 50.7658 252.509 49.6335 271.407H70.439C70.0851 252.724 66.4053 240.699 60.6024 240.699Z" fill="black"/>
<path d="M85.2016 226.74H92.2783L102.539 268.186L112.801 226.74H119.877L106.078 282.359L119.877 337.978H112.801L102.539 296.747L92.2783 337.978H85.2016L99.1427 282.359L85.2016 226.74Z" fill="black"/>
<path d="M146.387 223.519C154.95 223.519 161.956 244.779 161.956 282.359C161.956 319.939 154.95 341.199 146.387 341.199C141.292 341.199 137.541 332.394 135.56 322.086V382H129.403V226.74H135.348V243.705C137.258 233.397 140.867 223.519 146.387 223.519ZM145.68 241.558C140.018 241.558 135.56 256.16 135.56 282.359C135.56 308.987 140.018 322.945 145.68 322.945C151.341 322.945 155.728 309.202 155.728 282.359C155.728 255.731 151.341 241.558 145.68 241.558Z" fill="black"/>
<path d="M171.128 337.978V321.227H184.291V194.743H171.836V177.993H190.447V321.227H203.681V337.978H171.128Z" fill="black"/>
<path d="M229.837 341.199C219.717 341.199 212.853 317.362 212.853 282.359C212.853 247.57 219.788 223.519 229.837 223.519C239.956 223.519 246.821 247.356 246.821 282.359C246.821 317.362 239.956 341.199 229.837 341.199ZM229.837 324.019C236.277 324.019 240.664 307.269 240.664 282.359C240.664 257.449 236.347 240.699 229.837 240.699C223.326 240.699 219.009 257.449 219.009 282.359C219.009 307.484 223.326 324.019 229.837 324.019Z" fill="black"/>
<path d="M255.285 337.978V321.227H264.06V243.49H255.993V226.74H270.005V246.926C271.703 234.9 276.444 225.237 281.61 225.237C284.229 225.237 287.13 226.525 289.253 229.961V249.288C287.059 245.852 284.087 244.564 281.469 244.564C274.888 244.564 270.217 260.884 270.217 284.077V321.227H282.884V337.978H255.285Z" fill="black"/>
<path d="M310.668 341.199C303.45 341.199 298.567 328.314 298.567 308.987C298.567 287.083 304.511 272.695 314.702 269.045L323.335 266.038V265.179C323.335 249.074 320.009 239.84 314.56 239.84C309.536 239.84 305.431 248.644 305.007 260.455H299.062C299.628 238.551 305.997 223.519 314.702 223.519C323.547 223.519 329.28 239.84 329.28 265.824V304.907C329.28 313.926 329.35 323.59 329.563 337.978H323.618V318.221C320.788 333.253 316.329 341.199 310.668 341.199ZM304.582 307.913C304.582 318.006 307.342 324.878 311.517 324.878C318.381 324.878 323.335 308.558 323.335 284.936V281.07L314.772 284.506C308.191 287.083 304.582 295.243 304.582 307.913Z" fill="black"/>
<path d="M340.15 243.49V226.74H352.676V194.529L358.832 184.865V226.74H374.118V243.49H358.832V295.458C358.832 312.852 362.158 323.16 367.749 323.16C370.226 323.16 372.632 321.657 374.826 319.08V335.83C372.773 338.622 369.872 340.34 367.183 340.34C358.054 340.34 352.676 323.59 352.676 295.888V243.49H340.15Z" fill="black"/>
<path d="M399.566 206.769C396.594 206.769 394.259 199.682 394.259 190.878C394.259 181.859 396.594 174.772 399.566 174.772C402.539 174.772 404.874 181.859 404.874 190.878C404.874 199.682 402.539 206.769 399.566 206.769ZM383.29 337.978V321.227H396.453V243.49H383.998V226.74H402.609V321.227H415.843V337.978H383.29Z" fill="black"/>
<path d="M441.999 341.199C431.879 341.199 425.015 317.362 425.015 282.359C425.015 247.57 431.95 223.519 441.999 223.519C452.119 223.519 458.983 247.356 458.983 282.359C458.983 317.362 452.119 341.199 441.999 341.199ZM441.999 324.019C448.439 324.019 452.826 307.269 452.826 282.359C452.826 257.449 448.509 240.699 441.999 240.699C435.488 240.699 431.172 257.449 431.172 282.359C431.172 307.484 435.488 324.019 441.999 324.019Z" fill="black"/>
<path d="M468.863 337.978V226.74H474.807V241.772C476.93 231.465 481.671 223.519 486.13 223.519C494.622 223.519 500 240.269 500 266.897V337.978H493.843V270.333C493.843 252.509 490.588 241.128 485.351 241.128C479.619 241.128 475.019 255.301 475.019 273.34V337.978H468.863Z" fill="black"/>
<path d="M41 195.616L56.5687 41H63.8577L79.2141 195.616H72.7743L69.0236 157.176H51.2612L47.4398 195.616H41ZM52.9596 140.212H67.396L60.2486 66.7693L52.9596 140.212Z" stroke="#E1FF99" stroke-width="82" stroke-linejoin="round" mask="url(#path-1-outside-1_225_425)"/>
<path d="M86.2631 195.616V177.792H99.4257V58.8237H86.9708V41H118.108V58.8237H105.653V177.792H118.816V195.616H86.2631Z" stroke="#E1FF99" stroke-width="82" stroke-linejoin="round" mask="url(#path-1-outside-1_225_425)"/>
<path d="M60.6732 341.199C50.4827 341.199 43.4061 316.933 43.4061 282.359C43.4061 248.215 50.6243 223.519 60.6732 223.519C71.1467 223.519 78.011 250.791 76.6665 286.868H49.4212C49.9166 309.846 54.0919 324.019 60.6024 324.019C65.4853 324.019 69.0944 316.718 70.1559 304.263H76.3834C74.8973 326.596 68.6698 341.199 60.6732 341.199ZM60.6024 240.699C54.7995 240.699 50.7658 252.509 49.6335 271.407H70.439C70.0851 252.724 66.4053 240.699 60.6024 240.699Z" stroke="#E1FF99" stroke-width="82" stroke-linejoin="round" mask="url(#path-1-outside-1_225_425)"/>
<path d="M85.2016 226.74H92.2783L102.539 268.186L112.801 226.74H119.877L106.078 282.359L119.877 337.978H112.801L102.539 296.747L92.2783 337.978H85.2016L99.1427 282.359L85.2016 226.74Z" stroke="#E1FF99" stroke-width="82" stroke-linejoin="round" mask="url(#path-1-outside-1_225_425)"/>
<path d="M146.387 223.519C154.95 223.519 161.956 244.779 161.956 282.359C161.956 319.939 154.95 341.199 146.387 341.199C141.292 341.199 137.541 332.394 135.56 322.086V382H129.403V226.74H135.348V243.705C137.258 233.397 140.867 223.519 146.387 223.519ZM145.68 241.558C140.018 241.558 135.56 256.16 135.56 282.359C135.56 308.987 140.018 322.945 145.68 322.945C151.341 322.945 155.728 309.202 155.728 282.359C155.728 255.731 151.341 241.558 145.68 241.558Z" stroke="#E1FF99" stroke-width="82" stroke-linejoin="round" mask="url(#path-1-outside-1_225_425)"/>
<path d="M171.128 337.978V321.227H184.291V194.743H171.836V177.993H190.447V321.227H203.681V337.978H171.128Z" stroke="#E1FF99" stroke-width="82" stroke-linejoin="round" mask="url(#path-1-outside-1_225_425)"/>
<path d="M229.837 341.199C219.717 341.199 212.853 317.362 212.853 282.359C212.853 247.57 219.788 223.519 229.837 223.519C239.956 223.519 246.821 247.356 246.821 282.359C246.821 317.362 239.956 341.199 229.837 341.199ZM229.837 324.019C236.277 324.019 240.664 307.269 240.664 282.359C240.664 257.449 236.347 240.699 229.837 240.699C223.326 240.699 219.009 257.449 219.009 282.359C219.009 307.484 223.326 324.019 229.837 324.019Z" stroke="#E1FF99" stroke-width="82" stroke-linejoin="round" mask="url(#path-1-outside-1_225_425)"/>
<path d="M255.285 337.978V321.227H264.06V243.49H255.993V226.74H270.005V246.926C271.703 234.9 276.444 225.237 281.61 225.237C284.229 225.237 287.13 226.525 289.253 229.961V249.288C287.059 245.852 284.087 244.564 281.469 244.564C274.888 244.564 270.217 260.884 270.217 284.077V321.227H282.884V337.978H255.285Z" stroke="#E1FF99" stroke-width="82" stroke-linejoin="round" mask="url(#path-1-outside-1_225_425)"/>
<path d="M310.668 341.199C303.45 341.199 298.567 328.314 298.567 308.987C298.567 287.083 304.511 272.695 314.702 269.045L323.335 266.038V265.179C323.335 249.074 320.009 239.84 314.56 239.84C309.536 239.84 305.431 248.644 305.007 260.455H299.062C299.628 238.551 305.997 223.519 314.702 223.519C323.547 223.519 329.28 239.84 329.28 265.824V304.907C329.28 313.926 329.35 323.59 329.563 337.978H323.618V318.221C320.788 333.253 316.329 341.199 310.668 341.199ZM304.582 307.913C304.582 318.006 307.342 324.878 311.517 324.878C318.381 324.878 323.335 308.558 323.335 284.936V281.07L314.772 284.506C308.191 287.083 304.582 295.243 304.582 307.913Z" stroke="#E1FF99" stroke-width="82" stroke-linejoin="round" mask="url(#path-1-outside-1_225_425)"/>
<path d="M340.15 243.49V226.74H352.676V194.529L358.832 184.865V226.74H374.118V243.49H358.832V295.458C358.832 312.852 362.158 323.16 367.749 323.16C370.226 323.16 372.632 321.657 374.826 319.08V335.83C372.773 338.622 369.872 340.34 367.183 340.34C358.054 340.34 352.676 323.59 352.676 295.888V243.49H340.15Z" stroke="#E1FF99" stroke-width="82" stroke-linejoin="round" mask="url(#path-1-outside-1_225_425)"/>
<path d="M399.566 206.769C396.594 206.769 394.259 199.682 394.259 190.878C394.259 181.859 396.594 174.772 399.566 174.772C402.539 174.772 404.874 181.859 404.874 190.878C404.874 199.682 402.539 206.769 399.566 206.769ZM383.29 337.978V321.227H396.453V243.49H383.998V226.74H402.609V321.227H415.843V337.978H383.29Z" stroke="#E1FF99" stroke-width="82" stroke-linejoin="round" mask="url(#path-1-outside-1_225_425)"/>
<path d="M441.999 341.199C431.879 341.199 425.015 317.362 425.015 282.359C425.015 247.57 431.95 223.519 441.999 223.519C452.119 223.519 458.983 247.356 458.983 282.359C458.983 317.362 452.119 341.199 441.999 341.199ZM441.999 324.019C448.439 324.019 452.826 307.269 452.826 282.359C452.826 257.449 448.509 240.699 441.999 240.699C435.488 240.699 431.172 257.449 431.172 282.359C431.172 307.484 435.488 324.019 441.999 324.019Z" stroke="#E1FF99" stroke-width="82" stroke-linejoin="round" mask="url(#path-1-outside-1_225_425)"/>
<path d="M468.863 337.978V226.74H474.807V241.772C476.93 231.465 481.671 223.519 486.13 223.519C494.622 223.519 500 240.269 500 266.897V337.978H493.843V270.333C493.843 252.509 490.588 241.128 485.351 241.128C479.619 241.128 475.019 255.301 475.019 273.34V337.978H468.863Z" stroke="#E1FF99" stroke-width="82" stroke-linejoin="round" mask="url(#path-1-outside-1_225_425)"/>
</svg>
